<svg width="91" height="93" viewBox="0 0 91 93" fill="none" xmlns="http://www.w3.org/2000/svg">
<path opacity="0.84" fill-rule="evenodd" clip-rule="evenodd" d="M87.3109 21.2373C84.4218 14.5115 79.328 8.77933 73.0177 5.03429C69.4443 2.89427 65.4909 1.44211 61.3854 0.677819C55.9874 -0.315762 50.3613 -0.0100447 45.1154 1.59497C38.8811 3.50571 33.2551 7.09789 28.9215 11.9894C24.0557 17.4923 20.9386 24.5238 20.2543 31.7846C19.9502 35.071 20.0262 38.4339 20.6345 41.7204C21.0146 43.7076 21.5468 45.6947 22.231 47.6819C22.6112 47.6819 22.9153 47.6819 23.2954 47.6819C21.6988 43.6311 21.0146 39.2746 21.0146 34.9182C21.0906 33.9246 21.0906 33.0074 21.1666 32.0139C21.4708 28.3452 22.4591 24.8295 23.9036 21.4666C26.4126 15.8108 30.442 10.9194 35.3839 7.4036C39.6414 4.34643 44.6593 2.28284 49.8292 1.51854C54.2388 0.907108 58.6484 1.05997 62.9059 2.05355C68.6841 3.42928 74.1581 6.33359 78.4156 10.4608C83.8896 15.5815 87.615 22.613 88.7554 30.0267C89.2876 33.3896 89.2876 36.8289 88.8314 40.1918C88.3753 43.784 87.2349 47.2233 85.7143 50.4333C83.2814 55.4012 79.556 59.8341 75.0704 63.0442C74.9944 63.1206 74.8423 63.197 74.9184 63.3499C74.9184 63.732 74.9184 64.0378 74.9184 64.4199C76.667 63.2735 78.3396 61.8213 79.8602 60.3691C85.1821 55.0955 88.7554 48.064 89.8198 40.5739C90.8082 34.0774 89.8958 27.2752 87.3109 21.2373Z" fill="#369BE5"/>
<path opacity="0.84" fill-rule="evenodd" clip-rule="evenodd" d="M75.45 60.0634C75.8302 59.452 76.2103 58.917 76.5904 58.3055C77.0466 57.6177 76.9706 56.6241 76.5144 55.9362C77.2747 54.7898 78.035 53.5669 78.7953 52.4205C78.9473 52.1912 78.7953 51.8855 78.6432 51.7326C77.959 50.4333 77.1987 49.2105 76.5144 47.9112C76.4384 47.7583 76.3624 47.6819 76.2103 47.6054C76.4384 47.2233 76.5904 46.7647 76.5904 46.3061C76.5904 45.1597 76.5904 43.9368 76.5904 42.7904C76.5904 41.9497 76.0583 41.1089 75.298 40.8032C74.7658 40.5739 74.1576 40.6504 73.6254 40.6504C73.2452 40.6504 72.8651 40.8032 72.561 40.9561C72.561 39.4275 72.561 37.8225 72.561 36.2939C72.4849 32.7017 71.3445 29.1095 69.2157 26.2816C69.2157 25.0588 69.2157 23.8359 69.2157 22.613C69.2157 22.3073 69.0637 22.0016 68.7596 21.9252C68.3794 21.8487 68.0753 22.1545 68.0753 22.4602C68.0753 23.2245 68.0753 23.9888 68.0753 24.7531C65.8705 22.3073 62.9054 20.5494 59.6362 19.7087C59.6362 18.868 59.1801 18.0273 58.4198 17.6451C57.8876 17.3394 57.2033 17.4158 56.5951 17.4158C55.4547 17.4158 54.2383 17.4158 53.0978 17.4158C51.9574 17.4923 51.0451 18.5623 51.1211 19.7087C47.8519 20.5494 44.8868 22.3073 42.606 24.8295C42.606 23.9888 42.606 23.148 42.606 22.3073C42.53 21.6959 41.5416 21.6959 41.4656 22.3073C41.4656 23.6066 41.4656 24.9059 41.4656 26.2052C40.021 28.1924 39.0327 30.4853 38.5765 32.8546C38.0443 35.3003 38.2724 37.8989 38.2724 40.4211C37.6642 40.0389 36.8279 40.0389 36.1436 40.1154C35.2313 40.1918 34.395 41.0325 34.319 41.9497C34.2429 42.4082 34.319 42.9432 34.319 43.4018C32.8744 43.1725 31.4299 42.9432 29.9854 42.714C29.6813 41.4147 29.3011 40.1154 28.997 38.7396C30.0614 38.0518 30.5936 36.5996 30.2895 35.3767C30.1374 34.4596 29.9093 33.5424 29.7573 32.6253C29.5292 31.6317 28.8449 30.791 27.9326 30.4088C27.1723 30.0267 26.184 30.1031 25.4997 30.5617C24.8155 30.9438 24.2833 31.7081 24.1312 32.4724C23.9792 33.0074 24.0552 33.6189 24.2073 34.2303C24.4353 35.1475 24.5874 36.0646 24.8155 36.9818C25.2716 38.4339 26.7922 39.4275 28.2367 39.1218C28.6169 40.4975 28.921 41.8732 29.3011 43.249C29.3011 43.4018 29.4532 43.5547 29.6052 43.6311C31.2018 43.784 32.7984 44.1661 34.395 44.319C34.395 44.854 34.395 45.389 34.395 45.924C34.395 46.7647 34.9272 47.4526 35.6875 47.8347C36.2197 48.064 36.7518 47.9876 37.3601 47.9876C37.7402 47.9876 38.1203 47.8347 38.4245 47.6819C38.4245 52.5733 38.4245 57.4648 38.4245 62.3563C38.4245 64.267 38.3484 66.1778 38.8046 68.0121C39.1847 69.6935 40.021 71.2221 41.3135 72.3686C42.9101 73.8207 44.9629 74.5086 47.0156 74.9672C47.4718 75.12 48.004 75.12 48.4601 75.2729C48.4601 76.9543 48.4601 78.6358 48.4601 80.3936C47.6238 80.6229 47.0156 81.3872 47.0156 82.3044C47.0156 83.4508 47.0156 84.5973 47.0156 85.7437C47.0156 86.0494 47.0916 86.2787 47.3197 86.508C46.1033 86.6608 44.8868 87.043 43.7464 87.578C42.758 88.113 41.7697 88.7244 41.1615 89.718C40.7813 90.253 40.6293 90.9409 40.9334 91.4759C41.3135 92.0873 42.0738 92.3931 42.758 92.4695C44.1265 92.6988 45.4951 92.393 46.7875 92.0109C48.08 91.5523 49.3725 90.8645 50.3608 89.8709C50.817 89.3359 51.2732 88.648 51.1211 87.9601C51.0451 87.5016 50.6649 87.1959 50.3608 86.8901C50.5889 86.7373 50.741 86.6609 50.893 86.4316C51.1211 86.0494 51.0451 85.5908 51.1211 85.1323C51.1211 84.2151 51.1211 83.2215 51.1211 82.3044C51.1211 81.4636 50.4369 80.6994 49.6766 80.3936C49.6766 78.7122 49.6766 77.0307 49.6766 75.4257C51.5773 75.5786 53.554 75.655 55.4547 75.5786C57.6595 75.5786 59.8643 75.5786 61.9931 75.3493C61.9931 77.0307 61.9931 78.7122 61.9931 80.3936C61.4609 80.5465 60.9287 81.0051 60.7006 81.5401C60.4725 81.9222 60.4725 82.3808 60.4725 82.8394C60.4725 83.833 60.4725 84.8265 60.4725 85.8201C60.4725 86.3551 60.7767 86.8137 61.2328 86.9666C60.7767 87.2723 60.3965 87.8073 60.4725 88.3423C60.5486 89.183 61.2328 89.8709 61.841 90.4059C62.9815 91.323 64.35 91.9345 65.7945 92.3166C66.9349 92.6223 68.2274 92.6988 69.3678 92.4695C69.976 92.3166 70.6603 92.0109 70.8884 91.323C71.1164 90.7116 70.8884 90.1002 70.5082 89.6416C69.824 88.7244 68.8356 88.113 67.8472 87.578C66.7829 87.043 65.5664 86.6608 64.35 86.5844C64.578 86.2787 64.6541 85.8966 64.578 85.5144C64.578 84.4444 64.578 83.3744 64.578 82.3808C64.578 81.5401 63.8938 80.7758 63.1335 80.4701C63.1335 78.7122 63.1335 76.9543 63.1335 75.2729C65.4904 74.8907 67.9233 74.2029 69.7479 72.5978C71.0404 71.4514 71.9527 69.8464 72.4089 68.1649C73.0171 65.7956 72.7891 63.3499 72.8651 60.9806C73.5493 61.4392 74.8418 60.9806 75.45 60.0634ZM27.5525 38.2811C26.5641 38.3575 25.7278 37.4403 25.4997 36.5232C25.3477 35.5296 25.0436 34.536 24.8915 33.5424C24.7394 32.6253 25.2716 31.6317 26.184 31.326C27.2484 31.0203 28.3888 31.861 28.6169 32.8546C28.845 33.6953 28.921 34.536 29.1491 35.3767C29.3011 35.9882 29.3011 36.5996 29.073 37.1346C28.8449 37.8225 28.2367 38.3575 27.5525 38.2811ZM37.6642 46.9176C37.284 47.1469 36.8279 47.0704 36.3717 47.0704C35.7635 47.0704 35.1553 46.5354 35.2313 45.924C35.2313 44.7776 35.2313 43.5547 35.2313 42.4082C35.2313 41.8732 35.6114 41.3382 36.1436 41.2618C36.5998 41.2618 36.9799 41.1854 37.4361 41.2618C37.8923 41.4147 38.2724 41.8732 38.2724 42.4082C38.2724 43.5547 38.2724 44.7776 38.2724 45.924C38.2724 46.3061 37.9683 46.6883 37.6642 46.9176ZM53.3259 18.4859C54.6944 18.4859 56.139 18.4859 57.5075 18.4859C58.1157 18.4859 58.6479 18.9444 58.7239 19.5559C56.5191 19.1737 54.3143 19.1737 52.1095 19.5559C52.1855 18.9444 52.7177 18.4094 53.3259 18.4859ZM39.945 31.5553C41.0854 27.8102 43.6704 24.6002 46.9396 22.613C48.4601 21.6959 50.1327 21.008 51.8814 20.6259C54.1622 20.1673 56.5191 20.1673 58.7999 20.6259C61.9931 21.3137 65.0342 22.9952 67.239 25.4409C69.7479 28.116 71.2685 31.7081 71.4966 35.3767C71.5726 36.2939 71.5726 37.1346 71.5726 38.0518C66.2507 38.7396 60.9287 38.9689 55.6068 38.9689C50.1328 38.9689 44.5827 38.6632 39.1847 37.8989C39.1847 35.6825 39.2608 33.5424 39.945 31.5553ZM49.7526 88.648C49.2204 89.4123 48.3841 90.0237 47.6238 90.4059C46.1033 91.1702 44.2786 91.6288 42.53 91.3995C42.1498 91.323 41.6937 91.1702 41.4656 90.8645C41.3895 90.3295 41.8457 89.8709 42.2259 89.4887C43.5183 88.3423 45.1909 87.6544 46.8636 87.4251C47.7759 87.3487 48.9163 87.1959 49.7526 87.7309C50.1328 87.9601 49.9807 88.4187 49.7526 88.648ZM49.9047 82.3808C49.9047 83.5272 49.9047 84.5973 49.9047 85.7437C49.9047 86.0494 49.5245 86.0494 49.2964 86.0494C48.7642 85.973 48.2321 86.2023 47.7759 85.8201C47.6999 84.7501 47.7759 83.6801 47.7759 82.6101C47.6999 82.0751 48.004 81.5401 48.4601 81.3872C49.0684 81.0815 49.9047 81.6929 49.9047 82.3808ZM66.4787 88.0366C67.5431 88.4951 68.6075 89.0302 69.3678 89.9473C69.5959 90.253 69.824 90.5587 69.7479 90.9409C69.4438 91.323 68.9877 91.3995 68.6075 91.4759C67.239 91.6288 65.8705 91.3995 64.6541 90.9409C63.5897 90.4823 62.4493 89.9473 61.689 89.0302C61.4609 88.7244 61.2328 88.4187 61.3088 88.0366C61.5369 87.7309 61.9171 87.578 62.2972 87.5016C63.6657 87.2723 65.1102 87.5016 66.4787 88.0366ZM63.3616 82.3808C63.3616 83.5272 63.3616 84.6737 63.3616 85.8201C62.9054 86.1258 62.2972 85.973 61.765 85.973C61.5369 85.973 61.1568 86.0494 61.1568 85.6673C61.1568 84.5208 61.1568 83.4508 61.1568 82.3044C61.1568 81.8458 61.5369 81.3872 61.9171 81.2344C62.6773 81.1579 63.4376 81.6929 63.3616 82.3808ZM51.9574 41.4147C55.6828 41.4911 59.4081 41.4911 63.1335 41.3382C65.3383 41.2618 67.5431 41.1089 69.7479 40.8797C69.7479 40.8797 69.7479 40.8797 69.6719 40.8797C69.6719 40.8797 69.6719 40.8797 69.7479 40.8797C70.3562 40.8797 71.0404 40.7268 71.6486 40.7268C71.6486 43.3254 71.6486 46.0004 71.6486 48.599C70.5842 48.6755 69.5959 48.8283 68.5315 48.8283C68.6075 48.9047 68.6836 48.9812 68.7596 49.0576C69.7479 48.9812 70.7363 48.9047 71.6486 48.8283C71.6486 54.1019 71.6486 59.2991 71.6486 64.5728C71.6486 66.3306 71.4205 68.0885 70.5842 69.6171C69.976 70.84 68.9877 71.91 67.8472 72.5978C66.4787 73.4386 64.8822 73.8971 63.2856 74.2029C61.3088 74.5086 59.3321 74.6614 57.2794 74.6614C54.7704 74.6614 52.3376 74.7379 49.8286 74.5086C47.9279 74.3557 45.9512 74.05 44.1266 73.2857C42.53 72.5978 41.0854 71.5278 40.2491 69.9228C39.4128 68.3942 39.1847 66.7128 39.1847 65.0313C39.1847 59.6049 39.1847 54.1019 39.1847 48.6755C42.1498 49.0576 45.0389 49.2869 48.004 49.4397C48.156 49.3633 48.2321 49.2869 48.3841 49.2869C45.267 49.134 42.2259 48.9047 39.1847 48.5226C39.1847 45.924 39.1847 43.249 39.1847 40.6504C41.0854 40.8797 43.0622 41.1089 44.9629 41.1854C45.9512 41.2618 47.0156 41.3382 48.004 41.3382C48.6122 41.4147 49.2204 41.4147 49.9047 41.4147C49.9047 41.3382 49.9807 41.2618 49.9807 41.1854C47.0916 41.1089 44.2026 40.8797 41.3135 40.6504C40.6293 40.5739 39.869 40.4975 39.1847 40.4211C39.1847 39.8861 39.1847 39.3511 39.1847 38.8161C44.2786 39.5804 49.4485 39.8096 54.5424 39.8861C60.2445 39.9625 65.9465 39.7332 71.5726 39.0454C71.5726 39.5804 71.5726 40.1154 71.5726 40.6504C70.9644 40.6504 70.4322 40.8032 69.824 40.8032C69.3678 40.8797 68.9877 40.8797 68.5315 40.9561C68.7596 41.0325 68.9877 40.9561 69.2157 40.9561C68.9877 40.9561 68.7596 40.9561 68.5315 40.9561C63.5137 41.3382 58.4958 41.4911 53.478 41.4147C52.3376 41.4147 51.1211 41.4147 49.9807 41.3382C49.9807 41.4147 49.9047 41.4911 49.9047 41.5675C50.5889 41.4147 51.2732 41.4147 51.9574 41.4147ZM73.4733 41.5675C73.9295 41.5675 74.3856 41.4911 74.8418 41.5675C75.298 41.7204 75.6781 42.179 75.6021 42.714C75.6021 43.8604 75.6021 45.0833 75.6021 46.2297C75.6021 46.7647 75.2219 47.2233 74.6897 47.3762C74.3856 47.4526 74.0055 47.3762 73.7014 47.3762C73.0932 47.3762 72.4849 46.8411 72.561 46.2297C72.561 45.0833 72.561 43.8604 72.561 42.714C72.561 42.179 72.9411 41.7204 73.4733 41.5675ZM72.561 48.1404C72.8651 48.2933 73.1692 48.4462 73.5493 48.4462C74.2336 48.4462 74.9939 48.5226 75.6021 48.1404C76.3624 49.5162 77.1226 50.8155 77.8829 52.1912C77.1987 53.2612 76.5144 54.3312 75.8302 55.4012C75.1459 55.0955 74.3096 55.1719 73.7014 55.6305C73.2452 55.9362 72.9411 56.5477 72.637 57.0063C72.561 53.9491 72.561 51.0448 72.561 48.1404ZM72.713 58.5348C73.0171 57.9998 73.3212 57.5413 73.6254 57.0063C73.8534 56.6241 74.0815 56.3184 74.5377 56.1655C74.8418 56.0891 75.298 56.0891 75.5261 56.3184C75.9062 56.7005 75.9822 57.312 75.6781 57.7705C75.298 58.382 74.9178 58.9934 74.5377 59.6049C74.2336 60.0634 73.4733 60.3691 72.9411 59.987C72.561 59.6813 72.4849 58.9934 72.713 58.5348Z" fill="#369BE5"/>
<path opacity="0.84" fill-rule="evenodd" clip-rule="evenodd" d="M49.2204 34.0011C50.3608 34.0775 51.5773 33.6953 52.3376 32.8546C53.1739 32.0903 53.554 30.9439 53.478 29.7974C53.402 28.8039 52.9458 27.8867 52.2615 27.1988C51.3492 26.3581 50.0567 25.8995 48.8403 26.1288C47.3958 26.3581 46.1793 27.4281 45.7992 28.8039C45.343 30.1032 45.6471 31.7082 46.6355 32.7018C47.2437 33.3896 48.2321 33.9246 49.2204 34.0011ZM46.1033 29.8739C46.1033 28.2689 47.3958 26.8931 48.9163 26.5874C49.9047 26.4345 50.893 26.5874 51.7294 27.1988C52.6417 27.8867 53.1739 29.1096 53.0978 30.256C53.0218 31.861 51.6533 33.3132 50.0567 33.466C49.2204 33.5425 48.3841 33.3896 47.6999 32.931C46.6355 32.2432 45.9512 31.0967 46.1033 29.8739Z" fill="#369BE5"/>
<path opacity="0.84" fill-rule="evenodd" clip-rule="evenodd" d="M61.2332 34.0009C62.3736 34.0774 63.59 33.6952 64.3503 32.8545C65.1866 32.0138 65.5668 30.8673 65.4907 29.7209C65.4147 28.7273 64.9585 27.8101 64.2743 27.1223C63.3619 26.2816 62.0695 25.8994 60.9291 26.1287C59.4845 26.358 58.1921 27.5044 57.8119 28.9566C57.4318 30.2559 57.7359 31.708 58.6482 32.7016C59.2564 33.3895 60.2448 33.9245 61.2332 34.0009ZM60.853 26.5873C61.9174 26.358 62.9818 26.6637 63.8181 27.3516C65.0346 28.3452 65.4147 30.1795 64.6544 31.6316C64.0462 32.8545 62.6777 33.6188 61.3092 33.5424C59.5606 33.4659 58.04 31.8609 58.116 30.103C58.04 28.4216 59.2564 26.893 60.853 26.5873Z" fill="#369BE5"/>
<path opacity="0.84" fill-rule="evenodd" clip-rule="evenodd" d="M49.9048 32.7782C51.4254 32.6253 52.5658 31.0203 52.3377 29.5682C52.2617 29.1096 52.1096 28.7275 51.8815 28.4217C51.2733 27.581 50.1329 27.046 48.9925 27.2753C47.548 27.581 46.5596 29.0332 46.8637 30.4853C46.9397 30.9439 47.0918 31.326 47.3959 31.7082C47.9281 32.4725 48.9165 32.9311 49.9048 32.7782ZM48.4603 30.1032C48.3843 29.5682 48.7644 28.9567 49.2966 28.8039C49.6767 28.7275 50.1329 28.8803 50.437 29.186C50.5891 29.3389 50.6651 29.4917 50.6651 29.721C50.8172 30.3325 50.285 30.9439 49.6767 31.0203C49.2966 31.0968 48.9165 30.8675 48.6123 30.5618C48.5363 30.4089 48.4603 30.256 48.4603 30.1032Z" fill="#369BE5"/>
<path opacity="0.84" fill-rule="evenodd" clip-rule="evenodd" d="M61.917 32.7781C63.4376 32.6253 64.578 31.0203 64.3499 29.5681C64.1218 28.0395 62.5252 26.8931 61.0047 27.2752C59.5602 27.581 58.5718 29.0331 58.8759 30.4853C59.028 31.9374 60.4725 33.0074 61.917 32.7781ZM61.3088 28.8038C61.917 28.651 62.6013 29.1095 62.6773 29.721C62.8294 30.3324 62.2972 30.9438 61.6889 31.0203C61.0807 31.0967 60.5485 30.6381 60.4725 30.1031C60.3204 29.4917 60.7766 28.8803 61.3088 28.8038Z" fill="#369BE5"/>
<path opacity="0.84" fill-rule="evenodd" clip-rule="evenodd" d="M50.8934 55.0191C50.8934 54.2548 50.8934 53.4905 50.8934 52.7262C48.2324 52.7262 45.4954 52.7262 42.8345 52.7262C42.1502 52.7262 41.542 53.4141 41.542 54.1019C41.542 57.9998 41.542 61.8213 41.542 65.7192C44.6591 65.7192 47.7763 65.7192 50.8934 65.7192C50.8934 64.8785 50.8934 64.1142 50.8934 63.2734C48.6126 63.2734 46.4078 63.2734 44.1269 63.2734C44.1269 62.2034 44.1269 61.1334 44.1269 60.0634C45.2674 60.0634 46.4838 60.0634 47.7002 60.0634C48.1564 60.0634 48.6126 59.9106 48.9167 59.5284C49.2968 59.0698 49.1448 58.382 49.2208 57.847C47.5482 57.847 45.8756 57.847 44.203 57.847C44.203 56.9298 44.203 56.0127 44.203 55.0955C46.4078 55.0191 48.6886 55.0191 50.8934 55.0191Z" fill="#369BE5"/>
<path opacity="0.84" fill-rule="evenodd" clip-rule="evenodd" d="M60.0922 63.5791C58.2676 63.5791 56.4429 63.5791 54.6182 63.5791C56.2908 61.7448 58.0395 59.9105 59.7121 58.0762C59.7881 57.9998 59.8641 57.9234 59.8641 57.7705C59.8641 57.0826 59.8641 56.3948 59.8641 55.7069C57.1271 55.7069 54.3901 55.7069 51.6531 55.7069C51.6531 56.0126 51.6531 56.3948 51.6531 56.7005C51.7292 57.3119 52.3374 57.7705 52.9456 57.7705C54.2381 57.7705 55.4545 57.7705 56.747 57.7705C54.9984 59.6812 53.2497 61.6684 51.5011 63.5791C51.425 63.6556 51.349 63.732 51.425 63.8084C51.425 64.4199 51.425 65.0313 51.425 65.7192C54.3141 65.7192 57.2032 65.7192 60.0922 65.7192C60.0922 65.0313 60.0922 64.3434 60.0922 63.5791Z" fill="#369BE5"/>
<path opacity="0.84" fill-rule="evenodd" clip-rule="evenodd" d="M67.0872 56.9298C66.555 58.9169 65.9468 60.8277 65.4146 62.8148C64.7304 60.4455 64.0461 58.1527 63.4379 55.7833C62.4495 55.7833 61.5372 55.7833 60.5488 55.7833C61.6892 59.0698 62.8297 62.4327 64.0461 65.7192C64.1982 66.1013 64.2742 66.5599 63.8941 66.8656C63.3619 67.3242 62.6016 67.2477 61.9934 67.2477C61.9934 67.9356 61.9934 68.6235 61.9934 69.3113C62.9817 69.4642 64.1221 69.4642 65.0345 69.082C65.8708 68.6235 66.1749 67.7063 66.479 66.942C67.6955 63.197 68.9879 59.4519 70.2044 55.7069C69.4441 55.7069 68.6838 55.6305 67.9996 55.7833C67.4674 55.8598 67.2393 56.4712 67.0872 56.9298Z" fill="#369BE5"/>
<path opacity="0.84" fill-rule="evenodd" clip-rule="evenodd" d="M48.0806 49.3633C49.9813 49.5162 51.882 49.5162 53.7827 49.5162C58.7245 49.5926 63.6663 49.4397 68.5321 49.0576C68.456 48.9812 68.38 48.9047 68.304 48.8283C63.2101 49.2105 58.1162 49.3633 52.9464 49.2869C51.4258 49.2869 49.9052 49.2105 48.3847 49.134C48.3087 49.2105 48.1566 49.2869 48.0806 49.3633Z" fill="#369BE5"/>
<path fill-rule="evenodd" clip-rule="evenodd" d="M29.8338 54.6368C29.8338 54.0254 29.3016 53.4904 28.6934 53.4904H27.477V65.5662H29.8338V62.1269C29.8338 61.8976 29.9859 61.7447 30.214 61.6683C30.5181 61.6683 30.8222 61.8976 31.1263 62.4326L32.7989 65.4898H35.6119L32.3428 59.9104L35.5359 56.4711H32.7229L29.8338 59.834V54.6368ZM20.6345 62.509C20.7105 63.5026 21.3947 63.8847 22.5352 63.8847C23.5235 63.8847 23.9797 63.579 23.9797 62.9676C23.9797 62.509 23.1434 62.1269 21.5468 61.8211C19.494 61.439 18.4296 60.5219 18.4296 59.0697C18.4296 57.0825 20.0262 56.0889 22.155 56.0889C23.3715 56.0889 24.2838 56.3182 25.0441 56.8532C25.7283 57.3882 26.1085 58.1525 26.1845 59.1461H24.74C24.2078 59.1461 23.8276 58.9168 23.6756 58.5347C23.5235 58.1525 23.0673 57.9233 22.231 57.9233C21.3187 57.9233 20.8625 58.1525 20.8625 58.6111C20.8625 59.0697 21.4708 59.4518 22.6872 59.6811C24.2838 59.9868 25.3482 60.369 25.8044 60.904C26.2605 61.3626 26.4886 61.8976 26.4886 62.5854C26.4886 64.8783 24.6639 65.7191 22.231 65.7191C20.9386 65.7191 19.9502 65.4133 19.342 64.8783C18.6577 64.3433 18.2776 63.5026 18.2776 62.4326H20.6345V62.509ZM12.1193 58.6111C12.2714 58.1525 12.7276 57.9233 13.5639 57.9233C14.5522 57.9233 15.0084 58.1525 15.0844 58.6875C15.0844 59.2226 14.5522 59.5283 13.5639 59.6047C11.207 59.834 9.61042 60.4454 9.53439 62.6619C9.53439 64.7255 11.0549 65.7955 13.3358 65.5662C15.8447 65.4133 17.4413 64.2669 17.4413 61.6683V58.4583C17.3653 56.7004 16.0728 55.8597 13.4878 55.8597C11.3591 55.8597 10.1426 56.7004 9.8385 58.4583H12.1193V58.6111ZM13.0317 63.8083C14.3241 63.8083 15.1604 63.044 15.1604 61.6683V60.8276C14.6283 61.0569 13.944 61.2861 13.2598 61.3626C12.3474 61.5154 11.8152 61.974 11.8152 62.6619C11.8913 63.5026 12.2714 63.8083 13.0317 63.8083ZM0.106934 54.7897C0.106934 54.1018 0.639129 53.4904 1.32338 53.4904H9.61042V55.6304H6.11313V65.4898H3.68024V55.6304H0.106934V54.7897Z" fill="black"/>
</svg>
