<svg width="20" height="20" viewBox="0 0 20 20" fill="none" xmlns="http://www.w3.org/2000/svg">
<path d="M15.7142 12.8569L18.5714 12.1426L19.2857 14.9997" stroke="#BEBEC0" stroke-opacity="0.5" stroke-width="1.71429" stroke-linecap="round" stroke-linejoin="round"/>
<path d="M18.5713 12.1426C17.9368 13.9406 16.7842 15.5106 15.2589 16.6546C13.7335 17.7986 11.9037 18.4655 9.99989 18.5711C8.24005 18.5715 6.52277 18.0301 5.0813 17.0205C3.63982 16.011 2.54403 14.5822 1.94275 12.9283" stroke="#BEBEC0" stroke-opacity="0.5" stroke-width="1.71429" stroke-linecap="round" stroke-linejoin="round"/>
<path d="M4.28566 7.14286L1.42852 7.85714L0.714233 5" stroke="#BEBEC0" stroke-opacity="0.5" stroke-width="1.71429" stroke-linecap="round" stroke-linejoin="round"/>
<path d="M1.42847 7.85728C2.62847 4.57157 6.31418 1.42871 9.9999 1.42871C11.7683 1.43368 13.4919 1.98551 14.9344 3.00853C16.3768 4.03156 17.4676 5.47571 18.057 7.143" stroke="#BEBEC0" stroke-opacity="0.5" stroke-width="1.71429" stroke-linecap="round" stroke-linejoin="round"/>
</svg>
