<?xml version="1.0" encoding="utf-8"?>
<!-- Generator: Adobe Illustrator 19.2.1, SVG Export Plug-In . SVG Version: 6.00 Build 0)  -->
<svg version="1.1" id="Layer_1" xmlns="http://www.w3.org/2000/svg" xmlns:xlink="http://www.w3.org/1999/xlink" x="0px" y="0px"
	 viewBox="0 0 483.3 102.3" style="enable-background:new 0 0 483.3 102.3;" xml:space="preserve">
<style type="text/css">
	.st0{fill:#DC1928;}
	.st1{fill:#FFFFFF;}
	.st2{fill:#0045D8;}
</style>
<g>
	<g>
		<g>
			<path class="st0" d="M483.3,97.6c0,1.1-0.9,2.1-2.1,2.1h-47.9c-1.2,0-2.1-0.9-2.1-2.1V49.7c0-1.1,0.9-2.1,2.1-2.1h47.9
				c1.1,0,2.1,0.9,2.1,2.1V97.6z"/>
			<path class="st1" d="M440.4,73.6c0,7.2,4.5,13.4,10.9,15.8V57.8C444.9,60.2,440.4,66.4,440.4,73.6"/>
			<path class="st1" d="M457.3,56.7c-0.5,0-0.9,0-1.4,0.1V58h0.1c6.4,0,11.6,5,11.6,11c0,6-5.3,10.8-11.7,10.8v10.7
				c0.5,0,0.9,0.1,1.4,0.1c9.3,0,16.9-7.6,16.9-16.9C474.2,64.3,466.6,56.7,457.3,56.7"/>
		</g>
	</g>
</g>
<g>
	<defs>
		<path id="SVGID_1_" d="M360.3,78h17.9V21.3h-17.9V78z M360.3,13.3h17.9V0h-17.9V13.3z M386.2,0v78h19.5h12.9h8.1V61.4h-7.9
			c-0.1,0-0.1,0-0.2,0H405V16.6h13.6c6.9,0,12,2,15.5,6c3.5,4,5.2,9.4,5.2,16.3c0,1.4-0.1,2.7-0.2,4h19.4c0.1-1.3,0.2-2.6,0.2-3.9
			c0-5.5-0.9-10.7-2.6-15.5c-1.7-4.8-4.3-8.9-7.7-12.4C445,7.7,440.8,5,435.8,3c-5-2-10.7-3-17.2-3H386.2z"/>
	</defs>
	<linearGradient id="SVGID_2_" gradientUnits="userSpaceOnUse" x1="372.6425" y1="85.1159" x2="424.2028" y2="-4.1892">
		<stop  offset="0" style="stop-color:#0045D8"/>
		<stop  offset="0.2207" style="stop-color:#0349D9"/>
		<stop  offset="0.4177" style="stop-color:#0C53DB"/>
		<stop  offset="0.6055" style="stop-color:#1B66DF"/>
		<stop  offset="0.7867" style="stop-color:#307FE5"/>
		<stop  offset="0.8281" style="stop-color:#3686E6"/>
		<stop  offset="0.8593" style="stop-color:#388BE4"/>
		<stop  offset="0.8982" style="stop-color:#3C9BDE"/>
		<stop  offset="0.9412" style="stop-color:#43B4D4"/>
		<stop  offset="0.987" style="stop-color:#4DD8C6"/>
		<stop  offset="1" style="stop-color:#50E3C2"/>
	</linearGradient>
	<use xlink:href="#SVGID_1_"  style="overflow:visible;fill:url(#SVGID_2_);"/>
	<clipPath id="SVGID_3_">
		<use xlink:href="#SVGID_1_"  style="overflow:visible;"/>
	</clipPath>
</g>
<g>
	<path class="st2" d="M0,78V0h30.9c6.2,0,11.8,1,16.6,3s8.8,4.7,12.1,8.2c3.3,3.5,5.8,7.6,7.4,12.4c1.7,4.8,2.5,9.9,2.5,15.5
		c0,5.5-0.8,10.7-2.5,15.5c-1.7,4.8-4.2,8.9-7.4,12.4c-3.3,3.5-7.3,6.2-12.1,8.2c-4.8,2-10.3,3-16.6,3H0z M30.9,65.6
		c8,0,14-2.4,18.1-7.2c4.1-4.8,6.2-11.3,6.2-19.4c0-4.1-0.5-7.7-1.6-11c-1.1-3.3-2.6-6.1-4.6-8.4c-2-2.3-4.6-4.1-7.6-5.3
		c-3-1.2-6.6-1.9-10.5-1.9H13.8v53.2H30.9z"/>
</g>
<g>
	<path class="st2" d="M79.1,11.4V0h12.1v11.4H79.1z"/>
</g>
<g>
	<path class="st2" d="M170.6,11.4V0h12.1v11.4H170.6z"/>
</g>
<g>
	<path class="st2" d="M233.7,73.9c-3.7,2.8-8.1,4.2-13.4,4.2c-3.4,0-6.5-0.6-9-1.7c-2.6-1.1-4.7-3-6.2-5.5c-1-1.4-1.7-3.1-2.1-5
		c-0.4-1.9-0.6-4.2-0.6-6.9V29.5h-11.4v-9.1h11.4V0h11.9v20.3h17.4v9.1h-17.4v29.7c0,5.6,2.5,8.4,7.6,8.4c1.6,0,3-0.3,4.1-0.8
		c1.2-0.5,2.2-1.1,3-1.7L233.7,73.9z"/>
</g>
<g>
	<path class="st2" d="M307.1,78.1V0h12.1v78.1H307.1z"/>
</g>
<g>
	<path class="st2" d="M291.3,64.1c0,1.8,0.3,3.1,0.8,3.9c0.6,0.8,1.5,1.2,3,1.2c1.3,0,2.4-0.2,3.1-0.7l1.4,8c-1,0.5-2.2,0.8-3.5,1.1
		c-1.4,0.2-2.6,0.3-3.5,0.3c-2.7,0-5.2-0.6-7.4-1.9c-2.3-1.3-3.9-3.6-4.7-6.9c-2.4,3.4-5.3,5.8-8.6,7.1c-3.3,1.4-6.9,2.1-10.6,2.1
		c-4,0-7.6-0.7-10.8-2.2c-3.2-1.5-5.9-3.5-8.1-6.1c-2.2-2.6-3.9-5.7-5-9.2c-1.2-3.5-1.7-7.3-1.7-11.4c0-4.1,0.6-7.9,1.7-11.5
		c1.2-3.6,2.9-6.6,5.1-9.2c2.2-2.6,4.9-4.6,8-6.1c3.1-1.5,6.7-2.2,10.6-2.2c3.7,0,7.1,0.7,10.2,2.2c3.2,1.4,6,3.9,8.4,7.2v-8.1h11.7
		V64.1z M279.6,49.3c0-2.6-0.4-5-1.1-7.3c-0.7-2.3-1.7-4.2-3.1-5.9c-1.3-1.7-3-3-5.1-4c-2-1-4.4-1.4-7-1.4c-2.7,0-5,0.5-6.9,1.5
		c-1.9,1-3.6,2.3-4.9,4c-1.3,1.7-2.3,3.7-2.9,5.9c-0.6,2.3-1,4.6-1,7.2s0.3,4.9,1,7.2c0.6,2.3,1.6,4.2,2.9,5.9c1.3,1.7,2.9,3,4.9,4
		c1.9,1,4.2,1.4,6.9,1.4s5-0.5,7-1.4c2-1,3.7-2.3,5.1-4c1.4-1.7,2.4-3.7,3.1-5.9C279.2,54.3,279.6,51.9,279.6,49.3z"/>
</g>
<g>
	<path class="st2" d="M159.7,70.9c0,4.6-0.5,8.7-1.4,12.3c-0.9,3.6-2.7,6.8-5.2,9.6c-3.2,3.6-7.1,6-11.7,7.4c-4.6,1.4-9.4,2-14.5,2
		c-9.9,0-18.3-2.3-25.2-6.9l5.5-10c2.6,1.8,5.5,3.3,8.9,4.3c3.3,1.1,7,1.6,10.9,1.6c2.8,0,5.4-0.3,7.9-1c2.5-0.6,4.6-1.7,6.4-3.1
		c1.8-1.4,3.2-3.2,4.3-5.4c1-2.2,1.5-4.9,1.5-8.1v-5.6c-2.4,3.4-5.5,5.9-9.1,7.6c-3.6,1.6-7.5,2.4-11.6,2.4c-4,0-7.7-0.7-11-2.2
		c-3.3-1.5-6.1-3.5-8.5-6c-2.4-2.5-4.2-5.6-5.5-9.1c-1.3-3.5-1.9-7.3-1.9-11.4c0-4.2,0.7-8,2-11.5c1.3-3.5,3.2-6.6,5.6-9.2
		c2.4-2.6,5.3-4.7,8.6-6.1c3.3-1.5,7-2.2,11-2.2c4.2,0,8,0.8,11.5,2.5c3.5,1.7,6.4,4.2,8.9,7.6v-8.8h12.6V70.9z M147.2,49.2
		c0-2.5-0.4-4.9-1.1-7.1c-0.8-2.2-1.9-4.1-3.4-5.7c-1.5-1.6-3.3-2.9-5.5-3.8c-2.2-0.9-4.7-1.4-7.5-1.4c-2.9,0-5.4,0.5-7.4,1.4
		c-2.1,0.9-3.8,2.2-5.3,3.9c-1.4,1.6-2.5,3.5-3.2,5.7c-0.7,2.2-1,4.5-1,7s0.4,4.9,1.1,7.1c0.7,2.2,1.8,4.1,3.2,5.8
		c1.4,1.7,3.2,3,5.3,3.9c2.1,0.9,4.6,1.4,7.4,1.4c2.8,0,5.3-0.5,7.4-1.4c2.2-0.9,4-2.2,5.5-3.9c1.5-1.6,2.6-3.6,3.4-5.8
		C146.8,54.1,147.2,51.7,147.2,49.2z"/>
</g>
<rect x="170.6" y="20.4" class="st2" width="12.1" height="57.7"/>
<rect x="79.1" y="20.4" class="st2" width="12.1" height="57.6"/>
</svg>
