<svg aria-hidden="true" style="position: absolute; width: 0; height: 0; overflow: hidden;" version="1.1" xmlns="http://www.w3.org/2000/svg" xmlns:xlink="http://www.w3.org/1999/xlink">
<defs>
<symbol id="te_mob_accepted" viewBox="0 0 32 32">
<path fill="#14b8a6" style="fill: var(--color1, #14b8a6)" d="M16.434 0.832c-8.492 0-15.385 6.892-15.385 15.385s6.892 15.385 15.385 15.385c8.492 0 15.385-6.892 15.385-15.385s-6.892-15.385-15.385-15.385zM12.265 22.816l-5.523-5.523c-0.6-0.6-0.6-1.569 0-2.169s1.569-0.6 2.169 0l4.446 4.431 10.585-10.585c0.6-0.6 1.569-0.6 2.169 0s0.6 1.569 0 2.169l-11.677 11.677c-0.585 0.6-1.569 0.6-2.169 0z"></path>
</symbol>
<symbol id="te_mob_break-duration" viewBox="0 0 32 32">
<path fill="#153d59" style="fill: var(--color2, #153d59)" d="M32 16c0 8.837-7.163 16-16 16s-16-7.163-16-16c0-8.837 7.163-16 16-16s16 7.163 16 16z"></path>
<path fill="#fff" style="fill: var(--color3, #fff)" d="M14.421 21.789h-1.579c-0.14 0-0.273-0.055-0.372-0.154s-0.154-0.233-0.154-0.372v-10.526c0-0.14 0.055-0.273 0.154-0.372s0.232-0.154 0.372-0.154h1.579c0.14 0 0.273 0.055 0.372 0.154s0.154 0.232 0.154 0.372v10.526c0 0.14-0.055 0.273-0.154 0.372s-0.232 0.154-0.372 0.154zM19.158 21.789h-1.579c-0.14 0-0.273-0.055-0.372-0.154s-0.154-0.233-0.154-0.372v-10.526c0-0.14 0.055-0.273 0.154-0.372s0.233-0.154 0.372-0.154h1.579c0.14 0 0.273 0.055 0.372 0.154s0.154 0.232 0.154 0.372v10.526c0 0.14-0.055 0.273-0.154 0.372s-0.233 0.154-0.372 0.154z"></path>
</symbol>
<symbol id="te_mob_calendarGrey" viewBox="0 0 32 32">
<path fill="none" stroke="#c9c9c9" style="stroke: var(--color4, #c9c9c9)" stroke-linejoin="round" stroke-linecap="butt" stroke-miterlimit="4" stroke-width="1.5484" d="M24.707 6.961h-18.006c-1.492 0-2.701 1.209-2.701 2.701v16.206c0 1.492 1.209 2.701 2.701 2.701h18.006c1.492 0 2.701-1.209 2.701-2.701v-16.206c0-1.492-1.209-2.701-2.701-2.701z"></path>
<path fill="#c9c9c9" style="fill: var(--color4, #c9c9c9)" d="M17.955 16.863c0.746 0 1.351-0.605 1.351-1.351s-0.605-1.351-1.351-1.351c-0.746 0-1.351 0.605-1.351 1.351s0.605 1.351 1.351 1.351z"></path>
<path fill="#c9c9c9" style="fill: var(--color4, #c9c9c9)" d="M22.456 16.863c0.746 0 1.35-0.605 1.35-1.351s-0.605-1.351-1.35-1.351c-0.746 0-1.351 0.605-1.351 1.351s0.605 1.351 1.351 1.351z"></path>
<path fill="#c9c9c9" style="fill: var(--color4, #c9c9c9)" d="M17.955 21.365c0.746 0 1.351-0.605 1.351-1.351s-0.605-1.35-1.351-1.35-1.351 0.605-1.351 1.35c0 0.746 0.605 1.351 1.351 1.351z"></path>
<path fill="#c9c9c9" style="fill: var(--color4, #c9c9c9)" d="M22.456 21.365c0.746 0 1.35-0.605 1.35-1.351s-0.605-1.35-1.35-1.35c-0.746 0-1.351 0.605-1.351 1.35s0.605 1.351 1.351 1.351z"></path>
<path fill="#c9c9c9" style="fill: var(--color4, #c9c9c9)" d="M8.952 21.365c0.746 0 1.35-0.605 1.35-1.351s-0.605-1.35-1.35-1.35-1.35 0.605-1.35 1.35c0 0.746 0.605 1.351 1.35 1.351z"></path>
<path fill="#c9c9c9" style="fill: var(--color4, #c9c9c9)" d="M13.453 21.365c0.746 0 1.35-0.605 1.35-1.351s-0.605-1.35-1.35-1.35c-0.746 0-1.351 0.605-1.351 1.35s0.605 1.351 1.351 1.351z"></path>
<path fill="#c9c9c9" style="fill: var(--color4, #c9c9c9)" d="M8.952 25.866c0.746 0 1.35-0.605 1.35-1.35s-0.605-1.351-1.35-1.351-1.35 0.605-1.35 1.351c0 0.746 0.605 1.35 1.35 1.35z"></path>
<path fill="#c9c9c9" style="fill: var(--color4, #c9c9c9)" d="M13.453 25.866c0.746 0 1.35-0.605 1.35-1.35s-0.605-1.351-1.35-1.351c-0.746 0-1.351 0.605-1.351 1.351s0.605 1.35 1.351 1.35z"></path>
<path fill="#c9c9c9" style="fill: var(--color4, #c9c9c9)" d="M17.955 25.866c0.746 0 1.351-0.605 1.351-1.35s-0.605-1.351-1.351-1.351-1.351 0.605-1.351 1.351c0 0.746 0.605 1.35 1.351 1.35z"></path>
<path fill="none" stroke="#c9c9c9" style="stroke: var(--color4, #c9c9c9)" stroke-linejoin="round" stroke-linecap="round" stroke-miterlimit="4" stroke-width="1.5484" d="M22.907 5.159v1.801M8.502 5.159v0z"></path>
<path fill="none" stroke="#c9c9c9" style="stroke: var(--color4, #c9c9c9)" stroke-linejoin="round" stroke-linecap="butt" stroke-miterlimit="4" stroke-width="1.5484" d="M27.408 11.462h-23.408"></path>
</symbol>
<symbol id="te_mob_end-time" viewBox="0 0 32 32">
<path fill="#153d59" style="fill: var(--color2, #153d59)" d="M32 16c0 8.837-7.163 16-16 16s-16-7.163-16-16c0-8.837 7.163-16 16-16s16 7.163 16 16z"></path>
<path fill="none" stroke="#fff" style="stroke: var(--color3, #fff)" stroke-linejoin="round" stroke-linecap="round" stroke-miterlimit="4" stroke-width="1.0526" d="M14.421 14.635v-6.316c0-0.279 0.111-0.547 0.308-0.744s0.465-0.308 0.744-0.308c0.279 0 0.547 0.111 0.744 0.308s0.308 0.465 0.308 0.744v6.316M10.211 17.266v-5.789c0-0.279 0.111-0.547 0.308-0.744s0.465-0.308 0.744-0.308v0c0.279 0 0.547 0.111 0.744 0.308s0.308 0.465 0.308 0.744v3.684l-2.105 2.105zM12.316 15.161v-5.789c0-0.279 0.111-0.547 0.308-0.744s0.465-0.308 0.744-0.308c0.279 0 0.547 0.111 0.744 0.308s0.308 0.465 0.308 0.744v5.263l-2.105 0.526zM16.526 14.668v-4.77c0-0.279 0.111-0.547 0.308-0.744s0.465-0.308 0.744-0.308v0c0.279 0 0.547 0.111 0.744 0.308s0.308 0.465 0.308 0.744v7.368l-2.105-2.599z"></path>
<path fill="none" stroke="#fff" style="stroke: var(--color3, #fff)" stroke-linejoin="round" stroke-linecap="round" stroke-miterlimit="4" stroke-width="1.0526" d="M10.211 17.264c0 3.862 2.105 5.789 5 5.789s4.069-1.303 4.737-2.895l1.734-4.737c0.219-0.594 0.12-1.144-0.39-1.434s-1.181-0.141-1.458 0.384l-1.202 2.892"></path>
</symbol>
<symbol id="te_mob_HomeBlue" viewBox="0 0 32 32">
<path fill="none" stroke="#369be5" style="stroke: var(--color5, #369be5)" stroke-linejoin="round" stroke-linecap="round" stroke-miterlimit="4" stroke-width="1.5484" d="M6.525 13.736v13.833c0 0.249 0.095 0.487 0.264 0.663s0.398 0.275 0.637 0.275h5.402v-7.971c0-0.373 0.142-0.731 0.396-0.995s0.597-0.412 0.955-0.412h4.502c0.358 0 0.702 0.148 0.955 0.412s0.396 0.622 0.396 0.995v7.971h5.402c0.239 0 0.468-0.099 0.637-0.275s0.264-0.414 0.264-0.663v-13.833"></path>
<path fill="none" stroke="#369be5" style="stroke: var(--color5, #369be5)" stroke-linejoin="round" stroke-linecap="round" stroke-miterlimit="4" stroke-width="1.5484" d="M29.032 16.318l-11.992-11.957c-0.281-0.309-0.939-0.313-1.226 0l-11.992 11.957M24.531 11.805v-6.741h-2.701v4.044"></path>
</symbol>
<symbol id="te_mob_icon_attetion" viewBox="0 0 32 32">
<path fill="#369be5" style="fill: var(--color5, #369be5)" d="M3.542 16.664c0-6.878 5.58-12.458 12.458-12.458s12.458 5.58 12.458 12.458c0 6.878-5.58 12.458-12.458 12.458s-12.458-5.58-12.458-12.458zM16 6.122c-5.82 0-10.542 4.722-10.542 10.542s4.722 10.542 10.542 10.542c5.82 0 10.542-4.722 10.542-10.542s-4.722-10.542-10.542-10.542z"></path>
<path fill="none" stroke="#369be5" style="stroke: var(--color5, #369be5)" stroke-linejoin="round" stroke-linecap="round" stroke-miterlimit="4" stroke-width="1.6667" d="M15.657 11.276l0.344 7.304 0.343-7.304c0.002-0.047-0.005-0.093-0.022-0.137s-0.042-0.084-0.074-0.117c-0.033-0.034-0.071-0.060-0.115-0.078s-0.089-0.027-0.136-0.027v0c-0.046 0-0.092 0.010-0.134 0.029s-0.081 0.045-0.112 0.079c-0.032 0.034-0.056 0.073-0.073 0.116s-0.023 0.089-0.021 0.136v0z"></path>
<path fill="#369be5" style="fill: var(--color5, #369be5)" d="M16 23.367c-0.237 0-0.469-0.070-0.665-0.202s-0.351-0.319-0.441-0.538c-0.091-0.219-0.114-0.46-0.068-0.692s0.16-0.446 0.328-0.613c0.168-0.167 0.381-0.282 0.613-0.328s0.473-0.022 0.692 0.068 0.406 0.244 0.538 0.441c0.132 0.197 0.202 0.429 0.202 0.665 0 0.318-0.126 0.622-0.351 0.847s-0.529 0.351-0.847 0.351z"></path>
</symbol>
<symbol id="te_mob_icon_connections" viewBox="0 0 32 32">
<path fill="none" stroke="#369be5" style="stroke: var(--color5, #369be5)" stroke-linejoin="round" stroke-linecap="round" stroke-miterlimit="4" stroke-width="1.6667" d="M24.744 11.393c-0.175 2.436-1.983 4.313-3.953 4.313s-3.781-1.876-3.953-4.313c-0.18-2.534 1.579-4.313 3.953-4.313s4.133 1.824 3.953 4.313z"></path>
<path fill="#369be5" style="fill: var(--color5, #369be5)" d="M11.265 25.022c1.086-4.361 5.372-6.441 9.527-6.441 4.147 0 8.442 2.013 9.529 6.444 0.237 0.965-0.363 2.181-1.633 2.181h-15.792c-1.267 0-1.874-1.212-1.632-2.184 0 0 0-0 0-0zM13.177 25.289h15.232c-0.873-3.117-4.029-4.792-7.617-4.792-3.576 0-6.739 1.724-7.615 4.792z"></path>
<path fill="none" stroke="#369be5" style="stroke: var(--color5, #369be5)" stroke-linejoin="round" stroke-linecap="round" stroke-miterlimit="4" stroke-width="1.6667" d="M12.645 12.468c-0.14 1.945-1.6 3.478-3.174 3.478s-3.037-1.532-3.174-3.478c-0.143-2.024 1.278-3.47 3.174-3.47s3.318 1.484 3.174 3.47z"></path>
<path fill="#369be5" style="fill: var(--color5, #369be5)" d="M1.674 23.305c0.898-3.601 4.431-5.291 7.797-5.291 1.356 0 2.692 0.204 3.933 0.773 0.481 0.22 0.693 0.789 0.472 1.27s-0.789 0.693-1.27 0.472c-0.921-0.422-1.966-0.599-3.135-0.599-2.703 0-5.055 1.255-5.819 3.441h6.238c0.529 0 0.958 0.429 0.958 0.958s-0.429 0.958-0.958 0.958h-6.725c-1.163 0-1.707-1.113-1.491-1.982l0-0.001z"></path>
</symbol>
<symbol id="te_mob_icon_fab" viewBox="0 0 32 32">
<path fill="none" stroke="#fff" style="stroke: var(--color3, #fff)" stroke-linejoin="miter" stroke-linecap="butt" stroke-miterlimit="10" stroke-width="1.1707" d="M25.627 19.119c0-5.817-4.72-10.537-10.537-10.537s-10.537 4.72-10.537 10.537c0 5.817 4.72 10.537 10.537 10.537s10.537-4.72 10.537-10.537z"></path>
<path fill="none" stroke="#fff" style="stroke: var(--color3, #fff)" stroke-linejoin="round" stroke-linecap="round" stroke-miterlimit="4" stroke-width="1.1707" d="M14.775 14.183l0.315 6.692 0.314-6.692c0.002-0.043-0.005-0.086-0.020-0.126s-0.038-0.077-0.068-0.107-0.065-0.055-0.105-0.072c-0.040-0.017-0.082-0.025-0.125-0.024v0c-0.042 0-0.084 0.009-0.123 0.026s-0.074 0.041-0.103 0.072c-0.029 0.031-0.052 0.067-0.066 0.107s-0.021 0.082-0.019 0.124v0z"></path>
<path fill="#fff" style="fill: var(--color3, #fff)" d="M15.090 25.257c-0.217 0-0.429-0.064-0.61-0.185s-0.321-0.292-0.404-0.493c-0.083-0.201-0.105-0.421-0.062-0.634s0.147-0.409 0.3-0.562c0.154-0.153 0.349-0.258 0.562-0.3s0.434-0.021 0.634 0.062c0.201 0.083 0.372 0.224 0.493 0.404s0.185 0.393 0.185 0.61c0 0.291-0.116 0.57-0.321 0.776s-0.485 0.321-0.776 0.321z"></path>
<path fill="#fff" style="fill: var(--color3, #fff)" d="M24.585 15.607c3.88 0 7.024-3.145 7.024-7.024s-3.145-7.024-7.024-7.024c-3.88 0-7.024 3.145-7.024 7.024s3.145 7.024 7.024 7.024zM24.78 12.485c-0.215 0-0.39-0.175-0.39-0.39v-3.122h-3.317c-0.215 0-0.39-0.175-0.39-0.39s0.175-0.39 0.39-0.39h3.317v-3.512c0-0.216 0.175-0.39 0.39-0.39s0.39 0.175 0.39 0.39v3.512h3.317c0.215 0 0.39 0.175 0.39 0.39s-0.175 0.39-0.39 0.39h-3.317v3.122c0 0.216-0.175 0.39-0.39 0.39z"></path>
</symbol>
<symbol id="te_mob_icon_patron-number" viewBox="0 0 32 32">
<path fill="none" stroke="#369be5" style="stroke: var(--color5, #369be5)" stroke-linejoin="round" stroke-linecap="round" stroke-miterlimit="4" stroke-width="1.6667" d="M24.744 11.393c-0.175 2.436-1.983 4.313-3.953 4.313s-3.781-1.876-3.953-4.313c-0.18-2.534 1.579-4.313 3.953-4.313s4.133 1.824 3.953 4.313z"></path>
<path fill="#369be5" style="fill: var(--color5, #369be5)" d="M11.265 25.022c1.086-4.361 5.372-6.441 9.527-6.441 4.147 0 8.442 2.013 9.529 6.444 0.237 0.965-0.363 2.181-1.633 2.181h-15.792c-1.267 0-1.874-1.212-1.632-2.184 0 0 0-0 0-0zM13.177 25.289h15.232c-0.873-3.117-4.029-4.792-7.617-4.792-3.576 0-6.739 1.724-7.615 4.792z"></path>
<path fill="none" stroke="#369be5" style="stroke: var(--color5, #369be5)" stroke-linejoin="round" stroke-linecap="round" stroke-miterlimit="4" stroke-width="1.6667" d="M12.645 12.468c-0.14 1.945-1.6 3.478-3.174 3.478s-3.037-1.532-3.174-3.478c-0.143-2.024 1.278-3.47 3.174-3.47s3.318 1.484 3.174 3.47z"></path>
<path fill="#369be5" style="fill: var(--color5, #369be5)" d="M1.674 23.305c0.898-3.601 4.431-5.291 7.797-5.291 1.356 0 2.692 0.204 3.933 0.773 0.481 0.22 0.693 0.789 0.472 1.27s-0.789 0.693-1.27 0.472c-0.921-0.422-1.966-0.599-3.135-0.599-2.703 0-5.055 1.255-5.819 3.441h6.238c0.529 0 0.958 0.429 0.958 0.958s-0.429 0.958-0.958 0.958h-6.725c-1.163 0-1.707-1.113-1.491-1.982l0-0.001z"></path>
</symbol>
<symbol id="te_mob_icon_reports" viewBox="0 0 32 32">
<path fill="#369be5" style="fill: var(--color5, #369be5)" d="M9.292 5.164c-1.059 0-1.917 0.858-1.917 1.917v19.167c0 1.059 0.858 1.917 1.917 1.917h13.417c1.059 0 1.917-0.858 1.917-1.917v-19.167c0-1.059-0.858-1.917-1.917-1.917h-13.417zM5.458 7.081c0-2.117 1.716-3.833 3.833-3.833h13.417c2.117 0 3.833 1.716 3.833 3.833v19.167c0 2.117-1.716 3.833-3.833 3.833h-13.417c-2.117 0-3.833-1.716-3.833-3.833v-19.167z"></path>
<path fill="#369be5" style="fill: var(--color5, #369be5)" d="M10.25 8.997c0-0.529 0.429-0.958 0.958-0.958h9.583c0.529 0 0.958 0.429 0.958 0.958s-0.429 0.958-0.958 0.958h-9.583c-0.529 0-0.958-0.429-0.958-0.958zM10.25 13.789c0-0.529 0.429-0.958 0.958-0.958h9.583c0.529 0 0.958 0.429 0.958 0.958s-0.429 0.958-0.958 0.958h-9.583c-0.529 0-0.958-0.429-0.958-0.958zM10.25 18.581c0-0.529 0.429-0.958 0.958-0.958h4.792c0.529 0 0.958 0.429 0.958 0.958s-0.429 0.958-0.958 0.958h-4.792c-0.529 0-0.958-0.429-0.958-0.958z"></path>
</symbol>
<symbol id="te_mob_icon_supervising" viewBox="0 0 32 32">
<path fill="none" stroke="#369be5" style="stroke: var(--color5, #369be5)" stroke-linejoin="round" stroke-linecap="round" stroke-miterlimit="4" stroke-width="1.6667" d="M21.271 9.956c-0.235 3.167-2.635 5.75-5.271 5.75s-5.040-2.583-5.271-5.75c-0.24-3.294 2.096-5.75 5.271-5.75s5.51 2.516 5.271 5.75z"></path>
<path fill="none" stroke="#369be5" style="stroke: var(--color5, #369be5)" stroke-linejoin="miter" stroke-linecap="butt" stroke-miterlimit="10" stroke-width="1.6667" d="M16 19.539c-5.211 0-10.5 2.875-11.478 8.302-0.118 0.654 0.252 1.282 0.937 1.282h21.083c0.685 0 1.055-0.628 0.937-1.282-0.979-5.427-6.268-8.302-11.479-8.302z"></path>
</symbol>
<symbol id="te_mob_icon_venue-manager" viewBox="0 0 32 32">
<path fill="#369be5" style="fill: var(--color5, #369be5)" d="M16 3.247c-0.794 0-1.437 0.644-1.437 1.438s0.644 1.438 1.437 1.438c0.794 0 1.437-0.644 1.437-1.438s-0.644-1.438-1.437-1.438zM12.646 4.685c0-1.852 1.502-3.354 3.354-3.354s3.354 1.502 3.354 3.354c0 1.852-1.502 3.354-3.354 3.354s-3.354-1.502-3.354-3.354z"></path>
<path fill="#369be5" style="fill: var(--color5, #369be5)" d="M25.985 9.972c-0.008 0.003-0.017 0.006-0.028 0.010-0.042 0.015-0.103 0.036-0.182 0.062-0.157 0.053-0.385 0.127-0.672 0.217-0.573 0.178-1.383 0.416-2.336 0.653-1.895 0.472-4.408 0.957-6.768 0.957s-4.888-0.487-6.797-0.961c-0.961-0.238-1.778-0.477-2.356-0.656-0.289-0.090-0.519-0.165-0.678-0.218-0.079-0.027-0.141-0.047-0.184-0.062-0.008-0.003-0.015-0.005-0.021-0.007-0.144-0.031-0.27 0.007-0.358 0.077-0.085 0.068-0.161 0.186-0.149 0.384 0.006 0.1 0.038 0.17 0.139 0.258 0.126 0.109 0.335 0.22 0.641 0.322l5.538 1.792c0.014 0.005 0.029 0.010 0.043 0.015 0.741 0.279 1.563 0.767 1.945 1.757 0.203 0.523 0.257 1.103 0.25 1.649-0.007 0.555-0.078 1.139-0.168 1.7-0.002 0.012-0.004 0.023-0.006 0.035l-0.353 1.775c-0.002 0.009-0.004 0.017-0.006 0.026l-2.239 9.813c-0.001 0.003-0.001 0.005-0.002 0.007s-0.001 0.003-0.001 0.005c-0.013 0.055-0.008 0.158 0.076 0.277 0.083 0.118 0.204 0.194 0.323 0.215 0.121 0.021 0.21-0.005 0.294-0.067 0.097-0.072 0.21-0.215 0.279-0.439 0.001-0.003 0.002-0.007 0.003-0.010l2.21-6.831c0.124-0.382 0.233-0.768 0.328-1.158l0.318-1.298c0.105-0.429 0.489-0.73 0.931-0.731s0.826 0.301 0.931 0.73l0.345 1.407c0.078 0.318 0.167 0.632 0.268 0.942l0 0.001 2.25 6.944c0.002 0.005 0.003 0.011 0.005 0.016 0.064 0.211 0.174 0.352 0.274 0.425 0.088 0.065 0.181 0.091 0.302 0.070 0.294-0.052 0.433-0.302 0.391-0.513l-2.239-9.808c-0.002-0.009-0.004-0.017-0.006-0.026l-0.353-1.775c-0.002-0.012-0.004-0.023-0.006-0.035-0.091-0.569-0.159-1.182-0.149-1.757 0.009-0.553 0.090-1.182 0.382-1.708 0.266-0.485 0.696-0.818 1.046-1.035 0.366-0.227 0.744-0.387 1.014-0.488 0.002-0.001 0.003-0.001 0.005-0.002s0.004-0.001 0.005-0.002l5.27-1.911c0-0 0.001-0 0.001-0 0.401-0.146 0.609-0.244 0.727-0.342 0.045-0.037 0.056-0.059 0.060-0.067 0.003-0.007 0.019-0.040 0.019-0.124 0-0.197-0.082-0.36-0.177-0.445-0.043-0.039-0.089-0.063-0.141-0.075-0.047-0.011-0.124-0.017-0.239 0.011zM6.557 8.143l0.002 0.001 0.009 0.003c0.009 0.003 0.023 0.008 0.041 0.014 0.037 0.013 0.093 0.032 0.166 0.056 0.147 0.049 0.364 0.12 0.639 0.205 0.551 0.171 1.332 0.399 2.25 0.626 1.85 0.459 4.203 0.904 6.335 0.904s4.471-0.443 6.305-0.9c0.911-0.227 1.684-0.454 2.229-0.623 0.272-0.085 0.487-0.155 0.632-0.204 0.073-0.024 0.128-0.043 0.164-0.056 0.018-0.006 0.032-0.011 0.040-0.014l0.011-0.004c0.021-0.008 0.043-0.015 0.065-0.021 0.848-0.235 1.637-0.028 2.2 0.479 0.535 0.481 0.811 1.18 0.811 1.869 0 0.728-0.306 1.281-0.774 1.668-0.406 0.336-0.916 0.529-1.294 0.666l-5.267 1.91c-0.208 0.078-0.456 0.187-0.673 0.321-0.233 0.145-0.34 0.264-0.375 0.327-0.001 0.003-0.003 0.006-0.005 0.009-0.065 0.117-0.134 0.371-0.141 0.81-0.007 0.414 0.041 0.897 0.122 1.404l0.347 1.744 2.238 9.804c0.001 0.005 0.002 0.009 0.003 0.014 0.29 1.363-0.66 2.581-1.934 2.805-1.393 0.245-2.406-0.738-2.738-1.815l-1.967-6.071-1.963 6.067c-0.336 1.071-1.329 2.064-2.731 1.819-1.27-0.222-2.248-1.505-1.934-2.824l2.235-9.795 0.347-1.744c0.082-0.514 0.136-0.987 0.141-1.402 0.005-0.428-0.043-0.731-0.12-0.931l-0.001-0.003c-0.096-0.249-0.311-0.455-0.813-0.647l-5.519-1.786c-0.003-0.001-0.005-0.002-0.008-0.003-0.756-0.252-2.005-0.841-2.091-2.286l-0-0.001c-0.1-1.697 1.438-2.821 2.941-2.42 0.024 0.007 0.049 0.014 0.073 0.022 0 0 0 0 0 0z"></path>
</symbol>
<symbol id="te_mob_icon_venue" viewBox="0 0 32 32">
<path fill="#369be5" style="fill: var(--color5, #369be5)" d="M6.417 12.411c0-5.102 4.338-9.164 9.583-9.164s9.583 4.062 9.583 9.164c0 2.876-1.555 6.435-3.259 9.511-1.729 3.122-3.721 5.935-4.789 7.377-0.176 0.241-0.407 0.437-0.673 0.572-0.267 0.136-0.563 0.207-0.863 0.207s-0.596-0.071-0.863-0.207c-0.266-0.135-0.496-0.332-0.673-0.573-1.068-1.443-3.059-4.257-4.789-7.379-1.704-3.076-3.259-6.635-3.259-9.509zM16 5.164c-4.278 0-7.667 3.292-7.667 7.247 0 2.337 1.32 5.512 3.019 8.581 1.669 3.014 3.602 5.748 4.648 7.161 1.045-1.412 2.979-4.146 4.648-7.159 1.699-3.068 3.019-6.244 3.019-8.583 0-3.955-3.389-7.247-7.667-7.247z"></path>
<path fill="#369be5" style="fill: var(--color5, #369be5)" d="M16 10.914c-1.059 0-1.917 0.858-1.917 1.917s0.858 1.917 1.917 1.917 1.917-0.858 1.917-1.917c0-1.059-0.858-1.917-1.917-1.917zM12.167 12.831c0-2.117 1.716-3.833 3.833-3.833s3.833 1.716 3.833 3.833c0 2.117-1.716 3.833-3.833 3.833s-3.833-1.716-3.833-3.833z"></path>
</symbol>
<symbol id="te_mob_IncidentGray" viewBox="0 0 32 32">
<path fill="none" stroke="#c9c9c9" style="stroke: var(--color4, #c9c9c9)" stroke-linejoin="miter" stroke-linecap="butt" stroke-miterlimit="10" stroke-width="1.5484" d="M27.112 16.995c0-5.965-4.839-10.804-10.804-10.804s-10.804 4.839-10.804 10.804c0 5.965 4.839 10.804 10.804 10.804s10.804-4.839 10.804-10.804z"></path>
<path fill="none" stroke="#c9c9c9" style="stroke: var(--color4, #c9c9c9)" stroke-linejoin="round" stroke-linecap="round" stroke-miterlimit="4" stroke-width="1.5484" d="M15.985 11.934l0.323 6.862 0.322-6.862c0.002-0.044-0.005-0.088-0.020-0.129s-0.039-0.079-0.070-0.11-0.067-0.057-0.108-0.074c-0.041-0.017-0.084-0.025-0.128-0.025v0c-0.043 0-0.086 0.009-0.126 0.027s-0.076 0.043-0.105 0.074c-0.030 0.031-0.053 0.069-0.068 0.109s-0.022 0.084-0.020 0.127v0z"></path>
<path fill="#c9c9c9" style="fill: var(--color4, #c9c9c9)" d="M16.308 23.289c-0.223 0-0.44-0.066-0.625-0.19s-0.329-0.299-0.414-0.505c-0.085-0.206-0.107-0.432-0.064-0.65s0.151-0.419 0.308-0.576c0.157-0.157 0.358-0.265 0.576-0.308s0.445-0.021 0.65 0.064c0.206 0.085 0.381 0.229 0.505 0.414s0.19 0.403 0.19 0.625c0 0.298-0.119 0.585-0.33 0.796s-0.497 0.33-0.796 0.33z"></path>
</symbol>
<symbol id="te_mob_pending" viewBox="0 0 32 32">
<path fill="#face85" style="fill: var(--color6, #face85)" d="M16.434 0.832c-8.461 0-15.385 6.923-15.385 15.385s6.923 15.385 15.385 15.385c8.462 0 15.385-6.923 15.385-15.385s-6.923-15.385-15.385-15.385zM21.895 22.063l-6.277-3.862c-0.462-0.277-0.738-0.769-0.738-1.308v-7.215c0.015-0.631 0.538-1.154 1.169-1.154s1.154 0.523 1.154 1.154v6.846l5.908 3.554c0.554 0.338 0.738 1.062 0.4 1.615-0.338 0.538-1.062 0.708-1.615 0.369z"></path>
</symbol>
<symbol id="te_mob_sign-off" viewBox="0 0 32 32">
<path fill="#153d59" style="fill: var(--color2, #153d59)" d="M32 16c0 8.837-7.163 16-16 16s-16-7.163-16-16c0-8.837 7.163-16 16-16s16 7.163 16 16z"></path>
<path fill="none" stroke="#fff" style="stroke: var(--color3, #fff)" stroke-linejoin="round" stroke-linecap="round" stroke-miterlimit="4" stroke-width="1.2632" d="M14.526 15.998h10.105M19.579 19.156v1.579c0 0.419-0.166 0.82-0.462 1.116s-0.698 0.462-1.116 0.462h-6.316c-0.419 0-0.82-0.166-1.116-0.462s-0.462-0.698-0.462-1.116v-9.474c0-0.419 0.166-0.82 0.462-1.116s0.698-0.462 1.116-0.462h6c0.872 0 1.895 0.707 1.895 1.579v7.895zM22.105 19.156l3.158-3.158-3.158-3.158v6.316z"></path>
</symbol>
<symbol id="te_mob_sign-on" viewBox="0 0 32 32">
<path fill="#153d59" style="fill: var(--color2, #153d59)" d="M32 16c0 8.837-7.163 16-16 16s-16-7.163-16-16c0-8.837 7.163-16 16-16s16 7.163 16 16z"></path>
<path fill="none" stroke="#fff" style="stroke: var(--color3, #fff)" stroke-linejoin="round" stroke-linecap="round" stroke-miterlimit="4" stroke-width="1.2632" d="M11.789 12.84v-1.579c0-0.419 0.166-0.82 0.462-1.116s0.698-0.462 1.116-0.462h6.316c0.419 0 0.82 0.166 1.116 0.462s0.462 0.698 0.462 1.116v9.474c0 0.419-0.166 0.82-0.462 1.116s-0.698 0.462-1.116 0.462h-6c-0.872 0-1.895-0.707-1.895-1.579v-1.579"></path>
<path fill="none" stroke="#fff" style="stroke: var(--color3, #fff)" stroke-linejoin="round" stroke-linecap="round" stroke-miterlimit="4" stroke-width="1.2632" d="M15.579 19.156l3.158-3.158-3.158-3.158M7.368 15.998h10.737"></path>
</symbol>
<symbol id="te_mob_start-time" viewBox="0 0 32 32">
<path fill="#153d59" style="fill: var(--color2, #153d59)" d="M32 16c0 8.837-7.163 16-16 16s-16-7.163-16-16c0-8.837 7.163-16 16-16s16 7.163 16 16z"></path>
<path fill="#fff" style="fill: var(--color3, #fff)" d="M14.239 22.24l6.439-5.518c0.104-0.089 0.187-0.199 0.244-0.323s0.087-0.259 0.087-0.396c0-0.137-0.030-0.272-0.087-0.396s-0.14-0.235-0.244-0.323l-6.439-5.518c-0.615-0.527-1.564-0.090-1.564 0.719v11.037c0 0.809 0.949 1.246 1.564 0.718v0z"></path>
</symbol>
<symbol id="te_mob_total-hours" viewBox="0 0 32 32">
<path fill="#153d59" style="fill: var(--color2, #153d59)" d="M32 16c0 8.837-7.163 16-16 16s-16-7.163-16-16c0-8.837 7.163-16 16-16s16 7.163 16 16z"></path>
<path fill="none" stroke="#fff" style="stroke: var(--color3, #fff)" stroke-linejoin="round" stroke-linecap="round" stroke-miterlimit="4" stroke-width="1.2632" d="M10.351 10.944c-1.226 1.369-1.912 3.136-1.931 4.974-0.047 4.198 3.381 7.65 7.579 7.658 4.192 0.008 7.579-3.388 7.579-7.579 0-4.127-3.298-7.485-7.401-7.579-0.023-0.001-0.046 0.003-0.068 0.012s-0.041 0.021-0.058 0.037c-0.017 0.016-0.030 0.035-0.039 0.057s-0.014 0.044-0.013 0.067v3.301"></path>
<path fill="#fff" style="fill: var(--color3, #fff)" d="M15.107 16.89l-3.118-4.461c-0.043-0.062-0.063-0.137-0.057-0.212s0.040-0.145 0.093-0.199 0.124-0.086 0.199-0.093c0.075-0.007 0.15 0.013 0.212 0.057l4.461 3.118c0.274 0.197 0.459 0.494 0.515 0.826s-0.020 0.674-0.214 0.95c-0.193 0.276-0.487 0.465-0.819 0.526s-0.674-0.011-0.953-0.2c-0.123-0.085-0.231-0.192-0.319-0.313z"></path>
</symbol>
<symbol id="te_web_assessment" viewBox="0 0 32 32">
<path fill="none" stroke="#fff" style="stroke: var(--color3, #fff)" stroke-linejoin="round" stroke-linecap="round" stroke-miterlimit="4" stroke-width="2.4935" d="M17.129 3.31l3.335 6.732c0.076 0.171 0.195 0.319 0.346 0.429s0.328 0.179 0.514 0.2l7.361 1.091c0.213 0.027 0.414 0.115 0.579 0.252s0.288 0.319 0.354 0.523c0.066 0.205 0.072 0.424 0.018 0.632s-0.166 0.396-0.323 0.543l-5.306 5.264c-0.135 0.127-0.237 0.285-0.296 0.461s-0.072 0.363-0.040 0.546l1.279 7.403c0.037 0.213 0.014 0.432-0.068 0.632s-0.217 0.373-0.392 0.5c-0.175 0.127-0.382 0.202-0.597 0.217s-0.431-0.031-0.621-0.132l-6.627-3.502c-0.17-0.083-0.356-0.127-0.545-0.127s-0.376 0.043-0.545 0.127l-6.627 3.502c-0.191 0.101-0.406 0.147-0.621 0.132s-0.422-0.090-0.597-0.217c-0.175-0.127-0.311-0.3-0.392-0.5s-0.105-0.419-0.068-0.632l1.279-7.487c0.032-0.182 0.019-0.37-0.040-0.546s-0.16-0.334-0.296-0.461l-5.369-5.18c-0.159-0.151-0.271-0.344-0.322-0.557s-0.039-0.436 0.034-0.643c0.073-0.206 0.205-0.387 0.379-0.52s0.383-0.213 0.601-0.23l7.361-1.091c0.186-0.021 0.363-0.089 0.514-0.2s0.27-0.258 0.346-0.429l3.335-6.732c0.091-0.196 0.236-0.362 0.418-0.478s0.394-0.178 0.61-0.178c0.216 0 0.428 0.062 0.61 0.178s0.327 0.282 0.418 0.478v0z"></path>
</symbol>
<symbol id="te_web_clients" viewBox="0 0 32 32">
<path fill="#fff" style="fill: var(--color3, #fff)" d="M16.4 16.293c0.711-0.616 1.282-1.377 1.673-2.233s0.593-1.786 0.593-2.727c0-1.768-0.702-3.464-1.953-4.714s-2.946-1.953-4.714-1.953-3.464 0.702-4.714 1.953c-1.25 1.25-1.953 2.946-1.953 4.714 0 0.941 0.202 1.871 0.593 2.727s0.962 1.617 1.673 2.233c-1.866 0.845-3.45 2.21-4.561 3.931s-1.703 3.726-1.705 5.775c0 0.354 0.14 0.693 0.391 0.943s0.589 0.391 0.943 0.391c0.354 0 0.693-0.141 0.943-0.391s0.391-0.589 0.391-0.943c0-2.122 0.843-4.157 2.343-5.657s3.535-2.343 5.657-2.343 4.157 0.843 5.657 2.343c1.5 1.5 2.343 3.535 2.343 5.657 0 0.354 0.141 0.693 0.391 0.943s0.589 0.391 0.943 0.391c0.354 0 0.693-0.141 0.943-0.391s0.391-0.589 0.391-0.943c-0.002-2.049-0.594-4.054-1.705-5.775s-2.695-3.086-4.561-3.931zM12 15.333c-0.791 0-1.564-0.235-2.222-0.674s-1.171-1.064-1.473-1.795c-0.303-0.731-0.382-1.535-0.228-2.311s0.535-1.489 1.095-2.048c0.559-0.559 1.272-0.94 2.048-1.095s1.58-0.075 2.311 0.228c0.731 0.303 1.356 0.815 1.795 1.473s0.674 1.431 0.674 2.222c0 1.061-0.421 2.078-1.172 2.828s-1.768 1.172-2.828 1.172zM24.987 15.76c0.853-0.961 1.411-2.148 1.605-3.418s0.017-2.57-0.509-3.742c-0.527-1.172-1.381-2.167-2.46-2.865s-2.337-1.069-3.622-1.069c-0.354 0-0.693 0.14-0.943 0.391s-0.391 0.589-0.391 0.943c0 0.354 0.141 0.693 0.391 0.943s0.589 0.391 0.943 0.391c1.061 0 2.078 0.421 2.828 1.172s1.172 1.768 1.172 2.828c-0.002 0.7-0.188 1.388-0.539 1.994s-0.855 1.109-1.461 1.459c-0.198 0.114-0.363 0.277-0.479 0.473s-0.181 0.419-0.187 0.647c-0.006 0.226 0.047 0.45 0.152 0.651s0.259 0.371 0.448 0.496l0.52 0.347 0.173 0.093c1.607 0.762 2.963 1.968 3.908 3.475s1.439 3.253 1.425 5.032c0 0.354 0.141 0.693 0.391 0.943s0.589 0.391 0.943 0.391c0.354 0 0.693-0.141 0.943-0.391s0.391-0.589 0.391-0.943c0.011-2.046-0.502-4.061-1.489-5.853s-2.416-3.302-4.151-4.387z"></path>
</symbol>
<symbol id="te_web_dashboard" viewBox="0 0 32 32">
<path fill="none" stroke="#fff" style="stroke: var(--color3, #fff)" stroke-linejoin="round" stroke-linecap="round" stroke-miterlimit="4" stroke-width="2.56" d="M26.932 18.725h-8.96v8.96h8.96v-8.96z"></path>
<path fill="none" stroke="#fff" style="stroke: var(--color3, #fff)" stroke-linejoin="round" stroke-linecap="round" stroke-miterlimit="4" stroke-width="2.56" d="M12.852 18.725h-8.96v8.96h8.96v-8.96z"></path>
<path fill="none" stroke="#fff" style="stroke: var(--color3, #fff)" stroke-linejoin="round" stroke-linecap="round" stroke-miterlimit="4" stroke-width="2.56" d="M26.932 4.645h-8.96v8.96h8.96v-8.96z"></path>
<path fill="none" stroke="#fff" style="stroke: var(--color3, #fff)" stroke-linejoin="round" stroke-linecap="round" stroke-miterlimit="4" stroke-width="2.56" d="M12.852 4.645h-8.96v8.96h8.96v-8.96z"></path>
</symbol>
<symbol id="te_web_Details" viewBox="0 0 32 32">
<path fill="none" stroke="#fff" style="stroke: var(--color3, #fff)" stroke-linejoin="round" stroke-linecap="round" stroke-miterlimit="4" stroke-width="2.3851" d="M11.87 11.925c2.603 0 4.712-2.11 4.712-4.712s-2.11-4.712-4.712-4.712c-2.603 0-4.712 2.11-4.712 4.712s2.11 4.712 4.712 4.712z"></path>
<path fill="none" stroke="#fff" style="stroke: var(--color3, #fff)" stroke-linejoin="round" stroke-linecap="round" stroke-miterlimit="4" stroke-width="2.3851" d="M8.729 27.627h-6.283v-3.142c0.017-1.596 0.438-3.162 1.224-4.552s1.911-2.557 3.271-3.394c1.36-0.837 2.909-1.315 4.504-1.391s3.182 0.254 4.615 0.959"></path>
<path fill="none" stroke="#fff" style="stroke: var(--color3, #fff)" stroke-linejoin="round" stroke-linecap="round" stroke-miterlimit="4" stroke-width="2.3851" d="M29.672 19.256l-9.864 9.864-4.461 0.607 0.628-4.461 9.843-9.864 3.854 3.854z"></path>
</symbol>
<symbol id="te_web_equipment-register-icon" viewBox="0 0 32 32">
<path fill="none" stroke="#fff" style="stroke: var(--color3, #fff)" stroke-linejoin="round" stroke-linecap="round" stroke-miterlimit="4" stroke-width="2.3851" d="M12.865 3.489h-10.932v10.932h10.932v-10.932z"></path>
<path fill="none" stroke="#fff" style="stroke: var(--color3, #fff)" stroke-linejoin="round" stroke-linecap="round" stroke-miterlimit="4" stroke-width="2.3851" d="M29.809 30.818h-10.932"></path>
<path fill="none" stroke="#fff" style="stroke: var(--color3, #fff)" stroke-linejoin="round" stroke-linecap="round" stroke-miterlimit="4" stroke-width="2.3851" d="M18.878 19.889h10.932"></path>
<path fill="none" stroke="#fff" style="stroke: var(--color3, #fff)" stroke-linejoin="round" stroke-linecap="round" stroke-miterlimit="4" stroke-width="2.3851" d="M18.878 25.353h10.932"></path>
<path fill="none" stroke="#fff" style="stroke: var(--color3, #fff)" stroke-linejoin="round" stroke-linecap="round" stroke-miterlimit="4" stroke-width="2.3851" d="M30.356 14.422h-12.025l6.012-12.025 6.012 12.025z"></path>
<path fill="none" stroke="#fff" style="stroke: var(--color3, #fff)" stroke-linejoin="round" stroke-linecap="round" stroke-miterlimit="4" stroke-width="2.3851" d="M7.399 30.82c3.019 0 5.466-2.447 5.466-5.466s-2.447-5.466-5.466-5.466c-3.019 0-5.466 2.447-5.466 5.466s2.447 5.466 5.466 5.466z"></path>
</symbol>
<symbol id="te_web_incident-report" viewBox="0 0 32 32">
<path fill="none" stroke="#fff" style="stroke: var(--color3, #fff)" stroke-linejoin="round" stroke-linecap="round" stroke-miterlimit="4" stroke-width="2.1943" d="M18.835 7.864v-2.194c0-0.582-0.231-1.14-0.643-1.552s-0.97-0.643-1.552-0.643h-2.194"></path>
<path fill="none" stroke="#fff" style="stroke: var(--color3, #fff)" stroke-linejoin="round" stroke-linecap="round" stroke-miterlimit="4" stroke-width="2.1943" d="M8.96 23.224h-5.486c-0.582 0-1.14-0.231-1.552-0.643s-0.643-0.97-0.643-1.552v-15.36c0-0.582 0.231-1.14 0.643-1.552s0.97-0.643 1.552-0.643h2.194"></path>
<path fill="none" stroke="#fff" style="stroke: var(--color3, #fff)" stroke-linejoin="round" stroke-linecap="round" stroke-miterlimit="4" stroke-width="2.1943" d="M27.612 12.252h-10.971c-1.212 0-2.194 0.982-2.194 2.194v13.166c0 1.212 0.982 2.194 2.194 2.194h10.971c1.212 0 2.194-0.983 2.194-2.194v-13.166c0-1.212-0.982-2.194-2.194-2.194z"></path>
<path fill="none" stroke="#fff" style="stroke: var(--color3, #fff)" stroke-linejoin="round" stroke-linecap="round" stroke-miterlimit="4" stroke-width="2.1943" d="M14.994 1.28h-9.874l0.9 3.555c0.055 0.238 0.189 0.45 0.38 0.602s0.429 0.233 0.673 0.232h5.968c0.244 0.001 0.481-0.081 0.673-0.232s0.325-0.364 0.38-0.602l0.9-3.555z"></path>
<path fill="none" stroke="#fff" style="stroke: var(--color3, #fff)" stroke-linejoin="round" stroke-linecap="round" stroke-miterlimit="4" stroke-width="2.1943" d="M18.834 18.835h6.583"></path>
<path fill="none" stroke="#fff" style="stroke: var(--color3, #fff)" stroke-linejoin="round" stroke-linecap="round" stroke-miterlimit="4" stroke-width="2.1943" d="M18.834 23.223h6.583"></path>
</symbol>
<symbol id="te_web_Interviews" viewBox="0 0 32 32">
<path fill="#fff" style="fill: var(--color3, #fff)" d="M29.257 19.927c-0.305-1.676-1.371-3.048-2.743-3.962 0.457-0.61 0.762-1.524 0.762-2.286 0-2.286-1.829-3.962-3.962-3.962s-3.962 1.829-3.962 3.962c0 0.762 0.305 1.676 0.762 2.286-1.371 0.914-2.438 2.286-2.743 3.962h-4.419c-0.152-1.981-1.981-3.505-3.962-3.505s-3.81 1.524-3.962 3.505h-5.029v6.248h2.895c-0.152 0.61-0.305 1.219-0.305 1.829v3.505h12.495v-3.505c0-0.61-0.152-1.219-0.305-1.829h7.314v5.333h6.248v-5.333h2.743v-6.248h-1.829zM23.162 17.794c1.371 0 2.743 0.914 3.352 2.133h-6.705c0.61-1.219 1.829-2.133 3.352-2.133zM23.162 15.051c-0.762 0-1.371-0.61-1.371-1.371s0.61-1.371 1.371-1.371c0.762 0 1.371 0.61 1.371 1.371-0.152 0.762-0.61 1.371-1.371 1.371zM12.495 28.003v0.914h-7.162v-0.914c0-1.981 1.524-3.505 3.505-3.505s3.657 1.524 3.657 3.505zM8.838 19.165c0.762 0 1.371 0.61 1.371 1.371s-0.61 1.371-1.371 1.371c-0.762 0-1.219-0.762-1.219-1.524 0-0.61 0.61-1.219 1.219-1.219zM2.743 23.584v-0.914h2.895c-0.457 0.305-0.762 0.61-1.067 0.914h-1.829zM28.495 22.67v0.914h-15.238c-0.305-0.305-0.61-0.61-1.067-0.914h16.305zM24.838 28.917v-2.59h0.914v2.59h-0.914z"></path>
<path fill="#fff" style="fill: var(--color3, #fff)" d="M15.086 16.423v-16h-15.086v13.41h9.905l5.181 2.59zM10.667 11.089h-7.924v-7.924h9.752v8.99l-1.829-1.067z"></path>
</symbol>
<symbol id="te_web_item-code" viewBox="0 0 32 32">
<path fill="#fff" style="fill: var(--color3, #fff)" d="M30.666 15.999l-3.253-3.707 0.453-4.907-4.813-1.093-2.52-4.24-4.533 1.947-4.533-1.947-2.52 4.24-4.813 1.080 0.453 4.907-3.253 3.72 3.253 3.707-0.453 4.92 4.813 1.093 2.52 4.24 4.533-1.96 4.533 1.947 2.52-4.24 4.813-1.093-0.453-4.907 3.253-3.707zM24.653 18.813l0.347 3.72-3.653 0.827-1.907 3.213-3.44-1.48-3.44 1.48-1.907-3.213-3.653-0.827 0.347-3.733-2.467-2.8 2.467-2.827-0.347-3.707 3.653-0.813 1.907-3.213 3.44 1.467 3.44-1.48 1.907 3.213 3.653 0.827-0.347 3.72 2.467 2.813-2.467 2.813zM14.666 20h2.667v2.667h-2.667v-2.667zM14.666 9.333h2.667v8h-2.667v-8z"></path>
</symbol>
<symbol id="te_web_logs" viewBox="0 0 32 32">
<path fill="#fff" d="M24.96 2.9h-17.92c-1.018 0-1.995 0.405-2.715 1.125s-1.125 1.697-1.125 2.715v17.92c0 1.018 0.405 1.995 1.125 2.715s1.697 1.125 2.715 1.125h17.92c1.018 0 1.995-0.404 2.715-1.125s1.125-1.697 1.125-2.715v-17.92c0-1.018-0.405-1.995-1.125-2.715s-1.697-1.125-2.715-1.125zM13.44 5.46h5.12v4.006l-1.856-1.28c-0.209-0.138-0.454-0.211-0.704-0.211s-0.495 0.073-0.704 0.211l-1.856 1.28v-4.006zM26.24 24.66c0 0.339-0.135 0.665-0.375 0.905s-0.566 0.375-0.905 0.375h-17.92c-0.339 0-0.665-0.135-0.905-0.375s-0.375-0.566-0.375-0.905v-17.92c0-0.339 0.135-0.665 0.375-0.905s0.566-0.375 0.905-0.375h3.84v6.4c0.001 0.232 0.064 0.459 0.184 0.657s0.29 0.361 0.495 0.469c0.2 0.103 0.424 0.151 0.649 0.14s0.443-0.082 0.631-0.204l3.162-2.086 3.136 2.086c0.192 0.127 0.416 0.199 0.646 0.21s0.459-0.041 0.662-0.15c0.203-0.109 0.373-0.27 0.492-0.468s0.182-0.423 0.184-0.654v-6.4h3.84c0.339 0 0.665 0.135 0.905 0.375s0.375 0.566 0.375 0.905v17.92z"></path>
</symbol>
<symbol id="te_web_members" viewBox="0 0 32 32">
<path fill="#fff" style="fill: var(--color3, #fff)" d="M20.301 16.168c0.969-1.040 1.514-2.405 1.53-3.826 0-1.534-0.61-3.006-1.694-4.091s-2.556-1.694-4.091-1.694c-1.534 0-3.006 0.609-4.091 1.694s-1.694 2.556-1.694 4.091c0.016 1.421 0.562 2.786 1.53 3.826-1.349 0.672-2.51 1.668-3.378 2.9s-1.417 2.66-1.596 4.156c-0.045 0.406 0.074 0.813 0.329 1.132s0.627 0.523 1.033 0.567 0.813-0.074 1.131-0.329c0.319-0.255 0.523-0.627 0.567-1.033 0.183-1.483 0.901-2.848 2.020-3.837s2.562-1.536 4.056-1.536 2.936 0.546 4.056 1.536c1.119 0.99 1.838 2.355 2.020 3.837 0.043 0.392 0.235 0.753 0.537 1.007s0.691 0.381 1.085 0.355h0.168c0.401-0.046 0.768-0.249 1.020-0.564s0.37-0.718 0.327-1.119c-0.166-1.488-0.697-2.912-1.546-4.146s-1.99-2.238-3.32-2.925zM16 15.066c-0.539 0-1.065-0.16-1.513-0.459s-0.797-0.725-1.003-1.223-0.26-1.046-0.155-1.574c0.105-0.528 0.365-1.014 0.746-1.395s0.866-0.64 1.395-0.746c0.528-0.105 1.076-0.051 1.574 0.155s0.923 0.555 1.223 1.003c0.299 0.448 0.459 0.975 0.459 1.513 0 0.723-0.287 1.415-0.798 1.926s-1.204 0.798-1.926 0.798zM26.713 0.435h-21.426c-1.218 0-2.385 0.484-3.247 1.345s-1.345 2.029-1.345 3.247v21.426c0 1.218 0.484 2.386 1.345 3.247s2.029 1.345 3.247 1.345h21.426c1.218 0 2.386-0.484 3.247-1.345s1.345-2.029 1.345-3.247v-21.426c0-1.218-0.484-2.385-1.345-3.247s-2.029-1.345-3.247-1.345zM28.243 26.452c0 0.406-0.161 0.795-0.448 1.082s-0.676 0.448-1.082 0.448h-21.426c-0.406 0-0.795-0.161-1.082-0.448s-0.448-0.676-0.448-1.082v-21.426c0-0.406 0.161-0.795 0.448-1.082s0.676-0.448 1.082-0.448h21.426c0.406 0 0.795 0.161 1.082 0.448s0.448 0.676 0.448 1.082v21.426z"></path>
</symbol>
<symbol id="te_web_resource" viewBox="0 0 32 32">
<path fill="none" stroke="#fff" style="stroke: var(--color3, #fff)" stroke-linejoin="round" stroke-linecap="round" stroke-miterlimit="4" stroke-width="2.3851" d="M11.265 11.264c2.726 0 4.937-2.21 4.937-4.937s-2.21-4.937-4.937-4.937c-2.726 0-4.937 2.21-4.937 4.937s2.21 4.937 4.937 4.937z"></path>
<path fill="none" stroke="#fff" style="stroke: var(--color3, #fff)" stroke-linejoin="round" stroke-linecap="round" stroke-miterlimit="4" stroke-width="2.3851" d="M13.459 14.799c-1.447-0.334-2.95-0.337-4.398-0.008s-2.803 0.981-3.963 1.907c-1.16 0.926-2.097 2.103-2.738 3.442s-0.972 2.806-0.967 4.291v3.291h12.067"></path>
<path fill="none" stroke="#fff" style="stroke: var(--color3, #fff)" stroke-linejoin="round" stroke-linecap="round" stroke-miterlimit="4" stroke-width="2.3851" d="M23.705 29.848c-0.241 0.087-0.505 0.087-0.746 0-1.83-0.725-3.4-1.982-4.507-3.61s-1.7-3.55-1.702-5.518v-2.874c-0.010-0.146 0.012-0.294 0.064-0.431s0.132-0.262 0.236-0.366c0.104-0.104 0.229-0.184 0.366-0.236s0.285-0.073 0.431-0.064h10.97c0.147-0.010 0.294 0.012 0.431 0.064s0.262 0.132 0.366 0.236c0.104 0.104 0.184 0.229 0.236 0.366s0.073 0.285 0.064 0.431v2.874c-0.002 1.968-0.595 3.89-1.702 5.518s-2.677 2.885-4.507 3.61v0z"></path>
</symbol>
<symbol id="te_web_roster" viewBox="0 0 32 32">
<path fill="#fff" style="fill: var(--color3, #fff)" d="M26.667 4.22h-3.048v-1.524c0-0.457-0.152-0.762-0.457-1.067s-0.61-0.457-1.067-0.457c-0.457 0-0.762 0.152-1.067 0.457s-0.457 0.61-0.457 1.067v1.524h-9.143v-1.524c0-0.457-0.152-0.762-0.457-1.067s-0.61-0.457-1.067-0.457c-0.457 0-0.762 0.152-1.067 0.457s-0.457 0.61-0.457 1.067v1.524h-3.048c-1.219 0-2.438 0.457-3.2 1.371-0.914 0.762-1.371 1.981-1.371 3.2v18.286c0 1.219 0.457 2.438 1.371 3.2 0.762 0.914 1.981 1.371 3.2 1.371h21.333c1.219 0 2.438-0.457 3.2-1.371 0.914-0.914 1.371-1.981 1.371-3.2v-18.286c0-1.219-0.457-2.438-1.371-3.2-0.762-0.914-1.981-1.371-3.2-1.371zM28.19 27.077c0 0.457-0.152 0.762-0.457 1.067s-0.61 0.457-1.067 0.457h-21.333c-0.457 0-0.762-0.152-1.067-0.457s-0.457-0.61-0.457-1.067v-10.667h24.381v10.667zM28.19 13.363h-24.381v-4.571c0-0.457 0.152-0.762 0.457-1.067s0.61-0.457 1.067-0.457h3.048v1.524c0 0.457 0.152 0.762 0.457 1.067s0.61 0.457 1.067 0.457c0.457 0 0.762-0.152 1.067-0.457s0.457-0.61 0.457-1.067v-1.524h9.143v1.524c0 0.457 0.152 0.762 0.457 1.067s0.61 0.457 1.067 0.457c0.457 0 0.762-0.152 1.067-0.457s0.457-0.61 0.457-1.067v-1.524h3.048c0.457 0 0.762 0.152 1.067 0.457s0.457 0.61 0.457 1.067v4.571z"></path>
</symbol>
<symbol id="te_web_supplier" viewBox="0 0 32 32">
<path fill="none" stroke="#fff" style="stroke: var(--color3, #fff)" stroke-linejoin="round" stroke-linecap="round" stroke-miterlimit="4" stroke-width="2.6123" d="M16.97 29.369c-0.482 0.186-1.015 0.186-1.497 0v0c-3.761-1.475-6.99-4.048-9.266-7.385s-3.495-7.282-3.496-11.322v-6.090c0-0.551 0.219-1.080 0.609-1.47s0.918-0.609 1.47-0.609h22.864c0.551 0 1.080 0.219 1.47 0.609s0.609 0.918 0.609 1.47v6.069c0.003 4.043-1.213 7.993-3.49 11.334s-5.508 5.918-9.272 7.394v0z"></path>
<path fill="none" stroke="#fff" style="stroke: var(--color3, #fff)" stroke-linejoin="round" stroke-linecap="round" stroke-miterlimit="4" stroke-width="2.6123" d="M16.222 18.086c2.87 0 5.196-2.326 5.196-5.196s-2.326-5.196-5.196-5.196c-2.87 0-5.196 2.326-5.196 5.196s2.326 5.196 5.196 5.196z"></path>
<path fill="none" stroke="#fff" style="stroke: var(--color3, #fff)" stroke-linejoin="round" stroke-linecap="round" stroke-miterlimit="4" stroke-width="2.6123" d="M8.427 24.715c0.975-1.106 2.175-1.991 3.519-2.598s2.801-0.92 4.276-0.92c1.474 0 2.932 0.314 4.276 0.92s2.543 1.492 3.518 2.598"></path>
</symbol>
<symbol id="te_web_task-Checklist" viewBox="0 0 32 32">
<path fill="#fff" style="fill: var(--color3, #fff)" d="M8.185 25.675h15.768v-3.154h-15.768v3.154z"></path>
<path fill="#fff" style="fill: var(--color3, #fff)" d="M23.954 19.368h-15.768v-3.154h15.768v3.154z"></path>
<path fill="#fff" style="fill: var(--color3, #fff)" d="M8.185 13.060h6.307v-3.154h-6.307v3.154z"></path>
<path fill="#fff" style="fill: var(--color3, #fff)" d="M6.608 0.446c-2.613 0-4.731 2.118-4.731 4.731v22.076c0 2.613 2.118 4.731 4.731 4.731h18.922c2.613 0 4.731-2.118 4.731-4.73v-15.768c0-6.096-4.942-11.038-11.038-11.038h-12.615zM6.608 3.599h11.038v7.884h9.461v15.769c0 0.871-0.706 1.577-1.577 1.577h-18.922c-0.871 0-1.577-0.706-1.577-1.577v-22.076c0-0.871 0.706-1.577 1.577-1.577zM20.8 3.757c2.541 0.516 4.638 2.253 5.651 4.573h-5.651v-4.573z"></path>
</symbol>
<symbol id="te_web_timesheet-register" viewBox="0 0 32 32">
<path fill="#fff" style="fill: var(--color3, #fff)" d="M23.924 17.021c-3.962 0-7.314 3.2-7.314 7.314 0 3.962 3.2 7.314 7.314 7.314 3.962 0 7.314-3.2 7.314-7.314s-3.352-7.314-7.314-7.314zM23.924 29.059c-2.743 0-4.876-2.133-4.876-4.876s2.133-4.876 4.876-4.876c2.743 0 4.876 2.133 4.876 4.876s-2.133 4.876-4.876 4.876z"></path>
<path fill="#fff" style="fill: var(--color3, #fff)" d="M25.753 23.117h-0.61v-1.219c0-0.61-0.61-1.219-1.219-1.219s-1.219 0.61-1.219 1.219v2.438c0 0.61 0.61 1.219 1.219 1.219h1.676c0.61 0 1.219-0.61 1.219-1.219s-0.457-1.219-1.067-1.219z"></path>
<path fill="#fff" style="fill: var(--color3, #fff)" d="M29.867 5.592c-0.762-0.914-1.981-1.371-3.2-1.371h-3.048v-1.524c0-0.457-0.152-0.762-0.457-1.067s-0.61-0.457-1.067-0.457c-0.457 0-0.762 0.152-1.067 0.457s-0.457 0.61-0.457 1.067v1.524h-9.143v-1.524c0-0.457-0.152-0.762-0.457-1.067s-0.61-0.457-1.067-0.457c-0.457 0-0.762 0.152-1.067 0.457s-0.457 0.61-0.457 1.067v1.524h-3.048c-1.219 0-2.438 0.457-3.2 1.371-0.914 0.762-1.371 1.981-1.371 3.2v18.286c0 1.219 0.457 2.438 1.371 3.2 0.762 0.914 1.981 1.371 3.2 1.371h9.752c0.914 0 1.524-0.61 1.524-1.524s-0.61-1.524-1.524-1.524h-9.752c-0.457 0-0.762-0.152-1.067-0.457s-0.457-0.61-0.457-1.067v-18.286c0-0.457 0.152-0.762 0.457-1.067s0.61-0.457 1.067-0.457h3.048v1.524c0 0.457 0.152 0.762 0.457 1.067s0.61 0.457 1.067 0.457c0.457 0 0.762-0.152 1.067-0.457s0.457-0.61 0.457-1.067v-1.524h9.143v1.524c0 0.457 0.152 0.762 0.457 1.067s0.61 0.457 1.067 0.457c0.457 0 0.762-0.152 1.067-0.457s0.457-0.61 0.457-1.067v-1.524h3.048c0.457 0 0.762 0.152 1.067 0.457s0.457 0.61 0.457 1.067v5.029c0 0.914 0.61 1.524 1.524 1.524s1.524-0.609 1.524-1.524v-5.029c0-1.219-0.457-2.438-1.371-3.2z"></path>
</symbol>
<symbol id="te_web_venue" viewBox="0 0 32 32">
<path fill="none" stroke="#fff" style="stroke: var(--color3, #fff)" stroke-linejoin="round" stroke-linecap="round" stroke-miterlimit="4" stroke-width="2.1943" d="M25.509 11.154c0 5.464-9.874 18.651-9.874 18.651s-9.874-13.188-9.874-18.651c0-2.619 1.040-5.13 2.892-6.982s4.363-2.892 6.982-2.892c2.619 0 5.13 1.040 6.982 2.892s2.892 4.363 2.892 6.982v0z"></path>
<path fill="none" stroke="#fff" style="stroke: var(--color3, #fff)" stroke-linejoin="round" stroke-linecap="round" stroke-miterlimit="4" stroke-width="2.1943" d="M15.634 14.445c1.818 0 3.291-1.474 3.291-3.291s-1.474-3.291-3.291-3.291c-1.818 0-3.291 1.474-3.291 3.291s1.474 3.291 3.291 3.291z"></path>
</symbol>
</defs>
</svg>
