<svg width="443" height="381" viewBox="0 0 443 381" fill="none" xmlns="http://www.w3.org/2000/svg">
<path d="M211.734 381C327.3 381 420.985 375.533 420.985 368.79C420.985 362.046 327.3 356.58 211.734 356.58C96.1675 356.58 2.48242 362.046 2.48242 368.79C2.48242 375.533 96.1675 381 211.734 381Z" fill="#153D59" fill-opacity="0.1"/>
<path opacity="0.2" d="M166.192 116.159L164.681 243.231C159.501 285.48 84.6069 319.085 84.6069 319.085C84.6069 319.085 9.82027 285.48 4.53232 243.231L3.02148 116.159L82.9881 89.7932L166.192 116.159Z" fill="white"/>
<path opacity="0.5" d="M151.083 131.394L149.896 236.099C145.58 270.676 84.4985 298.122 84.4985 298.122C84.4985 298.122 23.3094 270.676 19.1007 236.099L17.8057 131.394L83.0956 109.891L151.083 131.394Z" stroke="#BBDBF8" stroke-width="3" stroke-miterlimit="10" stroke-linecap="round" stroke-linejoin="round"/>
<path d="M417.208 73.2609H273.246V326.108H417.208V73.2609Z" fill="#153D59"/>
<path d="M285.656 285.804C285.656 284.94 286.412 284.183 287.275 284.183C288.138 284.183 288.894 284.94 288.894 285.804C288.894 286.668 288.138 287.425 287.275 287.425C286.412 287.425 285.656 286.777 285.656 285.804ZM285.656 246.04C285.656 245.176 286.412 244.419 287.275 244.419C288.138 244.419 288.894 245.176 288.894 246.04C288.894 246.904 288.138 247.661 287.275 247.661C286.412 247.661 285.656 246.904 285.656 246.04ZM285.656 206.276C285.656 205.412 286.412 204.655 287.275 204.655C288.138 204.655 288.894 205.412 288.894 206.276C288.894 207.14 288.138 207.897 287.275 207.897C286.412 207.897 285.656 207.14 285.656 206.276ZM285.656 166.404C285.656 165.539 286.412 164.783 287.275 164.783C288.138 164.783 288.894 165.539 288.894 166.404C288.894 167.268 288.138 168.025 287.275 168.025C286.412 168.025 285.656 167.376 285.656 166.404ZM285.656 126.64C285.656 125.775 286.412 125.019 287.275 125.019C288.138 125.019 288.894 125.775 288.894 126.64C288.894 127.504 288.138 128.261 287.275 128.261C286.412 128.261 285.656 127.504 285.656 126.64Z" fill="white"/>
<path d="M287.275 88.4966C286.843 88.4966 286.412 88.2805 286.088 88.0644C285.98 87.9564 285.98 87.9564 285.872 87.8483C285.872 87.7403 285.764 87.6322 285.764 87.5241C285.764 87.4161 285.656 87.308 285.656 87.2C285.656 87.0919 285.656 86.9839 285.656 86.8758C285.656 86.4436 285.872 86.0114 286.088 85.6872C286.196 85.5792 286.196 85.5792 286.304 85.4711C286.412 85.3631 286.52 85.3631 286.627 85.3631C286.735 85.3631 286.843 85.255 286.951 85.255C287.167 85.255 287.383 85.255 287.599 85.255C287.707 85.255 287.815 85.255 287.922 85.3631C288.03 85.3631 288.138 85.4711 288.246 85.4711C288.354 85.5792 288.462 85.5792 288.462 85.6872C288.786 86.0114 288.894 86.4436 288.894 86.8758C288.894 86.9839 288.894 87.0919 288.894 87.2C288.894 87.308 288.786 87.4161 288.786 87.5241C288.786 87.6322 288.678 87.7403 288.678 87.8483C288.678 87.9564 288.57 88.0644 288.462 88.0644C288.138 88.2805 287.707 88.4966 287.275 88.4966Z" fill="white"/>
<path d="M362.709 86.8758C362.709 86.0114 363.464 85.255 364.328 85.255C365.191 85.255 365.947 86.0114 365.947 86.8758C365.947 87.7403 365.191 88.4966 364.328 88.4966C363.464 88.4966 362.709 87.7403 362.709 86.8758ZM324.183 86.8758C324.183 86.0114 324.938 85.255 325.801 85.255C326.665 85.255 327.42 86.0114 327.42 86.8758C327.42 87.7403 326.665 88.4966 325.801 88.4966C324.938 88.4966 324.183 87.7403 324.183 86.8758Z" fill="white"/>
<path d="M402.854 88.4966C402.746 88.4966 402.638 88.4966 402.53 88.4966C402.422 88.4966 402.315 88.4966 402.207 88.3886C402.099 88.3886 401.991 88.2805 401.883 88.2805C401.775 88.1725 401.667 88.1725 401.667 88.0644C401.343 87.7403 401.235 87.308 401.235 86.8758C401.235 86.4436 401.451 86.0114 401.667 85.6872C401.775 85.5792 401.883 85.5792 401.883 85.4711C401.991 85.3631 402.099 85.3631 402.207 85.3631C402.315 85.3631 402.422 85.255 402.53 85.255C402.746 85.255 402.962 85.255 403.178 85.255C403.286 85.255 403.394 85.255 403.502 85.3631C403.61 85.3631 403.717 85.4711 403.825 85.4711C403.933 85.4711 404.041 85.5792 404.041 85.6872C404.365 86.0114 404.473 86.4436 404.473 86.8758C404.473 87.308 404.257 87.7403 404.041 88.0644C403.933 88.1725 403.933 88.1725 403.825 88.2805C403.717 88.2805 403.61 88.3886 403.502 88.3886C403.394 88.3886 403.286 88.4966 403.178 88.4966C403.07 88.4966 402.962 88.4966 402.854 88.4966Z" fill="white"/>
<path d="M401.235 285.804C401.235 284.94 401.991 284.183 402.854 284.183C403.717 284.183 404.473 284.94 404.473 285.804C404.473 286.668 403.717 287.425 402.854 287.425C401.991 287.425 401.235 286.777 401.235 285.804ZM401.235 246.04C401.235 245.176 401.991 244.419 402.854 244.419C403.717 244.419 404.473 245.176 404.473 246.04C404.473 246.904 403.717 247.661 402.854 247.661C401.991 247.661 401.235 246.904 401.235 246.04ZM401.235 206.276C401.235 205.412 401.991 204.655 402.854 204.655C403.717 204.655 404.473 205.412 404.473 206.276C404.473 207.14 403.717 207.897 402.854 207.897C401.991 207.897 401.235 207.14 401.235 206.276ZM401.235 166.404C401.235 165.539 401.991 164.783 402.854 164.783C403.717 164.783 404.473 165.539 404.473 166.404C404.473 167.268 403.717 168.025 402.854 168.025C401.991 168.025 401.235 167.376 401.235 166.404ZM401.235 126.64C401.235 125.775 401.991 125.019 402.854 125.019C403.717 125.019 404.473 125.775 404.473 126.64C404.473 127.504 403.717 128.261 402.854 128.261C401.991 128.261 401.235 127.504 401.235 126.64Z" fill="white"/>
<path d="M44.4619 326.649H0V326.973H44.4619V326.649Z" fill="#2596FF"/>
<path d="M135.113 324.488H90.543V324.812H135.113V324.488Z" fill="#2596FF"/>
<path d="M193.172 324.488H182.38V324.812H193.172V324.488Z" fill="white"/>
<path d="M85.3621 333.672H35.3965V333.996H85.3621V333.672Z" fill="white"/>
<path d="M257.922 326.432H234.612V326.757H257.922V326.432Z" fill="#2596FF"/>
<path d="M297.635 326.432H267.526V326.757H297.635V326.432Z" fill="white"/>
<path d="M443 331.079H375.66V331.403H443V331.079Z" fill="#2596FF"/>
<path d="M111.047 57.9172C104.14 58.8897 97.6653 54.0272 96.694 47.1117C95.7227 40.1962 100.579 33.713 107.486 32.7405C114.392 31.768 120.867 36.6304 121.839 43.5459C122.81 50.4614 118.062 57.0527 111.047 57.9172ZM108.565 39.5479C105.327 39.9801 103.061 43.0057 103.493 46.2473C103.924 49.4889 106.946 51.7581 110.184 51.3258C113.421 50.8936 115.687 47.8681 115.256 44.6265C114.824 41.2768 111.802 39.0076 108.565 39.5479Z" fill="white"/>
<path d="M106.408 7.58765L101.599 8.25964L105.879 38.9736L110.689 38.3016L106.408 7.58765Z" fill="white"/>
<path d="M110.243 3.61793L101.265 4.87231L101.936 9.68809L110.914 8.4337L110.243 3.61793Z" fill="white"/>
<path d="M111.102 9.70517L102.658 10.8849L103.329 15.7007L111.773 14.5209L111.102 9.70517Z" fill="white"/>
<path d="M112.411 18.4121L105.036 19.4424L105.707 24.2582L113.082 23.2278L112.411 18.4121Z" fill="white"/>
<path d="M101.018 187.287C110.95 176.897 109.822 159.677 98.4988 148.824C87.1751 137.971 69.9435 137.595 60.0109 147.984C50.0783 158.374 51.206 175.595 62.5297 186.448C73.8534 197.301 91.085 197.677 101.018 187.287Z" fill="white"/>
<path d="M67.8797 150.52C67.556 150.52 67.2322 150.412 67.0164 150.088C66.6926 149.655 66.8005 148.899 67.2322 148.575C70.6856 145.982 75.0022 144.685 79.7506 144.685C80.3981 144.685 80.8298 145.117 80.8298 145.765C80.8298 146.414 80.3981 146.846 79.7506 146.846C75.4339 146.846 71.6568 148.035 68.5272 150.304C68.3114 150.412 68.0955 150.52 67.8797 150.52Z" fill="#153D59"/>
<path d="M72.9518 187.691C72.736 187.691 72.6281 187.691 72.4122 187.583C65.7214 184.017 61.0809 177.642 59.5701 170.078C58.2751 163.27 59.7859 156.571 63.8868 151.708C64.3185 151.276 64.966 151.168 65.3976 151.6C65.8293 152.033 65.9372 152.681 65.5055 153.113C61.8364 157.543 60.4334 163.594 61.6205 169.754C62.9155 176.669 67.2322 182.504 73.3835 185.746C73.9231 186.07 74.1389 186.718 73.8152 187.258C73.7072 187.474 73.3835 187.691 72.9518 187.691Z" fill="#153D59"/>
<path d="M83.7439 190.5C81.3697 190.5 78.9955 190.068 76.6214 189.311C76.0818 189.095 75.758 188.555 75.9739 187.907C76.1897 187.366 76.7293 187.042 77.3768 187.258C84.0676 189.419 90.6506 188.231 95.5069 184.017C100.471 179.695 102.845 172.995 101.766 166.08C101.658 165.539 102.09 164.891 102.629 164.891C103.169 164.783 103.816 165.215 103.816 165.756C105.004 173.427 102.414 180.883 96.9098 185.638C93.2406 188.879 88.6002 190.5 83.7439 190.5Z" fill="#153D59"/>
<path d="M101.982 163.378C101.55 163.378 101.118 163.054 100.902 162.622C98.9599 156.463 94.2115 151.276 88.384 148.683C87.8444 148.467 87.6286 147.819 87.8444 147.278C88.0603 146.738 88.7078 146.522 89.2473 146.738C95.6145 149.547 100.794 155.274 102.953 161.974C103.169 162.514 102.845 163.162 102.305 163.378C102.197 163.378 102.089 163.378 101.982 163.378Z" fill="#153D59"/>
<path d="M84.9311 147.494C84.8231 147.494 84.7152 147.494 84.7152 147.494C83.0965 147.062 81.4777 146.954 79.751 146.954C79.1035 146.954 78.6719 146.522 78.6719 145.874C78.6719 145.225 79.1035 144.793 79.751 144.793C81.5856 144.793 83.4202 145.009 85.1469 145.441C85.6865 145.549 86.1181 146.198 85.9023 146.738C85.9023 147.062 85.4706 147.494 84.9311 147.494Z" fill="#153D59"/>
<path d="M65.9375 173.319C65.5059 173.319 65.0742 172.995 64.9663 172.563C62.9159 167.052 63.6713 161.217 66.9088 156.571C70.0384 152.141 74.8947 149.547 80.3984 149.547C81.0459 149.547 81.4776 149.98 81.4776 150.628C81.4776 151.276 81.0459 151.708 80.3984 151.708C75.6501 151.708 71.3334 153.87 68.6355 157.76C65.8296 161.758 65.1821 166.944 67.0167 171.699C67.2325 172.239 66.9088 172.887 66.3692 173.103C66.1534 173.211 66.0454 173.319 65.9375 173.319Z" fill="#153D59"/>
<path d="M82.9878 185.638C76.7286 185.53 70.3615 181.964 66.8003 176.453C66.4765 175.913 66.5844 175.264 67.124 174.94C67.6636 174.616 68.3111 174.724 68.6349 175.264C71.7645 180.127 77.4841 183.368 82.9878 183.476C83.6353 183.476 84.067 184.017 84.067 184.557C84.067 185.097 83.6353 185.638 82.9878 185.638Z" fill="#153D59"/>
<path d="M87.0894 185.097C86.6577 185.097 86.1181 184.773 86.0102 184.233C85.9023 183.693 86.2261 183.044 86.7656 182.936C95.5069 180.775 97.7732 173.103 97.0178 167.16C96.0465 159.488 90.0032 151.708 80.1827 151.708C79.5352 151.708 79.1035 151.276 79.1035 150.628C79.1035 149.98 79.5352 149.547 80.1827 149.547C91.1902 149.547 98.0969 158.3 99.0682 166.944C100.147 175.913 95.5069 182.936 87.1973 185.097C87.1973 185.097 87.0894 185.097 87.0894 185.097Z" fill="#153D59"/>
<path d="M75.8655 157.76C75.4338 157.76 75.1101 157.543 74.8942 157.111C74.6784 156.571 74.8942 155.923 75.4338 155.706C77.0526 154.95 78.8872 154.518 80.7218 154.518C81.3693 154.518 81.8009 154.95 81.8009 155.598C81.8009 156.247 81.3693 156.679 80.7218 156.679C79.2109 156.679 77.7001 157.003 76.4051 157.651C76.1892 157.651 76.0813 157.76 75.8655 157.76Z" fill="#153D59"/>
<path d="M82.7718 180.559C77.376 180.559 72.3039 177.209 69.9297 172.023C67.6634 167.16 68.3109 162.082 71.6564 158.408C72.088 157.976 72.7355 157.976 73.1672 158.3C73.5989 158.732 73.5989 159.38 73.2751 159.813C70.5772 162.838 70.0376 167.052 71.8722 171.05C73.9226 175.589 78.4551 178.506 83.0956 178.29C86.8727 178.182 90.1102 176.129 91.621 172.671C93.3477 168.889 92.5923 164.351 89.6785 160.893C89.2469 160.461 89.3548 159.705 89.7864 159.38C90.2181 158.948 90.9735 159.056 91.2973 159.488C94.7506 163.594 95.614 168.997 93.6715 173.535C91.8369 177.642 87.9518 180.235 83.3114 180.451C83.0956 180.559 82.9877 180.559 82.7718 180.559Z" fill="#153D59"/>
<path d="M87.4126 158.732C87.1968 158.732 86.9809 158.624 86.873 158.516C85.0384 157.327 82.8801 156.679 80.7217 156.679C80.0742 156.679 79.6426 156.247 79.6426 155.598C79.6426 154.95 80.0742 154.518 80.7217 154.518C83.3118 154.518 85.7939 155.274 87.9522 156.679C88.4918 157.003 88.5997 157.651 88.276 158.192C88.0601 158.516 87.7364 158.732 87.4126 158.732Z" fill="#153D59"/>
<path d="M82.2324 175.697C79.7503 175.697 77.3761 174.616 75.6494 172.563C73.4911 169.97 73.0594 166.62 74.3544 163.811C75.6494 161.109 78.1315 159.488 81.1532 159.488C81.8007 159.488 82.2324 159.921 82.2324 160.569C82.2324 161.217 81.8007 161.65 81.1532 161.65C78.9949 161.65 77.2682 162.838 76.2969 164.675C75.3257 166.836 75.6494 169.321 77.2682 171.158C78.8869 173.103 81.369 173.968 83.7432 173.319C85.7936 172.779 87.1966 171.374 87.6282 169.429C87.7361 168.889 88.2757 168.457 88.9232 168.565C89.4628 168.673 89.8945 169.213 89.7866 169.862C89.1391 172.671 87.1966 174.724 84.2828 175.48C83.6353 175.589 82.9878 175.697 82.2324 175.697Z" fill="#153D59"/>
<path d="M88.4923 167.16C88.0606 167.16 87.6289 166.836 87.4131 166.404C86.5497 163.703 83.8518 161.65 81.046 161.65C80.3985 161.65 79.9668 161.217 79.9668 160.569C79.9668 159.921 80.3985 159.488 81.046 159.488C84.8231 159.488 88.2764 162.082 89.4635 165.756C89.6794 166.296 89.3556 166.944 88.7081 167.16C88.7081 167.16 88.6002 167.16 88.4923 167.16Z" fill="#153D59"/>
<path d="M82.5563 171.158C82.0168 171.158 81.4772 170.726 81.4772 170.078C81.4772 169.429 81.9088 168.997 82.5563 168.997C83.5276 168.997 83.6355 168.241 83.6355 167.809C83.6355 167.16 83.2038 166.188 82.1247 166.188C81.8009 166.188 81.4772 166.296 81.2613 166.62C81.0455 166.836 80.9376 167.16 80.9376 167.593C80.9376 168.241 80.5059 168.673 79.9663 168.781C79.4267 168.781 78.8872 168.349 78.7792 167.809C78.6713 166.836 78.9951 165.972 79.6426 165.323C80.2901 164.675 81.1534 164.243 82.1247 164.243C84.6068 164.351 85.7939 166.296 85.7939 168.025C85.7939 169.754 84.4988 171.158 82.5563 171.158Z" fill="#153D59"/>
<path opacity="0.8" d="M153.89 13.1827C153.89 13.5068 153.998 13.831 153.998 14.1552C154.43 16.2082 155.509 18.1532 157.02 19.5579C158.746 21.1787 161.12 22.1512 163.603 22.1512H254.793C259.433 22.1512 262.886 18.6935 262.994 14.1552C262.994 13.831 262.994 13.5068 262.994 13.1827C262.778 10.6974 261.591 8.42828 259.865 6.91552C258.138 5.2947 255.764 4.32221 253.282 4.32221H162.092C157.127 4.21415 153.458 8.21217 153.89 13.1827Z" fill="#BBDBF8"/>
<path d="M247.347 8.53632L247.778 12.8585L251.879 11.3457L252.85 13.5068L248.75 14.9115L251.771 18.5854L249.937 19.9901L247.023 16.2082L244.865 19.9901L242.814 18.5854L245.08 14.9115L240.764 13.5068L241.303 11.3457L245.62 12.8585L245.188 8.53632H247.347V8.53632Z" fill="#153D59"/>
<path d="M222.417 8.53632L222.849 12.8585L226.949 11.3457L227.921 13.5068L223.82 14.9115L226.842 18.5854L225.007 19.9901L222.093 16.2082L219.935 19.9901L217.884 18.5854L220.151 14.9115L215.834 13.5068L216.374 11.3457L220.69 12.8585L220.259 8.53632H222.417V8.53632Z" fill="#153D59"/>
<path d="M197.488 8.53632L197.92 12.8585L202.021 11.3457L202.992 13.5068L198.891 14.9115L201.913 18.5854L200.078 19.9901L197.164 16.2082L195.006 19.9901L192.956 18.5854L195.222 14.9115L190.905 13.5068L191.445 11.3457L195.762 12.8585L195.33 8.53632H197.488V8.53632Z" fill="#153D59"/>
<path d="M172.559 8.53632L172.991 12.8585L177.092 11.3457L178.063 13.5068L173.962 14.9115L176.984 18.5854L175.15 19.9901L172.236 16.2082L170.077 19.9901L168.027 18.5854L170.293 14.9115L165.977 13.5068L166.516 11.3457L170.833 12.8585L170.401 8.53632H172.559V8.53632Z" fill="#153D59"/>
<path d="M232.886 0H228.677V1.08054H232.886V0Z" fill="#407BFF"/>
<path d="M251.232 0H237.311V1.08054H251.232V0Z" fill="#407BFF"/>
<path opacity="0.8" d="M371.236 40.3043L366.811 90.8738C366.703 92.3866 365.948 93.7913 364.976 94.8718C363.789 96.0604 362.17 96.9248 360.336 96.9248H325.263C323.968 96.9248 322.781 96.4926 321.917 95.8443C320.514 94.7638 319.651 93.0349 319.867 90.9819L324.292 40.4124C324.615 37.1707 327.529 34.4694 330.767 34.4694H365.84C369.077 34.3613 371.559 37.0627 371.236 40.3043Z" fill="#BEBEC0"/>
<path d="M327.528 48.4084C327.528 48.4084 327.42 48.4084 327.528 48.4084C326.881 48.3003 326.449 47.8681 326.449 47.2198L326.881 42.5734C326.881 42.0332 327.42 41.601 327.96 41.601H332.816C333.464 41.601 333.895 42.0332 333.895 42.6815C333.895 43.3298 333.464 43.762 332.816 43.762H328.931L328.608 47.4359C328.5 47.9762 328.068 48.4084 327.528 48.4084Z" fill="white"/>
<path d="M366.703 48.4084C366.055 48.3003 365.624 47.8681 365.624 47.2198L365.948 43.762H362.278C361.631 43.762 361.199 43.3298 361.199 42.6815C361.199 42.0332 361.631 41.601 362.278 41.601H367.135C367.458 41.601 367.674 41.709 367.89 41.9251C368.106 42.1412 368.214 42.4654 368.214 42.7895L367.782 47.4359C367.782 47.9762 367.35 48.4084 366.703 48.4084Z" fill="white"/>
<path d="M329.363 83.31H324.507C324.183 83.31 323.967 83.2019 323.751 82.9858C323.536 82.7697 323.428 82.4456 323.428 82.1214L323.859 77.4751C323.859 76.8267 324.399 76.3945 325.046 76.5026C325.694 76.5026 326.126 77.0428 326.018 77.6912L325.694 81.1489H329.363C330.011 81.1489 330.442 81.5811 330.442 82.2295C330.442 82.8778 329.903 83.31 329.363 83.31Z" fill="white"/>
<path d="M363.681 83.31H358.824C358.177 83.31 357.745 82.8778 357.745 82.2295C357.745 81.5811 358.177 81.1489 358.824 81.1489H362.709L363.033 77.4751C363.033 76.8267 363.681 76.3945 364.22 76.5026C364.868 76.5026 365.299 77.0428 365.191 77.6912L364.76 82.3375C364.76 82.8778 364.22 83.31 363.681 83.31Z" fill="white"/>
<path d="M360.035 65.9328C362.475 56.456 358.278 47.179 350.66 45.2121C343.042 43.2451 334.888 49.333 332.448 58.8098C330.007 68.2865 334.204 77.5635 341.822 79.5305C349.44 81.4974 357.594 75.4096 360.035 65.9328Z" fill="white"/>
<path d="M350.516 89.253H336.486L337.673 75.2059H351.703L350.516 89.253Z" fill="white"/>
<path d="M366.811 90.8738C366.703 92.3866 365.948 93.7913 364.976 94.8718C363.789 96.0604 362.17 96.9249 360.336 96.9249H325.263C323.968 96.9249 322.781 96.4926 321.917 95.8443C320.514 94.7638 319.651 93.0349 319.867 90.9819C319.867 90.9819 335.947 85.9033 337.997 85.9033C339.94 85.9033 350.407 85.9033 350.407 85.9033L366.811 90.8738Z" fill="white"/>
<path d="M373.259 55.0791L371.63 74.8936L372.705 74.9822L374.335 55.1678L373.259 55.0791Z" fill="#407BFF"/>
<path d="M374.372 46.0637L374.054 49.9405L375.129 50.0291L375.448 46.1524L374.372 46.0637Z" fill="#407BFF"/>
<path d="M336.81 166.512H332.602V167.592H336.81V166.512Z" fill="#369BE5"/>
<path d="M355.157 166.512H341.235V167.592H355.157V166.512Z" fill="#369BE5"/>
<path d="M380.409 148.143L377.711 178.938C377.495 181.748 375.013 184.017 372.207 184.017C369.401 184.017 367.351 181.748 367.675 178.938L370.372 148.143C371.236 138.202 363.897 130.098 353.969 130.098H342.961C333.033 130.098 324.184 138.202 323.321 148.143L322.241 160.677H312.205L313.284 148.143C314.687 132.691 328.285 120.048 343.825 120.048H354.832C370.372 120.048 381.812 132.583 380.409 148.143Z" fill="#BEBEC0"/>
<path d="M381.164 177.75L375.876 237.72C375.552 241.502 372.207 244.635 368.43 244.635H308.536C304.758 244.635 301.953 241.61 302.276 237.72L307.564 177.75C307.78 175.264 309.291 173.103 311.341 171.915C312.421 171.266 313.716 170.834 315.119 170.834H375.013C376.308 170.834 377.495 171.158 378.466 171.807C380.301 173.103 381.38 175.264 381.164 177.75Z" fill="#369BE5"/>
<path d="M318.896 204.007L334.436 227.995L385.804 176.561C386.236 176.129 385.588 175.372 385.157 175.805L336.162 214.272L326.881 199.36L318.896 204.007Z" fill="white"/>
<path d="M73.5994 87.9563H34.5334C30.8642 87.9563 27.6267 84.9308 27.3029 81.365L23.8496 42.3573C23.5258 38.6835 26.2238 35.766 29.8929 35.766H68.851C72.5202 35.766 75.7578 38.7915 76.0815 42.3573L79.5348 81.365C79.9665 84.9308 77.2686 87.9563 73.5994 87.9563Z" fill="#153D59"/>
<path d="M27.4102 65.697C27.4102 65.697 41.2236 46.3553 51.4757 46.8956C61.7278 47.4358 78.6708 65.2648 78.6708 65.2648C78.6708 65.2648 53.634 78.3394 27.4102 65.697Z" fill="white"/>
<path d="M27.8419 66.0212L26.9785 65.3729C27.5181 64.6165 40.7919 46.3553 51.152 46.3553C51.2599 46.3553 51.4757 46.3553 51.5836 46.3553C61.9437 46.8956 78.455 64.1843 79.1025 64.9407L78.3471 65.6971C78.1313 65.481 61.4041 47.9762 51.5836 47.4359C51.4757 47.4359 51.3678 47.4359 51.2599 47.4359C41.2236 47.3278 27.9498 65.8051 27.8419 66.0212Z" fill="#263238"/>
<path d="M25.8997 66.3454C23.8493 66.3454 21.0434 65.589 20.1801 62.5635C20.0722 62.2393 20.288 62.0232 20.5038 61.9152C20.8276 61.8071 21.0434 62.0232 21.1513 62.2393C22.3384 66.0212 26.9789 65.1568 27.1947 65.1568C27.5184 65.0487 27.7343 65.2648 27.8422 65.589C27.9501 65.9132 27.7343 66.1293 27.4105 66.2373C27.0868 66.3454 26.5472 66.3454 25.8997 66.3454Z" fill="white"/>
<path d="M34.2092 58.0252C34.1013 58.0252 33.9934 58.0252 33.8855 57.9171C33.6696 57.8091 29.8925 54.7836 28.9213 51.8661C28.8134 51.5419 29.0292 51.3258 29.245 51.2178C29.5688 51.1097 29.7846 51.3258 29.8925 51.5419C30.7559 54.2433 34.4251 57.0527 34.533 57.1608C34.7488 57.3769 34.8567 57.701 34.6409 57.9171C34.533 58.0252 34.3171 58.0252 34.2092 58.0252Z" fill="white"/>
<path d="M42.0875 50.6775C41.7638 50.6775 41.5479 50.4614 41.5479 50.1372C41.5479 49.4889 39.8213 44.9506 39.1738 43.2217C38.85 42.4653 38.7421 42.0331 38.6342 41.817C38.5263 41.4929 38.7421 41.2767 38.9579 41.1687C39.2817 41.0606 39.4975 41.2768 39.6054 41.4929C39.6054 41.6009 39.8213 42.1412 40.0371 42.7895C41.5479 46.7875 42.5192 49.3808 42.4113 50.1372C42.6271 50.4614 42.4113 50.6775 42.0875 50.6775Z" fill="white"/>
<path d="M51.4757 47.4359C51.1519 47.4359 50.9361 47.2198 50.9361 46.8956L50.1807 38.1432C50.1807 37.819 50.3965 37.6029 50.7203 37.6029C51.044 37.6029 51.2598 37.819 51.2598 38.1432L52.0153 46.8956C52.0153 47.1117 51.7994 47.3278 51.4757 47.4359Z" fill="white"/>
<path d="M80.1823 65.8051C79.3189 65.8051 78.6714 65.697 78.5635 65.697C78.2398 65.589 78.1318 65.3729 78.1318 65.0487C78.2398 64.7245 78.4556 64.6165 78.7793 64.6165C78.7793 64.6165 81.3694 65.1568 82.9881 63.9682C83.6356 63.5359 84.0673 62.7796 84.1752 61.8071C84.1752 61.4829 84.4989 61.2668 84.8227 61.3748C85.1464 61.3748 85.3623 61.699 85.2544 62.0232C85.0385 63.3198 84.4989 64.1843 83.5277 64.9406C82.6644 65.589 81.2614 65.8051 80.1823 65.8051Z" fill="white"/>
<path d="M70.5779 57.4849C70.47 57.4849 70.2542 57.3769 70.1463 57.2688C69.9304 57.0527 69.9304 56.7285 70.1463 56.5124C70.1463 56.5124 73.3838 53.703 73.7075 51.0016C73.7075 50.6775 74.0313 50.4614 74.355 50.5694C74.6788 50.5694 74.8946 50.8936 74.7867 51.2178C74.355 54.2433 71.0096 57.2688 70.7938 57.3769C70.7938 57.4849 70.6858 57.4849 70.5779 57.4849Z" fill="white"/>
<path d="M61.4048 51.2178C60.9732 51.1097 60.8652 50.8936 60.8652 50.5694C60.8652 50.4614 62.0523 43.5459 62.2682 42.1412C62.2682 41.817 62.5919 41.6009 62.9157 41.709C63.2394 41.709 63.4552 42.0331 63.3473 42.3573C63.1315 43.762 61.9444 50.7855 61.9444 50.7855C61.9444 51.0016 61.7286 51.2178 61.4048 51.2178Z" fill="white"/>
<path d="M61.7538 67.8902C66.2049 63.2343 65.6946 55.5124 60.614 50.643C55.5335 45.7735 47.8065 45.6004 43.3554 50.2564C38.9042 54.9123 39.4145 62.6342 44.4951 67.5036C49.5757 72.3731 57.3027 72.5462 61.7538 67.8902Z" fill="#369BE5"/>
<path opacity="0.7" d="M57.5192 58.2413C57.5192 58.5655 57.5192 58.7816 57.5192 59.1057C57.3033 61.591 55.3608 63.4279 52.7708 63.4279C50.1808 63.4279 47.9145 61.4829 47.267 59.1057C47.1591 58.7816 47.1591 58.5655 47.1591 58.2413C46.9433 55.3238 48.9937 53.0547 51.9075 53.0547C54.8212 53.0547 57.3033 55.4319 57.5192 58.2413Z" fill="black"/>
<path opacity="0.7" d="M60.4333 53.1627C60.6492 55.5399 58.9225 57.3769 56.5483 57.3769C54.1741 57.3769 52.1237 55.4319 51.9079 53.1627C51.692 50.7855 53.4187 48.9486 55.7929 48.9486C58.1671 48.9486 60.2175 50.7855 60.4333 53.1627Z" fill="white"/>
<path d="M43.5984 30.6874H39.3896V31.768H43.5984V30.6874Z" fill="#A0CEF4"/>
<path d="M62.0522 30.6874H48.1309V31.768H62.0522V30.6874Z" fill="#A0CEF4"/>
<path d="M239.792 109.891L240.115 110.324L240.655 110.864C240.979 111.296 241.302 111.62 241.734 112.052C242.489 112.809 243.245 113.565 244.108 114.322C245.727 115.834 247.454 117.239 249.288 118.536C251.123 119.94 253.065 121.129 254.9 122.318C255.979 122.858 256.842 123.506 257.922 124.046L260.296 125.343C260.62 125.451 261.051 125.559 261.375 125.451C262.13 125.235 266.447 120.913 267.85 119.292C270.872 115.726 275.512 111.188 278.102 107.19L280.908 111.08C279.181 115.942 276.807 120.481 273.893 124.695C272.383 126.964 270.548 129.017 268.39 130.854C267.095 131.934 265.692 132.799 264.181 133.447C262.238 134.204 260.08 134.42 258.03 133.879C257.49 133.771 256.95 133.555 256.519 133.339L255.547 132.907L253.821 132.151C252.634 131.61 251.554 130.962 250.367 130.422C248.101 129.233 245.835 127.828 243.677 126.424C241.518 124.911 239.468 123.29 237.525 121.561C236.446 120.697 235.583 119.724 234.611 118.752C234.18 118.32 233.64 117.779 233.209 117.239L232.561 116.375C232.345 116.05 232.129 115.834 231.806 115.402L239.792 109.891Z" fill="#FFB573"/>
<path d="M277.562 107.946L282.527 97.249L287.275 105.785C287.275 105.785 284.145 111.188 280.692 111.188L277.562 107.946Z" fill="#FFB573"/>
<path d="M288.246 92.8188L293.319 99.3021L287.383 105.785L282.635 97.249L288.246 92.8188Z" fill="#FFB573"/>
<path d="M286.089 104.489L287.492 103.732C288.247 103.408 288.895 102.868 289.434 102.328L289.65 101.355C289.326 100.815 288.679 100.599 288.139 100.707L286.952 101.031L281.125 101.463L281.017 103.948L282.743 106.542H283.283C284.686 106.758 285.873 105.785 286.089 104.489Z" fill="#FFB573"/>
<path d="M229.648 99.4101C233.641 98.6537 262.239 123.506 262.239 123.506L253.821 135.933C253.821 135.933 222.633 114.214 223.604 108.919C224.468 103.408 223.712 100.491 229.648 99.4101Z" fill="#153D59"/>
<path opacity="0.2" d="M233.209 107.406L232.886 120.373C236.123 122.858 247.778 131.826 247.778 131.826L233.209 107.406Z" fill="black"/>
<path d="M210.547 357.012L220.151 357.876L223.173 335.725L213.676 334.753L210.547 357.012Z" fill="#FFB573"/>
<path d="M116.335 226.59L113.853 235.883L134.573 244.851L138.889 235.343L116.335 226.59Z" fill="#FFB573"/>
<path d="M227.058 359.821C227.922 359.929 228.677 359.713 229.433 359.281C229.756 358.957 229.864 358.633 229.864 358.201C229.864 357.984 229.756 357.66 229.54 357.552C228.353 356.904 224.468 358.741 224.037 358.957C223.929 358.957 223.929 359.065 223.929 359.173C223.929 359.281 224.037 359.389 224.145 359.389C225.008 359.605 225.979 359.821 227.058 359.821ZM228.785 357.876C228.893 357.876 229.109 357.876 229.217 357.984C229.325 357.984 229.325 358.092 229.325 358.201C229.325 358.525 229.217 358.741 229.001 358.957C228.353 359.497 226.842 359.497 224.684 359.065C225.979 358.525 227.382 358.092 228.785 357.876Z" fill="#407BFF"/>
<path d="M224.036 359.389C225.331 358.849 227.597 356.904 227.49 355.823C227.382 355.607 227.274 355.283 226.626 355.175C226.194 355.067 225.655 355.175 225.331 355.499C224.144 356.472 223.82 359.065 223.82 359.173C223.82 359.281 223.82 359.281 223.928 359.389C223.928 359.389 223.928 359.389 224.036 359.389ZM226.41 355.607H226.518C226.95 355.715 226.95 355.823 226.95 355.931C227.058 356.58 225.439 358.201 224.252 358.849C224.36 357.768 224.792 356.688 225.547 355.931C225.871 355.607 226.195 355.499 226.41 355.607Z" fill="#407BFF"/>
<path d="M219.72 354.094L211.086 354.419C210.654 354.419 210.331 354.743 210.331 355.067L208.28 367.169C208.28 368.033 208.928 368.79 209.791 368.79C209.899 368.79 209.899 368.79 210.007 368.79C213.784 368.574 215.619 368.358 220.367 368.141C223.281 368.033 232.238 369.114 236.231 368.141C240.224 367.277 239.468 363.279 237.742 363.279C232.238 363.387 225.763 359.821 222.633 355.499C221.986 355.283 220.259 353.986 219.72 354.094Z" fill="#153D59"/>
<path d="M118.277 237.071L122.702 229.616C122.918 229.292 122.81 228.859 122.486 228.643L113.529 220.323C112.881 219.783 111.802 219.999 111.371 220.647L111.263 220.755C109.428 223.997 108.673 225.726 106.191 229.832C104.68 232.317 98.9601 239.341 97.5572 243.123C96.1543 246.904 99.9314 248.525 100.795 247.013C103.708 242.258 110.184 238.908 115.471 238.476C116.011 238.368 117.954 237.612 118.277 237.071Z" fill="#153D59"/>
<path d="M235.691 110.864C241.195 120.157 234.504 128.045 228.892 155.923L192.848 156.031C193.387 141.011 193.387 128.909 187.02 99.4101C186.481 96.7088 188.1 94.1154 190.797 93.4671C191.121 93.3591 191.553 93.3591 191.877 93.3591C194.898 93.3591 198.568 93.4671 202.453 93.8993C208.496 94.4396 214.431 95.3041 220.367 96.6007C225.331 97.7893 226.626 98.4376 229.756 99.5182C231.482 100.058 233.748 105.137 235.691 110.864Z" fill="#153D59"/>
<path d="M230.295 157.759C230.295 157.759 250.584 216.433 250.044 244.635C249.72 260.843 248.533 290.883 243.677 312.061C239.684 329.35 223.496 340.371 223.496 340.371L210.546 339.615C210.546 339.615 203.532 313.25 204.719 302.769C207.093 281.914 214.324 266.138 213.46 247.012C212.057 215.569 202.776 157.327 202.776 157.327L230.295 157.759Z" fill="#A0CEF4"/>
<path d="M207.956 342.965L226.194 344.045L227.921 338.535L207.524 336.59L207.956 342.965Z" fill="#153D59"/>
<path opacity="0.1" d="M210.223 276.187C210.331 276.187 210.331 276.079 210.223 276.187C221.77 277.16 229.756 260.627 227.813 237.936L221.662 180.127L210.223 276.187Z" fill="black"/>
<path d="M221.23 157.219C221.23 157.219 237.31 260.303 203.855 271.973C186.157 278.672 171.372 271.433 153.782 263.653C143.638 259.115 130.903 246.904 130.903 246.904L135.76 233.614C135.76 233.614 147.307 229.832 162.739 232.209C179.898 234.91 180.653 239.773 186.697 236.099C199.539 204.331 177.416 179.262 192.416 157.219H221.23Z" fill="#A0CEF4"/>
<path d="M136.623 231.128L130.148 248.309L134.897 251.983L142.667 231.453L136.623 231.128Z" fill="#153D59"/>
<path d="M133.926 137.877C132.307 140.255 123.997 138.634 123.997 138.634L122.271 128.369L132.415 132.475L133.926 137.877Z" fill="#FFB573"/>
<path d="M124.321 127.936L125.939 138.634L119.788 139.498C119.14 139.606 118.493 139.066 118.385 138.418L116.011 130.746C115.903 130.422 116.119 129.989 116.55 129.881L124.321 127.936Z" fill="#FFB573"/>
<path d="M121.622 132.691L125.075 133.339L128.313 130.854L127.018 129.99C126.155 129.341 125.507 128.477 125.291 127.396C125.075 126.316 124.86 125.127 124.86 124.155V123.83C124.752 123.182 124.212 122.642 123.565 122.534L122.701 123.182C122.162 124.371 122.593 125.775 122.485 126.64L122.378 128.477L120.975 129.125L121.622 132.691Z" fill="#FFB573"/>
<path d="M188.747 97.3571L168.351 125.451L130.796 132.799V138.958C130.796 138.958 166.085 141.551 173.963 136.905C181.841 132.259 195.222 104.273 195.222 104.273L188.747 97.3571Z" fill="#FFB573"/>
<path d="M188.531 43.2218C180.005 40.3043 170.077 45.7071 166.084 53.8111C162.199 61.9152 163.494 71.9643 167.919 79.8523C169.214 82.2295 170.833 84.4986 171.912 86.9839C172.991 89.4691 173.53 92.3866 172.667 94.9799C171.804 97.5732 170.833 99.194 167.703 98.7618C167.703 98.7618 167.703 97.0329 168.89 97.249C168.89 97.249 166.3 98.6537 165.329 97.7893C166.516 99.6262 169.645 98.9779 170.617 97.0329C172.128 94.1154 169.322 90.3335 166.084 90.3335C162.847 90.3335 160.257 93.6832 160.365 96.9249C160.472 100.166 162.847 103.084 165.76 104.381C164.034 104.705 162.091 103.732 161.444 102.003C162.955 105.893 167.703 107.514 171.804 106.758C175.797 106.001 179.25 103.408 182.488 100.815C186.804 97.249 191.229 92.8188 191.121 87.2C191.013 83.0939 188.315 79.5281 186.157 76.0704C183.891 72.6126 181.948 68.2904 183.351 64.4005C184.538 61.0508 187.776 59.1058 190.689 57.1608C192.74 55.7561 196.948 52.5145 196.517 49.489C195.869 46.5715 190.905 44.0862 188.531 43.2218Z" fill="#153D59"/>
<path d="M169.214 139.498L163.603 124.479L164.898 124.587C167.056 124.803 169.106 123.722 170.078 121.777C174.394 114.105 185.51 94.5476 188.639 93.5751C193.172 92.2785 197.704 95.8443 199.431 101.139C200.726 105.029 187.56 121.777 181.517 131.286C176.121 139.714 169.214 139.498 169.214 139.498Z" fill="#153D59"/>
<path d="M114.068 242.042V242.15C114.176 242.582 114.608 242.906 115.04 243.014C115.255 243.123 115.579 243.014 115.795 242.798C116.658 241.934 116.119 238.476 116.119 238.152C116.119 238.044 116.011 237.936 115.903 237.936C115.795 237.936 115.687 237.936 115.687 238.044C114.932 239.125 113.745 240.961 114.068 242.042ZM115.687 238.8C115.903 240.205 116.011 242.042 115.471 242.474C115.363 242.582 115.255 242.582 115.148 242.582C114.824 242.474 114.608 242.366 114.5 242.042C114.284 241.394 114.716 240.205 115.687 238.8Z" fill="#407BFF"/>
<path d="M115.687 238.584C116.011 239.773 117.09 241.718 118.061 241.934C118.385 242.042 118.817 241.826 118.925 241.502C119.14 241.178 119.14 240.853 119.032 240.529C118.601 239.233 116.011 238.044 115.903 238.044C115.795 238.044 115.795 238.044 115.687 238.044C115.579 238.044 115.579 238.152 115.579 238.26C115.579 238.368 115.579 238.476 115.687 238.584ZM118.601 240.745C118.601 240.961 118.601 241.178 118.493 241.286C118.385 241.502 118.169 241.502 118.061 241.502C117.414 241.394 116.442 239.773 116.119 238.584C116.982 239.016 118.277 239.881 118.601 240.745C118.601 240.745 118.601 240.637 118.601 240.745Z" fill="#407BFF"/>
<path d="M192.74 154.194L191.769 157.759C191.661 158.084 191.985 158.3 192.416 158.3H229.648C229.972 158.3 230.295 158.084 230.295 157.868L230.619 154.302C230.619 154.086 230.295 153.87 229.972 153.87H193.388C193.064 153.87 192.848 153.978 192.74 154.194Z" fill="white"/>
<path d="M199.863 158.516H198.784C198.568 158.516 198.46 158.408 198.46 158.3L199 153.762C199 153.653 199.215 153.545 199.431 153.545H200.51C200.726 153.545 200.834 153.653 200.834 153.762L200.295 158.3C200.187 158.408 200.079 158.516 199.863 158.516Z" fill="#A0CEF4"/>
<path d="M226.734 158.516H225.655C225.439 158.516 225.331 158.408 225.331 158.3L225.871 153.762C225.871 153.653 226.086 153.545 226.302 153.545H227.381C227.597 153.545 227.705 153.653 227.705 153.762L227.166 158.3C227.058 158.408 226.95 158.516 226.734 158.516Z" fill="#A0CEF4"/>
<path d="M214.431 158.516H213.352C213.136 158.516 213.028 158.408 213.028 158.3L213.568 153.762C213.568 153.653 213.784 153.545 214 153.545H215.079C215.295 153.545 215.403 153.653 215.403 153.762L214.863 158.3C214.755 158.408 214.647 158.516 214.431 158.516Z" fill="#A0CEF4"/>
<path d="M204.071 74.1254C205.258 79.9603 206.338 90.6577 202.345 93.7913C202.345 93.7913 203.963 99.8423 214.647 101.463C226.41 103.192 220.259 96.4926 220.259 96.4926C213.892 93.8993 214 89.253 215.079 85.0389L204.071 74.1254Z" fill="#FFB573"/>
<path d="M202.345 93.7912C208.388 94.2235 213.352 94.8718 219.288 96.1684L227.381 98.5456C228.784 101.463 226.518 107.406 219.719 108.487C219.719 108.487 202.668 110.864 197.704 93.251L202.345 93.7912Z" fill="#FFB573"/>
<path opacity="0.2" d="M208.496 78.5556L214.971 85.0389C214.647 86.0114 214.539 87.0919 214.431 88.0644C211.949 87.308 208.064 84.6067 207.74 82.0134C207.848 80.9328 208.064 79.7442 208.496 78.5556Z" fill="black"/>
<path d="M196.841 66.6696C199.755 75.8542 200.726 79.7442 206.661 83.31C215.51 88.7127 226.086 83.202 225.978 73.369C225.871 64.5085 221.23 51.1098 211.194 49.597C204.071 48.5165 197.38 53.487 196.301 60.6186C196.085 62.6716 196.193 64.7246 196.841 66.6696Z" fill="#FFB573"/>
<path d="M218.641 65.2649C219.612 66.8857 220.907 68.2904 222.31 69.5871C221.662 70.3434 220.691 70.6676 219.72 70.6676L218.641 65.2649Z" fill="#ED893E"/>
<path d="M217.561 75.5301C217.885 75.5301 218.316 75.422 218.64 75.314C218.748 75.314 218.856 75.2059 218.748 75.0978C218.748 74.9898 218.64 74.8817 218.424 74.8817C216.482 75.422 214.539 74.9898 212.92 73.8012C212.812 73.6931 212.704 73.6931 212.597 73.8012C212.489 73.9092 212.489 74.0173 212.597 74.1254C214.107 75.2059 215.834 75.7462 217.561 75.5301Z" fill="#263238"/>
<path d="M193.712 48.4084C191.338 49.9211 189.719 52.6225 189.719 55.54C189.719 56.0802 189.719 56.6205 189.935 57.1608C190.15 57.593 190.582 58.0252 191.122 58.0252C191.985 58.0252 192.525 57.2688 192.956 56.6205C193.604 55.54 194.359 54.4594 195.007 53.3789C195.654 52.2983 196.841 51.1097 197.165 49.9211C197.92 47.76 195.007 47.652 193.712 48.4084Z" fill="#A0CEF4"/>
<path d="M194.683 50.5695C188.963 57.1608 186.373 75.53 203.208 80.7167C206.014 78.4475 201.481 74.4495 199.539 69.3709C198.244 66.0213 204.719 59.7541 207.201 57.1608C209.683 54.5675 211.949 50.8936 215.511 51.4339C216.482 51.542 217.453 51.8661 218.317 51.542C221.122 50.2453 219.719 48.6245 218.317 47.4359C216.266 45.707 213.352 44.9506 210.762 44.6265C204.827 43.9781 198.568 46.0312 194.683 50.5695Z" fill="#153D59"/>
<path d="M213.352 48.4084C220.043 54.0272 211.194 54.1353 206.446 57.7011C201.913 61.1588 205.043 66.7776 197.488 69.371C191.229 71.2079 189.826 70.1273 188.1 68.9387C188.1 68.9387 195.222 68.0743 196.193 60.0783C196.733 55.8642 205.69 41.8171 213.352 48.4084Z" fill="#153D59"/>
<path d="M195.869 74.3415C196.948 75.8543 198.567 76.9348 200.402 77.259C202.776 77.6912 203.747 75.422 202.884 73.2609C202.128 71.316 199.862 68.7227 197.596 69.2629C195.869 69.6951 194.898 71.424 195.33 73.0448C195.33 73.5851 195.545 74.0173 195.869 74.3415Z" fill="#FFB573"/>
<path d="M212.165 48.9487C213.46 52.2984 217.237 51.8662 220.043 55.3239C221.77 57.485 225.115 50.7856 220.583 48.1923C215.942 45.491 210.115 43.7621 212.165 48.9487Z" fill="#153D59"/>
<path d="M208.281 62.9957C208.496 62.9957 208.712 62.8877 208.712 62.7796C209.576 60.8346 212.274 60.2944 212.274 60.2944C212.489 60.2944 212.705 59.9702 212.597 59.7541C212.597 59.538 212.274 59.3219 212.058 59.4299C211.95 59.4299 208.928 60.0783 207.849 62.4554C207.741 62.6716 207.849 62.9957 208.065 63.1038L208.281 62.9957Z" fill="#263238"/>
<path d="M222.31 58.9977C222.418 58.9977 222.633 58.8897 222.741 58.7816C222.849 58.5655 222.849 58.2413 222.633 58.1333C221.446 57.2689 219.828 57.0527 218.533 57.593C218.317 57.7011 218.209 57.9172 218.317 58.2413C218.425 58.4575 218.64 58.5655 218.964 58.4575C220.043 58.0252 221.231 58.2413 222.202 58.8897C222.094 58.9977 222.202 58.9977 222.31 58.9977Z" fill="#263238"/>
<path d="M266.663 118.104L260.296 121.669L253.713 135.824C253.713 135.824 260.08 139.822 265.044 136.581C270.116 133.447 266.663 118.104 266.663 118.104Z" fill="#A0CEF4"/>
<path d="M156.048 122.534L163.494 124.695L170.617 139.39C170.617 139.39 164.897 144.685 158.746 139.606C154.105 135.824 156.048 122.534 156.048 122.534Z" fill="#A0CEF4"/>
<path d="M221.877 62.6716C222.417 62.5636 222.956 63.2119 223.064 63.9683C223.172 64.7247 222.848 65.481 222.417 65.5891C221.877 65.6971 221.338 65.0488 221.23 64.2924C221.014 63.5361 221.338 62.7797 221.877 62.6716Z" fill="#263238"/>
<path d="M223.388 61.9152L221.554 62.7797C222.741 63.536 223.388 61.9152 223.388 61.9152Z" fill="#263238"/>
<path d="M212.813 64.5085C213.352 64.4005 213.892 65.0488 214 65.8052C214.108 66.5616 213.784 67.3179 213.352 67.426C212.813 67.534 212.273 66.8857 212.165 66.1293C211.949 65.373 212.273 64.6166 212.813 64.5085Z" fill="#263238"/>
<path d="M214.431 63.7521L212.597 64.6166C213.676 65.3729 214.431 63.7521 214.431 63.7521Z" fill="#263238"/>
<path d="M167.164 105.893C166.085 105.893 165.114 105.677 164.142 105.353C160.797 103.948 159.286 100.491 159.826 95.7363C159.826 95.4121 160.149 95.196 160.473 95.304C160.797 95.304 161.013 95.6282 160.905 95.9524C160.365 100.166 161.66 103.192 164.466 104.381C167.596 105.677 171.697 104.381 173.855 101.463C176.553 97.8974 175.69 92.7107 171.481 87.4161C160.473 73.477 161.121 66.1293 162.74 60.2944C165.006 51.8662 171.697 42.1413 190.474 43.9782C190.798 43.9782 191.014 44.3023 190.906 44.5185C190.906 44.8426 190.582 45.0587 190.366 44.9507C172.344 43.1137 165.977 52.4064 163.819 60.5105C162.308 66.3455 161.66 73.1529 172.344 86.6597C178.819 94.7638 176.229 100.166 174.718 102.003C172.992 104.489 169.97 105.893 167.164 105.893Z" fill="#263238"/>
</svg>
