<svg width="427" height="387" viewBox="0 0 427 387" fill="none" xmlns="http://www.w3.org/2000/svg">
<path opacity="0.3" d="M95.9312 368.081C118.797 392.393 175.463 383.462 200.317 368.081C279.849 317.969 419.528 234.613 425.99 114.045C428.475 62.9404 383.241 36.1476 364.352 28.2089C319.118 9.35471 268.914 3.40075 219.703 1.41609C168.007 -1.06472 113.329 0.423767 66.6038 25.7281C49.2061 35.1552 32.8026 47.5593 21.3698 63.9327C9.9371 80.8023 3.47511 100.649 1.48681 120.992C-1.49565 153.738 7.45172 186.485 20.8728 216.751C34.2938 247.017 52.1886 274.306 68.095 303.084C79.0307 321.442 76.5453 347.738 95.9312 368.081Z" fill="#D7EBFA"/>
<path d="M262.951 91.2208C262.951 91.2208 287.804 78.8167 293.272 81.2975C298.74 83.2822 304.208 96.1824 282.834 108.09C261.956 119.998 267.921 142.822 267.921 142.822H282.834C282.834 142.822 291.781 146.295 295.261 151.257C298.74 155.722 301.225 172.095 303.214 177.553C305.202 183.011 304.208 188.469 298.74 189.957C298.74 189.957 295.261 205.338 296.255 211.789C297.249 218.735 296.752 222.704 290.29 223.697C283.828 224.689 277.366 219.231 277.863 211.789L272.892 229.65L276.372 236.597C276.372 236.597 282.834 238.581 289.793 244.535C296.752 250.489 303.711 251.978 301.723 258.924C299.734 265.374 295.758 272.817 274.88 264.382C254.003 255.947 236.606 223.2 236.606 223.2L224.179 109.083L262.951 91.2208Z" fill="white"/>
<path opacity="0.3" d="M289.294 156.714C277.861 172.095 290.288 189.957 290.288 189.957C290.288 189.957 282.335 194.423 282.335 205.338C282.335 209.804 283.329 216.254 284.82 222.208C280.844 220.223 277.861 216.254 278.359 211.292L273.388 229.154L276.867 236.1C276.867 236.1 281.341 237.589 287.306 241.558C284.323 248.505 283.329 257.435 283.329 266.366C280.844 265.87 278.359 264.878 275.376 263.886C254.499 255.451 237.101 222.704 237.101 222.704L224.674 108.586L262.949 90.2283C262.949 90.2283 276.37 83.7782 285.815 80.8012C285.318 89.7322 286.809 98.6631 287.803 103.625C286.312 104.617 284.821 105.609 282.832 106.602C261.955 118.51 267.92 141.333 267.92 141.333H282.832C282.832 141.333 291.282 144.806 295.259 149.272C293.271 151.753 291.282 153.737 289.294 156.714Z" fill="#369BE5"/>
<path d="M223.682 252.474C223.682 252.474 196.342 305.563 147.629 317.471C147.629 317.471 145.641 327.891 137.687 332.356C133.214 334.837 115.319 361.63 99.9097 385.942L12.9214 332.852C18.3892 327.395 24.3541 321.441 30.319 314.991C48.2138 296.633 67.5998 275.794 73.5647 265.87C79.0325 256.939 85.4945 241.062 91.4594 226.177C98.9156 207.323 104.88 189.957 104.88 189.957L133.711 157.707L179.939 107.594L181.927 114.044L223.682 252.474Z" fill="white"/>
<path opacity="0.4" d="M179.937 107.594L224.177 252.474C224.177 252.474 196.838 305.563 148.125 317.471C148.125 317.471 146.136 327.891 138.183 332.356C134.206 334.341 119.294 356.172 105.376 378.499C110.844 360.141 126.253 331.364 126.253 331.364C116.312 319.952 119.294 307.548 123.271 311.021C127.247 314.494 137.189 324.418 137.686 324.914C133.212 319.952 132.218 312.014 132.218 312.014C132.218 312.014 144.645 319.952 145.639 307.052C146.633 294.152 138.183 262.397 138.183 262.397L115.317 178.546L179.937 107.594Z" fill="#369BE5"/>
<path d="M224.179 109.579L262.454 91.2208C262.454 91.2208 287.307 78.8167 292.775 81.2975C298.243 83.2822 303.711 96.1824 282.337 108.09C261.459 119.998 267.424 142.822 267.424 142.822H282.337C282.337 142.822 291.284 146.295 294.763 151.257C298.243 155.722 300.728 172.095 302.717 177.553C304.705 183.011 303.711 188.469 298.243 189.957C298.243 189.957 294.763 205.338 295.758 211.789C296.752 218.735 296.255 222.704 289.793 223.697C283.331 224.689 276.869 219.231 277.366 211.789L272.395 229.65L275.875 236.597C275.875 236.597 282.337 238.581 289.296 244.535C296.255 250.489 303.214 251.978 301.225 258.924C299.237 265.374 295.261 272.817 274.383 264.382C253.506 255.947 236.109 223.2 236.109 223.2" stroke="#153D59" stroke-miterlimit="10" stroke-linecap="round" stroke-linejoin="round"/>
<path d="M299.237 189.461C291.78 191.446 282.833 189.957 279.851 176.561C276.371 163.164 283.33 149.272 287.307 147.783" stroke="#263238" stroke-miterlimit="10" stroke-linecap="round" stroke-linejoin="round"/>
<path d="M278.361 211.789C278.361 211.789 277.864 194.919 284.326 190.454" stroke="#263238" stroke-miterlimit="10" stroke-linecap="round" stroke-linejoin="round"/>
<path opacity="0.4" d="M96.4285 296.136C96.4285 296.136 78.0367 293.656 74.0601 285.717C70.5805 278.771 52.1887 304.075 30.8145 315.487C48.7092 297.129 68.0952 276.29 74.0601 266.367C79.5279 257.436 85.9899 241.558 91.9548 226.673C91.4577 239.078 84.9957 257.932 86.984 267.359C86.984 267.359 80.025 269.344 81.5162 276.786C82.5104 284.228 96.4285 296.136 96.4285 296.136Z" fill="#369BE5"/>
<path d="M223.682 252.474C223.682 252.474 196.342 305.563 147.629 317.471C147.629 317.471 145.641 327.891 137.687 332.356C133.214 334.837 115.319 361.63 99.9097 385.942" stroke="#263238" stroke-miterlimit="10" stroke-linecap="round" stroke-linejoin="round"/>
<path d="M12.9214 332.852C33.7986 312.014 66.1085 279.763 74.0617 265.87C85.9916 245.031 105.378 189.957 105.378 189.957L179.939 107.594" stroke="#263238" stroke-miterlimit="10" stroke-linecap="round" stroke-linejoin="round"/>
<path d="M137.19 170.607C137.19 170.607 148.623 181.026 151.606 189.957" stroke="#263238" stroke-miterlimit="10" stroke-linecap="round" stroke-linejoin="round"/>
<path d="M245.054 296.137H175.961C157.569 296.137 142.657 281.252 142.657 262.894V55.001C142.657 36.643 157.569 21.7581 175.961 21.7581H245.054C263.446 21.7581 278.358 36.643 278.358 55.001V262.397C278.856 280.756 263.446 296.137 245.054 296.137Z" fill="#263238"/>
<rect x="141.99" y="21.4229" width="137" height="275" rx="11" fill="#153D59"/>
<path d="M237.6 29.2004L235.114 34.1621C234.617 35.1544 233.126 35.6505 232.132 35.6505H188.886C187.892 35.6505 186.401 35.1544 185.904 34.1621L183.418 29.2004C182.921 28.2081 181.927 27.7119 180.436 27.7119H150.611C148.623 27.7119 147.132 29.2004 147.132 31.1851V287.702C147.132 289.686 148.623 291.175 150.611 291.175H270.407C272.395 291.175 273.886 289.686 273.886 287.702V30.6889C273.886 28.7042 272.395 27.2158 270.407 27.2158H240.582C239.091 27.7119 238.097 28.2081 237.6 29.2004Z" fill="#67B2E9" stroke="#263238" stroke-miterlimit="10" stroke-linecap="round" stroke-linejoin="round"/>
<path d="M201.313 31.6812C202.412 31.6812 203.302 30.7926 203.302 29.6965C203.302 28.6004 202.412 27.7119 201.313 27.7119C200.215 27.7119 199.325 28.6004 199.325 29.6965C199.325 30.7926 200.215 31.6812 201.313 31.6812Z" stroke="white" stroke-miterlimit="10"/>
<path d="M221.692 29.6963C221.692 30.1925 221.195 30.6886 220.698 30.6886C220.201 30.6886 219.704 30.1925 219.704 29.6963C219.704 29.2001 220.201 28.704 220.698 28.704C221.195 28.704 221.692 29.2001 221.692 29.6963Z" stroke="white" stroke-miterlimit="10"/>
<path d="M216.724 29.2006H206.285C205.788 29.2006 205.788 29.6967 205.788 29.6967C205.291 30.1929 205.788 30.1929 206.285 30.1929H216.724C217.221 30.1929 217.221 29.6967 217.221 29.6967C217.718 29.2006 217.221 29.2006 216.724 29.2006Z" fill="white"/>
<path d="M169.497 34.1621H158.064V39.1237H169.497V34.1621Z" stroke="#263238" stroke-miterlimit="10" stroke-linecap="round" stroke-linejoin="round"/>
<path d="M171.984 34.6582H169.996V38.1314H171.984V34.6582Z" stroke="#263238" stroke-miterlimit="10" stroke-linecap="round" stroke-linejoin="round"/>
<path d="M251.017 37.139H249.029V39.1237H251.017V37.139Z" stroke="#263238" stroke-miterlimit="10" stroke-linecap="round" stroke-linejoin="round"/>
<path d="M254.993 35.1543H253.005V38.6274H254.993V35.1543Z" stroke="#263238" stroke-miterlimit="10" stroke-linecap="round" stroke-linejoin="round"/>
<path d="M258.969 33.6661H256.98V39.1239H258.969V33.6661Z" stroke="#263238" stroke-miterlimit="10" stroke-linecap="round" stroke-linejoin="round"/>
<path d="M262.948 31.6813H260.96V38.6276H262.948V31.6813Z" stroke="#263238" stroke-miterlimit="10" stroke-linecap="round" stroke-linejoin="round"/>
<path opacity="0.5" d="M272.889 84.2746H148.123V202.858H272.889V84.2746Z" fill="white"/>
<path d="M262.947 98.6635H158.064V114.045H262.947V98.6635Z" fill="white" stroke="#263238" stroke-miterlimit="10" stroke-linecap="round" stroke-linejoin="round"/>
<path d="M262.947 127.937H158.064V143.318H262.947V127.937Z" fill="white" stroke="#263238" stroke-miterlimit="10" stroke-linecap="round" stroke-linejoin="round"/>
<path d="M165.024 95.6864L161.545 96.1825V91.717H164.527V92.2132H162.042V93.7017H164.527V94.1979H162.042V95.6864H165.024Z" fill="#263238"/>
<path d="M171.488 94.198V96.1826H170.991L171.488 94.198C170.991 93.7018 170.494 93.2056 169.997 93.2056C169.5 93.2056 169.002 93.7018 169.002 94.6941V96.6788H168.505V94.6941C168.505 94.198 168.008 93.7018 167.511 93.7018C167.014 93.7018 166.517 94.198 166.517 95.1903V97.1749H166.02V93.7018H166.517V94.198C166.517 93.7018 167.014 93.7018 168.008 93.7018C168.505 93.7018 169.002 93.7018 169.002 94.198C169.5 93.7018 169.997 93.7018 170.494 93.7018C170.991 92.7095 171.488 93.2056 171.488 94.198Z" fill="#263238"/>
<path d="M175.464 94.1981V96.1828H174.967V95.6866C174.967 96.1828 174.47 96.1828 173.973 96.1828C172.979 96.1828 172.481 95.6866 172.481 95.1905C172.481 94.6943 172.979 94.1981 173.973 94.1981H175.464C174.967 93.702 174.47 93.2058 173.973 93.2058C173.476 93.2058 172.979 93.2058 172.979 93.702V93.2058C173.476 92.7097 173.973 92.7097 174.47 92.7097C174.967 92.7097 175.464 93.2058 175.464 94.1981ZM174.967 95.1905V94.6943H173.973C173.476 94.6943 172.979 95.1905 172.979 95.1905C172.979 95.6866 173.476 95.6866 173.973 95.6866C174.47 96.1828 174.967 95.6866 174.967 95.1905Z" fill="#263238"/>
<path d="M176.457 91.7171C176.457 91.7171 176.954 91.2209 176.457 91.7171C176.954 91.2209 176.954 91.7171 176.954 91.7171C177.451 91.7171 177.451 92.2133 176.457 91.7171C176.954 92.2133 176.457 91.7171 176.457 91.7171ZM176.954 92.7094L177.451 96.1826H176.954V92.7094Z" fill="#263238"/>
<path d="M178.447 91.2209L178.944 96.1826H178.447V91.2209Z" fill="#263238"/>
<path d="M168.008 107.594L165.025 108.09V103.625H168.008V104.121H165.025V105.609H167.511V106.105H165.025V107.594H168.008Z" fill="#263238"/>
<path d="M174.968 106.106V108.09H174.471L174.968 106.106C174.471 105.61 173.974 105.113 173.477 105.113C172.98 105.113 172.483 105.61 172.483 106.602V108.587H171.986V106.602C171.986 106.106 171.489 105.61 170.992 105.61C170.495 105.61 169.998 106.106 169.998 107.098V109.083H169.5V104.617H169.998V105.113C169.998 104.617 170.495 104.617 171.489 104.617C171.986 104.617 172.483 104.617 172.483 105.113C172.98 104.617 173.477 104.617 173.974 104.617C174.471 104.617 174.968 105.113 174.968 106.106Z" fill="#263238"/>
<path d="M178.944 106.106V108.09H178.447V107.594C178.447 108.09 177.95 108.09 177.453 108.09C176.459 108.09 175.962 107.594 175.962 107.098C175.962 106.602 176.459 106.106 177.453 106.106H178.944C178.447 105.61 177.95 105.113 177.453 105.113C176.956 105.113 176.459 105.113 176.459 105.61V105.113C176.956 104.617 177.453 104.617 177.95 104.617C178.447 104.617 178.944 105.113 178.944 106.106ZM178.447 107.098V106.602H177.453C176.956 106.602 176.459 107.098 176.459 107.098C176.459 107.594 176.956 107.594 177.453 107.594C177.453 108.09 177.95 107.594 178.447 107.098Z" fill="#263238"/>
<path d="M179.938 103.625C179.938 103.625 179.938 103.129 179.938 103.625C180.435 103.129 180.435 103.625 180.435 103.625C180.435 104.121 180.435 104.121 179.938 103.625C179.938 104.121 179.938 104.121 179.938 103.625ZM179.938 104.617L180.435 108.09H179.938V104.617Z" fill="#263238"/>
<path d="M181.927 103.129L182.424 108.09H181.927V103.129Z" fill="#263238"/>
<path d="M186.896 106.106V108.09H186.399L186.896 106.106C186.399 105.61 185.902 105.113 185.405 105.113C184.411 105.113 184.411 105.61 184.411 106.602V108.587H183.914V104.617H184.411V105.113C184.908 104.617 184.908 104.617 185.902 104.617C186.399 104.617 186.896 105.113 186.896 106.106Z" fill="#263238"/>
<path d="M190.872 106.106V108.09H190.375V107.594C190.375 108.09 189.878 108.09 189.381 108.09C188.387 108.09 187.89 107.594 187.89 107.098C187.89 106.602 188.387 106.106 189.381 106.106H190.872C190.375 105.61 189.878 105.113 189.381 105.113C188.884 105.113 188.387 105.113 188.387 105.61V105.113C188.884 104.617 189.381 104.617 189.878 104.617C190.375 104.617 190.872 105.113 190.872 106.106ZM190.375 107.098V106.602H189.381C188.884 106.602 188.387 107.098 188.387 107.098C188.387 107.594 188.884 107.594 189.381 107.594C189.381 108.09 189.878 107.594 190.375 107.098Z" fill="#263238"/>
<path d="M197.833 106.106V108.09H197.335L197.833 106.106C197.335 105.61 196.838 105.113 196.341 105.113C195.844 105.113 195.347 105.61 195.347 106.602V108.587H194.85V106.602C194.85 106.106 194.353 105.61 193.856 105.61C193.359 105.61 192.862 106.106 192.862 107.098V109.083H192.365V104.617H192.862V105.113C192.862 104.617 193.359 104.617 194.353 104.617C194.85 104.617 195.347 104.617 195.347 105.113C195.844 104.617 196.341 104.617 196.838 104.617C197.335 104.617 197.833 105.113 197.833 106.106Z" fill="#263238"/>
<path d="M201.81 106.602H198.827C198.827 107.098 199.324 107.594 200.318 107.594C200.815 107.594 201.313 107.594 201.313 107.098L201.81 107.594C201.313 108.09 200.815 108.09 200.318 108.09C199.324 108.09 198.33 107.594 198.33 106.105C198.33 105.113 198.827 104.121 199.821 104.121C201.313 104.617 201.81 105.609 201.81 106.602ZM199.324 106.105H201.81C201.81 105.609 201.313 105.113 200.815 105.113C199.821 105.113 199.324 105.609 199.324 106.105Z" fill="#263238"/>
<path d="M208.767 106.602C208.767 107.594 208.27 108.586 207.773 108.586C207.275 108.586 207.275 108.09 206.778 108.09C206.281 108.586 206.281 108.586 205.287 108.586C204.293 108.586 203.796 108.09 203.796 107.098C203.796 106.105 204.293 105.609 205.287 105.609C205.784 105.609 206.281 106.105 206.778 106.105V105.609H207.275V108.09C207.275 108.586 207.275 108.586 207.773 108.586C208.27 108.09 208.27 107.594 208.767 106.602C208.27 105.113 207.275 104.121 205.784 104.121C204.293 104.121 203.299 105.113 203.299 106.602C203.299 108.09 204.293 109.082 205.784 109.082C206.281 109.082 206.778 109.082 207.275 108.586V109.082C206.778 109.082 206.281 109.579 205.784 109.579C203.796 109.579 202.802 108.09 202.802 106.602C202.802 104.617 204.293 103.625 205.784 103.625C207.275 103.625 208.767 104.617 208.767 106.602ZM206.778 106.602C206.778 105.609 206.281 105.113 205.287 105.113C204.79 105.113 203.796 105.609 203.796 106.602C203.796 107.594 204.293 108.09 205.287 108.09C206.281 108.09 206.778 107.594 206.778 106.602Z" fill="#263238"/>
<path d="M212.746 106.602H209.764C209.764 107.098 210.261 107.594 211.255 107.594C211.752 107.594 212.249 107.594 212.249 107.098L212.746 107.594C212.249 108.09 211.752 108.09 211.255 108.09C210.261 108.09 209.267 107.594 209.267 106.105C209.267 105.113 209.764 104.121 210.758 104.121C212.249 104.617 212.746 105.609 212.746 106.602ZM209.764 106.105H212.249C212.249 105.609 211.752 105.113 211.255 105.113C210.261 105.113 209.764 105.609 209.764 106.105Z" fill="#263238"/>
<path d="M219.705 106.106V108.09H219.208L219.705 106.106C219.208 105.61 218.711 105.113 218.214 105.113C217.717 105.113 217.22 105.61 217.22 106.602V108.587H216.723V106.602C216.723 106.106 216.226 105.61 215.729 105.61C215.231 105.61 214.734 106.106 214.734 107.098V109.083H214.237V104.617H214.734V105.113C214.734 104.617 215.231 104.617 216.226 104.617C216.723 104.617 217.22 104.617 217.22 105.113C217.717 104.617 218.214 104.617 218.711 104.617C218.711 104.617 219.705 105.113 219.705 106.106Z" fill="#263238"/>
<path d="M223.182 106.106V108.09H222.685V107.594C222.685 108.09 222.188 108.09 221.69 108.09C220.696 108.09 220.199 107.594 220.199 107.098C220.199 106.602 220.696 106.106 221.69 106.106H223.182C222.685 105.61 222.188 105.113 221.69 105.113C221.193 105.113 220.696 105.113 220.696 105.61V105.113C221.193 104.617 221.69 104.617 222.188 104.617C222.685 104.617 223.182 105.113 223.182 106.106ZM222.685 107.098V106.602H221.69C221.193 106.602 220.696 107.098 220.696 107.098C220.696 107.594 221.193 107.594 221.69 107.594C222.188 108.09 222.685 107.594 222.685 107.098Z" fill="#263238"/>
<path d="M224.674 103.625C224.674 103.625 224.674 103.129 224.674 103.625C225.171 103.129 225.171 103.625 225.171 103.625C225.171 104.121 225.171 104.121 224.674 103.625C224.674 104.121 224.674 104.121 224.674 103.625ZM224.674 104.617L225.171 108.09H224.674V104.617Z" fill="#263238"/>
<path d="M226.664 103.129L227.161 108.09H226.664V103.129Z" fill="#263238"/>
<path d="M228.155 108.09C228.155 107.594 228.155 107.594 228.155 108.09C228.652 107.594 228.652 108.09 228.652 108.09C228.652 108.09 228.652 108.09 228.155 108.09Z" fill="#263238"/>
<path d="M229.149 106.602C229.149 105.61 230.144 104.617 231.138 104.617C231.635 104.617 232.132 104.617 232.629 105.113H232.132C232.132 104.617 231.635 104.617 231.138 104.617C230.144 105.113 229.646 105.61 229.149 106.602C229.646 107.594 230.144 108.09 231.138 108.09C231.635 108.09 232.132 108.09 232.132 107.594H232.629C232.132 108.09 231.635 108.09 231.138 108.09C230.144 108.09 229.149 107.594 229.149 106.602Z" fill="#263238"/>
<path d="M232.626 106.602C232.626 105.61 233.621 104.617 234.615 104.617C235.609 104.617 236.603 105.113 236.603 106.602C236.603 107.594 235.609 108.587 234.615 108.587C233.621 108.09 232.626 107.594 232.626 106.602ZM236.106 106.602C236.106 105.61 235.609 105.113 234.615 105.113C234.118 105.113 233.124 105.61 233.124 106.602C233.124 107.594 233.621 108.09 234.615 108.09C235.112 108.09 236.106 107.098 236.106 106.602Z" fill="#263238"/>
<path d="M243.065 106.106V108.09H242.568L243.065 106.106C242.568 105.61 242.071 105.113 241.574 105.113C241.077 105.113 240.58 105.61 240.58 106.602V108.587H240.083V106.602C240.083 106.106 239.585 105.61 239.088 105.61C238.591 105.61 238.094 106.106 238.094 107.098V109.083H237.597V104.617H238.094V105.113C238.094 104.617 238.591 104.617 239.585 104.617C240.083 104.617 240.58 104.617 240.58 105.113C241.077 104.617 241.574 104.617 242.071 104.617C242.568 104.617 243.065 105.113 243.065 106.106Z" fill="#263238"/>
<path d="M165.521 135.875L166.516 136.372V136.868L165.521 135.875V136.868H165.024L165.521 135.875L164.03 136.372V135.875L165.024 135.379L164.03 134.883V134.387L165.521 135.875L165.024 134.387H165.521V135.875L166.019 134.883V135.379L165.521 135.875Z" fill="#263238"/>
<path d="M168.502 135.875L169.497 136.372V136.868L168.502 135.875V136.868H168.005L168.502 135.875L167.011 136.372V135.875L168.005 135.379L167.011 134.883V134.387L168.502 135.875L168.005 134.387H168.502V135.875L169 134.883V135.379L168.502 135.875Z" fill="#263238"/>
<path d="M170.988 135.875L171.982 136.372V136.868L170.988 135.875V136.868H170.491L170.988 135.875L169.497 136.372V135.875L170.491 135.379L169.497 134.883V134.387L170.988 135.875L170.491 134.387H170.988V135.875L171.485 134.883V135.379L170.988 135.875Z" fill="#263238"/>
<path d="M173.473 135.875L174.467 136.372V136.868L173.473 135.875V136.868H172.976L173.473 135.875L171.982 136.372V135.875L172.976 135.379L171.982 134.883V134.387L173.473 135.875L172.976 134.387H173.473V135.875L173.97 134.883V135.379L173.473 135.875Z" fill="#263238"/>
<path d="M176.458 135.875L177.452 136.372V136.868L176.458 135.875V136.868H175.961L176.458 135.875L174.967 136.372V135.875L175.961 135.379H174.967V134.883L176.458 135.875L175.961 134.387H176.458V135.875L176.955 134.883V135.379L176.458 135.875Z" fill="#263238"/>
<path d="M178.943 135.875L179.938 136.372V136.868L178.943 135.875V136.868H178.446L178.943 135.875L177.452 136.372V135.875L178.446 135.379L177.452 134.883V134.387L178.943 135.875L178.446 134.387H178.943V135.875L179.44 134.883V135.379L178.943 135.875Z" fill="#263238"/>
<path d="M181.924 135.875L182.918 136.372V136.868L181.924 135.875V136.868H181.427L181.924 135.875L180.433 136.372V135.875L181.427 135.379L180.433 134.883V134.387L181.924 135.875L181.427 134.387H181.924V135.875L182.421 134.883V135.379L181.924 135.875Z" fill="#263238"/>
<path d="M184.41 135.875L185.404 136.372V136.868L184.41 135.875V136.868H183.913L184.41 135.875L182.918 136.372V135.875L183.913 135.379L182.918 134.883V134.387L184.41 135.875L183.913 134.387H184.41V135.875L184.907 134.883V135.379L184.41 135.875Z" fill="#263238"/>
<path d="M186.895 135.875L187.889 136.372V136.868L186.895 135.875V136.868H186.398L186.895 135.875L185.404 136.372V135.875L186.398 135.379L185.404 134.883V134.387L186.895 135.875L186.398 134.387H186.895V135.875L187.392 134.883V135.379L186.895 135.875Z" fill="#263238"/>
<path d="M189.88 135.875L190.874 136.372V136.868L189.88 135.875V136.868H189.383L189.88 135.875L188.389 136.372V135.875L189.383 135.379L188.389 134.883V134.387L189.88 135.875L189.383 134.387H189.88V135.875L190.377 134.883V135.379L189.88 135.875Z" fill="#263238"/>
<path d="M192.365 135.875L193.359 136.372V136.868L192.365 135.875V136.868H191.868L192.365 135.875L190.874 136.372V135.875L191.868 135.379L190.874 134.883V134.387L192.365 135.875L191.868 134.387H192.365V135.875L192.862 134.883V135.379L192.365 135.875Z" fill="#263238"/>
<path d="M165.024 122.479C165.024 123.471 164.527 123.967 163.036 123.967H162.042V125.456H161.545V120.99H163.036C164.527 120.99 165.024 121.487 165.024 122.479ZM164.527 122.479C164.527 121.983 164.03 121.487 163.036 121.487H162.042V123.967H163.036C164.03 123.471 164.527 123.471 164.527 122.479Z" fill="#263238"/>
<path d="M168.503 123.471V125.456H168.006V124.96C168.006 125.456 167.509 125.456 167.012 125.456C166.018 125.456 165.521 124.96 165.521 124.464C165.521 123.968 166.018 123.471 167.012 123.471H168.503C168.006 122.975 167.509 122.479 167.012 122.479C166.515 122.479 166.018 122.479 166.018 122.975V122.479C166.515 121.983 167.012 121.983 167.509 121.983C168.006 121.983 168.503 122.479 168.503 123.471ZM168.006 124.464V123.968H167.012C166.515 123.968 166.018 124.464 166.018 124.464C166.018 124.96 166.515 124.96 167.012 124.96C167.509 125.456 168.006 124.96 168.006 124.464Z" fill="#263238"/>
<path d="M169.497 124.96C169.994 124.96 170.491 124.96 170.988 124.96C171.485 124.96 171.982 124.96 171.982 124.464C171.982 123.471 169.497 124.464 169.497 122.975C169.497 122.479 169.994 121.983 170.988 121.983C171.485 121.983 171.982 121.983 171.982 122.479V122.975C171.485 122.975 171.485 122.479 170.988 122.479C170.491 122.479 169.994 122.479 169.994 122.975C169.994 123.968 172.479 122.975 172.479 124.464C172.479 124.96 171.982 125.456 170.988 125.456C170.491 125.456 169.994 125.456 169.497 124.96Z" fill="#263238"/>
<path d="M172.977 124.96C173.474 124.96 173.971 124.96 174.468 124.96C174.965 124.96 175.462 124.96 175.462 124.464C175.462 123.471 172.977 124.464 172.977 122.975C172.977 122.479 173.474 121.983 174.468 121.983C174.965 121.983 175.462 121.983 175.462 122.479V122.975C174.965 122.975 174.965 122.479 174.468 122.479C173.971 122.479 173.474 122.479 173.474 122.975C173.474 123.968 175.96 122.975 175.96 124.464C175.96 124.96 175.462 125.456 174.468 125.456C173.474 125.456 172.977 125.456 172.977 124.96Z" fill="#263238"/>
<path d="M181.43 121.983L179.939 125.456L178.944 122.479L177.95 125.456H177.453L175.962 121.983H176.459L177.453 124.96L178.447 121.983H178.944L179.939 124.96L181.43 121.983Z" fill="#263238"/>
<path d="M181.923 123.968C181.923 122.975 182.917 121.983 183.912 121.983C184.906 121.983 185.9 122.479 185.9 123.968C185.9 125.456 184.906 125.952 183.912 125.952C182.42 125.456 181.923 124.96 181.923 123.968ZM184.906 123.968C184.906 122.975 184.409 122.479 183.415 122.479C182.917 122.479 181.923 122.975 181.923 123.968C181.923 124.96 182.42 125.456 183.415 125.456C184.409 124.96 184.906 124.464 184.906 123.968Z" fill="#263238"/>
<path d="M187.892 121.983C187.892 122.479 187.892 122.479 187.892 121.983C186.897 122.479 186.4 122.975 186.4 123.471V125.456H185.903V121.983H186.4V122.479C186.897 122.479 187.395 121.983 187.892 121.983Z" fill="#263238"/>
<path d="M191.868 120.494V125.456H191.371V124.96C190.874 125.456 190.377 125.456 189.88 125.456C188.886 125.456 188.389 124.96 188.389 123.471C188.389 121.983 188.886 121.487 189.88 121.487C190.377 121.487 190.874 121.487 191.371 121.983L191.868 120.494ZM191.371 123.967C191.371 122.975 190.874 122.479 189.88 122.479C189.383 122.479 188.389 122.975 188.389 123.967C188.389 124.96 188.886 125.456 189.88 125.456C190.874 124.96 191.371 124.464 191.371 123.967Z" fill="#263238"/>
<path d="M149.12 237.093C150.611 259.42 140.172 284.724 140.172 284.724L84.0026 268.847L74.061 265.87C84.0026 252.474 88.4762 225.681 85.9909 203.85C85.9909 202.361 85.4938 200.873 85.4938 199.384C84.4996 181.522 91.9558 176.561 98.4178 168.622C105.377 160.187 120.289 127.937 120.289 120.494C120.289 113.052 139.178 94.1976 135.201 72.8626C135.201 72.8626 141.166 69.3895 146.634 72.3664C149.12 73.8549 152.102 76.3358 154.09 81.2974C159.061 92.7092 152.102 125.952 146.137 133.891L134.704 181.026C134.704 181.026 138.681 187.476 142.16 199.881C145.143 208.811 148.125 221.712 149.12 237.093Z" fill="white"/>
<path opacity="0.3" d="M85.4938 199.384C88.4762 208.315 91.9558 213.773 91.9558 226.177C91.4587 238.581 84.9967 257.436 86.985 266.863C86.985 266.863 85.4938 267.359 84.0026 268.351L74.061 265.374C84.0026 251.978 88.4763 225.185 85.9909 203.354C85.9909 202.361 85.4938 200.873 85.4938 199.384Z" fill="#369BE5"/>
<path opacity="0.4" d="M146.136 133.395L134.704 180.53C134.704 180.53 138.68 186.98 142.16 199.385C134.207 186.98 127.745 183.011 127.745 183.011C132.715 177.057 136.692 131.41 136.692 131.41C136.692 131.41 153.096 112.556 151.107 92.7094C150.61 83.7784 148.125 76.8321 146.136 71.8705C148.622 73.359 151.604 75.8398 153.593 80.8014C159.06 92.7094 152.101 125.456 146.136 133.395Z" fill="#369BE5"/>
<path d="M74.061 265.87C84.0026 252.474 88.4762 225.681 85.9909 203.85C83.5055 182.019 91.4587 177.057 98.4178 168.126C105.377 159.691 120.289 127.441 120.289 119.998C120.289 112.556 139.178 93.7016 135.201 72.3666C135.201 72.3666 147.628 64.9241 154.09 80.8014C159.061 92.2131 152.102 124.96 146.137 133.395L134.704 180.53C134.704 180.53 147.131 201.369 149.12 236.597C150.611 258.924 140.172 284.228 140.172 284.228" stroke="#153D59" stroke-miterlimit="10" stroke-linecap="round" stroke-linejoin="round"/>
<path d="M111.837 302.587C111.837 302.587 124.761 310.525 132.218 322.929" stroke="#153D59" stroke-miterlimit="10" stroke-linecap="round" stroke-linejoin="round"/>
<path d="M147.628 317.471C147.628 317.471 136.692 318.96 126.751 307.052C120.289 299.61 100.903 296.136 96.4292 275.794" stroke="#153D59" stroke-miterlimit="10" stroke-linecap="round" stroke-linejoin="round"/>
<path d="M414.058 375.026C412.567 371.057 411.572 367.088 410.578 363.119C409.087 358.157 408.093 354.188 405.608 349.722C405.11 349.226 404.613 348.234 404.116 347.241C401.631 342.776 397.654 335.83 395.666 328.387C394.175 322.929 395.666 310.029 397.157 297.129C398.151 288.198 399.146 279.267 398.648 274.305V272.321C398.151 259.42 396.66 232.627 393.678 225.681C390.695 218.735 388.21 217.743 383.736 215.758C383.239 215.758 382.742 215.262 382.245 215.262C380.257 214.269 377.274 212.781 373.795 211.292C365.841 207.323 355.9 202.361 350.929 201.369C344.467 200.377 338.005 201.865 337.011 201.865C331.046 197.4 320.608 190.95 317.128 190.95C314.643 190.95 309.175 192.438 306.192 193.431C305.695 193.431 305.198 193.927 304.701 193.927C302.216 192.438 300.724 190.95 299.233 190.454H298.736C296.251 188.965 290.783 188.965 288.298 188.965C287.303 188.965 286.806 188.965 286.309 188.965C280.841 180.53 275.871 172.592 273.385 169.119C268.415 161.676 253.999 130.418 253.502 129.922C252.508 129.425 244.058 127.441 240.578 135.876C236.602 144.806 242.069 164.653 247.537 171.599C250.023 175.072 256.982 188.965 263.941 203.354C261.953 204.842 248.034 218.239 241.075 220.72C235.607 222.704 236.602 251.482 237.596 274.801C238.093 283.236 238.093 290.679 238.093 295.144C238.093 303.579 253.502 315.487 268.912 326.899C282.83 337.318 296.748 347.737 298.239 355.676C298.736 357.661 300.227 359.645 301.719 361.63C304.204 365.103 307.684 369.072 309.175 376.515C309.672 378.5 313.151 381.477 316.134 386.438H419.029C417.537 383.957 415.549 379.988 414.058 375.026ZM271.397 220.72C276.368 231.139 279.35 237.589 280.344 238.085C280.841 238.581 280.841 242.055 280.841 245.528C280.841 248.505 280.841 251.482 281.339 253.962C280.344 254.955 272.391 261.901 270.9 267.855L264.438 259.916L262.947 236.101C263.941 234.612 270.403 227.666 271.397 220.72Z" fill="white"/>
<path opacity="0.4" d="M384.73 287.702C387.216 310.029 387.216 322.433 389.701 328.883C394.175 339.799 401.134 342.28 401.134 342.28C399.146 338.31 397.157 333.845 395.666 328.883C394.175 323.425 395.666 310.525 397.157 297.625C398.151 288.694 399.146 279.763 398.649 274.801V272.817C398.151 259.917 396.66 233.124 393.678 226.177C390.695 219.231 388.21 218.239 383.736 216.254C383.239 216.254 382.742 215.758 382.245 215.758C380.257 215.262 377.274 213.277 373.795 211.789C365.842 207.819 355.9 202.858 350.929 201.865C344.467 200.873 338.005 202.362 337.011 202.362C331.046 197.896 320.608 191.446 317.128 191.446C314.643 191.446 307.684 193.431 305.198 193.927C317.128 203.354 334.029 215.262 334.029 215.262C347.45 217.743 345.461 223.697 350.929 227.17C355.9 230.147 360.374 221.712 364.35 220.72C369.818 219.727 375.783 225.185 375.783 232.131C375.286 251.482 382.245 268.351 384.73 287.702Z" fill="#369BE5"/>
<path opacity="0.3" d="M317.13 218.239C317.13 218.239 306.692 209.308 301.224 206.331C296.253 203.354 295.259 193.431 299.235 190.95H299.733H299.235C296.253 188.965 290.785 188.965 288.3 188.965C294.265 199.881 298.738 208.315 300.23 210.3C304.206 216.254 317.13 218.239 317.13 218.239Z" fill="#369BE5"/>
<path opacity="0.3" d="M300.726 354.684C301.223 352.203 297.246 345.753 295.755 342.776C291.779 336.326 247.042 297.129 254.001 286.709C260.463 276.29 266.428 284.228 270.404 284.725C273.387 285.221 281.34 280.259 281.34 280.259C280.346 272.32 287.802 266.863 287.802 266.863C287.802 266.863 287.305 234.612 285.317 235.108C283.825 235.604 262.948 186.98 262.948 186.98C262.948 186.98 241.077 158.203 242.568 144.806C243.562 131.41 253.007 130.914 253.007 130.914V130.418C252.012 129.922 243.562 127.937 240.083 136.372C236.106 145.303 241.574 165.149 247.042 172.095C249.527 175.569 256.486 189.461 263.445 203.85C261.457 205.338 247.539 218.735 240.58 221.216C235.112 223.2 236.106 251.978 237.1 275.297C237.597 283.732 237.597 291.175 237.597 295.64C237.597 304.075 253.007 315.983 268.416 327.395C282.334 337.814 296.252 348.234 297.743 356.172C298.241 358.157 299.732 360.141 301.223 362.126C300.726 359.149 300.726 355.676 300.726 354.684ZM271.398 220.719C276.369 231.139 279.352 237.589 280.346 238.085C280.843 238.581 280.843 242.055 280.843 245.528C280.843 248.505 280.843 251.482 281.34 253.962C280.346 254.955 272.393 261.901 270.901 267.855L264.439 259.916L262.948 236.101C263.942 234.612 270.404 227.666 271.398 220.719Z" fill="#369BE5"/>
<path d="M310.668 217.743C310.668 217.743 304.206 216.254 299.732 210.3C295.259 204.346 277.861 177.057 272.89 169.615C267.92 162.172 253.007 130.418 253.007 130.418C253.007 130.418 244.06 127.441 240.083 135.876C236.604 144.31 241.575 163.661 247.042 171.103C252.51 178.546 278.358 236.101 280.347 238.085C282.335 240.07 279.352 255.451 283.329 258.924" stroke="#153D59" stroke-miterlimit="10" stroke-linecap="round" stroke-linejoin="round"/>
<path d="M281.836 253.963C281.836 253.963 272.391 262.398 271.397 268.351L264.438 259.917L262.947 235.605C262.947 235.605 271.397 227.17 271.894 219.727" stroke="#263238" stroke-miterlimit="10" stroke-linecap="round" stroke-linejoin="round"/>
<path d="M263.445 203.354C263.445 203.354 247.538 218.239 240.082 220.72C232.626 223.2 238.094 278.771 237.597 295.144C237.1 311.021 294.263 339.303 297.743 355.676C299.234 362.126 304.702 363.615 308.181 376.019" stroke="#263238" stroke-miterlimit="10" stroke-linecap="round" stroke-linejoin="round"/>
<path d="M285.814 189.461C285.814 189.461 294.264 188.469 299.235 190.454C304.206 192.438 323.592 209.308 328.563 212.285C333.036 215.262 340.492 216.75 341.984 220.223" stroke="#263238" stroke-miterlimit="10" stroke-linecap="round" stroke-linejoin="round"/>
<path d="M305.198 194.423C305.198 194.423 314.146 191.446 317.128 191.446C320.608 191.446 333.035 198.888 338.999 203.85C344.467 208.812 350.432 211.789 353.912 212.781" stroke="#263238" stroke-miterlimit="10" stroke-linecap="round" stroke-linejoin="round"/>
<path d="M337.012 202.858C337.012 202.858 343.971 201.369 350.93 202.361C357.889 203.354 376.281 213.773 381.749 216.254C387.714 218.735 390.199 219.231 393.182 226.673C396.164 234.612 397.655 263.39 398.153 275.297C398.65 286.709 392.685 319.952 395.17 329.379C397.655 338.806 402.129 345.753 405.112 350.714" stroke="#153D59" stroke-miterlimit="10" stroke-linecap="round" stroke-linejoin="round"/>
<path d="M262.45 235.604C262.45 235.604 260.959 230.147 258.971 229.154" stroke="#263238" stroke-miterlimit="10" stroke-linecap="round" stroke-linejoin="round"/>
<path d="M263.941 259.917C263.941 259.917 265.433 266.367 266.427 269.84C267.918 273.313 265.433 278.275 265.433 278.275" stroke="#263238" stroke-miterlimit="10" stroke-linecap="round" stroke-linejoin="round"/>
<path d="M270.902 268.351C270.902 273.809 276.37 280.259 277.364 279.267" stroke="#263238" stroke-miterlimit="10" stroke-linecap="round" stroke-linejoin="round"/>
<path d="M299.232 235.604C299.232 235.604 305.197 226.177 310.665 225.681C316.133 225.185 323.092 233.124 326.572 232.627C330.051 231.635 334.525 226.673 340.49 225.681C346.455 224.689 348.94 227.666 353.911 227.666C358.384 227.666 358.882 221.712 364.846 220.719C370.314 219.727 372.303 222.704 376.279 223.2C380.256 223.696 380.753 221.216 384.232 219.231" stroke="#263238" stroke-miterlimit="10" stroke-linecap="round" stroke-linejoin="round"/>
</svg>
