<svg width="425" height="398" viewBox="0 0 425 398" fill="none" xmlns="http://www.w3.org/2000/svg">
<path fill-rule="evenodd" clip-rule="evenodd" d="M326.224 116.286C323.124 118.886 319.824 120.986 316.224 122.586L315.624 133.486L297.824 136.486L293.624 126.386C289.724 126.086 285.924 125.186 282.124 123.786L274.024 131.086L259.324 120.686L263.424 110.686C260.824 107.586 258.724 104.286 257.124 100.686L246.224 100.086L243.224 82.2858L253.324 78.0858C253.624 74.1858 254.524 70.3858 255.924 66.5858L248.624 58.4858L259.024 43.6858L269.124 47.8858C272.224 45.2858 275.524 43.1858 279.124 41.5858L279.724 30.6858L297.524 27.6858L301.724 37.7858C305.624 38.0858 309.424 38.9858 313.224 40.3858L321.324 33.0858L336.124 43.4858L331.924 53.5858C334.524 56.6858 336.624 59.9858 338.224 63.5858L349.124 64.1858L352.124 81.9858L342.024 86.1858C341.724 90.0858 340.824 93.8858 339.424 97.6858L346.724 105.786L336.224 120.486L326.224 116.286ZM313.024 93.9858C319.224 85.2858 317.124 73.1858 308.424 66.9858C299.724 60.7858 287.624 62.8858 281.424 71.5858C275.224 80.2858 277.324 92.3858 286.024 98.5858C294.724 104.786 306.824 102.686 313.024 93.9858Z" fill="#A0CEF4"/>
<path fill-rule="evenodd" clip-rule="evenodd" d="M109.323 127.186C111.923 129.986 114.023 132.986 115.823 136.286H126.123L129.923 152.886L120.623 157.386C120.523 161.086 119.923 164.786 118.823 168.386L126.123 175.686L117.023 190.186L107.323 186.786C104.523 189.386 101.523 191.486 98.2231 193.286V203.586L81.6231 207.386L77.1231 198.086C73.4231 197.986 69.7231 197.386 66.1231 196.286L58.8231 203.586L44.3231 194.486L47.7231 184.786C45.1231 181.986 43.0231 178.986 41.2231 175.686H30.9231L27.2231 158.986L36.5231 154.486C36.6231 150.786 37.2231 147.086 38.3231 143.486L31.0231 136.186L40.1231 121.686L49.8231 125.086C52.6231 122.486 55.6231 120.386 58.9231 118.586V108.286L75.5231 104.486L80.0231 113.786C83.7231 113.886 87.4231 114.486 91.0231 115.586L98.3231 108.286L112.823 117.386L109.323 127.186ZM88.9231 140.786C80.3231 135.386 69.0231 137.986 63.7231 146.586C58.3231 155.186 60.9231 166.486 69.5231 171.786C78.1231 177.186 89.4231 174.586 94.8231 165.986C100.123 157.486 97.5231 146.186 88.9231 140.786Z" fill="#A0CEF4"/>
<path fill-rule="evenodd" clip-rule="evenodd" d="M119.424 57.1858C120.824 58.6858 122.024 60.3858 123.024 62.1858H128.724L130.824 71.3858L125.724 73.8858C125.624 75.8858 125.324 77.9858 124.724 79.9858L128.824 83.9858L123.824 91.9858L118.424 90.0858C116.924 91.4858 115.224 92.6858 113.424 93.6858V99.3858L104.224 101.486L101.724 96.3858C99.7235 96.2858 97.6235 95.9858 95.6235 95.3858L91.6235 99.4858L83.6235 94.4858L85.5235 89.0858C84.1235 87.5858 82.9235 85.8858 81.9235 84.0858H76.2235L74.1235 74.8858L79.2235 72.3858C79.3235 70.3858 79.6235 68.2858 80.2235 66.2858L76.1235 62.2858L81.1235 54.2858L86.5235 56.1858C88.0235 54.7858 89.7235 53.5858 91.5235 52.5858V46.8858L100.624 44.6858L103.124 49.7858C105.124 49.8858 107.224 50.1858 109.224 50.7858L113.224 46.6858L121.224 51.6858L119.424 57.1858ZM108.124 64.7858C103.424 61.7858 97.1235 63.2858 94.1235 67.9858C91.1235 72.7858 92.6235 78.9858 97.3235 81.9858C102.124 84.9858 108.324 83.4858 111.324 78.7858C114.324 73.9858 112.824 67.6858 108.124 64.7858Z" fill="#A0CEF4"/>
<path d="M39.2231 74.2858C39.2231 74.2858 39.4231 74.3858 39.7231 74.5858C40.0231 74.7858 40.4231 75.0858 40.9231 75.5858C41.8231 76.4858 43.0231 78.1858 43.3231 80.5858C43.4231 81.7858 43.3231 83.0858 42.8231 84.3858C42.3231 85.6858 41.4231 86.9858 40.2231 87.9858C39.6231 88.4858 38.9231 88.8858 38.1231 89.1858C37.3231 89.4858 36.5231 89.6858 35.6231 89.7858C33.9231 89.9858 32.0231 89.4858 30.5231 88.4858C28.9231 87.4858 27.7231 86.0858 27.1231 84.3858C26.8231 83.5858 26.6231 82.7858 26.5231 81.8858C26.4231 81.0858 26.5231 80.1858 26.7231 79.4858C27.0231 77.8858 27.8231 76.5858 28.8231 75.5858C29.8231 74.5858 30.9231 73.8858 32.0231 73.4858C34.3231 72.6858 36.3231 72.9858 37.5231 73.3858C38.1231 73.5858 38.6231 73.8858 38.9231 73.9858C39.0231 74.0858 39.2231 74.1858 39.2231 74.2858C39.2231 74.3858 38.6231 73.8858 37.3231 73.5858C36.1231 73.1858 34.1231 72.9858 32.0231 73.7858C30.9231 74.1858 29.8231 74.8858 29.0231 75.8858C28.1231 76.8858 27.4231 78.1858 27.1231 79.6858C26.9231 80.3858 26.9231 81.1858 27.0231 81.9858C27.1231 82.7858 27.2231 83.5858 27.5231 84.2858C28.1231 85.7858 29.2231 87.1858 30.7231 88.0858C32.2231 88.9858 33.9231 89.3858 35.5231 89.2858C36.3231 89.1858 37.1231 89.0858 37.8231 88.7858C38.5231 88.4858 39.2231 88.0858 39.8231 87.6858C41.0231 86.7858 41.8231 85.5858 42.3231 84.2858C42.8231 83.0858 42.9231 81.7858 42.8231 80.5858C42.6231 78.2858 41.5231 76.5858 40.7231 75.6858C39.8231 74.6858 39.2231 74.2858 39.2231 74.2858Z" fill="#A0CEF4"/>
<path d="M48.3233 68.0858C48.3233 68.0858 48.3233 67.9858 48.4233 67.7858C48.5233 67.5858 48.6233 67.2858 48.7233 66.9858C49.0233 66.1858 49.3233 65.0858 49.8233 63.6858V63.7858C48.1233 62.7858 45.9233 61.3858 43.3233 59.7858H43.5233C42.5233 60.7858 41.4233 61.8858 40.3233 63.0858L40.2233 63.1858H40.1233C38.6233 62.6858 37.0233 62.4858 35.2233 62.3858H35.1233V62.2858C34.5233 60.9858 33.8233 59.5858 33.1233 58.0858L33.3233 58.1858C31.0233 58.6858 28.5233 59.2858 25.8233 59.8858L26.0233 59.6858C26.0233 61.0858 26.0233 62.6858 26.0233 64.2858V64.3858L25.9233 64.4858C24.5233 65.1858 23.1233 66.1858 21.9233 67.3858L21.8233 67.4858H21.7233C20.3233 66.9858 18.9233 66.4858 17.3233 65.9858L17.6233 65.8858C16.3233 67.8858 15.0233 70.0858 13.5233 72.3858V72.0858C14.5233 73.0858 15.6233 74.1858 16.8233 75.3858L16.9233 75.4858V75.5858C16.4233 77.0858 16.1233 78.7858 16.1233 80.4858V80.6858L16.0233 80.7858C14.7233 81.3858 13.3233 82.0858 11.8233 82.7858L11.9233 82.4858C12.4233 84.8858 13.0233 87.3858 13.6233 89.9858L13.2233 89.5858C14.7233 89.5858 16.2233 89.5858 17.8233 89.5858H18.0233L18.1233 89.6858C18.8233 91.0858 19.8233 92.4858 21.0233 93.6858C21.0233 93.7858 20.9233 93.3858 21.1233 93.9858V94.0858V94.1858L21.0233 94.4858L20.8233 94.9858L20.2233 96.1858C19.9233 96.8858 19.7233 97.6858 19.4233 98.3858L19.3233 98.0858C21.5233 99.4858 23.7233 100.786 25.8233 102.186H25.5233C26.6233 101.086 27.7233 99.9858 28.8233 98.8858L28.9233 98.7858H29.0233C30.6233 99.2858 32.2233 99.5858 33.9233 99.5858H34.1233L34.2233 99.6858C34.9233 101.086 35.5233 102.486 36.2233 103.886L35.9233 103.786C38.4233 103.186 40.9233 102.586 43.4233 102.086L43.2233 102.286C43.2233 100.686 43.2233 99.1858 43.2233 97.6858V97.5858L43.3233 97.4858C44.8233 96.6858 46.1233 95.6858 47.3233 94.5858L47.4233 94.4858H47.5233C49.0233 94.9858 50.4233 95.4858 51.9233 95.9858L51.6233 96.0858C53.0233 93.7858 54.4233 91.6858 55.7233 89.5858V89.7858C54.5233 88.6858 53.5233 87.5858 52.4233 86.4858L52.3233 86.3858V86.2858C52.8233 84.5858 53.1233 82.9858 53.1233 81.3858V81.2858H53.2233C54.7233 80.5858 56.1233 79.8858 57.4233 79.2858V79.6858C56.7233 76.7858 56.2233 74.2858 55.7233 72.1858L55.8233 72.2858C54.0233 72.2858 52.4233 72.2858 51.2233 72.2858H51.1233C50.3233 70.7858 49.6233 69.7858 49.1233 69.1858C48.8233 68.8858 48.7233 68.6858 48.5233 68.4858C48.4233 68.1858 48.3233 68.0858 48.3233 68.0858C48.3233 68.0858 48.4233 68.1858 48.5233 68.2858C48.6233 68.3858 48.9233 68.6858 49.1233 68.9858C49.6233 69.5858 50.4233 70.5858 51.2233 72.0858H51.1233C52.4233 72.0858 53.9233 72.0858 55.7233 71.9858H55.8233V72.0858C56.3233 74.1858 56.9233 76.6858 57.6233 79.5858V79.6858L57.5233 79.7858C56.2233 80.3858 54.8233 81.0858 53.3233 81.7858L53.4233 81.6858C53.4233 83.2858 53.1233 84.9858 52.6233 86.6858V86.4858C53.6233 87.4858 54.7233 88.5858 55.9233 89.7858L56.0233 89.8858L55.9233 89.9858C54.6233 92.0858 53.3233 94.1858 51.9233 96.4858L51.8233 96.5858L51.6233 96.4858C50.2233 95.9858 48.7233 95.4858 47.2233 94.9858H47.4233C46.2233 96.0858 44.8233 97.0858 43.3233 97.8858L43.4233 97.6858C43.4233 99.1858 43.4233 100.786 43.4233 102.286V102.486H43.2233C40.8233 103.086 38.3233 103.586 35.7233 104.186H35.5233L35.4233 103.986C34.7233 102.586 34.1233 101.186 33.4233 99.7858L33.6233 99.8858C31.9233 99.7858 30.2233 99.5858 28.6233 99.0858L28.9233 98.9858C27.8233 100.086 26.7233 101.186 25.6233 102.286L25.8233 102.686L25.6233 102.586C23.5233 101.286 21.3233 99.8858 19.1233 98.4858L18.9233 98.3858L19.0233 98.1858C19.3233 97.4858 19.5233 96.7858 19.8233 95.9858L20.2233 94.8858L20.4233 94.3858L20.5233 94.0858V93.9858V93.8858C20.6233 94.3858 20.5233 93.9858 20.6233 94.1858C19.4233 92.8858 18.4233 91.4858 17.7233 90.0858L17.9233 90.1858C16.3233 90.1858 14.7233 90.1858 13.3233 90.1858H13.1233V89.9858C12.5233 87.3858 11.9233 84.8858 11.4233 82.4858V82.2858L11.6233 82.1858C13.0233 81.4858 14.5233 80.7858 15.8233 80.1858L15.7233 80.3858C15.8233 78.5858 16.1233 76.8858 16.5233 75.3858L16.3233 75.6858C15.2233 74.5858 14.0233 73.4858 13.0233 72.3858L12.9233 72.2858L13.0233 72.0858C14.4233 69.7858 15.8233 67.5858 17.1233 65.5858L17.2233 65.3858L17.4233 65.4858C18.9233 65.9858 20.4233 66.5858 21.8233 66.9858H21.6233C22.9233 65.7858 24.3233 64.7858 25.7233 64.0858L25.6233 64.2858C25.6233 62.6858 25.6233 61.0858 25.6233 59.6858V59.4858H25.8233C28.4233 58.8858 30.9233 58.2858 33.3233 57.7858H33.4233L33.5233 57.8858C34.2233 59.3858 34.9233 60.7858 35.5233 62.0858L35.2233 61.9858C37.0233 62.0858 38.7233 62.3858 40.2233 62.7858H40.0233C41.2233 61.5858 42.3233 60.4858 43.3233 59.4858L43.4233 59.3858L43.5233 59.4858C46.1233 61.1858 48.3233 62.5858 50.0233 63.5858H50.1233V63.6858C49.6233 65.0858 49.2233 66.1858 48.9233 66.8858C48.8233 67.2858 48.7233 67.4858 48.6233 67.6858C48.4233 67.9858 48.3233 68.0858 48.3233 68.0858Z" fill="#A0CEF4"/>
<path d="M274.044 391.918L141.161 391.802C125.188 391.802 112.224 378.838 112.224 362.865L112.339 29.6231C112.339 13.6497 125.304 0.685791 141.277 0.685791L274.16 0.80154C290.134 0.80154 303.098 13.7654 303.098 29.7388V362.98C303.098 378.954 290.134 391.918 274.044 391.918Z" fill="#09283F"/>
<path d="M274.044 12.608H248.232C244.759 12.608 241.981 15.5017 241.981 19.0899V23.7199C241.981 27.3081 239.203 30.3176 235.731 30.2018H185.495C182.022 30.2018 179.244 27.3081 179.244 23.6041V18.9742C179.244 15.3859 176.466 12.3765 172.993 12.3765H163.965H141.393C130.165 12.3765 121.137 21.4049 121.137 32.6325L121.021 357.887C121.021 369.115 130.05 378.143 141.277 378.143L273.929 378.259C285.156 378.259 294.185 369.231 294.185 358.003L294.301 32.7483C294.301 21.6364 285.272 12.608 274.044 12.608Z" fill="#FAFAFA"/>
<path d="M135.027 56.5926C135.027 56.5926 135.143 56.5926 135.258 56.5926C135.49 56.5926 135.721 56.5926 135.953 56.5926C136.648 56.5926 137.458 56.5926 138.5 56.4769L138.384 56.5926C138.384 56.0139 138.384 55.4351 138.384 54.7406C138.384 54.3934 138.384 54.0461 138.384 53.6989C138.5 53.2359 138.847 52.8886 139.31 52.8886C139.773 52.8886 140.12 52.8886 140.583 52.8886C141.046 52.8886 141.509 53.3516 141.393 53.9304C141.393 54.8564 141.393 55.6666 141.393 56.5926L141.278 56.4769C142.319 56.4769 143.361 56.4769 144.519 56.4769L144.403 56.5926C144.403 55.3194 144.403 53.9304 144.403 52.5414C144.403 52.1941 144.403 51.8469 144.403 51.4996C144.403 51.1524 144.171 51.0366 143.94 50.8051C143.477 50.3422 143.014 49.8792 142.551 49.4162C142.088 48.9532 141.625 48.4902 141.162 48.0272C140.93 47.7957 140.699 47.5642 140.467 47.3327C140.236 47.1012 140.12 46.8697 139.773 46.8697C139.541 46.7539 139.31 46.8697 139.078 46.9854C138.847 47.1012 138.731 47.3327 138.5 47.5642C138.152 47.9114 137.689 48.3744 137.342 48.7217C136.648 49.5319 135.837 50.2264 135.258 50.8051C135.027 51.1524 135.143 51.6154 135.143 51.9626C135.143 52.3099 135.143 52.7729 135.143 53.1201C135.143 53.8146 135.143 54.3934 135.143 54.9721C135.143 55.4351 135.143 55.7824 135.143 56.1296C135.027 56.4769 135.027 56.5926 135.027 56.5926C135.027 56.5926 135.027 56.4768 135.027 56.2454C135.027 55.8981 135.027 55.5509 135.027 55.0879C135.027 54.5091 135.027 53.9304 135.027 53.2359C135.027 52.8886 135.027 52.4256 135.027 52.0784C135.027 51.7311 134.911 51.1524 135.143 50.8051C135.721 50.1107 136.416 49.4162 137.226 48.6059C137.574 48.2587 138.037 47.7957 138.384 47.4484C138.615 47.2169 138.731 47.1012 138.963 46.8697C139.194 46.6382 139.541 46.6382 139.889 46.6382C140.236 46.7539 140.467 46.9854 140.699 47.2169C140.93 47.4484 141.162 47.6799 141.393 47.9114C141.856 48.3744 142.319 48.8374 142.782 49.3004C143.245 49.7634 143.708 50.2264 144.171 50.6894C144.403 50.9209 144.75 51.2681 144.75 51.6154C144.75 51.9626 144.75 52.3099 144.75 52.6571C144.75 54.0461 144.75 55.4351 144.75 56.7083V56.8241H144.634C143.477 56.8241 142.435 56.8241 141.393 56.8241H141.278V56.7083C141.278 55.7824 141.278 54.8564 141.278 54.0461C141.278 53.6989 141.046 53.3516 140.699 53.2359C140.352 53.2359 139.889 53.2359 139.541 53.2359C139.194 53.2359 138.963 53.5831 138.847 53.8146C138.847 54.1619 138.847 54.5091 138.847 54.8564C138.847 55.5509 138.847 56.1296 138.847 56.7083V56.8241H138.731C137.689 56.8241 136.763 56.8241 136.069 56.8241C135.837 56.8241 135.606 56.8241 135.374 56.8241C135.027 56.5926 135.027 56.5926 135.027 56.5926Z" fill="#263238"/>
<path d="M275.549 48.2586C275.549 48.8374 275.086 49.1846 274.623 49.1846C274.044 49.1846 273.697 48.7216 273.697 48.2586C273.697 47.6799 274.16 47.3326 274.623 47.3326C275.086 47.3326 275.549 47.7956 275.549 48.2586Z" fill="#263238"/>
<path d="M275.549 51.7311C275.549 52.3099 275.086 52.6571 274.623 52.6571C274.044 52.6571 273.697 52.1941 273.697 51.7311C273.697 51.1524 274.16 50.8051 274.623 50.8051C275.086 50.8051 275.549 51.2681 275.549 51.7311Z" fill="#263238"/>
<path d="M275.549 55.3193C275.549 55.8981 275.086 56.2453 274.623 56.2453C274.044 56.2453 273.697 55.7823 273.697 55.3193C273.697 54.7406 274.16 54.3933 274.623 54.3933C275.086 54.2776 275.549 54.7406 275.549 55.3193Z" fill="#263238"/>
<path d="M263.024 107.286L264.424 109.986L267.424 110.486L265.224 112.686L265.724 115.686L263.024 114.286L260.324 115.686L260.824 112.686L258.624 110.486L261.624 109.986L263.024 107.286Z" fill="#95CCF2"/>
<path d="M137.624 159.286L138.724 160.886L140.724 160.786L139.624 162.386L140.224 164.286L138.424 163.686L136.824 164.886V162.886L135.224 161.786L137.024 161.186L137.624 159.286Z" fill="#95CCF2"/>
<path d="M139.524 131.386C137.324 131.386 135.424 129.586 135.424 127.286C135.424 125.086 137.224 123.186 139.524 123.186C141.724 123.186 143.624 124.986 143.624 127.286C143.524 129.486 141.724 131.386 139.524 131.386ZM139.524 125.386C138.524 125.386 137.724 126.186 137.724 127.186C137.724 128.186 138.524 128.986 139.524 128.986C140.524 128.986 141.324 128.186 141.324 127.186C141.324 126.286 140.524 125.386 139.524 125.386Z" fill="#95CCF2"/>
<path d="M276.224 167.686C275.224 167.686 274.324 166.886 274.324 165.786C274.324 164.786 275.124 163.886 276.224 163.886C277.224 163.886 278.124 164.686 278.124 165.786C278.124 166.786 277.224 167.686 276.224 167.686ZM276.224 164.986C275.724 164.986 275.424 165.386 275.424 165.786C275.424 166.186 275.824 166.586 276.224 166.586C276.724 166.586 277.024 166.186 277.024 165.786C277.024 165.386 276.624 164.986 276.224 164.986Z" fill="#95CCF2"/>
<path d="M204.124 100.386C203.124 100.386 202.224 99.5858 202.224 98.4858C202.224 97.4858 203.024 96.5858 204.124 96.5858C205.124 96.5858 206.024 97.3858 206.024 98.4858C206.024 99.5858 205.224 100.386 204.124 100.386ZM204.124 97.6858C203.624 97.6858 203.324 98.0858 203.324 98.4858C203.324 98.9858 203.724 99.2858 204.124 99.2858C204.624 99.2858 204.924 98.8858 204.924 98.4858C205.024 98.0858 204.624 97.6858 204.124 97.6858Z" fill="#95CCF2"/>
<path d="M178.168 155.526V164.686H181.399C184.129 164.686 185.735 162.985 185.735 160.09C185.735 157.202 184.123 155.526 181.399 155.526H178.168ZM179.59 156.751H181.266C183.202 156.751 184.281 157.945 184.281 160.103C184.281 162.267 183.208 163.454 181.266 163.454H179.59V156.751ZM189.797 164.813C191.708 164.813 192.965 163.499 192.965 161.347C192.965 159.201 191.702 157.887 189.797 157.887C187.893 157.887 186.63 159.201 186.63 161.347C186.63 163.499 187.887 164.813 189.797 164.813ZM189.797 163.683C188.725 163.683 188.026 162.832 188.026 161.347C188.026 159.868 188.725 159.017 189.797 159.017C190.87 159.017 191.568 159.868 191.568 161.347C191.568 162.832 190.876 163.683 189.797 163.683ZM202.81 158.008H201.452L200.233 163.264H200.201L198.805 158.008H197.484L196.094 163.264H196.069L194.85 158.008H193.479L195.313 164.686H196.729L198.119 159.684H198.151L199.554 164.686H200.982L202.81 158.008ZM203.648 164.686H205.019V160.795C205.019 159.76 205.641 159.074 206.606 159.074C207.558 159.074 208.028 159.627 208.028 160.63V164.686H209.405V160.363C209.405 158.833 208.561 157.894 207.088 157.894C206.06 157.894 205.349 158.364 204.987 159.125H204.956V158.008H203.648V164.686ZM210.783 164.686H212.154V155.526H210.783V164.686ZM216.432 164.813C218.343 164.813 219.6 163.499 219.6 161.347C219.6 159.201 218.336 157.887 216.432 157.887C214.528 157.887 213.265 159.201 213.265 161.347C213.265 163.499 214.521 164.813 216.432 164.813ZM216.432 163.683C215.359 163.683 214.661 162.832 214.661 161.347C214.661 159.868 215.359 159.017 216.432 159.017C217.505 159.017 218.203 159.868 218.203 161.347C218.203 162.832 217.511 163.683 216.432 163.683ZM222.996 163.715C222.259 163.715 221.777 163.334 221.777 162.75C221.777 162.178 222.24 161.817 223.059 161.76L224.703 161.658V162.185C224.703 163.054 223.954 163.715 222.996 163.715ZM222.615 164.8C223.491 164.8 224.335 164.33 224.722 163.588H224.754V164.686H226.068V160.084C226.068 158.744 225.033 157.887 223.415 157.887C221.764 157.887 220.736 158.776 220.66 159.982H221.955C222.075 159.385 222.57 159.005 223.364 159.005C224.202 159.005 224.703 159.449 224.703 160.192V160.706L222.875 160.814C221.288 160.903 220.393 161.62 220.393 162.788C220.393 163.988 221.307 164.8 222.615 164.8ZM229.908 164.8C230.879 164.8 231.641 164.311 232.035 163.55H232.06V164.686H233.393V155.526H232.016V159.119H231.99C231.616 158.383 230.854 157.9 229.896 157.9C228.22 157.9 227.103 159.24 227.103 161.347C227.103 163.454 228.22 164.8 229.908 164.8ZM230.27 159.055C231.324 159.055 232.028 159.963 232.028 161.347C232.028 162.743 231.324 163.638 230.27 163.638C229.185 163.638 228.505 162.756 228.505 161.347C228.505 159.944 229.185 159.055 230.27 159.055Z" fill="#153D59"/>
<path d="M196.797 210.87C198.923 210.87 200.413 209.469 200.413 207.446C200.413 205.531 199.053 204.144 197.159 204.144C196.195 204.144 195.389 204.52 194.958 205.142H194.924L195.197 202.114H199.839V200.822H193.967L193.447 206.4H194.849C195.231 205.75 195.97 205.361 196.824 205.361C198.055 205.361 198.916 206.249 198.916 207.487C198.916 208.724 198.055 209.592 196.811 209.592C195.71 209.592 194.869 208.922 194.76 207.945H193.297C193.386 209.667 194.828 210.87 196.797 210.87ZM205.191 210.87C207.317 210.87 208.808 209.469 208.808 207.446C208.808 205.531 207.447 204.144 205.554 204.144C204.59 204.144 203.783 204.52 203.353 205.142H203.318L203.592 202.114H208.233V200.822H202.361L201.842 206.4H203.243C203.626 205.75 204.364 205.361 205.219 205.361C206.449 205.361 207.311 206.249 207.311 207.487C207.311 208.724 206.449 209.592 205.205 209.592C204.104 209.592 203.264 208.922 203.154 207.945H201.691C201.78 209.667 203.223 210.87 205.191 210.87ZM213.887 203.166C213.887 201.649 213.046 200.678 211.754 200.678C210.455 200.678 209.614 201.649 209.614 203.166C209.614 204.684 210.455 205.655 211.754 205.655C213.046 205.655 213.887 204.684 213.887 203.166ZM211.754 204.691C211.207 204.691 210.865 204.11 210.865 203.159C210.865 202.216 211.207 201.635 211.754 201.635C212.294 201.635 212.636 202.216 212.636 203.159C212.636 204.11 212.294 204.691 211.754 204.691ZM211.692 210.686L215.186 205.907L218.897 200.822H217.551L214.153 205.47L210.339 210.686H211.692ZM219.622 208.314C219.622 206.789 218.788 205.819 217.489 205.819C216.19 205.819 215.356 206.789 215.356 208.314C215.356 209.831 216.19 210.802 217.489 210.802C218.788 210.802 219.622 209.831 219.622 208.314ZM217.489 209.831C216.942 209.831 216.607 209.257 216.607 208.307C216.607 207.357 216.942 206.782 217.489 206.782C218.036 206.782 218.371 207.357 218.371 208.307C218.371 209.257 218.036 209.831 217.489 209.831Z" fill="#153D59"/>
<path opacity="0.2" d="M265.924 188.086H148.324C145.524 188.086 143.224 185.786 143.224 182.986V182.786C143.224 179.986 145.524 177.686 148.324 177.686H265.924C268.724 177.686 271.024 179.986 271.024 182.786V182.986C271.024 185.786 268.724 188.086 265.924 188.086Z" fill="#153D59"/>
<path d="M205.924 188.086H148.324C145.524 188.086 143.224 185.786 143.224 182.986V182.786C143.224 179.986 145.524 177.686 148.324 177.686H205.924C208.724 177.686 211.024 179.986 211.024 182.786V182.986C211.024 185.786 208.724 188.086 205.924 188.086Z" fill="#369BE5"/>
<path d="M176.023 380.386L178.923 391.386L211.123 391.086C211.123 391.086 206.723 387.786 190.523 387.986L188.923 380.386H176.023Z" fill="#FFB573"/>
<path d="M140.923 256.086L116.823 258.386L107.023 261.186C102.823 262.386 99.0234 264.586 95.8234 267.586L64.1234 297.886L58.3234 250.786L42.5234 252.186L45.1234 312.886C47.5234 320.286 54.3234 325.486 62.3234 325.486C67.0234 325.486 71.6234 323.486 75.0234 320.286L97.5234 299.086L95.3234 326.986L87.6234 344.386L142.823 375.586C142.823 375.586 149.323 343.486 152.823 321.286C155.623 303.286 157.123 264.186 157.123 264.186L140.923 256.086Z" fill="#153D59"/>
<path d="M155.723 263.386C155.723 263.386 167.923 267.886 170.923 277.486C173.523 285.986 182.223 333.686 182.223 333.686L190.923 384.186L172.723 384.886L151.823 298.786L155.723 263.386Z" fill="#153D59"/>
<path d="M94.9235 325.686C94.8235 325.686 95.6235 315.986 96.7235 304.086C97.8235 292.186 98.9235 282.486 99.0235 282.586C99.1235 282.586 98.3235 292.286 97.2235 304.186C96.1235 315.986 95.1235 325.686 94.9235 325.686Z" fill="#263238"/>
<path d="M135.224 301.886C135.224 301.886 135.224 302.086 135.024 302.386C134.924 302.786 134.724 303.186 134.424 303.686C134.224 304.286 133.924 304.986 133.424 305.686C133.024 306.486 132.624 307.386 131.924 308.286C131.624 308.786 131.324 309.286 131.024 309.786C130.724 310.286 130.324 310.786 129.924 311.286C129.224 312.386 128.324 313.486 127.324 314.586C125.424 316.786 123.124 319.086 120.424 321.186C117.724 323.286 115.024 324.986 112.424 326.386C111.124 326.986 109.824 327.686 108.624 328.086C108.024 328.286 107.424 328.586 106.824 328.786C106.224 328.986 105.724 329.186 105.124 329.386C104.124 329.786 103.124 329.986 102.224 330.186C101.424 330.386 100.624 330.586 100.024 330.686C99.4235 330.786 99.0235 330.886 98.6235 330.886C98.3235 330.886 98.1235 330.986 98.1235 330.886C98.1235 330.886 98.3235 330.786 98.6235 330.686C99.0235 330.586 99.4235 330.486 100.024 330.386C100.624 330.286 101.324 330.086 102.224 329.786C103.024 329.486 104.024 329.286 105.024 328.886C105.524 328.686 106.124 328.486 106.624 328.286C107.224 328.086 107.724 327.786 108.324 327.586C109.524 327.086 110.724 326.486 112.024 325.786C114.624 324.386 117.324 322.686 119.924 320.586C122.524 318.486 124.824 316.186 126.724 314.086C127.624 312.986 128.524 311.886 129.324 310.886C129.724 310.386 130.124 309.886 130.424 309.386C130.724 308.886 131.024 308.386 131.324 307.886C131.924 306.986 132.424 306.086 132.824 305.286C133.224 304.486 133.624 303.886 133.824 303.286C134.124 302.786 134.324 302.386 134.424 301.986C135.124 302.086 135.124 301.886 135.224 301.886Z" fill="#263238"/>
<g opacity="0.2">
<g opacity="0.2">
<path opacity="0.2" d="M101.423 330.586C99.6233 330.086 98.7233 327.886 99.2233 326.186C99.7233 324.386 101.123 323.086 102.823 322.286C104.523 321.486 106.323 321.186 108.123 320.686C115.823 318.786 123.023 314.786 128.623 309.186C129.123 308.686 129.923 308.086 130.523 308.486C131.423 308.986 130.823 310.286 130.223 311.086C122.423 320.086 112.223 326.986 100.923 330.786" fill="black"/>
</g>
</g>
<path d="M156.523 319.186C156.523 319.186 156.323 318.786 156.123 318.186C155.923 317.486 155.623 316.586 155.323 315.286C154.623 312.886 153.823 309.486 153.023 305.786C152.223 302.086 151.523 298.686 151.023 296.186C150.823 294.986 150.623 293.986 150.523 293.286C150.423 292.586 150.423 292.186 150.423 292.186C150.423 292.186 150.523 292.586 150.723 293.186C150.923 293.986 151.123 294.986 151.423 296.086C152.023 298.686 152.723 301.986 153.523 305.586C154.323 309.286 155.123 312.586 155.723 315.086C156.023 316.186 156.223 317.186 156.323 317.986C156.523 318.786 156.623 319.186 156.523 319.186Z" fill="#263238"/>
<path d="M45.4236 256.686C45.3236 256.686 45.0236 255.586 44.9236 254.286C44.8236 252.986 44.8236 251.886 45.0236 251.886C45.1236 251.886 45.4236 252.986 45.5236 254.286C45.5236 255.586 45.5236 256.686 45.4236 256.686Z" fill="#263238"/>
<path d="M50.0235 256.786C49.9235 256.786 49.7235 255.686 49.6235 254.286C49.5235 252.886 49.6235 251.686 49.7235 251.686C49.8235 251.686 50.0235 252.786 50.1235 254.186C50.2235 255.686 50.1235 256.786 50.0235 256.786Z" fill="#263238"/>
<path d="M54.6236 256.486C54.5236 256.486 54.3236 255.186 54.2236 253.686C54.1236 252.086 54.2235 250.886 54.3235 250.786C54.4235 250.786 54.6236 252.086 54.7236 253.586C54.8236 255.186 54.7236 256.486 54.6236 256.486Z" fill="#263238"/>
<path d="M63.5237 305.086C63.4237 305.086 63.4237 303.186 63.7237 300.886C63.9237 298.586 64.2237 296.786 64.4237 296.786C64.5237 296.786 64.5237 298.686 64.2237 300.986C63.9237 303.286 63.6237 305.086 63.5237 305.086Z" fill="#263238"/>
<path d="M175.723 379.686C175.823 379.686 176.223 380.786 176.423 382.186C176.623 383.586 176.723 384.786 176.623 384.786C176.523 384.786 176.123 383.686 175.923 382.286C175.723 380.886 175.623 379.686 175.723 379.686Z" fill="#263238"/>
<path d="M181.723 379.686C181.823 379.686 182.123 380.686 182.323 381.986C182.523 383.286 182.623 384.386 182.423 384.386C182.323 384.386 182.023 383.386 181.823 382.086C181.623 380.686 181.623 379.686 181.723 379.686Z" fill="#263238"/>
<path d="M187.424 379.086C187.524 379.086 187.824 380.286 188.024 381.686C188.224 383.086 188.424 384.286 188.324 384.286C188.224 384.286 187.724 383.186 187.524 381.686C187.224 380.286 187.224 379.086 187.424 379.086Z" fill="#263238"/>
<path d="M165.524 269.286C165.524 269.386 164.224 269.286 162.324 269.686C160.324 270.086 157.724 271.086 155.424 273.086C153.124 275.086 151.724 277.586 151.124 279.486C150.424 281.386 150.324 282.686 150.224 282.586C150.224 282.586 150.224 282.286 150.224 281.686C150.324 281.086 150.424 280.286 150.724 279.286C151.324 277.286 152.624 274.686 155.024 272.586C157.424 270.486 160.224 269.486 162.224 269.186C163.224 268.986 164.024 268.986 164.624 268.986C165.224 269.186 165.524 269.286 165.524 269.286Z" fill="#263238"/>
<path d="M173.024 289.786C173.024 289.886 171.924 290.386 170.024 291.086C168.124 291.786 165.524 292.686 162.524 293.686C159.624 294.586 156.924 295.386 154.924 295.786C152.924 296.286 151.724 296.486 151.724 296.486C151.724 296.386 152.924 296.086 154.824 295.486C156.924 294.886 159.524 294.086 162.324 293.186C165.224 292.286 167.724 291.486 169.824 290.786C171.824 290.086 173.024 289.786 173.024 289.786Z" fill="#32678C"/>
<path d="M180.724 324.586C180.724 324.686 179.524 324.986 177.624 325.386C175.724 325.886 173.024 326.486 170.024 327.086C167.024 327.686 164.324 328.286 162.324 328.586C160.324 328.986 159.124 329.186 159.124 329.086C159.124 328.986 160.324 328.686 162.224 328.286C164.124 327.786 166.824 327.186 169.824 326.586C172.824 325.986 175.524 325.386 177.524 325.086C179.424 324.786 180.724 324.586 180.724 324.586Z" fill="#32678C"/>
<path d="M189.423 368.186C189.423 368.286 188.323 368.286 186.423 368.386C184.523 368.386 182.023 368.486 179.223 368.686C176.423 368.886 173.823 369.086 172.023 369.186C170.223 369.386 169.023 369.486 169.023 369.386C169.023 369.286 170.123 369.086 172.023 368.786C173.823 368.486 176.423 368.286 179.223 368.086C182.023 367.886 184.623 367.886 186.523 367.986C188.323 368.086 189.423 368.186 189.423 368.186Z" fill="#32678C"/>
<path d="M109.323 327.286C109.323 327.386 108.523 326.986 107.223 326.386C105.823 325.686 104.123 324.886 102.323 324.086C100.523 323.186 98.8233 322.486 97.4233 321.786C96.1233 321.186 95.4233 320.786 95.4233 320.686C95.4233 320.586 96.2233 320.886 97.5233 321.386C98.8233 321.886 100.623 322.686 102.523 323.586C104.423 324.486 106.123 325.386 107.323 326.086C108.623 326.686 109.323 327.186 109.323 327.286Z" fill="#32678C"/>
<path d="M149.523 334.086C149.523 334.086 149.123 333.986 148.323 333.686C147.523 333.286 146.423 332.886 145.223 332.286C142.523 331.086 138.923 329.586 134.823 327.886C130.723 326.286 126.923 324.886 124.223 323.886C122.923 323.386 121.823 322.986 121.023 322.686C120.223 322.386 119.823 322.186 119.823 322.186C119.823 322.186 120.223 322.286 121.023 322.486C121.823 322.686 122.923 323.086 124.323 323.486C127.123 324.386 130.823 325.686 135.023 327.386C139.123 328.986 142.823 330.686 145.423 331.886C146.723 332.486 147.823 332.986 148.523 333.386C149.123 333.786 149.523 334.086 149.523 334.086Z" fill="#32678C"/>
<path d="M152.624 305.686C152.624 305.686 152.424 305.686 152.024 305.686C151.624 305.586 151.024 305.586 150.424 305.486C148.924 305.286 147.024 304.886 144.524 304.586C139.624 303.786 132.724 302.686 125.124 301.586C117.524 300.486 110.724 299.586 105.724 298.886C103.324 298.586 101.324 298.286 99.8235 298.086C99.2235 297.986 98.6235 297.886 98.2235 297.886C97.8235 297.786 97.6235 297.786 97.6235 297.786C97.6235 297.786 97.8235 297.786 98.2235 297.786C98.6235 297.786 99.2235 297.886 99.8235 297.886C101.224 297.986 103.224 298.186 105.724 298.486C110.724 299.086 117.624 299.886 125.124 300.986C132.724 302.086 139.524 303.286 144.424 304.186C146.924 304.686 148.924 304.986 150.224 305.286C150.824 305.386 151.424 305.486 151.824 305.586C152.524 305.586 152.624 305.686 152.624 305.686Z" fill="#32678C"/>
<path d="M150.424 275.686C150.424 275.786 139.624 274.286 126.224 272.386C112.924 270.386 102.124 268.686 102.124 268.486C102.124 268.386 112.924 269.886 126.324 271.786C139.624 273.786 150.424 275.486 150.424 275.686Z" fill="#32678C"/>
<path d="M93.7233 301.886C93.6233 301.886 93.1233 300.686 92.2233 298.686C91.2233 296.486 90.0233 293.786 88.7233 290.786C87.3233 287.786 86.1233 285.086 85.1233 282.886C84.2233 280.886 83.6233 279.586 83.7233 279.586C83.7233 279.586 83.9233 279.886 84.2233 280.386C84.5233 280.886 84.9233 281.686 85.4233 282.686C86.4233 284.686 87.7233 287.386 89.1233 290.486C90.5233 293.586 91.7233 296.386 92.5233 298.486C92.9233 299.486 93.2233 300.386 93.4233 300.986C93.6233 301.586 93.7233 301.886 93.7233 301.886Z" fill="#32678C"/>
<path d="M72.2234 322.986C72.1234 322.986 70.7234 316.986 69.1234 309.486C67.5234 301.986 66.4234 295.886 66.5234 295.886C66.6234 295.886 68.0234 301.886 69.6234 309.386C71.1234 316.886 72.3234 322.986 72.2234 322.986Z" fill="#32678C"/>
<path d="M63.3233 290.186C63.3233 290.286 59.1233 291.386 53.9233 292.486C48.7233 293.586 44.4233 294.386 44.4233 294.286C44.4233 294.186 48.6233 293.086 53.8233 291.986C59.0233 290.786 63.2233 289.986 63.3233 290.186Z" fill="#32678C"/>
<path d="M60.1234 262.786C60.1234 262.886 59.2234 263.086 57.6234 263.286C56.1234 263.586 53.9234 263.886 51.6234 264.086C49.2234 264.386 47.1234 264.486 45.5234 264.586C43.9234 264.686 43.0234 264.686 43.0234 264.586C43.0234 264.486 43.9234 264.386 45.5234 264.186C47.2234 263.986 49.3234 263.786 51.5234 263.486C53.8234 263.186 55.8234 262.986 57.5234 262.786C59.2234 262.786 60.1234 262.786 60.1234 262.786Z" fill="#32678C"/>
<path d="M68.3234 215.286C68.6234 215.886 76.1234 254.486 76.1234 254.486L58.4234 255.286L51.5234 222.086L68.3234 215.286Z" fill="#E7E7E8"/>
<path d="M76.0234 254.486L78.1234 253.586L70.4234 215.586L68.0234 215.386L76.0234 254.486Z" fill="#A0CEF4"/>
<path d="M61.1235 223.786C61.2235 224.286 60.8235 224.786 60.3235 224.786C59.8235 224.886 59.3235 224.486 59.3235 223.986C59.2235 223.486 59.6235 222.986 60.1235 222.986C60.6235 222.886 61.1235 223.286 61.1235 223.786Z" fill="#153D59"/>
<path d="M57.5232 250.886L57.2232 245.786L64.8232 242.686L61.9232 235.686C60.5232 232.386 56.5232 231.086 53.4232 232.786C52.4232 233.286 51.3232 233.886 50.4232 234.386C48.2232 235.586 46.7232 237.586 46.1232 239.986C45.1232 244.086 44.3232 252.686 44.3232 252.286" fill="#FFB573"/>
<path d="M37.2235 379.486C37.2235 379.486 6.1235 388.086 4.8235 388.586C2.9235 389.286 3.2235 396.086 6.2235 395.986C7.6235 395.886 30.1235 396.786 32.9235 396.686C35.7235 396.486 44.3235 393.086 44.3235 393.086L37.2235 379.486Z" fill="#153D59"/>
<path d="M24.3237 391.386C24.1237 391.386 23.9237 389.786 22.9237 388.086C21.9237 386.386 20.6237 385.386 20.7237 385.186C20.8237 385.086 22.3237 385.986 23.4237 387.786C24.4237 389.686 24.4237 391.386 24.3237 391.386Z" fill="#263238"/>
<path d="M27.5235 389.986C27.3235 389.986 27.0235 388.586 26.2235 386.886C25.4235 385.286 24.4235 384.086 24.5235 383.986C24.6235 383.886 25.8235 384.886 26.7235 386.586C27.6235 388.386 27.6235 389.886 27.5235 389.986Z" fill="#263238"/>
<path d="M30.6237 389.086C30.4237 389.086 30.6237 387.486 29.9237 385.786C29.2237 384.086 28.1237 382.986 28.2237 382.886C28.3237 382.786 29.7237 383.686 30.4237 385.586C31.1237 387.486 30.7237 389.186 30.6237 389.086Z" fill="#263238"/>
<path d="M30.0236 385.086C29.9236 385.086 29.7236 384.186 29.7236 382.786C29.7236 382.086 29.8236 381.186 30.0236 380.286C30.1236 379.786 30.3236 379.286 30.5236 378.886C30.6236 378.686 30.7236 378.386 31.0236 378.086C31.3236 377.786 31.8236 377.886 32.1236 378.186C32.4236 378.386 32.5236 378.786 32.5236 379.086C32.5236 379.386 32.5236 379.686 32.5236 379.886C32.5236 380.386 32.4236 380.886 32.3236 381.386C32.1236 382.386 31.7236 383.086 31.3236 383.786C30.6236 385.086 29.9236 385.686 29.9236 385.686C29.8236 385.686 30.4236 384.886 31.0236 383.686C31.3236 383.086 31.6236 382.286 31.8236 381.386C31.9236 380.986 31.9236 380.486 31.9236 379.986C31.9236 379.486 31.9236 378.886 31.6236 378.686C31.5236 378.586 31.3236 378.586 31.2236 378.686C31.1236 378.786 30.9236 378.986 30.9236 379.186C30.7236 379.686 30.6236 380.086 30.4236 380.586C30.2236 381.486 30.0236 382.286 30.0236 382.986C29.9236 384.186 30.1236 385.086 30.0236 385.086Z" fill="#263238"/>
<path d="M30.0234 384.786C30.0234 384.686 30.7234 384.486 32.0234 384.486C32.6234 384.486 33.4234 384.586 34.2234 384.786C34.6234 384.886 35.0234 384.986 35.5234 385.286C35.9234 385.486 36.4234 386.086 36.2234 386.686C36.1234 387.286 35.6234 387.686 35.1234 387.786C34.6234 387.886 34.1234 387.886 33.7234 387.786C32.8234 387.586 32.2234 387.186 31.7234 386.786C30.7234 385.986 30.2234 385.386 30.3234 385.386C30.4234 385.286 30.9234 385.786 32.0234 386.486C32.5234 386.786 33.1234 387.186 33.9234 387.286C34.3234 387.386 34.7234 387.386 35.1234 387.286C35.5234 387.186 35.8234 386.886 35.9234 386.586C36.0234 386.286 35.8234 385.886 35.4234 385.686C35.1234 385.486 34.7234 385.386 34.3234 385.286C33.5234 385.086 32.8234 384.986 32.2234 384.886C30.8234 384.786 30.1234 384.886 30.0234 384.786Z" fill="#263238"/>
<path d="M19.5235 391.786C19.3235 391.786 19.5235 390.486 18.9235 388.986C18.3235 387.486 17.3235 386.686 17.4235 386.586C17.5235 386.486 18.8235 387.186 19.4235 388.786C20.0235 390.386 19.6235 391.786 19.5235 391.786Z" fill="#263238"/>
<path d="M41.2237 393.186C41.2237 393.186 40.8237 393.386 40.0237 393.786C39.2237 394.086 38.0237 394.486 36.5237 394.886C33.5237 395.586 29.3237 396.086 24.6237 395.986C19.9237 395.886 15.7237 395.686 12.7237 395.586C11.3237 395.486 10.0237 395.486 9.12373 395.386C8.22373 395.286 7.82373 395.286 7.82373 395.286C7.82373 395.286 8.32373 395.186 9.12373 395.186C10.1237 395.186 11.3237 395.186 12.7237 395.186C15.9237 395.286 20.0237 395.286 24.6237 395.386C29.2237 395.386 33.4237 395.086 36.4237 394.386C39.4237 393.886 41.2237 393.086 41.2237 393.186Z" fill="#263238"/>
<path d="M42.1234 393.886C42.1234 393.986 41.2234 393.486 39.8234 392.786C38.4234 392.186 36.2234 391.486 33.9234 391.786C31.6234 392.186 29.9234 393.686 28.8234 394.786C27.7234 395.886 27.1234 396.686 27.0234 396.586C27.0234 396.586 27.5234 395.686 28.5234 394.486C29.0234 393.886 29.7234 393.186 30.6234 392.586C31.5234 391.986 32.6234 391.386 33.8234 391.186C36.3234 390.786 38.5234 391.686 39.9234 392.386C41.4234 393.186 42.2234 393.886 42.1234 393.886Z" fill="#263238"/>
<path d="M70.3232 370.986C70.3232 370.986 99.7232 390.286 100.823 391.086C102.423 392.286 100.623 397.986 97.8232 396.986C96.5232 396.486 71.8232 389.686 69.1232 388.586C66.4232 387.586 59.3232 381.686 59.3232 381.686L70.3232 370.986Z" fill="#153D59"/>
<path d="M79.0235 386.186C78.9235 386.186 79.4235 384.486 81.0235 382.986C82.6235 381.586 84.3235 381.186 84.3235 381.286C84.4235 381.386 82.8235 381.986 81.3235 383.386C79.8235 384.786 79.1235 386.286 79.0235 386.186Z" fill="#263238"/>
<path d="M76.4235 383.786C76.3235 383.786 76.8235 382.286 78.2235 380.886C79.5235 379.486 81.0235 378.886 81.1235 378.986C81.2235 379.086 79.9235 379.886 78.6235 381.186C77.2235 382.586 76.5235 383.886 76.4235 383.786Z" fill="#263238"/>
<path d="M73.7231 382.086C73.6231 382.086 73.7231 380.386 75.0231 378.886C76.3231 377.286 77.9231 376.786 77.9231 376.986C78.0231 377.086 76.6231 377.786 75.4231 379.286C74.2231 380.586 73.9231 382.186 73.7231 382.086Z" fill="#263238"/>
<path d="M75.5233 378.486C75.4233 378.486 75.8233 377.686 76.2233 376.286C76.4233 375.586 76.5233 374.786 76.5233 373.886C76.5233 373.386 76.5233 372.986 76.5233 372.386C76.5233 372.186 76.4233 371.886 76.3233 371.786C76.2233 371.686 76.1233 371.586 75.9232 371.686C75.6233 371.786 75.4233 372.386 75.2233 372.886C75.1233 373.386 75.0232 373.786 74.9232 374.286C74.8232 375.186 74.9233 376.086 75.0233 376.786C75.2233 378.186 75.5232 378.986 75.4232 379.086C75.3232 379.086 74.9233 378.286 74.6233 376.886C74.5233 376.186 74.3232 375.286 74.4232 374.286C74.4232 373.786 74.5233 373.286 74.7233 372.786C74.8233 372.486 74.9233 372.286 75.0233 371.986C75.1233 371.686 75.3233 371.386 75.7233 371.286C76.0233 371.086 76.5233 371.186 76.7233 371.586C76.9233 371.886 76.9232 372.186 76.9232 372.486C76.9232 372.986 76.9232 373.486 76.9232 373.986C76.8233 374.986 76.6233 375.786 76.4232 376.486C76.0232 377.686 75.5233 378.486 75.5233 378.486Z" fill="#263238"/>
<path d="M75.5231 378.086C75.5231 378.186 74.8231 377.786 73.6231 377.486C73.0231 377.386 72.3231 377.186 71.5231 377.186C71.1231 377.186 70.7231 377.186 70.3231 377.286C69.9231 377.386 69.6231 377.586 69.6231 377.986C69.6231 378.386 69.8231 378.686 70.1231 378.886C70.4231 379.086 70.8231 379.186 71.2231 379.286C72.0231 379.386 72.7231 379.186 73.3231 379.086C74.5231 378.786 75.2231 378.486 75.2231 378.486C75.2231 378.586 74.6231 378.986 73.4231 379.386C72.8231 379.586 72.0231 379.786 71.2231 379.686C70.8231 379.686 70.3231 379.586 69.9231 379.286C69.5231 378.986 69.1231 378.486 69.2231 377.886C69.2231 377.286 69.8231 376.786 70.3231 376.786C70.8231 376.686 71.2231 376.686 71.7231 376.686C72.5231 376.786 73.3231 376.886 73.9231 377.086C74.9231 377.586 75.5231 378.086 75.5231 378.086Z" fill="#263238"/>
<path d="M94.0234 395.886C94.0234 395.886 93.5234 395.586 93.3234 394.786C93.1234 393.986 93.2234 392.686 93.9234 391.586C94.2234 390.986 94.6234 390.586 94.9234 390.086C95.2234 389.686 95.6234 389.286 95.9234 388.986C96.2234 388.686 96.6234 388.586 96.8234 388.586C97.0234 388.586 97.2234 388.686 97.2234 388.686C97.2234 388.786 96.7234 388.686 96.1234 389.286C95.8234 389.586 95.5234 389.886 95.3234 390.386C95.0234 390.786 94.7234 391.286 94.4234 391.786C93.8234 392.786 93.6234 393.886 93.8234 394.686C93.8234 395.386 94.1234 395.786 94.0234 395.886Z" fill="#263238"/>
<path d="M83.5234 387.986C83.4234 387.986 83.4234 386.486 84.5234 385.186C85.6234 383.786 87.1234 383.486 87.1234 383.686C87.2234 383.786 85.9234 384.286 84.9234 385.586C83.9234 386.686 83.6234 387.986 83.5234 387.986Z" fill="#263238"/>
<path d="M62.3232 382.786C62.3232 382.786 62.8232 383.086 63.6232 383.686C64.4232 384.286 65.6232 385.086 67.2232 385.886C68.8232 386.786 70.7232 387.586 73.0232 388.486C75.2232 389.286 77.7232 390.086 80.4232 390.886C85.7232 392.386 90.5232 393.786 94.0232 394.886C95.7232 395.386 97.0232 395.786 98.1232 396.186C99.1232 396.486 99.6232 396.686 99.6232 396.686C99.6232 396.686 99.0232 396.586 98.1232 396.386C97.0232 396.086 95.6232 395.686 94.0232 395.286C90.5232 394.286 85.7232 392.986 80.4232 391.486C77.8232 390.686 75.2232 389.886 73.0232 389.086C70.8232 388.186 68.8232 387.286 67.2232 386.386C65.6232 385.486 64.4232 384.586 63.6232 383.986C62.7232 383.186 62.3232 382.786 62.3232 382.786Z" fill="#263238"/>
<path d="M61.2231 383.086C61.2231 382.986 62.1231 382.686 63.7231 382.386C65.3231 382.186 67.6231 381.986 69.9231 383.186C71.0231 383.786 71.9231 384.586 72.5231 385.486C73.1231 386.386 73.6231 387.186 73.9231 387.986C74.5231 389.486 74.8231 390.386 74.7231 390.386C74.6231 390.386 74.2231 389.486 73.5231 388.086C72.8231 386.686 71.7231 384.686 69.6231 383.686C67.5231 382.586 65.2231 382.686 63.7231 382.786C62.2231 382.986 61.3231 383.186 61.2231 383.086Z" fill="#263238"/>
<path d="M139.323 218.186L141.223 257.086C141.523 263.686 136.323 269.286 129.623 269.286C123.423 269.286 118.323 264.386 118.023 258.286C117.923 255.386 117.723 252.886 117.723 252.586C117.723 252.586 107.823 252.186 106.623 242.386C106.023 237.686 105.623 227.886 105.423 218.986C105.123 209.486 112.223 201.286 121.723 200.286L122.623 200.186C132.923 199.586 139.023 207.986 139.323 218.186Z" fill="#FFB573"/>
<path d="M117.723 252.386C117.723 252.386 123.923 252.186 130.023 247.386C130.023 247.386 127.823 254.786 117.923 254.986L117.723 252.386Z" fill="#E69A57"/>
<path d="M108.524 224.986C108.624 225.686 109.224 226.286 110.024 226.286C110.824 226.286 111.424 225.586 111.324 224.886C111.224 224.186 110.624 223.586 109.824 223.586C109.024 223.686 108.424 224.286 108.524 224.986Z" fill="#263238"/>
<path d="M108.023 223.486C108.223 223.686 109.223 222.786 110.723 222.586C112.223 222.386 113.423 223.086 113.523 222.886C113.623 222.786 113.423 222.486 112.823 222.186C112.323 221.886 111.423 221.686 110.523 221.786C109.623 221.886 108.823 222.286 108.423 222.686C108.023 223.086 107.923 223.386 108.023 223.486Z" fill="#263238"/>
<path d="M123.223 223.786C123.323 224.486 123.923 225.086 124.723 225.086C125.523 225.086 126.123 224.386 126.023 223.686C125.923 222.986 125.323 222.386 124.523 222.386C123.723 222.386 123.223 222.986 123.223 223.786Z" fill="#263238"/>
<path d="M122.823 222.186C123.023 222.386 124.023 221.486 125.523 221.286C127.023 221.086 128.223 221.786 128.323 221.586C128.423 221.486 128.223 221.186 127.623 220.886C127.123 220.586 126.223 220.386 125.323 220.486C124.423 220.586 123.623 220.986 123.223 221.386C122.823 221.686 122.723 222.086 122.823 222.186Z" fill="#263238"/>
<path d="M118.623 233.886C118.623 233.786 117.623 233.786 116.123 233.686C115.723 233.686 115.323 233.686 115.223 233.386C115.123 233.086 115.223 232.686 115.323 232.186C115.623 231.186 115.823 230.186 116.123 229.186C117.223 224.886 118.023 221.286 117.823 221.286C117.623 221.286 116.623 224.686 115.523 229.086C115.223 230.186 115.023 231.186 114.723 232.186C114.623 232.686 114.423 233.186 114.723 233.686C114.823 233.986 115.123 234.186 115.423 234.186C115.723 234.186 115.923 234.186 116.123 234.186C117.623 234.086 118.623 233.986 118.623 233.886Z" fill="#263238"/>
<path d="M123.123 234.486C122.923 234.486 123.023 236.086 121.823 237.486C120.523 238.786 118.823 238.786 118.823 239.086C118.823 239.186 119.223 239.386 120.023 239.286C120.723 239.186 121.723 238.886 122.523 238.086C123.323 237.286 123.523 236.286 123.523 235.586C123.423 234.786 123.223 234.386 123.123 234.486Z" fill="#263238"/>
<path d="M121.723 216.286C121.923 216.686 123.423 216.286 125.223 216.386C127.023 216.386 128.523 216.686 128.723 216.286C128.823 216.086 128.523 215.786 127.923 215.386C127.323 215.086 126.323 214.786 125.323 214.786C124.223 214.786 123.323 215.086 122.723 215.386C122.023 215.786 121.723 216.086 121.723 216.286Z" fill="#263238"/>
<path d="M108.123 219.086C108.423 219.386 109.423 218.886 110.623 218.786C111.823 218.586 112.923 218.786 113.123 218.386C113.223 218.186 113.023 217.886 112.523 217.586C112.023 217.286 111.223 217.086 110.423 217.286C109.523 217.386 108.823 217.786 108.423 218.186C108.023 218.586 107.923 218.886 108.123 219.086Z" fill="#263238"/>
<path d="M139.323 225.486C139.523 225.386 145.823 222.786 146.323 229.486C146.823 236.186 140.023 235.286 140.023 235.186C139.923 234.986 139.323 225.486 139.323 225.486Z" fill="#FFB573"/>
<path d="M141.823 232.486C141.823 232.486 141.923 232.586 142.123 232.586C142.323 232.686 142.623 232.686 143.023 232.486C143.723 232.186 144.223 230.986 144.123 229.786C144.123 229.186 143.923 228.586 143.623 228.186C143.423 227.686 143.023 227.386 142.723 227.386C142.323 227.286 142.123 227.586 142.023 227.786C141.923 227.986 142.023 228.086 141.923 228.086C141.923 228.086 141.723 227.986 141.823 227.686C141.823 227.586 141.923 227.386 142.023 227.286C142.223 227.186 142.423 227.086 142.623 227.086C143.123 227.086 143.623 227.486 143.923 227.986C144.223 228.486 144.423 229.186 144.523 229.786C144.623 231.186 144.023 232.486 143.023 232.786C142.523 232.986 142.123 232.786 141.923 232.686C141.823 232.586 141.823 232.486 141.823 232.486Z" fill="#E59A57"/>
<path d="M143.023 224.886C142.023 224.786 140.323 225.886 140.023 226.886C139.723 227.886 139.723 228.986 139.423 229.986C139.123 230.986 138.223 231.986 137.123 231.786C136.423 231.686 135.823 231.086 135.523 230.386C135.223 229.686 135.223 228.986 135.223 228.186C135.223 224.986 135.623 221.886 135.323 218.686C135.123 215.486 134.323 212.286 132.323 209.786C130.423 207.286 127.123 205.686 124.023 206.286C121.923 206.686 120.223 207.986 118.123 208.486C115.723 209.086 113.023 208.486 111.123 206.986C110.923 206.786 109.723 206.186 109.723 206.186C109.723 205.986 109.723 204.586 110.223 204.086C113.923 199.886 121.123 197.986 126.723 198.786C132.323 199.586 137.723 202.786 140.623 207.586C143.623 212.486 143.723 219.586 143.023 224.886Z" fill="#153D59"/>
<path d="M33.7231 379.186C33.7231 379.186 105.923 331.786 108.923 330.786C111.923 329.786 119.023 325.086 126.123 327.086C133.223 329.086 139.723 335.486 142.923 344.786C146.123 354.186 146.323 375.086 146.323 375.086C146.323 375.086 140.623 391.586 129.523 395.086C128.623 395.386 127.623 395.586 126.623 395.786C113.123 398.486 99.3231 392.286 91.7231 380.686L90.1231 378.186C90.1231 378.186 42.9231 395.586 42.1231 395.286L33.7231 379.186Z" fill="#72B9ED"/>
<path d="M9.12334 323.886C9.12334 323.886 0.32334 327.086 0.22334 336.986C0.12334 355.986 38.5233 376.886 38.5233 376.886L89.6233 342.986V339.386C89.6233 339.486 23.9233 315.786 9.12334 323.886Z" fill="#72B9ED"/>
<path d="M123.023 366.186C123.023 366.186 122.923 366.286 122.623 366.386C122.323 366.486 121.923 366.686 121.423 366.886C120.323 367.286 118.823 367.886 116.823 368.686C112.823 370.186 107.023 372.386 99.8232 375.086C92.6232 377.786 83.9232 380.986 74.2232 384.486C64.5232 387.986 53.7232 391.886 42.2232 395.786L42.0232 395.886L41.9232 395.686C40.1232 392.286 38.2232 388.586 36.3232 384.886C35.3232 382.986 34.3232 381.086 33.4232 379.386L33.3232 379.186L33.5232 379.086C55.2232 365.286 74.6232 352.986 88.6232 344.086C95.6232 339.686 101.223 336.086 105.123 333.686C107.023 332.486 108.523 331.486 109.623 330.886C110.123 330.586 110.523 330.386 110.823 330.186C111.123 329.986 111.223 329.986 111.223 329.986C111.223 329.986 111.123 330.086 110.823 330.286C110.523 330.486 110.123 330.686 109.723 331.086C108.723 331.786 107.223 332.686 105.323 333.986C101.423 336.486 95.8232 340.086 88.8232 344.586C74.8232 353.486 55.5232 365.886 33.8232 379.686L33.9232 379.386C34.8232 381.086 35.8232 382.986 36.8232 384.886C38.7232 388.586 40.6232 392.186 42.4232 395.686L42.1232 395.586C53.6232 391.686 64.4232 387.886 74.1232 384.386C83.8232 380.886 92.5232 377.686 99.7232 375.086C106.923 372.386 112.723 370.286 116.823 368.786C118.823 368.086 120.323 367.486 121.423 367.086C121.923 366.886 122.323 366.786 122.623 366.686C122.923 366.186 123.023 366.186 123.023 366.186Z" fill="#455A64"/>
<path d="M63.8233 360.086C63.8233 360.086 63.3233 359.786 62.5233 359.186C61.7233 358.586 60.5233 357.686 59.0233 356.586C56.1233 354.286 52.1233 351.086 47.8233 347.486C43.5233 343.786 39.7233 340.386 37.1233 337.786C35.8233 336.486 34.7233 335.486 34.0233 334.686C33.3233 333.986 32.9233 333.486 32.9233 333.486C32.9233 333.486 33.4233 333.786 34.1233 334.486C34.9233 335.286 36.0233 336.186 37.3233 337.386C40.0233 339.886 43.8233 343.286 48.1233 346.986C52.4233 350.686 56.3233 353.886 59.2233 356.286C60.6233 357.386 61.7233 358.386 62.6233 359.086C63.3233 359.686 63.8233 360.086 63.8233 360.086Z" fill="#455A64"/>
<path d="M23.5234 330.986C23.5234 330.886 25.8234 330.586 28.4234 331.386C31.1234 332.186 32.9234 333.586 32.8234 333.686C32.7234 333.786 30.9234 332.586 28.3234 331.886C25.7234 331.186 23.5234 331.186 23.5234 330.986Z" fill="#455A64"/>
<path d="M27.9232 327.986C27.9232 327.886 29.6232 328.586 30.9232 330.286C32.3232 331.986 32.6232 333.686 32.5232 333.686C32.4232 333.786 31.8232 332.186 30.5232 330.586C29.3232 329.086 27.8232 328.186 27.9232 327.986Z" fill="#455A64"/>
<path d="M6.32348 388.086C6.32348 387.986 6.92348 387.886 7.62348 388.486C8.32348 389.086 8.92348 390.186 9.12348 391.486C9.32348 392.786 9.02348 393.986 8.62348 394.786C8.22348 395.586 7.82348 395.886 7.82348 395.886C7.72348 395.886 8.02348 395.386 8.32348 394.686C8.62348 393.886 8.82348 392.786 8.62348 391.586C8.42348 390.386 7.92348 389.386 7.42348 388.786C6.82348 388.186 6.22348 388.186 6.32348 388.086Z" fill="#263238"/>
<path d="M404.056 266.21C399.976 262.23 394.716 257.389 388.489 259.11C382.584 260.724 380.33 267.178 379.363 272.45C377.968 279.335 377.001 286.327 375.82 293.212C374.747 300.205 373.673 307.198 372.707 314.298C372.17 318.278 371.526 322.259 370.989 326.132C370.667 328.068 370.452 330.112 370.13 332.048C369.808 333.985 369.486 335.921 369.379 337.858C369.379 338.503 370.345 338.611 370.453 337.965C371.204 334.63 371.526 331.188 371.956 327.853C372.492 324.518 372.922 321.075 373.459 317.74C374.425 311.07 375.498 304.293 376.465 297.623C377.431 290.953 378.504 284.283 379.578 277.506C380.437 271.804 380.866 264.812 385.912 261.046C388.704 259.002 392.139 259.002 395.253 260.186C398.581 261.477 401.157 263.843 403.734 266.21C404.056 266.425 404.163 266.318 404.056 266.21Z" fill="#72B9ED"/>
<path d="M398.474 262.122C398.474 262.122 390.099 259.11 386.02 265.242C381.94 271.374 386.771 286.865 424.777 295.579C424.777 295.579 423.81 279.012 415.651 261.154C407.492 243.403 392.998 250.181 398.474 262.122Z" fill="#153D59"/>
<path d="M422.629 293.105C422.092 292.029 421.341 291.061 420.697 289.985C420.053 289.017 419.408 288.048 418.764 287.08C418.227 286.327 417.798 285.574 417.261 284.929C417.261 284.714 417.261 284.606 417.369 284.391C417.369 284.068 417.476 283.745 417.476 283.423C417.583 282.67 417.691 282.024 417.798 281.271C417.905 280.518 418.013 279.872 418.12 279.119C418.227 278.366 418.335 277.506 418.657 276.86C418.657 276.753 418.55 276.645 418.442 276.86C418.442 277.291 418.227 277.721 418.12 278.151C418.013 278.474 417.905 278.797 417.905 279.119C417.691 279.872 417.583 280.518 417.369 281.271C417.261 281.916 417.047 282.562 416.939 283.315C416.832 283.638 416.832 283.96 416.832 284.283C416.188 283.315 415.436 282.347 414.792 281.379C412.752 278.689 410.605 276.107 408.458 273.633C408.458 273.633 408.458 273.633 408.458 273.525C408.672 269.545 408.565 265.565 409.424 261.692C409.424 261.584 409.317 261.477 409.209 261.584C408.35 265.242 407.599 269.115 407.814 272.987C407.062 272.127 406.203 271.266 405.452 270.298C403.627 268.254 401.694 266.318 399.762 264.381C399.654 264.274 399.547 264.381 399.654 264.489C402.875 267.931 405.881 271.481 408.887 275.139C406.633 275.031 404.271 275.247 401.909 275.354C399.332 275.569 396.756 275.892 394.179 276.215C394.072 276.215 394.072 276.43 394.179 276.43C396.756 276 399.332 275.892 401.801 275.785C404.271 275.677 406.74 275.785 409.209 275.785C410.82 277.721 412.43 279.765 413.933 281.809C413.826 281.809 413.718 281.809 413.611 281.809C413.074 281.809 412.43 281.809 411.893 281.809C410.712 281.809 409.531 281.917 408.458 282.024C406.096 282.239 403.734 282.562 401.479 283.1C401.372 283.1 401.372 283.315 401.479 283.315C403.841 283.1 406.096 282.885 408.458 282.777C409.531 282.777 410.712 282.777 411.786 282.777C412.323 282.777 412.967 282.777 413.504 282.777C413.826 282.777 414.148 282.777 414.47 282.67C415.543 283.96 416.51 285.359 417.476 286.65C418.335 287.726 419.086 288.802 419.838 289.877C420.589 290.953 421.341 292.136 422.2 293.212C422.522 293.212 422.629 293.105 422.629 293.105Z" fill="#72B9ED"/>
<path d="M402.124 270.836C400.835 270.621 399.44 270.621 398.044 270.621C396.648 270.621 395.36 270.621 393.964 270.728C393.857 270.728 393.857 270.943 393.964 270.943C395.36 270.836 396.756 270.836 398.044 270.836C399.44 270.836 400.835 270.943 402.124 270.836Z" fill="#72B9ED"/>
<path d="M414.041 273.848C414.148 272.557 414.363 271.266 414.685 269.975C414.685 269.868 414.578 269.868 414.47 269.975C414.255 271.266 414.041 272.557 413.826 273.848C413.719 274.494 413.611 275.139 413.611 275.785C413.504 276.322 413.397 276.968 413.504 277.613C413.504 277.721 413.719 277.721 413.719 277.613C413.826 277.076 413.826 276.43 413.933 275.785C413.933 275.139 413.933 274.494 414.041 273.848Z" fill="#72B9ED"/>
<path d="M411.571 259.433C411.249 260.724 410.927 262.014 410.712 263.305C410.605 263.951 410.498 264.596 410.39 265.242C410.283 265.887 410.176 266.533 410.283 267.178C410.283 267.178 410.39 267.286 410.39 267.178C410.605 266.64 410.605 265.995 410.712 265.349C410.82 264.704 410.927 264.058 411.035 263.413C411.249 262.122 411.464 260.724 411.786 259.433C411.679 259.433 411.571 259.325 411.571 259.433Z" fill="#72B9ED"/>
<path d="M362.079 336.567C361.864 334.2 361.649 331.833 361.435 329.359C360.898 324.625 360.361 319.892 359.717 315.159C359.073 310.425 358.429 305.692 357.677 301.066C357.355 298.914 356.926 296.763 356.281 294.611C355.637 292.89 354.564 291.276 352.739 290.631C348.229 289.124 345.223 293.75 343.506 296.978C343.398 297.085 343.613 297.193 343.613 297.085C344.687 295.579 347.693 291.168 351.021 291.384C353.275 291.491 355.1 293.105 356.174 298.807C358.858 313.007 361.327 341.838 361.649 343.667C361.757 344.635 362.508 344.635 362.508 343.559C362.616 341.3 362.294 338.933 362.079 336.567Z" fill="#72B9ED"/>
<path d="M344.686 295.364C344.686 295.364 348.551 281.594 339.963 288.479C325.576 299.99 325.04 324.948 325.04 324.948C325.04 324.948 350.591 310.102 353.705 300.313C358.536 285.682 344.686 295.364 344.686 295.364Z" fill="#153D59"/>
<path d="M349.518 302.141C347.478 302.572 345.438 302.787 343.505 303.11C342.539 303.217 341.573 303.432 340.607 303.54C339.963 303.648 339.318 303.648 338.674 303.755C340.607 301.173 342.539 298.484 344.364 295.794C344.472 295.687 344.257 295.579 344.15 295.687C342.647 297.193 341.251 298.914 339.855 300.635C339.533 299.56 339.104 298.484 338.674 297.408C338.245 296.225 337.815 294.934 337.493 293.643C337.493 293.535 337.279 293.535 337.279 293.643C337.601 294.934 337.923 296.225 338.245 297.516C338.567 298.699 338.889 299.99 339.426 301.173C338.46 302.357 337.601 303.648 336.742 304.938C336.312 303.648 335.776 302.464 335.346 301.173C335.346 301.066 335.131 301.066 335.131 301.173C335.561 302.572 335.883 304.078 336.312 305.476C335.776 306.337 335.131 307.198 334.595 308.058C333.521 309.672 332.555 311.286 331.589 312.899C331.481 313.007 331.374 313.114 331.374 313.33C329.763 316.127 328.26 318.924 326.757 321.828C326.757 321.936 326.865 322.044 326.865 321.936C328.368 319.139 330.085 316.342 331.803 313.652C332.018 313.545 332.447 313.545 332.662 313.437C332.984 313.33 333.199 313.33 333.521 313.222C334.165 313.114 334.809 312.899 335.453 312.792C336.742 312.469 338.03 312.146 339.318 311.931C339.426 311.931 339.426 311.716 339.318 311.716C337.815 312.039 336.205 312.146 334.702 312.361C333.95 312.469 333.199 312.577 332.447 312.684H332.34C333.306 311.286 334.165 309.887 335.131 308.489C336.098 307.09 337.064 305.799 337.923 304.508C338.782 304.401 339.64 304.185 340.607 303.97C341.573 303.755 342.539 303.54 343.613 303.432C345.545 303.002 347.585 302.572 349.518 302.249C349.625 302.249 349.625 302.141 349.518 302.141Z" fill="#72B9ED"/>
<path d="M334.165 303.432C334.058 303.11 333.95 302.679 333.843 302.357C333.628 301.604 333.413 300.85 333.306 299.99C333.306 299.882 333.091 299.882 333.091 299.99C333.306 300.743 333.413 301.496 333.628 302.357C333.843 303.11 333.95 303.97 334.272 304.616C334.38 304.831 334.594 304.723 334.594 304.508C334.38 304.293 334.272 303.863 334.165 303.432Z" fill="#72B9ED"/>
<path d="M352.094 298.914C350.914 299.129 349.733 299.129 348.552 299.237C347.371 299.344 346.19 299.452 345.009 299.667C344.901 299.667 344.901 299.775 345.009 299.775C346.19 299.667 347.371 299.56 348.552 299.452C349.733 299.344 350.914 299.129 352.094 299.022C352.202 299.129 352.202 298.914 352.094 298.914Z" fill="#72B9ED"/>
<path d="M380.866 319.139C380.437 308.919 379.793 298.807 378.719 288.694C378.182 283.638 377.645 278.582 376.894 273.633C376.25 268.684 375.391 263.843 373.995 259.002C372.922 255.345 371.526 251.687 369.164 248.675C366.802 245.77 363.259 243.941 359.394 244.372C354.992 244.91 351.342 247.707 348.336 250.719C344.901 254.161 341.68 257.819 338.459 261.477C337.6 262.445 336.849 263.305 335.99 264.274C335.882 264.381 335.99 264.489 336.097 264.381C339.211 260.724 342.539 257.281 345.867 253.839C348.98 250.719 352.308 247.384 356.603 246.093C358.643 245.447 360.79 245.34 362.83 245.985C364.44 246.523 365.943 247.491 367.124 248.675C369.593 251.257 370.989 254.699 371.955 258.034C374.639 267.393 375.713 277.183 376.679 286.865C377.753 296.655 378.397 306.552 378.934 316.342C379.47 326.239 379.793 336.136 380.759 346.034C380.866 347.217 381.081 348.508 381.188 349.691C381.296 350.552 382.584 350.552 382.477 349.691C381.832 339.579 381.403 329.359 380.866 319.139Z" fill="#72B9ED"/>
<path d="M347.8 251.902C347.8 251.902 353.597 241.144 346.726 237.702C339.855 234.259 316.987 259.863 310.224 297.408C310.224 297.408 347.263 280.948 359.824 264.596C372.385 248.244 358.106 244.587 347.8 251.902Z" fill="#153D59"/>
<path d="M353.168 260.616C348.981 260.616 344.901 260.293 340.714 260.293C341.465 259.433 342.217 258.464 343.076 257.604C344.149 256.42 345.438 255.129 346.297 253.839C346.404 253.731 346.189 253.623 346.189 253.731C345.008 254.592 344.042 255.775 343.076 256.851C342.002 257.927 341.036 259.11 339.962 260.186C338.352 261.907 336.849 263.628 335.238 265.457C335.238 265.242 335.238 265.134 335.238 264.919C335.238 264.166 335.238 263.413 335.238 262.768C335.238 261.369 335.238 259.971 335.238 258.572C335.238 255.667 335.238 252.87 335.453 249.966C335.453 249.858 335.238 249.858 335.238 249.966C335.024 252.87 334.702 255.667 334.594 258.572C334.487 259.971 334.487 261.369 334.487 262.768C334.487 263.521 334.487 264.274 334.487 264.919C334.487 265.349 334.487 265.78 334.487 266.103C334.272 266.425 333.95 266.64 333.735 266.963C330.407 270.728 327.294 274.709 324.18 278.689C324.18 278.474 324.18 278.259 324.073 278.044C324.073 277.613 323.966 277.183 323.966 276.753C323.858 275.785 323.751 274.816 323.536 273.848C323.429 272.988 323.214 272.019 323.107 271.159C322.892 270.191 322.677 269.115 322.57 268.147C322.57 268.039 322.355 268.039 322.355 268.147C322.57 269.115 322.57 270.191 322.677 271.159C322.785 272.127 322.892 272.988 322.892 273.956C322.999 274.924 323.107 275.785 323.107 276.753C323.107 277.183 323.214 277.613 323.214 278.044C323.214 278.259 323.214 278.474 323.322 278.689C323.322 279.012 323.429 279.012 323.536 279.227C322.999 279.873 322.463 280.626 321.926 281.271C319.779 284.068 317.739 286.865 315.699 289.662C315.592 289.77 315.806 289.877 315.806 289.77C317.739 287.188 319.779 284.714 321.818 282.239C323.322 282.347 324.932 282.239 326.435 282.132C328.045 282.132 329.656 282.132 331.266 282.132C331.374 282.132 331.374 281.917 331.266 281.917C329.656 281.917 328.045 281.917 326.435 282.024C324.932 282.024 323.429 281.917 322.033 282.024C323.858 279.873 325.683 277.721 327.401 275.569C328.045 274.816 328.69 273.956 329.441 273.203C330.085 273.31 330.729 273.31 331.266 273.31C332.018 273.31 332.769 273.31 333.413 273.31C334.809 273.31 336.097 273.31 337.493 273.203C340.284 273.203 343.183 273.095 345.974 273.095C346.082 273.095 346.082 272.88 345.974 272.88C343.183 272.88 340.284 272.772 337.493 272.665C336.097 272.665 334.809 272.557 333.413 272.557C332.662 272.557 331.91 272.557 331.266 272.557C330.837 272.557 330.407 272.557 329.978 272.557C331.481 270.728 333.091 268.9 334.594 267.071L334.702 266.963C336.205 265.134 337.708 263.413 339.318 261.584C339.533 261.369 339.748 261.154 339.962 260.831C344.257 260.939 348.551 260.724 352.845 260.724C353.275 260.831 353.275 260.616 353.168 260.616Z" fill="#72B9ED"/>
<path d="M351.02 267.931C350.698 267.931 350.376 267.931 350.054 267.931C349.947 267.931 349.947 268.039 350.054 268.039C350.376 268.039 350.698 268.039 351.02 268.039C351.235 268.147 351.128 267.931 351.02 267.931Z" fill="#72B9ED"/>
<path d="M348.873 268.039C347.585 268.039 346.189 268.039 344.901 267.931C344.257 267.931 343.613 267.931 342.861 267.824C342.217 267.824 341.573 267.716 341.036 267.824C340.929 267.824 341.036 267.931 341.036 267.931C341.573 268.146 342.324 268.039 342.861 268.039C343.505 268.039 344.149 268.039 344.901 268.039C346.189 268.039 347.585 268.039 348.873 268.039C348.981 268.146 348.981 268.039 348.873 268.039Z" fill="#72B9ED"/>
<path d="M337.171 280.518C334.487 280.088 331.696 279.765 329.012 279.765V279.873C331.696 280.088 334.487 280.303 337.171 280.733C337.278 280.733 337.278 280.518 337.171 280.518Z" fill="#72B9ED"/>
<path d="M326.113 268.577C326.113 268.362 326.005 268.146 326.005 267.824C325.898 267.286 325.898 266.748 325.791 266.21C325.683 265.242 325.469 264.166 325.254 263.198C325.254 263.09 325.039 263.09 325.039 263.198C325.146 264.274 325.254 265.242 325.361 266.318C325.361 266.856 325.469 267.393 325.469 267.824C325.469 268.254 325.469 268.9 325.683 269.33C325.791 269.437 326.005 269.437 326.005 269.222C326.113 269.115 326.113 268.792 326.113 268.577Z" fill="#72B9ED"/>
<path d="M380.544 238.024C379.256 235.55 377.538 232.323 374.21 232.538C371.526 232.753 370.238 235.55 369.701 237.809C367.876 244.909 367.768 252.44 367.446 259.755C366.695 275.247 366.05 290.738 365.943 306.122C365.943 310.425 365.943 314.728 365.943 319.031C365.943 323.442 365.943 327.853 366.265 332.156C366.265 332.586 366.909 332.586 366.909 332.156C366.909 328.391 366.802 324.625 366.802 320.968C366.802 317.31 366.802 313.652 366.909 309.995C367.017 302.572 367.231 295.149 367.554 287.833C367.876 280.518 368.198 273.095 368.412 265.78C368.52 262.122 368.734 258.464 368.842 254.807C368.949 251.257 369.164 247.707 369.593 244.156C369.808 242.22 370.13 240.176 370.56 238.24C370.882 236.841 371.311 235.335 372.277 234.259C373.566 232.861 375.605 232.968 377.109 233.936C378.719 234.905 379.685 236.626 380.544 238.24C380.437 238.24 380.544 238.132 380.544 238.024Z" fill="#72B9ED"/>
<path d="M379.685 236.841C379.685 236.841 377.001 227.267 383.013 232C392.998 239.961 393.32 257.389 393.32 257.389C393.32 257.389 375.498 247.061 373.351 240.176C370.023 230.171 379.685 236.841 379.685 236.841Z" fill="#153D59"/>
<path d="M389.562 250.396C389.347 250.181 389.24 249.858 389.025 249.643C389.025 249.428 389.025 249.105 389.025 248.782C389.025 248.352 389.025 247.922 389.025 247.491C389.025 246.631 389.025 245.878 389.133 245.017C389.133 244.909 388.918 244.909 388.918 245.017C388.918 245.77 388.811 246.631 388.811 247.384C388.811 247.814 388.811 248.137 388.811 248.567C388.811 248.675 388.811 248.89 388.811 249.105C388.059 248.029 387.415 246.953 386.663 245.878C386.449 245.555 386.234 245.232 386.019 245.017C385.805 243.941 385.912 242.865 386.019 241.897C386.019 240.821 386.019 239.638 386.127 238.562C386.127 238.455 385.912 238.455 385.912 238.562C385.912 239.746 385.805 240.929 385.805 242.005C385.805 242.865 385.697 243.619 385.697 244.479C383.979 242.112 382.154 239.853 380.329 237.594C380.222 237.487 380.115 237.594 380.222 237.702C381.403 239.1 382.476 240.606 383.55 242.112C381.51 241.575 379.363 241.359 377.216 241.037C377.108 241.037 377.108 241.144 377.216 241.252C379.47 241.575 381.725 242.112 383.872 242.65C384.731 243.834 385.59 245.017 386.449 246.308C386.771 246.846 387.093 247.276 387.415 247.814H387.308C387.093 247.814 386.878 247.707 386.663 247.707C386.127 247.599 385.697 247.599 385.16 247.599C384.087 247.491 383.121 247.491 382.047 247.384C381.94 247.384 381.94 247.599 382.047 247.599C383.013 247.599 384.087 247.707 385.053 247.814C385.59 247.922 386.127 247.922 386.663 248.029C386.878 248.029 387.093 248.137 387.308 248.137C387.415 248.137 387.415 248.137 387.522 248.137C388.059 248.997 388.703 249.858 389.24 250.611C390.206 252.117 391.173 253.731 392.246 255.129C392.354 255.237 392.461 255.129 392.354 255.022C391.495 253.408 390.528 251.902 389.562 250.396Z" fill="#72B9ED"/>
<path d="M385.16 239.531C385.16 239.208 385.16 238.777 385.16 238.455C385.16 237.702 385.16 236.841 385.268 236.088C385.268 235.98 385.053 235.98 385.053 236.088C385.053 236.841 384.946 237.594 384.946 238.455C384.946 238.885 384.946 239.208 384.946 239.638C384.946 239.853 384.946 239.961 384.946 240.176C384.946 240.391 384.946 240.606 384.946 240.714C384.946 240.821 385.053 240.821 385.053 240.714C385.053 240.499 385.053 240.391 385.053 240.176C385.16 239.853 385.16 239.746 385.16 239.531Z" fill="#72B9ED"/>
<path d="M382.906 243.511C382.262 243.403 381.617 243.403 380.866 243.296C380.114 243.188 379.363 243.188 378.719 243.081C378.611 243.081 378.611 243.188 378.719 243.296C380.114 243.403 381.51 243.619 382.906 243.726C383.013 243.619 383.013 243.511 382.906 243.511Z" fill="#72B9ED"/>
<path d="M388.489 243.511C388.489 243.619 388.489 243.834 388.489 243.834V244.156C388.489 244.372 388.489 244.587 388.489 244.802C388.489 245.017 388.489 245.232 388.489 245.447C388.489 245.663 388.489 245.878 388.489 245.985H388.596C388.596 245.878 388.596 245.77 388.596 245.663C388.596 245.555 388.596 245.447 388.596 245.34C388.596 245.125 388.596 244.91 388.596 244.694C388.596 244.479 388.596 244.264 388.596 244.049V243.726C388.596 243.619 388.596 243.403 388.596 243.403C388.811 243.403 388.381 243.403 388.489 243.511Z" fill="#263238"/>
<path d="M380.974 289.447C377.216 286.65 373.888 282.562 368.842 282.347C364.655 282.132 361.756 285.359 360.146 288.802C359.287 290.631 358.643 292.567 358.106 294.503C357.354 297.085 356.603 299.775 355.959 302.464C354.67 307.736 353.489 313.007 352.631 318.278C352.094 321.29 351.664 324.195 351.235 327.207C350.805 330.22 350.376 333.339 350.376 336.352C350.376 336.889 351.235 336.997 351.342 336.459C351.879 333.985 352.094 331.403 352.416 328.929C352.738 326.347 353.167 323.872 353.597 321.291C354.456 316.234 355.422 311.178 356.603 306.229C357.676 301.496 358.75 296.763 360.253 292.137C361.327 288.802 363.044 285.036 366.587 283.853C371.955 282.024 376.894 286.65 380.866 289.555C380.866 289.555 381.081 289.447 380.974 289.447Z" fill="#72B9ED"/>
<path d="M377.108 286.758C377.108 286.758 373.673 276.86 378.611 274.924C386.127 272.019 405.666 294.073 401.801 327.96C401.801 327.96 386.663 319.569 375.498 310.21C364.333 300.851 361.434 288.587 366.372 285.359C371.311 282.239 377.108 286.758 377.108 286.758Z" fill="#153D59"/>
<path d="M399.547 320.645C399.117 319.462 398.366 318.386 397.722 317.202C397.077 316.019 396.433 314.943 395.789 313.76C394.501 311.501 393.212 309.349 391.817 307.09C391.602 306.767 391.387 306.337 391.173 306.014C391.173 305.907 391.173 305.799 391.28 305.584C391.387 305.261 391.387 304.939 391.495 304.616C391.709 303.863 391.817 303.11 391.924 302.357C392.246 300.958 392.461 299.452 392.783 298.053C392.783 297.946 392.676 297.946 392.568 298.053C392.246 299.452 391.817 300.958 391.387 302.357C391.173 303.002 390.958 303.755 390.743 304.401C390.636 304.616 390.636 304.831 390.528 305.154C388.918 302.464 387.308 299.882 385.483 297.3C385.59 296.978 385.59 296.547 385.697 296.225C385.697 295.687 385.805 295.256 385.912 294.718C386.019 293.643 386.127 292.459 386.341 291.384C386.663 289.232 386.986 287.08 387.522 284.929C387.522 284.821 387.415 284.821 387.308 284.929C386.771 287.08 386.234 289.232 385.805 291.384C385.59 292.459 385.375 293.535 385.268 294.611C385.16 295.149 385.16 295.687 385.053 296.225C385.053 296.332 385.053 296.547 384.946 296.763C384.409 296.009 383.872 295.256 383.335 294.503C381.618 292.244 379.792 289.985 377.967 287.833C377.86 287.726 377.753 287.833 377.86 287.941C381.081 291.814 383.657 296.117 386.341 300.42C386.878 301.173 387.308 302.034 387.844 302.787C387.63 302.787 387.522 302.787 387.308 302.679C386.663 302.572 386.019 302.572 385.375 302.464C384.087 302.357 382.799 302.249 381.51 302.141C378.934 301.926 376.464 301.819 373.888 301.496C373.78 301.496 373.78 301.604 373.888 301.711C376.464 302.034 379.041 302.464 381.618 302.787C382.906 303.002 384.087 303.11 385.375 303.325C386.234 303.432 387.308 303.648 388.274 303.648C389.24 305.261 390.314 306.875 391.28 308.489C391.065 308.489 390.85 308.489 390.636 308.489C390.206 308.489 389.777 308.489 389.347 308.489C388.596 308.489 387.737 308.489 386.986 308.489C385.375 308.489 383.657 308.489 382.047 308.489C381.94 308.489 381.94 308.704 382.047 308.704C383.657 308.704 385.375 308.811 386.986 308.919C387.737 308.919 388.596 309.027 389.347 309.027C389.777 309.027 390.099 309.134 390.528 309.134C390.85 309.134 391.28 309.242 391.602 309.134C392.461 310.533 393.32 311.931 394.179 313.33C394.93 314.621 395.789 315.912 396.541 317.095C397.399 318.386 398.151 319.784 399.117 320.968C399.439 320.86 399.654 320.753 399.547 320.645Z" fill="#72B9ED"/>
<path d="M392.354 293.32C392.246 294.396 391.924 295.472 391.709 296.547C391.387 297.623 391.065 298.699 390.743 299.775C390.743 299.882 390.851 299.99 390.958 299.882C391.28 298.806 391.602 297.731 391.817 296.655C392.031 295.579 392.246 294.503 392.461 293.428C392.568 293.212 392.354 293.212 392.354 293.32Z" fill="#72B9ED"/>
<path d="M381.296 299.882C381.081 299.667 380.759 299.667 380.437 299.56C380.007 299.452 379.47 299.452 379.041 299.344C378.182 299.237 377.323 299.129 376.357 299.022C374.532 298.807 372.707 298.591 370.882 298.376C370.774 298.376 370.774 298.484 370.882 298.591C372.599 298.807 374.317 299.022 376.035 299.344C376.894 299.452 377.753 299.56 378.611 299.667C379.041 299.667 379.47 299.775 379.792 299.775C380.222 299.775 380.759 299.775 381.188 299.99C381.295 300.098 381.296 299.99 381.296 299.882Z" fill="#72B9ED"/>
<path d="M392.354 314.836C391.495 314.728 390.636 314.728 389.777 314.728C389.347 314.728 388.918 314.728 388.489 314.728C388.274 314.728 388.059 314.728 387.844 314.728C387.63 314.728 387.308 314.728 386.986 314.728C386.878 314.728 386.878 314.943 386.986 314.943C387.2 314.943 387.522 314.943 387.737 314.943C387.952 314.943 388.166 314.943 388.381 314.943C388.811 314.943 389.24 314.943 389.67 315.051C390.528 315.051 391.387 315.158 392.246 315.158C392.461 314.943 392.461 314.836 392.354 314.836Z" fill="#72B9ED"/>
<path d="M397.614 311.071C397.722 310.533 397.829 310.102 397.936 309.564C398.151 308.596 398.258 307.628 398.473 306.66C398.473 306.552 398.366 306.552 398.258 306.66C398.044 307.628 397.829 308.596 397.614 309.457C397.507 309.887 397.399 310.425 397.292 310.855C397.292 311.07 397.185 311.286 397.185 311.501C397.185 311.716 397.077 311.931 397.077 312.146C397.077 312.254 397.185 312.254 397.292 312.254C397.614 311.931 397.614 311.393 397.614 311.071Z" fill="#72B9ED"/>
<path d="M346.511 332.586L347.585 344.528L351.128 384.977H382.799L387.201 344.528L388.596 332.586H346.511Z" fill="#455A64"/>
<path d="M346.511 332.586L347.585 344.528H387.201L388.596 332.586H346.511Z" fill="#263238"/>
<path d="M343.329 339.02H391.641V329.338H343.329V339.02Z" fill="#455A64"/>
</svg>
