<svg width="379" height="400" viewBox="0 0 379 400" fill="none" xmlns="http://www.w3.org/2000/svg">
<path opacity="0.3" d="M378.873 119.916V213.041C378.873 214.291 378.326 215.385 377.544 216.166C376.763 216.869 375.746 217.338 374.652 217.338H231.432C230.338 217.338 229.322 216.947 228.54 216.166C227.68 215.385 227.211 214.291 227.211 213.041V119.916C227.211 118.666 227.758 117.572 228.54 116.869C229.322 116.166 230.338 115.697 231.432 115.697H374.652C375.746 115.697 376.763 116.088 377.544 116.869C378.326 117.572 378.873 118.666 378.873 119.916Z" fill="white"/>
<path d="M378.873 119.838V127.885L311.798 183.9C309.375 185.932 306.247 187.104 303.042 187.104C299.837 187.104 296.788 186.01 294.286 183.9L227.211 127.885V119.838C227.211 118.588 227.758 117.572 228.54 116.791C229.322 116.088 230.338 115.619 231.432 115.619H374.652C375.746 115.619 376.763 116.01 377.544 116.791C378.326 117.572 378.873 118.666 378.873 119.838Z" fill="#369BE5"/>
<path opacity="0.3" d="M377.779 116.791L306.091 176.713C304.527 178.041 302.26 178.041 300.697 176.713L229.009 116.791C229.791 116.088 230.807 115.697 231.901 115.697H374.964C376.059 115.619 377.075 116.088 377.779 116.791Z" fill="white"/>
<path opacity="0.8" d="M202.977 74.9941V160.228C202.977 161.322 202.507 162.338 201.726 163.041C201.022 163.666 200.084 164.057 199.068 164.057H67.7311C66.7148 164.057 65.7767 163.666 65.0731 163.041C64.2913 162.338 63.8223 161.322 63.8223 160.228V74.9941C63.8223 73.9003 64.2913 72.8847 65.0731 72.1816C65.7767 71.5566 66.7148 71.166 67.7311 71.166H199.146C200.162 71.166 201.1 71.5566 201.804 72.1816C202.508 72.8847 202.977 73.9003 202.977 74.9941Z" fill="white"/>
<path d="M202.977 74.9941V83.3535L141.921 134.291C139.575 136.322 136.526 137.338 133.399 137.338C130.272 137.338 127.302 136.244 124.878 134.291L63.8223 83.3535V74.9941C63.8223 73.9003 64.2913 72.8847 65.0731 72.1816C65.7767 71.5566 66.7148 71.166 67.7311 71.166H199.146C200.162 71.166 201.1 71.5566 201.804 72.1816C202.508 72.8847 202.977 73.9003 202.977 74.9941Z" fill="#369BE5"/>
<path opacity="0.8" d="M201.569 72.1816L135.823 127.103C134.416 128.275 132.305 128.275 130.82 127.103L65.1514 72.1816C65.855 71.5566 66.7931 71.166 67.8094 71.166H198.911C199.928 71.166 200.866 71.5566 201.569 72.1816Z" fill="white"/>
<path d="M276.463 211.088V333.588C276.463 335.15 275.759 336.635 274.665 337.65C273.648 338.588 272.319 339.135 270.912 339.135H82.6628C81.1775 339.135 79.8485 338.588 78.9104 337.65C77.8159 336.635 77.1123 335.15 77.1123 333.588V211.088C77.1123 209.525 77.8159 208.041 78.9104 207.025C79.9267 206.088 81.2557 205.541 82.6628 205.541H270.912C272.397 205.541 273.726 206.088 274.665 207.025C275.759 208.041 276.463 209.447 276.463 211.088Z" fill="#153D59"/>
<path d="M276.463 211.088V217.729L186.403 293.041C183.745 295.307 180.305 296.557 176.787 296.557C173.27 296.557 169.908 295.307 167.172 293.041L77.1123 217.729V211.088C77.1123 209.525 77.8159 208.041 78.9104 207.025C79.9267 206.088 81.2557 205.541 82.6628 205.541H270.912C272.397 205.541 273.726 206.088 274.665 207.025C275.759 208.041 276.463 209.447 276.463 211.088Z" fill="#369BE5"/>
<path d="M274.586 207.025L180.227 285.854C178.194 287.572 175.146 287.572 173.113 285.854L78.832 207.025C79.8483 206.088 81.1773 205.541 82.5845 205.541H270.834C272.241 205.541 273.57 206.088 274.586 207.025Z" fill="#153D59"/>
<path d="M253.4 186.244C254.885 162.728 235.498 143.432 212.045 144.916C193.048 146.166 177.491 161.322 175.849 180.307C175.067 189.525 177.491 198.119 182.181 205.15L176.709 217.572C175.614 220.15 178.194 222.728 180.774 221.635L193.204 216.166C200.24 220.853 208.839 223.275 218.064 222.494C236.983 220.853 252.149 205.307 253.4 186.244Z" fill="white"/>
<path d="M199.693 187.65C202.111 187.65 204.071 185.692 204.071 183.275C204.071 180.859 202.111 178.9 199.693 178.9C197.275 178.9 195.315 180.859 195.315 183.275C195.315 185.692 197.275 187.65 199.693 187.65Z" fill="#369BE5"/>
<path d="M215.25 187.65C217.668 187.65 219.628 185.692 219.628 183.275C219.628 180.859 217.668 178.9 215.25 178.9C212.832 178.9 210.872 180.859 210.872 183.275C210.872 185.692 212.832 187.65 215.25 187.65Z" fill="#369BE5"/>
<path d="M230.808 187.65C233.225 187.65 235.185 185.692 235.185 183.275C235.185 180.859 233.225 178.9 230.808 178.9C228.39 178.9 226.43 180.859 226.43 183.275C226.43 185.692 228.39 187.65 230.808 187.65Z" fill="#369BE5"/>
<path d="M93.9203 136.01H84.07C82.1938 136.01 80.4739 134.76 80.083 132.885C79.614 130.385 81.4902 128.197 83.9137 128.197H93.7639C95.6401 128.197 97.36 129.447 97.7509 131.322C98.22 133.744 96.3437 136.01 93.9203 136.01Z" fill="#369BE5"/>
<path d="M106.194 149.291H84.07C82.1938 149.291 80.4739 148.041 80.083 146.166C79.614 143.666 81.4902 141.479 83.9137 141.479H106.038C107.914 141.479 109.634 142.729 110.025 144.604C110.494 147.025 108.617 149.291 106.194 149.291Z" fill="#369BE5"/>
<path d="M110.962 305.541H101.112C99.2358 305.541 97.5159 304.291 97.125 302.416C96.6559 299.916 98.5322 297.729 100.956 297.729H110.806C112.682 297.729 114.402 298.979 114.793 300.854C115.34 303.275 113.386 305.541 110.962 305.541Z" fill="#369BE5"/>
<path d="M123.236 318.822H101.112C99.2358 318.822 97.5159 317.572 97.125 315.697C96.6559 313.197 98.5322 311.01 100.956 311.01H123.08C124.956 311.01 126.676 312.26 127.067 314.135C127.614 316.557 125.659 318.822 123.236 318.822Z" fill="#369BE5"/>
<path d="M337.704 281.427C333.326 281.427 329.026 279.005 326.993 274.083C325.977 271.661 325.899 268.849 326.837 266.349C329.182 260.255 335.28 257.286 341.3 259.161C341.769 259.317 342.238 259.474 342.629 259.708C350.055 263.458 351.072 272.755 345.756 278.067C343.567 280.333 340.596 281.427 337.704 281.427ZM337.938 266.427C337 266.427 336.062 266.817 335.358 267.442C333.951 268.849 333.951 271.114 335.358 272.52C336.765 273.927 339.033 273.927 340.44 272.52C341.847 271.114 341.847 268.849 340.44 267.442C339.736 266.817 338.876 266.427 337.938 266.427Z" fill="white"/>
<path d="M352.948 315.489C350.055 315.489 347.085 314.395 344.896 312.13C340.44 307.677 340.44 300.411 344.896 295.958C349.352 291.505 356.622 291.505 361.078 295.958C365.534 300.411 365.534 307.677 361.078 312.052C358.811 314.395 355.84 315.489 352.948 315.489ZM352.948 300.489C352.01 300.489 351.072 300.802 350.368 301.505C348.961 302.911 348.961 305.177 350.368 306.583C351.775 307.989 354.042 307.989 355.45 306.583C356.857 305.177 356.857 302.911 355.45 301.505C354.746 300.88 353.886 300.489 352.948 300.489Z" fill="#153D59"/>
<path d="M53.4244 208.354C49.3592 208.354 45.2941 206.244 43.1051 201.947C42.8706 201.479 42.7142 201.01 42.5579 200.541C40.6816 194.525 43.6523 188.432 49.7501 186.088C52.1736 185.15 54.8316 185.229 57.2551 186.166C62.102 188.041 64.8382 192.338 64.8382 197.025C64.8382 200.072 63.6656 202.963 61.4766 205.072C59.2877 207.26 56.317 208.354 53.4244 208.354ZM53.5026 193.354C52.5645 193.354 51.6264 193.666 50.9228 194.369C50.2192 195.072 49.9065 195.932 49.9065 196.947C49.9065 197.963 50.2974 198.822 50.9228 199.525C52.3299 200.932 54.5971 200.932 56.0042 199.525C56.7078 198.822 57.0205 197.963 57.0205 196.947C57.0205 195.932 56.6297 195.072 56.0042 194.369C55.3007 193.744 54.3625 193.354 53.5026 193.354Z" fill="white"/>
<path d="M255.433 66.4785H253.009V64.0566C253.009 62.1816 251.759 60.4628 249.882 60.0722C247.381 59.6035 245.192 61.4785 245.192 63.9003V66.4785H242.768C240.892 66.4785 239.172 67.7285 238.781 69.6035C238.312 72.1035 240.188 74.291 242.612 74.291H245.192V76.7128C245.192 78.5878 246.443 80.3066 248.319 80.6972C250.82 81.166 253.009 79.291 253.009 76.8691V74.291H255.589C258.013 74.291 259.889 72.1035 259.42 69.6035C259.029 67.7285 257.309 66.4785 255.433 66.4785Z" fill="#153D59"/>
<path d="M309.374 324.291H306.951V321.869C306.951 319.994 305.7 318.275 303.824 317.885C301.322 317.416 299.133 319.291 299.133 321.713V324.291H296.71C294.833 324.291 293.114 325.541 292.723 327.416C292.254 329.916 294.13 332.103 296.553 332.103H299.133V334.525C299.133 336.4 300.384 338.119 302.26 338.51C304.762 338.978 306.951 337.103 306.951 334.682V332.103H309.531C311.954 332.103 313.83 329.916 313.361 327.416C312.97 325.541 311.251 324.291 309.374 324.291Z" fill="#BBDBF8"/>
<path d="M257.934 299.76C257.934 292.572 252.071 286.791 244.957 286.791C237.843 286.791 231.979 292.65 231.979 299.76C231.979 303.275 233.387 306.479 235.732 308.822C233.465 311.166 231.979 314.369 231.979 317.885C231.979 320.072 233.699 321.791 235.888 321.791C238.077 321.791 239.797 320.072 239.797 317.885C239.797 315.072 242.142 312.729 244.957 312.729C247.771 312.729 250.116 315.072 250.116 317.885C250.116 320.072 251.836 321.791 254.025 321.791C256.214 321.791 257.934 320.072 257.934 317.885C257.934 314.369 256.527 311.166 254.182 308.822C256.527 306.557 257.934 303.354 257.934 299.76ZM244.957 294.604C247.771 294.604 250.116 296.947 250.116 299.76C250.116 302.572 247.771 304.916 244.957 304.916C242.142 304.916 239.797 302.572 239.797 299.76C239.797 296.947 242.142 294.604 244.957 294.604Z" fill="#369BE5"/>
<path d="M363.863 179.682C363.863 173.119 358.547 167.807 351.98 167.807C345.414 167.807 340.098 173.119 340.098 179.682C340.098 182.729 341.27 185.541 343.225 187.65C341.27 189.76 340.098 192.572 340.098 195.619C340.098 197.807 341.818 199.525 344.006 199.525C346.195 199.525 347.915 197.807 347.915 195.619C347.915 193.354 349.792 191.557 351.98 191.557C354.169 191.557 356.046 193.432 356.046 195.619C356.046 197.807 357.766 199.525 359.954 199.525C362.143 199.525 363.863 197.807 363.863 195.619C363.863 192.572 362.691 189.76 360.736 187.65C362.691 185.619 363.863 182.807 363.863 179.682ZM351.902 175.619C354.169 175.619 355.968 177.494 355.968 179.682C355.968 181.947 354.091 183.744 351.902 183.744C349.635 183.744 347.837 181.869 347.837 179.682C347.837 177.416 349.635 175.619 351.902 175.619Z" fill="#369BE5"/>
</svg>
