<svg width="420" height="390" viewBox="0 0 420 390" fill="none" xmlns="http://www.w3.org/2000/svg">
<path fill-rule="evenodd" clip-rule="evenodd" d="M322.504 113.734C319.437 116.292 316.173 118.358 312.611 119.932L312.018 130.656L294.408 133.607L290.254 123.671C286.395 123.375 282.636 122.49 278.877 121.113L270.864 128.295L256.321 118.063L260.377 108.224C257.805 105.174 255.728 101.927 254.145 98.3855L243.362 97.7952L240.394 80.2826L250.386 76.1504C250.683 72.3133 251.573 68.5747 252.958 64.836L245.736 56.8668L256.025 42.3058L266.016 46.438C269.083 43.8799 272.348 41.8138 275.909 40.2397L276.503 29.5157L294.112 26.5641L298.267 36.501C302.125 36.7962 305.884 37.6816 309.643 39.059L317.656 31.8769L332.298 42.109L328.143 52.0459C330.715 55.0959 332.792 58.3426 334.375 61.8845L345.158 62.4748L348.126 79.9874L338.134 84.1196C337.838 87.9566 336.947 91.6953 335.562 95.4339L342.784 103.403L332.397 117.866L322.504 113.734ZM309.445 91.7937C315.579 83.2341 313.502 71.3295 304.895 65.2296C296.288 59.1297 284.318 61.1958 278.184 69.7553C272.051 78.3148 274.128 90.2195 282.735 96.3194C291.342 102.419 303.312 100.353 309.445 91.7937Z" fill="#A0CEF4"/>
<g clip-path="url(#clip0_468_250)">
<path fill-rule="evenodd" clip-rule="evenodd" d="M107.93 124.458C110.502 127.212 112.58 130.164 114.36 133.411H124.55L128.309 149.743L119.109 154.17C119.01 157.81 118.416 161.451 117.328 164.992L124.55 172.175L115.548 186.44L105.952 183.095C103.182 185.653 100.214 187.72 96.9491 189.49V199.624L80.5272 203.363L76.0754 194.213C72.4151 194.115 68.7548 193.524 65.1934 192.442L57.9717 199.624L43.6272 190.671L46.9907 181.128C44.4186 178.373 42.3411 175.421 40.5604 172.175H30.3709L26.7106 155.744L35.9108 151.317C36.0098 147.677 36.6033 144.036 37.6915 140.494L30.4698 133.312L39.4722 119.046L49.0682 122.392C51.8382 119.834 54.806 117.767 58.0706 115.996V105.863L74.4926 102.124L78.9443 111.274C82.6047 111.372 86.265 111.963 89.8264 113.045L97.0481 105.863L111.393 114.816L107.93 124.458ZM87.7489 137.838C79.2411 132.525 68.0623 135.083 62.8191 143.544C57.477 152.006 60.0492 163.123 68.5569 168.338C77.0647 173.65 88.2435 171.092 93.5856 162.631C98.8288 154.268 96.2567 143.151 87.7489 137.838Z" fill="#A0CEF4"/>
<path fill-rule="evenodd" clip-rule="evenodd" d="M117.922 55.5878C119.307 57.0636 120.494 58.7361 121.483 60.5071H127.122L129.199 69.5585L124.154 72.0182C124.055 73.9859 123.758 76.052 123.165 78.0197L127.221 81.9551L122.275 89.8259L116.932 87.9566C115.449 89.334 113.767 90.5146 111.986 91.4985V97.1065L102.885 99.1726L100.412 94.1549C98.433 94.0565 96.3555 93.7614 94.377 93.171L90.4199 97.2048L82.5057 92.2856L84.3853 86.9728C83.0003 85.497 81.8132 83.8244 80.8239 82.0535H75.185L73.1075 73.002L78.1528 70.5424C78.2518 68.5747 78.5486 66.5086 79.1421 64.5409L75.0861 60.6055L80.0325 52.7346L85.3746 54.6039C86.8585 53.2265 88.5402 52.0459 90.3209 51.0621V45.4541L99.3234 43.2896L101.797 48.3073C103.775 48.4057 105.853 48.7008 107.831 49.2911L111.788 45.2573L119.702 50.1766L117.922 55.5878ZM106.743 63.0651C102.093 60.1135 95.8609 61.5893 92.8931 66.2134C89.9252 70.9359 91.4091 77.0358 96.0587 79.9874C100.807 82.939 106.941 81.4632 109.909 76.8391C112.876 72.1166 111.393 65.9183 106.743 63.0651Z" fill="#A0CEF4"/>
<path d="M38.5819 72.4117C38.5819 72.4117 38.7797 72.5101 39.0765 72.7069C39.3733 72.9036 39.769 73.1988 40.2636 73.6907C41.154 74.5762 42.3411 76.2488 42.6379 78.61C42.7368 79.7906 42.6379 81.0696 42.1433 82.3487C41.6486 83.6277 40.7583 84.9067 39.5711 85.8905C38.9776 86.3825 38.2851 86.776 37.4937 87.0712C36.7022 87.3663 35.9108 87.5631 35.0205 87.6615C33.3387 87.8582 31.4591 87.3663 29.9752 86.3825C28.3923 85.3986 27.2052 84.0212 26.6116 82.3487C26.3148 81.5616 26.117 80.7745 26.0181 79.889C25.9191 79.1019 26.0181 78.2165 26.2159 77.5278C26.5127 75.9536 27.3041 74.6746 28.2934 73.6907C29.2827 72.7069 30.3709 72.0182 31.4591 71.6246C33.7344 70.8375 35.713 71.1327 36.9001 71.5262C37.4937 71.723 37.9883 72.0182 38.2851 72.1166C38.384 72.2149 38.5819 72.3133 38.5819 72.4117C38.5819 72.5101 37.9883 72.0182 36.7022 71.723C35.5151 71.3295 33.5366 71.1327 31.4591 71.9198C30.3709 72.3133 29.2827 73.002 28.4912 73.9859C27.6009 74.9697 26.9084 76.2488 26.6116 77.7245C26.4138 78.4132 26.4138 79.2003 26.5127 79.9874C26.6116 80.7745 26.7105 81.5616 27.0073 82.2503C27.6009 83.726 28.6891 85.1034 30.173 85.9889C31.6569 86.8744 33.3387 87.2679 34.9215 87.1695C35.713 87.0712 36.5044 86.9728 37.1969 86.6776C37.8894 86.3825 38.5819 85.9889 39.1754 85.5954C40.3626 84.7099 41.154 83.5293 41.6486 82.2503C42.1433 81.0696 42.2422 79.7906 42.1433 78.61C41.9454 76.3471 40.8572 74.6746 40.0658 73.7891C39.1754 72.8053 38.5819 72.4117 38.5819 72.4117Z" fill="#A0CEF4"/>
<path d="M47.5842 66.3118C47.5842 66.3118 47.5842 66.2134 47.6832 66.0166C47.7821 65.8199 47.881 65.5247 47.9799 65.2296C48.2767 64.4425 48.5735 63.3602 49.0681 61.9828V62.0812C47.3864 61.0974 45.21 59.72 42.6379 58.1458H42.8357C41.8464 59.1297 40.7582 60.2119 39.67 61.3925L39.5711 61.4909H39.4722C37.9883 60.999 36.4054 60.8022 34.6247 60.7038H34.5258V60.6054C33.9322 59.3264 33.2397 57.949 32.5472 56.4733L32.7451 56.5716C30.4698 57.0636 27.9966 57.6539 25.3255 58.2442L25.5234 58.0474C25.5234 59.4248 25.5234 60.999 25.5234 62.5732V62.6715L25.4245 62.7699C24.0395 63.4586 22.6545 64.4425 21.4674 65.6231L21.3684 65.7215H21.2695C19.8845 65.2296 18.4995 64.7376 16.9167 64.2457L17.2135 64.1473C15.9274 66.115 14.6413 68.2795 13.1574 70.5424V70.2472C14.1467 71.2311 15.2349 72.3133 16.422 73.4939L16.521 73.5923V73.6907C16.0263 75.1665 15.7296 76.839 15.7296 78.5116V78.7084L15.6306 78.8068C14.3446 79.3971 12.9596 80.0858 11.4757 80.7745L11.5746 80.4793C12.0692 82.8406 12.6628 85.3002 13.2564 87.8582L12.8607 87.4647C14.3446 87.4647 15.8285 87.4647 17.4113 87.4647H17.6092L17.7081 87.5631C18.4006 88.9405 19.3899 90.3179 20.577 91.4985C20.577 91.5969 20.4781 91.2033 20.6759 91.7936V91.892V91.9904L20.577 92.2856L20.3791 92.7775L19.7856 93.9581C19.4888 94.6468 19.2909 95.4339 18.9942 96.1226L18.8952 95.8274C21.0716 97.2048 23.248 98.4839 25.3255 99.8613H25.0287C26.1169 98.779 27.2052 97.6968 28.2934 96.6145L28.3923 96.5161H28.4912C30.0741 97.0081 31.6569 97.3032 33.3387 97.3032H33.5365L33.6354 97.4016C34.3279 98.779 34.9215 100.156 35.614 101.534L35.3172 101.435C37.7904 100.845 40.2636 100.255 42.7368 99.7629L42.5389 99.9596C42.5389 98.3855 42.5389 96.9097 42.5389 95.4339V95.3355L42.6379 95.2371C44.1218 94.45 45.4078 93.4662 46.595 92.384L46.6939 92.2856H46.7928C48.2767 92.7775 49.6617 93.2694 51.1456 93.7613L50.8488 93.8597C52.2338 91.5969 53.6188 89.5308 54.9049 87.4647V87.6614C53.7177 86.5792 52.7285 85.497 51.6403 84.4147L51.5413 84.3163V84.218C52.036 82.5454 52.3328 80.9712 52.3328 79.3971V79.2987H52.4317C53.9156 78.61 55.3006 77.9213 56.5866 77.331V77.7245C55.8942 74.8713 55.3995 72.4117 54.9049 70.3456L55.0038 70.444C53.2231 70.444 51.6403 70.444 50.4531 70.444H50.3542C49.5628 68.9682 48.8703 67.9844 48.3757 67.394C48.0789 67.0989 47.9799 66.9021 47.7821 66.7053C47.6832 66.4102 47.5842 66.3118 47.5842 66.3118C47.5842 66.3118 47.6832 66.4102 47.7821 66.5086C47.881 66.607 48.1778 66.9021 48.3757 67.1973C48.8703 67.7876 49.6617 68.7714 50.4531 70.2472H50.3542C51.6403 70.2472 53.1242 70.2472 54.9049 70.1488H55.0038V70.2472C55.4984 72.3133 56.092 74.773 56.7845 77.6261V77.7245L56.6856 77.8229C55.3995 78.4132 54.0145 79.1019 52.5306 79.7906L52.6295 79.6922C52.6295 81.2664 52.3328 82.9389 51.8381 84.6115V84.4147C52.8274 85.3986 53.9156 86.4808 55.1027 87.6614L55.2017 87.7598L55.1027 87.8582C53.8167 89.9243 52.5306 91.9904 51.1456 94.2533L51.0467 94.3517L50.8488 94.2533C49.4639 93.7613 47.9799 93.2694 46.496 92.7775H46.6939C45.5068 93.8597 44.1218 94.8436 42.6379 95.6307L42.7368 95.4339C42.7368 96.9097 42.7368 98.4839 42.7368 99.9596V100.156H42.5389C40.1647 100.747 37.6915 101.239 35.1194 101.829H34.9215L34.8226 101.632C34.1301 100.255 33.5365 98.8774 32.844 97.5L33.0419 97.5984C31.3601 97.5 29.6783 97.3032 28.0955 96.8113L28.3923 96.7129C27.3041 97.7952 26.2159 98.8774 25.1277 99.9596L25.3255 100.353L25.1277 100.255C23.0502 98.9758 20.8738 97.5984 18.6974 96.221L18.4995 96.1226L18.5985 95.9258C18.8952 95.2371 19.0931 94.5484 19.3899 93.7613L19.7856 92.6791L19.9834 92.1872L20.0824 91.892V91.7936V91.6953C20.1813 92.1872 20.0824 91.7936 20.1813 91.9904C18.9942 90.7114 18.0049 89.334 17.3124 87.9566L17.5102 88.055C15.9274 88.055 14.3446 88.055 12.9596 88.055H12.7617V87.8582C12.1682 85.3002 11.5746 82.8406 11.08 80.4793V80.2825L11.2778 80.1842C12.6628 79.4955 14.1467 78.8068 15.4328 78.2164L15.3338 78.4132C15.4328 76.6423 15.7296 74.9697 16.1253 73.4939L15.9274 73.7891C14.8392 72.7069 13.6521 71.6246 12.6628 70.5424L12.5639 70.444L12.6628 70.2472C14.0478 67.9844 15.4328 65.8199 16.7188 63.8522L16.8178 63.6554L17.0156 63.7538C18.4995 64.2457 19.9834 64.836 21.3684 65.2296H21.1706C22.4566 64.0489 23.8416 63.0651 25.2266 62.3764L25.1277 62.5732C25.1277 60.999 25.1277 59.4248 25.1277 58.0474V57.8507H25.3255C27.8976 57.2603 30.3708 56.67 32.7451 56.1781H32.844L32.943 56.2765C33.6354 57.7523 34.3279 59.1297 34.9215 60.4087L34.6247 60.3103C36.4054 60.4087 38.0872 60.7038 39.5711 61.0974H39.3732C40.5604 59.9167 41.6486 58.8345 42.6379 57.8507L42.7368 57.7523L42.8357 57.8507C45.4078 59.5232 47.5842 60.9006 49.266 61.8845H49.3649V61.9828C48.8703 63.3602 48.4746 64.4425 48.1778 65.1312C48.0789 65.5247 47.9799 65.7215 47.881 65.9183C47.6832 66.2134 47.5842 66.3118 47.5842 66.3118Z" fill="#A0CEF4"/>
</g>
<path d="M270.884 384.915L139.426 384.801C123.624 384.801 110.799 372.047 110.799 356.331L110.913 28.4701C110.913 12.7546 123.738 0 139.541 0L270.998 0.11388C286.801 0.11388 299.626 12.8685 299.626 28.5839V356.445C299.626 372.161 286.801 384.915 270.884 384.915Z" fill="#09283F"/>
<path d="M270.884 11.7297H245.349C241.913 11.7297 239.165 14.5767 239.165 18.107V22.6622C239.165 26.1925 236.417 29.1534 232.981 29.0395H183.284C179.849 29.0395 177.101 26.1925 177.101 22.5483V17.9931C177.101 14.4628 174.352 11.502 170.917 11.502H161.985H139.656C128.548 11.502 119.616 20.3846 119.616 31.431L119.502 351.434C119.502 362.481 128.434 371.364 139.541 371.364L270.77 371.477C281.877 371.477 290.809 362.595 290.809 351.548L290.924 31.5449C290.924 20.6124 281.992 11.7297 270.884 11.7297Z" fill="#FAFAFA"/>
<path d="M133.357 55.0041C133.357 55.0041 133.472 55.0041 133.587 55.0041C133.816 55.0041 134.045 55.0041 134.274 55.0041C134.961 55.0041 135.762 55.0041 136.793 54.8903L136.678 55.0041C136.678 54.4347 136.678 53.8653 136.678 53.1821C136.678 52.8404 136.678 52.4988 136.678 52.1571C136.793 51.7016 137.136 51.36 137.594 51.36C138.052 51.36 138.396 51.36 138.854 51.36C139.312 51.36 139.77 51.8155 139.656 52.3849C139.656 53.2959 139.656 54.0931 139.656 55.0041L139.541 54.8903C140.572 54.8903 141.602 54.8903 142.747 54.8903L142.633 55.0041C142.633 53.7515 142.633 52.3849 142.633 51.0183C142.633 50.6767 142.633 50.3351 142.633 49.9934C142.633 49.6518 142.404 49.5379 142.175 49.3101C141.717 48.8546 141.259 48.3991 140.801 47.9436C140.343 47.4881 139.885 47.0325 139.427 46.577C139.197 46.3493 138.968 46.1215 138.739 45.8937C138.51 45.666 138.396 45.4382 138.052 45.4382C137.823 45.3243 137.594 45.4382 137.365 45.5521C137.136 45.666 137.022 45.8937 136.793 46.1215C136.449 46.4631 135.991 46.9187 135.648 47.2603C134.961 48.0575 134.159 48.7407 133.587 49.3101C133.357 49.6518 133.472 50.1073 133.472 50.4489C133.472 50.7906 133.472 51.2461 133.472 51.5877C133.472 52.271 133.472 52.8404 133.472 53.4098C133.472 53.8653 133.472 54.207 133.472 54.5486C133.357 54.8903 133.357 55.0041 133.357 55.0041C133.357 55.0041 133.357 54.8903 133.357 54.6625C133.357 54.3209 133.357 53.9792 133.357 53.5237C133.357 52.9543 133.357 52.3849 133.357 51.7016C133.357 51.36 133.357 50.9045 133.357 50.5628C133.357 50.2212 133.243 49.6518 133.472 49.3101C134.045 48.6269 134.732 47.9436 135.533 47.1464C135.877 46.8048 136.335 46.3493 136.678 46.0076C136.907 45.7799 137.022 45.666 137.251 45.4382C137.48 45.2105 137.823 45.2104 138.167 45.2104C138.51 45.3243 138.739 45.5521 138.968 45.7799C139.197 46.0076 139.427 46.2354 139.656 46.4631C140.114 46.9187 140.572 47.3742 141.03 47.8297C141.488 48.2852 141.946 48.7407 142.404 49.1963C142.633 49.424 142.976 49.7657 142.976 50.1073C142.976 50.4489 142.976 50.7906 142.976 51.1322C142.976 52.4988 142.976 53.8653 142.976 55.118V55.2319H142.862C141.717 55.2319 140.686 55.2319 139.656 55.2319H139.541V55.118C139.541 54.207 139.541 53.2959 139.541 52.4988C139.541 52.1571 139.312 51.8155 138.968 51.7016C138.625 51.7016 138.167 51.7016 137.823 51.7016C137.48 51.7016 137.251 52.0433 137.136 52.271C137.136 52.6127 137.136 52.9543 137.136 53.2959C137.136 53.9792 137.136 54.5486 137.136 55.118V55.2319H137.022C135.991 55.2319 135.075 55.2319 134.388 55.2319C134.159 55.2319 133.93 55.2319 133.701 55.2319C133.357 55.0041 133.357 55.0041 133.357 55.0041Z" fill="#263238"/>
<path d="M272.373 46.8048C272.373 47.3742 271.915 47.7158 271.456 47.7158C270.884 47.7158 270.54 47.2603 270.54 46.8048C270.54 46.2354 270.998 45.8937 271.456 45.8937C271.915 45.8937 272.373 46.3493 272.373 46.8048Z" fill="#263238"/>
<path d="M272.373 50.2212C272.373 50.7906 271.915 51.1322 271.456 51.1322C270.884 51.1322 270.54 50.6767 270.54 50.2212C270.54 49.6518 270.998 49.3101 271.456 49.3101C271.915 49.3101 272.373 49.7656 272.373 50.2212Z" fill="#263238"/>
<path d="M272.373 53.7515C272.373 54.3209 271.915 54.6625 271.456 54.6625C270.884 54.6625 270.54 54.207 270.54 53.7515C270.54 53.1821 270.998 52.8404 271.456 52.8404C271.915 52.7266 272.373 53.1821 272.373 53.7515Z" fill="#263238"/>
<g clip-path="url(#clip1_468_250)">
<path d="M259.982 104.879L261.367 107.535L264.334 108.027L262.158 110.192L262.653 113.143L259.982 111.766L257.311 113.143L257.805 110.192L255.629 108.027L258.597 107.535L259.982 104.879Z" fill="#95CCF2"/>
<path d="M135.927 156.039L137.015 157.614L138.993 157.515L137.905 159.089L138.499 160.959L136.718 160.368L135.135 161.549V159.581L133.552 158.499L135.333 157.909L135.927 156.039Z" fill="#95CCF2"/>
<path d="M137.806 128.59C135.63 128.59 133.75 126.819 133.75 124.556C133.75 122.392 135.531 120.522 137.806 120.522C139.983 120.522 141.862 122.293 141.862 124.556C141.763 126.721 139.983 128.59 137.806 128.59ZM137.806 122.687C136.817 122.687 136.025 123.474 136.025 124.458C136.025 125.441 136.817 126.229 137.806 126.229C138.795 126.229 139.587 125.441 139.587 124.458C139.587 123.572 138.795 122.687 137.806 122.687Z" fill="#95CCF2"/>
<path d="M273.04 164.304C272.051 164.304 271.161 163.517 271.161 162.434C271.161 161.451 271.952 160.565 273.04 160.565C274.029 160.565 274.92 161.352 274.92 162.434C274.92 163.418 274.029 164.304 273.04 164.304ZM273.04 161.647C272.546 161.647 272.249 162.041 272.249 162.434C272.249 162.828 272.644 163.222 273.04 163.222C273.535 163.222 273.832 162.828 273.832 162.434C273.832 162.041 273.436 161.647 273.04 161.647Z" fill="#95CCF2"/>
<path d="M201.713 98.0903C200.724 98.0903 199.834 97.3032 199.834 96.221C199.834 95.2372 200.625 94.3517 201.713 94.3517C202.703 94.3517 203.593 95.1388 203.593 96.221C203.593 97.3032 202.802 98.0903 201.713 98.0903ZM201.713 95.4339C201.219 95.4339 200.922 95.8275 200.922 96.221C200.922 96.7129 201.318 97.0081 201.713 97.0081C202.208 97.0081 202.505 96.6146 202.505 96.221C202.604 95.8275 202.208 95.4339 201.713 95.4339Z" fill="#95CCF2"/>
</g>
<path d="M176.047 152.402V161.562H179.278C182.007 161.562 183.613 159.861 183.613 156.966C183.613 154.078 182.001 152.402 179.278 152.402H176.047ZM177.469 153.628H179.144C181.08 153.628 182.159 154.821 182.159 156.979C182.159 159.144 181.087 160.331 179.144 160.331H177.469V153.628ZM187.676 161.689C189.586 161.689 190.843 160.375 190.843 158.223C190.843 156.078 189.58 154.764 187.676 154.764C185.771 154.764 184.508 156.078 184.508 158.223C184.508 160.375 185.765 161.689 187.676 161.689ZM187.676 160.559C186.603 160.559 185.905 159.709 185.905 158.223C185.905 156.744 186.603 155.894 187.676 155.894C188.748 155.894 189.447 156.744 189.447 158.223C189.447 159.709 188.755 160.559 187.676 160.559ZM200.688 154.884H199.33L198.111 160.14H198.079L196.683 154.884H195.363L193.972 160.14H193.947L192.728 154.884H191.357L193.192 161.562H194.607L195.997 156.56H196.029L197.432 161.562H198.86L200.688 154.884ZM201.526 161.562H202.897V157.671C202.897 156.636 203.519 155.951 204.484 155.951C205.436 155.951 205.906 156.503 205.906 157.506V161.562H207.283V157.239C207.283 155.71 206.439 154.77 204.967 154.77C203.938 154.77 203.227 155.24 202.865 156.002H202.834V154.884H201.526V161.562ZM208.661 161.562H210.032V152.402H208.661V161.562ZM214.31 161.689C216.221 161.689 217.478 160.375 217.478 158.223C217.478 156.078 216.215 154.764 214.31 154.764C212.406 154.764 211.143 156.078 211.143 158.223C211.143 160.375 212.4 161.689 214.31 161.689ZM214.31 160.559C213.238 160.559 212.539 159.709 212.539 158.223C212.539 156.744 213.238 155.894 214.31 155.894C215.383 155.894 216.081 156.744 216.081 158.223C216.081 159.709 215.389 160.559 214.31 160.559ZM220.874 160.591C220.137 160.591 219.655 160.21 219.655 159.626C219.655 159.055 220.118 158.693 220.937 158.636L222.581 158.534V159.061C222.581 159.931 221.832 160.591 220.874 160.591ZM220.493 161.676C221.369 161.676 222.213 161.207 222.6 160.464H222.632V161.562H223.946V156.96C223.946 155.621 222.911 154.764 221.293 154.764C219.642 154.764 218.614 155.652 218.538 156.858H219.833C219.953 156.262 220.448 155.881 221.242 155.881C222.08 155.881 222.581 156.325 222.581 157.068V157.582L220.753 157.69C219.166 157.779 218.271 158.496 218.271 159.664C218.271 160.864 219.185 161.676 220.493 161.676ZM227.786 161.676C228.758 161.676 229.519 161.188 229.913 160.426H229.938V161.562H231.271V152.402H229.894V155.995H229.868C229.494 155.259 228.732 154.776 227.774 154.776C226.098 154.776 224.981 156.116 224.981 158.223C224.981 160.331 226.098 161.676 227.786 161.676ZM228.148 155.932C229.202 155.932 229.906 156.839 229.906 158.223C229.906 159.62 229.202 160.515 228.148 160.515C227.063 160.515 226.384 159.632 226.384 158.223C226.384 156.82 227.063 155.932 228.148 155.932Z" fill="#153D59"/>
<path d="M194.364 207.004C196.49 207.004 197.98 205.603 197.98 203.579C197.98 201.665 196.62 200.277 194.726 200.277C193.762 200.277 192.956 200.653 192.525 201.275H192.491L192.764 198.247H197.406V196.955H191.534L191.014 202.533H192.416C192.799 201.884 193.537 201.494 194.391 201.494C195.622 201.494 196.483 202.383 196.483 203.62C196.483 204.857 195.622 205.726 194.378 205.726C193.277 205.726 192.436 205.056 192.327 204.078H190.864C190.953 205.801 192.395 207.004 194.364 207.004ZM202.759 207.004C204.885 207.004 206.375 205.603 206.375 203.579C206.375 201.665 205.014 200.277 203.121 200.277C202.157 200.277 201.35 200.653 200.92 201.275H200.886L201.159 198.247H205.801V196.955H199.928L199.409 202.533H200.81C201.193 201.884 201.931 201.494 202.786 201.494C204.016 201.494 204.878 202.383 204.878 203.62C204.878 204.857 204.016 205.726 202.772 205.726C201.672 205.726 200.831 205.056 200.721 204.078H199.259C199.347 205.801 200.79 207.004 202.759 207.004ZM211.454 199.3C211.454 197.782 210.613 196.812 209.321 196.812C208.022 196.812 207.181 197.782 207.181 199.3C207.181 200.817 208.022 201.788 209.321 201.788C210.613 201.788 211.454 200.817 211.454 199.3ZM209.321 200.824C208.774 200.824 208.432 200.243 208.432 199.293C208.432 198.35 208.774 197.769 209.321 197.769C209.861 197.769 210.203 198.35 210.203 199.293C210.203 200.243 209.861 200.824 209.321 200.824ZM209.26 206.819L212.753 202.041L216.465 196.955H215.118L211.72 201.604L207.906 206.819H209.26ZM217.189 204.447C217.189 202.923 216.355 201.952 215.056 201.952C213.758 201.952 212.924 202.923 212.924 204.447C212.924 205.965 213.758 206.936 215.056 206.936C216.355 206.936 217.189 205.965 217.189 204.447ZM215.056 205.965C214.51 205.965 214.175 205.391 214.175 204.44C214.175 203.49 214.51 202.916 215.056 202.916C215.603 202.916 215.938 203.49 215.938 204.44C215.938 205.391 215.603 205.965 215.056 205.965Z" fill="#153D59"/>
<g clip-path="url(#clip2_468_250)">
<path opacity="0.2" d="M262.851 184.374H146.512C143.742 184.374 141.466 182.111 141.466 179.357V179.16C141.466 176.405 143.742 174.142 146.512 174.142H262.851C265.621 174.142 267.896 176.405 267.896 179.16V179.357C267.896 182.111 265.621 184.374 262.851 184.374Z" fill="#153D59"/>
<path d="M203.494 184.374H146.512C143.742 184.374 141.466 182.111 141.466 179.357V179.16C141.466 176.405 143.742 174.142 146.512 174.142H203.494C206.264 174.142 208.539 176.405 208.539 179.16V179.357C208.539 182.111 206.264 184.374 203.494 184.374Z" fill="#369BE5"/>
</g>
<g clip-path="url(#clip3_468_250)">
<path d="M173.915 373.57L176.784 384.392L208.638 384.097C208.638 384.097 204.285 380.85 188.259 381.047L186.676 373.57H173.915Z" fill="#FFB573"/>
<path d="M139.191 251.276L115.35 253.539L105.655 256.294C101.5 257.475 97.7404 259.639 94.5747 262.591L63.2147 292.402L57.4769 246.062L41.8463 247.439L44.4184 307.159C46.7927 314.44 53.5198 319.556 61.434 319.556C66.0836 319.556 70.6342 317.588 73.9978 314.44L96.2565 293.582L94.0801 321.032L86.4627 338.151L141.071 368.847C141.071 368.847 147.501 337.265 150.963 315.424C153.733 297.714 155.217 259.246 155.217 259.246L139.191 251.276Z" fill="#153D59"/>
<path d="M153.832 258.459C153.832 258.459 165.901 262.886 168.869 272.331C171.441 280.694 180.048 327.624 180.048 327.624L188.655 377.308L170.65 377.997L149.974 293.287L153.832 258.459Z" fill="#153D59"/>
<path d="M93.6844 319.753C93.5854 319.753 94.3769 310.209 95.4651 298.502C96.5533 286.794 97.6415 277.25 97.7404 277.349C97.8393 277.349 97.0479 286.892 95.9597 298.6C94.8715 310.209 93.8822 319.753 93.6844 319.753Z" fill="#263238"/>
<path d="M133.552 296.337C133.552 296.337 133.552 296.534 133.354 296.829C133.255 297.223 133.058 297.616 132.761 298.108C132.563 298.698 132.266 299.387 131.772 300.076C131.376 300.863 130.98 301.748 130.288 302.634C129.991 303.126 129.694 303.618 129.397 304.109C129.1 304.601 128.705 305.093 128.309 305.585C127.617 306.668 126.726 307.75 125.737 308.832C123.857 310.996 121.582 313.259 118.911 315.325C116.24 317.392 113.569 319.064 110.997 320.441C109.711 321.032 108.425 321.72 107.237 322.114C106.644 322.311 106.05 322.606 105.457 322.803C104.863 323 104.369 323.196 103.775 323.393C102.786 323.787 101.796 323.983 100.906 324.18C100.115 324.377 99.3233 324.574 98.7297 324.672C98.1362 324.77 97.7404 324.869 97.3447 324.869C97.048 324.869 96.8501 324.967 96.8501 324.869C96.8501 324.869 97.048 324.77 97.3447 324.672C97.7404 324.574 98.1362 324.475 98.7297 324.377C99.3233 324.279 100.016 324.082 100.906 323.787C101.698 323.491 102.687 323.295 103.676 322.901C104.171 322.704 104.764 322.508 105.259 322.311C105.853 322.114 106.347 321.819 106.941 321.622C108.128 321.13 109.315 320.54 110.601 319.851C113.173 318.474 115.844 316.801 118.416 314.735C120.988 312.669 123.264 310.406 125.143 308.34C126.034 307.258 126.924 306.176 127.716 305.192C128.111 304.7 128.507 304.208 128.804 303.716C129.1 303.224 129.397 302.732 129.694 302.24C130.288 301.355 130.782 300.469 131.178 299.682C131.574 298.895 131.969 298.305 132.167 297.714C132.464 297.223 132.662 296.829 132.761 296.435C133.453 296.534 133.453 296.337 133.552 296.337Z" fill="#263238"/>
<g opacity="0.2">
<g opacity="0.2">
<path opacity="0.2" d="M100.115 324.574C98.3339 324.082 97.4435 321.917 97.9382 320.245C98.4328 318.474 99.8178 317.195 101.5 316.408C103.181 315.621 104.962 315.325 106.743 314.834C114.36 312.964 121.483 309.029 127.023 303.519C127.518 303.027 128.309 302.437 128.903 302.83C129.793 303.322 129.199 304.601 128.606 305.389C120.889 314.243 110.799 321.032 99.62 324.77" fill="black"/>
</g>
</g>
<path d="M154.624 313.358C154.624 313.358 154.426 312.964 154.228 312.374C154.03 311.685 153.733 310.8 153.437 309.521C152.744 307.159 151.953 303.814 151.161 300.174C150.37 296.534 149.677 293.189 149.183 290.729C148.985 289.548 148.787 288.565 148.688 287.876C148.589 287.187 148.589 286.794 148.589 286.794C148.589 286.794 148.688 287.187 148.886 287.777C149.084 288.565 149.282 289.548 149.578 290.631C150.172 293.189 150.864 296.435 151.656 299.977C152.447 303.617 153.239 306.864 153.832 309.324C154.129 310.406 154.327 311.39 154.426 312.177C154.624 312.964 154.723 313.358 154.624 313.358Z" fill="#263238"/>
<path d="M44.7153 251.867C44.6163 251.867 44.3195 250.785 44.2206 249.506C44.1217 248.227 44.1217 247.144 44.3195 247.144C44.4185 247.144 44.7153 248.227 44.8142 249.506C44.8142 250.785 44.8142 251.867 44.7153 251.867Z" fill="#263238"/>
<path d="M49.2659 251.965C49.167 251.965 48.9691 250.883 48.8702 249.506C48.7713 248.128 48.8702 246.948 48.9691 246.948C49.0681 246.948 49.2659 248.03 49.3648 249.407C49.4638 250.883 49.3648 251.965 49.2659 251.965Z" fill="#263238"/>
<path d="M53.8166 251.67C53.7176 251.67 53.5198 250.391 53.4209 248.915C53.3219 247.341 53.4209 246.16 53.5198 246.062C53.6187 246.062 53.8166 247.341 53.9155 248.817C54.0144 250.391 53.9155 251.67 53.8166 251.67Z" fill="#263238"/>
<path d="M62.6211 299.485C62.5221 299.485 62.5221 297.616 62.8189 295.353C63.0168 293.09 63.3135 291.319 63.5114 291.319C63.6103 291.319 63.6103 293.189 63.3135 295.452C63.0168 297.714 62.72 299.485 62.6211 299.485Z" fill="#263238"/>
<path d="M173.618 372.881C173.717 372.881 174.113 373.963 174.31 375.34C174.508 376.718 174.607 377.899 174.508 377.899C174.409 377.899 174.014 376.816 173.816 375.439C173.618 374.061 173.519 372.881 173.618 372.881Z" fill="#263238"/>
<path d="M179.554 372.881C179.652 372.881 179.949 373.865 180.147 375.144C180.345 376.423 180.444 377.505 180.246 377.505C180.147 377.505 179.85 376.521 179.652 375.242C179.455 373.865 179.455 372.881 179.554 372.881Z" fill="#263238"/>
<path d="M185.192 372.291C185.291 372.291 185.588 373.471 185.786 374.849C185.984 376.226 186.182 377.407 186.083 377.407C185.984 377.407 185.489 376.324 185.291 374.849C184.994 373.471 184.994 372.291 185.192 372.291Z" fill="#263238"/>
<path d="M163.527 264.263C163.527 264.362 162.241 264.263 160.362 264.657C158.383 265.05 155.811 266.034 153.536 268.002C151.26 269.97 149.875 272.429 149.282 274.299C148.589 276.168 148.49 277.447 148.391 277.349C148.391 277.349 148.391 277.053 148.391 276.463C148.49 275.873 148.589 275.086 148.886 274.102C149.48 272.134 150.766 269.576 153.14 267.51C155.514 265.444 158.284 264.46 160.263 264.165C161.252 263.968 162.043 263.968 162.637 263.968C163.23 264.165 163.527 264.263 163.527 264.263Z" fill="#263238"/>
<path d="M170.947 284.432C170.947 284.531 169.859 285.023 167.979 285.711C166.099 286.4 163.527 287.286 160.559 288.269C157.691 289.155 155.019 289.942 153.041 290.336C151.062 290.827 149.875 291.024 149.875 291.024C149.875 290.926 151.062 290.631 152.942 290.04C155.019 289.45 157.592 288.663 160.362 287.777C163.23 286.892 165.704 286.105 167.781 285.416C169.76 284.728 170.947 284.432 170.947 284.432Z" fill="#32678C"/>
<path d="M178.564 318.671C178.564 318.769 177.377 319.064 175.497 319.458C173.618 319.95 170.947 320.54 167.979 321.13C165.011 321.72 162.34 322.311 160.361 322.606C158.383 322.999 157.196 323.196 157.196 323.098C157.196 322.999 158.383 322.704 160.263 322.311C162.142 321.819 164.813 321.229 167.781 320.638C170.749 320.048 173.42 319.458 175.398 319.162C177.278 318.867 178.564 318.671 178.564 318.671Z" fill="#32678C"/>
<path d="M187.171 361.567C187.171 361.665 186.083 361.665 184.203 361.763C182.324 361.763 179.85 361.862 177.08 362.058C174.31 362.255 171.738 362.452 169.958 362.55C168.177 362.747 166.99 362.846 166.99 362.747C166.99 362.649 168.078 362.452 169.958 362.157C171.738 361.862 174.31 361.665 177.08 361.468C179.85 361.271 182.422 361.271 184.302 361.37C186.083 361.468 187.171 361.567 187.171 361.567Z" fill="#32678C"/>
<path d="M107.93 321.327C107.93 321.425 107.138 321.032 105.852 320.441C104.467 319.753 102.786 318.966 101.005 318.179C99.2243 317.293 97.5425 316.604 96.1575 315.916C94.8714 315.325 94.179 314.932 94.179 314.833C94.179 314.735 94.9704 315.03 96.2564 315.522C97.5425 316.014 99.3232 316.801 101.203 317.687C103.082 318.572 104.764 319.458 105.951 320.146C107.237 320.737 107.93 321.228 107.93 321.327Z" fill="#32678C"/>
<path d="M147.699 328.017C147.699 328.017 147.303 327.919 146.512 327.624C145.72 327.23 144.632 326.836 143.445 326.246C140.774 325.066 137.213 323.59 133.157 321.917C129.1 320.343 125.341 318.966 122.67 317.982C121.384 317.49 120.296 317.096 119.505 316.801C118.713 316.506 118.317 316.309 118.317 316.309C118.317 316.309 118.713 316.408 119.505 316.604C120.296 316.801 121.384 317.195 122.769 317.588C125.539 318.474 129.199 319.753 133.354 321.425C137.41 322.999 141.071 324.672 143.643 325.853C144.929 326.443 146.017 326.935 146.71 327.328C147.303 327.722 147.699 328.017 147.699 328.017Z" fill="#32678C"/>
<path d="M150.766 300.076C150.766 300.076 150.568 300.076 150.172 300.076C149.776 299.977 149.183 299.977 148.589 299.879C147.105 299.682 145.226 299.289 142.753 298.993C137.905 298.206 131.079 297.124 123.561 296.042C116.042 294.96 109.315 294.074 104.369 293.385C101.994 293.09 100.016 292.795 98.5319 292.598C97.9383 292.5 97.3447 292.402 96.949 292.402C96.5533 292.303 96.3555 292.303 96.3555 292.303C96.3555 292.303 96.5533 292.303 96.949 292.303C97.3447 292.303 97.9383 292.402 98.5319 292.402C99.9169 292.5 101.895 292.697 104.369 292.992C109.315 293.582 116.141 294.369 123.561 295.452C131.079 296.534 137.806 297.714 142.654 298.6C145.127 299.092 147.105 299.387 148.391 299.682C148.985 299.781 149.579 299.879 149.974 299.977C150.667 299.977 150.766 300.076 150.766 300.076Z" fill="#32678C"/>
<path d="M148.589 270.56C148.589 270.658 137.905 269.183 124.649 267.313C111.491 265.346 100.807 263.673 100.807 263.476C100.807 263.378 111.491 264.854 124.748 266.723C137.905 268.691 148.589 270.363 148.589 270.56Z" fill="#32678C"/>
<path d="M92.4973 296.337C92.3983 296.337 91.9037 295.156 91.0133 293.189C90.0241 291.024 88.8369 288.368 87.5509 285.416C86.1659 282.465 84.9788 279.808 83.9895 277.644C83.0991 275.676 82.5056 274.397 82.6045 274.397C82.6045 274.397 82.8024 274.692 83.0991 275.184C83.3959 275.676 83.7916 276.463 84.2863 277.447C85.2755 279.415 86.5616 282.071 87.9466 285.121C89.3316 288.171 90.5187 290.926 91.3101 292.992C91.7058 293.976 92.0026 294.861 92.2005 295.451C92.3983 296.042 92.4973 296.337 92.4973 296.337Z" fill="#32678C"/>
<path d="M71.2279 317.096C71.1289 317.096 69.744 311.193 68.1611 303.814C66.5783 296.435 65.4901 290.434 65.589 290.434C65.6879 290.434 67.0729 296.337 68.6558 303.716C70.1397 311.095 71.3268 317.096 71.2279 317.096Z" fill="#32678C"/>
<path d="M62.4233 284.826C62.4233 284.924 58.2683 286.007 53.1241 287.089C47.9798 288.171 43.726 288.958 43.726 288.86C43.726 288.761 47.8809 287.679 53.0251 286.597C58.1694 285.416 62.3243 284.629 62.4233 284.826Z" fill="#32678C"/>
<path d="M59.2576 257.868C59.2576 257.967 58.3672 258.163 56.7844 258.36C55.3005 258.655 53.1241 258.951 50.8487 259.147C48.4745 259.442 46.397 259.541 44.8141 259.639C43.2313 259.738 42.3409 259.738 42.3409 259.639C42.3409 259.541 43.2313 259.442 44.8141 259.246C46.4959 259.049 48.5734 258.852 50.7498 258.557C53.0251 258.262 55.0037 258.065 56.6854 257.868C58.3672 257.868 59.2576 257.868 59.2576 257.868Z" fill="#32678C"/>
<path d="M67.3696 211.135C67.6664 211.725 75.0859 249.702 75.0859 249.702L57.5758 250.489L50.7498 217.825L67.3696 211.135Z" fill="#E7E7E8"/>
<path d="M74.987 249.702L77.0644 248.817L69.447 211.43L67.0728 211.234L74.987 249.702Z" fill="#A0CEF4"/>
<path d="M60.2468 219.498C60.3457 219.99 59.95 220.482 59.4553 220.482C58.9607 220.58 58.4661 220.187 58.4661 219.695C58.3671 219.203 58.7629 218.711 59.2575 218.711C59.7521 218.612 60.2468 219.006 60.2468 219.498Z" fill="#153D59"/>
<path d="M56.6854 246.16L56.3886 241.143L63.9071 238.093L61.0382 231.206C59.6532 227.959 55.6961 226.68 52.6294 228.353C51.6401 228.845 50.5519 229.435 49.6615 229.927C47.4851 231.107 46.0012 233.075 45.4077 235.436C44.4184 239.47 43.627 247.931 43.627 247.538" fill="#FFB573"/>
<path d="M36.6031 372.684C36.6031 372.684 5.83663 381.145 4.55057 381.637C2.67094 382.326 2.96773 389.016 5.93555 388.918C7.32054 388.819 29.5792 389.705 32.3492 389.606C35.1192 389.41 43.627 386.064 43.627 386.064L36.6031 372.684Z" fill="#153D59"/>
<path d="M23.8414 384.392C23.6436 384.392 23.4457 382.818 22.4564 381.145C21.4672 379.473 20.1811 378.489 20.28 378.292C20.379 378.194 21.8629 379.079 22.9511 380.85C23.9404 382.719 23.9404 384.392 23.8414 384.392Z" fill="#263238"/>
<path d="M27.0072 383.014C26.8093 383.014 26.5125 381.637 25.7211 379.965C24.9297 378.39 23.9404 377.21 24.0393 377.111C24.1383 377.013 25.3254 377.997 26.2157 379.669C27.1061 381.44 27.1061 382.916 27.0072 383.014Z" fill="#263238"/>
<path d="M30.0739 382.129C29.8761 382.129 30.0739 380.555 29.3814 378.882C28.6889 377.21 27.6007 376.127 27.6997 376.029C27.7986 375.931 29.1836 376.816 29.8761 378.686C30.5686 380.555 30.1729 382.227 30.0739 382.129Z" fill="#263238"/>
<path d="M29.4804 378.194C29.3814 378.194 29.1836 377.308 29.1836 375.931C29.1836 375.242 29.2825 374.357 29.4804 373.471C29.5793 372.979 29.7772 372.487 29.975 372.094C30.0739 371.897 30.1729 371.602 30.4697 371.307C30.7664 371.011 31.2611 371.11 31.5579 371.405C31.8546 371.602 31.9536 371.995 31.9536 372.29C31.9536 372.586 31.9536 372.881 31.9536 373.078C31.9536 373.569 31.8546 374.061 31.7557 374.553C31.5579 375.537 31.1621 376.226 30.7664 376.915C30.0739 378.194 29.3814 378.784 29.3814 378.784C29.2825 378.784 29.8761 377.997 30.4697 376.816C30.7664 376.226 31.0632 375.439 31.2611 374.553C31.36 374.16 31.36 373.668 31.36 373.176C31.36 372.684 31.36 372.094 31.0632 371.897C30.9643 371.799 30.7664 371.799 30.6675 371.897C30.5686 371.995 30.3707 372.192 30.3707 372.389C30.1729 372.881 30.0739 373.274 29.8761 373.766C29.6782 374.652 29.4804 375.439 29.4804 376.128C29.3814 377.308 29.5793 378.194 29.4804 378.194Z" fill="#263238"/>
<path d="M29.4803 377.898C29.4803 377.8 30.1728 377.603 31.4589 377.603C32.0525 377.603 32.8439 377.702 33.6353 377.898C34.031 377.997 34.4267 378.095 34.9214 378.39C35.3171 378.587 35.8117 379.177 35.6139 379.768C35.5149 380.358 35.0203 380.752 34.5257 380.85C34.031 380.948 33.5364 380.948 33.1407 380.85C32.2503 380.653 31.6568 380.26 31.1621 379.866C30.1728 379.079 29.6782 378.489 29.7771 378.489C29.8761 378.39 30.3707 378.882 31.4589 379.571C31.9535 379.866 32.5471 380.26 33.3385 380.358C33.7342 380.456 34.1299 380.456 34.5257 380.358C34.9214 380.26 35.2181 379.965 35.3171 379.669C35.416 379.374 35.2181 378.981 34.8224 378.784C34.5257 378.587 34.1299 378.489 33.7342 378.39C32.9428 378.194 32.2503 378.095 31.6568 377.997C30.2718 377.898 29.5793 377.997 29.4803 377.898Z" fill="#263238"/>
<path d="M19.0929 384.785C18.8951 384.785 19.0929 383.506 18.4993 382.031C17.9058 380.555 16.9165 379.768 17.0154 379.669C17.1144 379.571 18.4004 380.26 18.994 381.834C19.5876 383.408 19.1918 384.785 19.0929 384.785Z" fill="#263238"/>
<path d="M40.5602 386.163C40.5602 386.163 40.1645 386.36 39.3731 386.753C38.5817 387.048 37.3946 387.442 35.9106 387.835C32.9428 388.524 28.7879 389.016 24.1383 388.918C19.4887 388.819 15.3337 388.622 12.3659 388.524C10.9809 388.426 9.69484 388.426 8.80449 388.327C7.91414 388.229 7.51843 388.229 7.51843 388.229C7.51843 388.229 8.01307 388.131 8.80449 388.131C9.79377 388.131 10.9809 388.131 12.3659 388.131C15.5316 388.229 19.5876 388.229 24.1383 388.327C28.6889 388.327 32.8439 388.032 35.8117 387.343C38.7795 386.852 40.5602 386.064 40.5602 386.163Z" fill="#263238"/>
<path d="M41.4505 386.851C41.4505 386.95 40.5602 386.458 39.1752 385.769C37.7902 385.179 35.6138 384.49 33.3385 384.785C31.0631 385.179 29.3814 386.655 28.2931 387.737C27.2049 388.819 26.6114 389.606 26.5125 389.508C26.5125 389.508 27.0071 388.622 27.9964 387.442C28.491 386.852 29.1835 386.163 30.0738 385.572C30.9642 384.982 32.0524 384.392 33.2395 384.195C35.7127 383.802 37.8891 384.687 39.2741 385.376C40.758 386.163 41.5494 386.851 41.4505 386.851Z" fill="#263238"/>
<path d="M69.3482 364.321C69.3482 364.321 98.4329 383.31 99.5211 384.097C101.104 385.277 99.3233 390.885 96.5533 389.902C95.2672 389.41 70.8321 382.719 68.1611 381.637C65.49 380.653 58.4662 374.849 58.4662 374.849L69.3482 364.321Z" fill="#153D59"/>
<path d="M77.955 379.276C77.856 379.276 78.3507 377.603 79.9335 376.128C81.5164 374.75 83.1981 374.357 83.1981 374.455C83.297 374.553 81.7142 375.144 80.2303 376.521C78.7464 377.898 78.0539 379.374 77.955 379.276Z" fill="#263238"/>
<path d="M75.3828 376.915C75.2839 376.915 75.7785 375.439 77.1635 374.061C78.4496 372.684 79.9335 372.094 80.0324 372.192C80.1313 372.291 78.8453 373.078 77.5592 374.357C76.1742 375.734 75.4817 377.013 75.3828 376.915Z" fill="#263238"/>
<path d="M72.7118 375.242C72.6129 375.242 72.7118 373.57 73.9979 372.094C75.2839 370.52 76.8668 370.028 76.8668 370.224C76.9657 370.323 75.5807 371.012 74.3936 372.487C73.2064 373.766 72.9097 375.34 72.7118 375.242Z" fill="#263238"/>
<path d="M74.4925 371.7C74.3936 371.7 74.7893 370.913 75.185 369.536C75.3828 368.847 75.4818 368.06 75.4818 367.174C75.4818 366.683 75.4818 366.289 75.4818 365.699C75.4818 365.502 75.3828 365.207 75.2839 365.108C75.185 365.01 75.086 364.912 74.8882 365.01C74.5914 365.108 74.3936 365.699 74.1957 366.191C74.0968 366.683 73.9978 367.076 73.8989 367.568C73.8 368.453 73.8989 369.339 73.9979 370.028C74.1957 371.405 74.4925 372.192 74.3936 372.291C74.2946 372.291 73.8989 371.503 73.6021 370.126C73.5032 369.437 73.3054 368.552 73.4043 367.568C73.4043 367.076 73.5032 366.584 73.7011 366.092C73.8 365.797 73.8989 365.6 73.9979 365.305C74.0968 365.01 74.2946 364.715 74.6903 364.616C74.9871 364.42 75.4818 364.518 75.6796 364.912C75.8775 365.207 75.8775 365.502 75.8775 365.797C75.8775 366.289 75.8775 366.781 75.8775 367.273C75.7785 368.257 75.5807 369.044 75.3828 369.732C74.9871 370.913 74.4925 371.7 74.4925 371.7Z" fill="#263238"/>
<path d="M74.4924 371.307C74.4924 371.405 73.8 371.011 72.6128 370.716C72.0193 370.618 71.3268 370.421 70.5353 370.421C70.1396 370.421 69.7439 370.421 69.3482 370.52C68.9525 370.618 68.6557 370.815 68.6557 371.208C68.6557 371.602 68.8536 371.897 69.1504 372.094C69.4471 372.29 69.8428 372.389 70.2386 372.487C71.03 372.586 71.7225 372.389 72.316 372.29C73.5032 371.995 74.1957 371.7 74.1957 371.7C74.1957 371.799 73.6021 372.192 72.415 372.586C71.8214 372.782 71.03 372.979 70.2386 372.881C69.8428 372.881 69.3482 372.782 68.9525 372.487C68.5568 372.192 68.1611 371.7 68.26 371.11C68.26 370.52 68.8536 370.028 69.3482 370.028C69.8428 369.929 70.2386 369.929 70.7332 369.929C71.5246 370.028 72.316 370.126 72.9096 370.323C73.8989 370.815 74.4924 371.307 74.4924 371.307Z" fill="#263238"/>
<path d="M92.7941 388.819C92.7941 388.819 92.2995 388.524 92.1016 387.737C91.9038 386.95 92.0027 385.671 92.6952 384.589C92.992 383.998 93.3877 383.605 93.6845 383.113C93.9812 382.719 94.3769 382.326 94.6737 382.031C94.9705 381.735 95.3662 381.637 95.5641 381.637C95.7619 381.637 95.9598 381.735 95.9598 381.735C95.9598 381.834 95.4652 381.735 94.8716 382.326C94.5748 382.621 94.278 382.916 94.0802 383.408C93.7834 383.802 93.4866 384.294 93.1898 384.785C92.5963 385.769 92.3984 386.852 92.5963 387.639C92.5963 388.327 92.893 388.721 92.7941 388.819Z" fill="#263238"/>
<path d="M82.4066 381.047C82.3077 381.047 82.3077 379.571 83.3959 378.292C84.4841 376.915 85.968 376.619 85.968 376.816C86.0669 376.915 84.7809 377.407 83.7916 378.686C82.8023 379.768 82.5055 381.047 82.4066 381.047Z" fill="#263238"/>
<path d="M61.434 375.931C61.434 375.931 61.9286 376.226 62.72 376.816C63.5114 377.407 64.6986 378.194 66.2814 378.981C67.8643 379.866 69.7439 380.653 72.0192 381.539C74.1956 382.326 76.6688 383.113 79.3399 383.9C84.583 385.376 89.3315 386.753 92.794 387.835C94.4758 388.327 95.7618 388.721 96.85 389.114C97.8393 389.41 98.334 389.606 98.334 389.606C98.334 389.606 97.7404 389.508 96.85 389.311C95.7618 389.016 94.3768 388.623 92.794 388.229C89.3315 387.245 84.583 385.966 79.3399 384.49C76.7677 383.703 74.1956 382.916 72.0192 382.129C69.8428 381.244 67.8643 380.358 66.2814 379.473C64.6986 378.587 63.5114 377.702 62.72 377.111C61.8297 376.324 61.434 375.931 61.434 375.931Z" fill="#263238"/>
<path d="M60.3458 376.226C60.3458 376.127 61.2362 375.832 62.819 375.537C64.4019 375.34 66.6772 375.144 68.9525 376.324C70.0407 376.915 70.9311 377.702 71.5246 378.587C72.1182 379.473 72.6128 380.26 72.9096 381.047C73.5032 382.523 73.8 383.408 73.701 383.408C73.6021 383.408 73.2064 382.523 72.5139 381.145C71.8214 379.768 70.7332 377.8 68.6557 376.816C66.5783 375.734 64.3029 375.832 62.819 375.931C61.3351 376.127 60.4448 376.324 60.3458 376.226Z" fill="#263238"/>
<path d="M137.608 213.988L139.488 252.26C139.785 258.754 134.64 264.263 128.012 264.263C121.879 264.263 116.833 259.442 116.537 253.441C116.438 250.588 116.24 248.128 116.24 247.833C116.24 247.833 106.446 247.439 105.259 237.798C104.665 233.173 104.27 223.532 104.072 214.775C103.775 205.429 110.799 197.361 120.197 196.377L121.087 196.279C131.277 195.689 137.311 203.953 137.608 213.988Z" fill="#FFB573"/>
<path d="M116.24 247.636C116.24 247.636 122.373 247.439 128.408 242.717C128.408 242.717 126.232 249.997 116.438 250.194L116.24 247.636Z" fill="#E69A57"/>
<path d="M107.139 220.679C107.238 221.367 107.831 221.958 108.623 221.958C109.414 221.958 110.007 221.269 109.909 220.58C109.81 219.891 109.216 219.301 108.425 219.301C107.633 219.4 107.04 219.99 107.139 220.679Z" fill="#263238"/>
<path d="M106.644 219.203C106.842 219.4 107.831 218.514 109.315 218.317C110.799 218.121 111.986 218.809 112.085 218.612C112.184 218.514 111.986 218.219 111.392 217.924C110.898 217.629 110.007 217.432 109.117 217.53C108.227 217.629 107.435 218.022 107.04 218.416C106.644 218.809 106.545 219.104 106.644 219.203Z" fill="#263238"/>
<path d="M121.681 219.498C121.78 220.187 122.373 220.777 123.165 220.777C123.956 220.777 124.55 220.088 124.451 219.399C124.352 218.711 123.758 218.12 122.967 218.12C122.176 218.12 121.681 218.711 121.681 219.498Z" fill="#263238"/>
<path d="M121.285 217.924C121.483 218.121 122.472 217.235 123.956 217.038C125.44 216.841 126.627 217.53 126.726 217.333C126.825 217.235 126.627 216.94 126.034 216.645C125.539 216.35 124.649 216.153 123.758 216.251C122.868 216.35 122.077 216.743 121.681 217.137C121.285 217.432 121.186 217.825 121.285 217.924Z" fill="#263238"/>
<path d="M117.13 229.435C117.13 229.336 116.141 229.336 114.657 229.238C114.261 229.238 113.866 229.238 113.767 228.943C113.668 228.648 113.767 228.254 113.866 227.762C114.162 226.778 114.36 225.795 114.657 224.811C115.745 220.58 116.537 217.038 116.339 217.038C116.141 217.038 115.152 220.383 114.064 224.712C113.767 225.795 113.569 226.778 113.272 227.762C113.173 228.254 112.975 228.746 113.272 229.238C113.371 229.533 113.668 229.73 113.965 229.73C114.261 229.73 114.459 229.73 114.657 229.73C116.141 229.632 117.13 229.533 117.13 229.435Z" fill="#263238"/>
<path d="M121.582 230.025C121.384 230.025 121.483 231.599 120.296 232.977C119.01 234.256 117.328 234.256 117.328 234.551C117.328 234.649 117.724 234.846 118.515 234.748C119.208 234.649 120.197 234.354 120.988 233.567C121.78 232.78 121.978 231.796 121.978 231.107C121.879 230.32 121.681 229.927 121.582 230.025Z" fill="#263238"/>
<path d="M120.197 212.119C120.395 212.513 121.879 212.119 123.659 212.217C125.44 212.217 126.924 212.513 127.122 212.119C127.221 211.922 126.924 211.627 126.331 211.234C125.737 210.938 124.748 210.643 123.758 210.643C122.67 210.643 121.78 210.938 121.186 211.234C120.494 211.627 120.197 211.922 120.197 212.119Z" fill="#263238"/>
<path d="M106.743 214.874C107.04 215.169 108.029 214.677 109.216 214.579C110.403 214.382 111.491 214.579 111.689 214.185C111.788 213.988 111.59 213.693 111.096 213.398C110.601 213.103 109.81 212.906 109.018 213.103C108.128 213.201 107.435 213.595 107.04 213.988C106.644 214.382 106.545 214.677 106.743 214.874Z" fill="#263238"/>
<path d="M137.608 221.171C137.806 221.072 144.039 218.514 144.533 225.106C145.028 231.698 138.301 230.812 138.301 230.714C138.202 230.517 137.608 221.171 137.608 221.171Z" fill="#FFB573"/>
<path d="M140.081 228.057C140.081 228.057 140.18 228.156 140.378 228.156C140.576 228.254 140.873 228.254 141.269 228.057C141.961 227.762 142.456 226.582 142.357 225.401C142.357 224.811 142.159 224.22 141.862 223.827C141.664 223.335 141.269 223.04 140.972 223.04C140.576 222.941 140.378 223.237 140.279 223.433C140.18 223.63 140.279 223.728 140.18 223.728C140.18 223.728 139.982 223.63 140.081 223.335C140.081 223.237 140.18 223.04 140.279 222.941C140.477 222.843 140.675 222.745 140.873 222.745C141.367 222.745 141.862 223.138 142.159 223.63C142.456 224.122 142.654 224.811 142.752 225.401C142.851 226.778 142.258 228.057 141.269 228.353C140.774 228.549 140.378 228.353 140.18 228.254C140.081 228.156 140.081 228.057 140.081 228.057Z" fill="#E59A57"/>
<path d="M141.269 220.58C140.279 220.482 138.598 221.564 138.301 222.548C138.004 223.532 138.004 224.614 137.707 225.598C137.41 226.582 136.52 227.566 135.432 227.369C134.739 227.27 134.146 226.68 133.849 225.991C133.552 225.303 133.552 224.614 133.552 223.827C133.552 220.679 133.948 217.629 133.651 214.48C133.453 211.332 132.662 208.184 130.683 205.724C128.804 203.264 125.539 201.69 122.472 202.28C120.395 202.674 118.713 203.953 116.636 204.445C114.261 205.035 111.59 204.445 109.711 202.969C109.513 202.772 108.326 202.182 108.326 202.182C108.326 201.985 108.326 200.608 108.82 200.116C112.481 195.984 119.603 194.114 125.143 194.902C130.683 195.689 136.025 198.837 138.894 203.559C141.862 208.38 141.961 215.366 141.269 220.58Z" fill="#153D59"/>
<path d="M33.1407 372.389C33.1407 372.389 104.566 325.754 107.534 324.77C110.502 323.787 117.526 319.162 124.55 321.13C131.574 323.098 138.004 329.395 141.17 338.544C144.335 347.793 144.533 368.355 144.533 368.355C144.533 368.355 138.894 384.589 127.913 388.032C127.023 388.327 126.034 388.524 125.044 388.721C111.689 391.377 98.0372 385.278 90.5187 373.865L88.9359 371.405C88.9359 371.405 42.2421 388.524 41.4507 388.229L33.1407 372.389Z" fill="#72B9ED"/>
<path d="M8.8045 317.982C8.8045 317.982 0.0988763 321.13 -5.12576e-05 330.87C-0.0989788 349.564 37.8892 370.126 37.8892 370.126L88.4412 336.773V333.232C88.4412 333.33 23.4458 310.013 8.8045 317.982Z" fill="#72B9ED"/>
<path d="M121.483 359.599C121.483 359.599 121.384 359.697 121.087 359.796C120.791 359.894 120.395 360.091 119.9 360.288C118.812 360.681 117.328 361.271 115.35 362.059C111.392 363.534 105.655 365.699 98.5318 368.355C91.4091 371.012 82.8024 374.16 73.2064 377.603C63.6104 381.047 52.9262 384.884 41.5496 388.721L41.3517 388.819L41.2528 388.623C39.4721 385.278 37.5924 381.637 35.7128 377.997C34.7235 376.128 33.7343 374.258 32.8439 372.586L32.745 372.389L32.9429 372.291C54.4101 358.713 73.6021 346.612 87.452 337.856C94.3769 333.527 99.9168 329.985 103.775 327.624C105.655 326.443 107.139 325.459 108.227 324.869C108.721 324.574 109.117 324.377 109.414 324.18C109.711 323.983 109.81 323.983 109.81 323.983C109.81 323.983 109.711 324.082 109.414 324.279C109.117 324.475 108.721 324.672 108.326 325.066C107.336 325.754 105.852 326.64 103.973 327.919C100.115 330.378 94.5747 333.92 87.6498 338.348C73.7999 347.104 54.7069 359.304 33.2396 372.881L33.3386 372.586C34.2289 374.258 35.2182 376.128 36.2075 377.997C38.0871 381.637 39.9667 385.179 41.7474 388.623L41.4506 388.524C52.8273 384.687 63.5115 380.949 73.1075 377.505C82.7034 374.062 91.3101 370.913 98.4329 368.355C105.556 365.699 111.293 363.633 115.35 362.157C117.328 361.468 118.812 360.878 119.9 360.484C120.395 360.288 120.791 360.189 121.087 360.091C121.384 359.599 121.483 359.599 121.483 359.599Z" fill="#455A64"/>
<path d="M62.9179 353.597C62.9179 353.597 62.4232 353.302 61.6318 352.712C60.8404 352.122 59.6533 351.236 58.1693 350.154C55.3004 347.891 51.3433 344.743 47.0894 341.201C42.8356 337.561 39.0763 334.215 36.5042 331.657C35.2181 330.378 34.1299 329.395 33.4374 328.608C32.745 327.919 32.3492 327.427 32.3492 327.427C32.3492 327.427 32.8439 327.722 33.5364 328.411C34.3278 329.198 35.416 330.083 36.7021 331.264C39.3731 333.724 43.1323 337.069 47.3862 340.709C51.6401 344.349 55.4983 347.498 58.3672 349.859C59.7522 350.941 60.8404 351.925 61.7307 352.614C62.4232 353.204 62.9179 353.597 62.9179 353.597Z" fill="#455A64"/>
<path d="M23.05 324.967C23.05 324.869 25.3254 324.574 27.8975 325.361C30.5685 326.148 32.3492 327.525 32.2503 327.624C32.1514 327.722 30.3707 326.541 27.7986 325.853C25.2265 325.164 23.05 325.164 23.05 324.967Z" fill="#455A64"/>
<path d="M27.4029 322.016C27.4029 321.917 29.0847 322.606 30.3707 324.279C31.7557 325.951 32.0525 327.624 31.9536 327.624C31.8546 327.722 31.2611 326.148 29.975 324.574C28.7879 323.098 27.304 322.212 27.4029 322.016Z" fill="#455A64"/>
<path d="M6.03455 381.145C6.03455 381.047 6.62811 380.949 7.32061 381.539C8.0131 382.129 8.60666 383.211 8.80452 384.49C9.00238 385.769 8.70559 386.95 8.30988 387.737C7.91417 388.524 7.51846 388.819 7.51846 388.819C7.41953 388.819 7.71632 388.327 8.0131 387.639C8.30988 386.852 8.50774 385.769 8.30988 384.589C8.11203 383.408 7.61739 382.424 7.12275 381.834C6.52919 381.244 5.93562 381.244 6.03455 381.145Z" fill="#263238"/>
</g>
<path d="M399.502 261.237C395.466 257.321 390.262 252.558 384.101 254.252C378.26 255.839 376.03 262.19 375.074 267.376C373.693 274.15 372.737 281.03 371.569 287.804C370.507 294.683 369.445 301.563 368.489 308.549C367.958 312.465 367.321 316.381 366.79 320.191C366.471 322.097 366.258 324.107 365.94 326.013C365.621 327.918 365.303 329.823 365.196 331.728C365.196 332.363 366.152 332.469 366.258 331.834C367.002 328.553 367.321 325.166 367.745 321.885C368.276 318.604 368.701 315.217 369.232 311.936C370.188 305.373 371.25 298.705 372.206 292.143C373.162 285.581 374.224 279.019 375.286 272.351C376.136 266.741 376.561 259.861 381.552 256.157C384.314 254.146 387.713 254.146 390.793 255.31C394.085 256.58 396.634 258.909 399.183 261.237C399.502 261.449 399.608 261.343 399.502 261.237Z" fill="#72B9ED"/>
<path d="M393.979 257.215C393.979 257.215 385.695 254.252 381.659 260.285C377.623 266.318 382.402 281.559 420 290.132C420 290.132 419.044 273.833 410.972 256.263C402.9 238.799 388.562 245.467 393.979 257.215Z" fill="#153D59"/>
<path d="M417.876 287.698C417.345 286.639 416.601 285.687 415.964 284.628C415.327 283.676 414.69 282.723 414.052 281.771C413.521 281.03 413.096 280.289 412.565 279.654C412.565 279.442 412.565 279.336 412.672 279.125C412.672 278.807 412.778 278.489 412.778 278.172C412.884 277.431 412.99 276.796 413.096 276.055C413.203 275.314 413.309 274.679 413.415 273.938C413.521 273.197 413.627 272.351 413.946 271.716C413.946 271.61 413.84 271.504 413.734 271.716C413.734 272.139 413.521 272.562 413.415 272.986C413.309 273.303 413.203 273.621 413.203 273.938C412.99 274.679 412.884 275.314 412.672 276.055C412.565 276.69 412.353 277.325 412.247 278.066C412.14 278.384 412.14 278.701 412.14 279.019C411.503 278.066 410.76 277.114 410.123 276.161C408.105 273.515 405.98 270.975 403.856 268.54C403.856 268.54 403.856 268.54 403.856 268.434C404.069 264.518 403.962 260.602 404.812 256.792C404.812 256.686 404.706 256.58 404.6 256.686C403.75 260.285 403.007 264.095 403.219 267.905C402.476 267.059 401.626 266.212 400.882 265.259C399.077 263.248 397.165 261.343 395.253 259.438C395.147 259.332 395.041 259.438 395.147 259.544C398.333 262.931 401.307 266.423 404.281 270.022C402.051 269.916 399.714 270.128 397.378 270.234C394.829 270.445 392.28 270.763 389.731 271.081C389.624 271.081 389.624 271.292 389.731 271.292C392.28 270.869 394.829 270.763 397.271 270.657C399.714 270.551 402.157 270.657 404.6 270.657C406.193 272.562 407.786 274.573 409.273 276.584C409.167 276.584 409.06 276.584 408.954 276.584C408.423 276.584 407.786 276.584 407.255 276.584C406.087 276.584 404.918 276.69 403.856 276.796C401.52 277.008 399.183 277.325 396.953 277.854C396.846 277.854 396.846 278.066 396.953 278.066C399.289 277.854 401.52 277.643 403.856 277.537C404.918 277.537 406.087 277.537 407.149 277.537C407.68 277.537 408.317 277.537 408.848 277.537C409.167 277.537 409.485 277.537 409.804 277.431C410.866 278.701 411.822 280.077 412.778 281.347C413.627 282.406 414.371 283.464 415.114 284.522C415.858 285.581 416.601 286.745 417.451 287.804C417.77 287.804 417.876 287.698 417.876 287.698Z" fill="#72B9ED"/>
<path d="M397.59 265.788C396.315 265.577 394.935 265.577 393.554 265.577C392.173 265.577 390.899 265.577 389.518 265.683C389.412 265.683 389.412 265.894 389.518 265.894C390.899 265.788 392.28 265.788 393.554 265.788C394.935 265.788 396.315 265.894 397.59 265.788Z" fill="#72B9ED"/>
<path d="M409.379 268.752C409.485 267.482 409.698 266.212 410.016 264.942C410.016 264.836 409.91 264.836 409.804 264.942C409.592 266.212 409.379 267.482 409.167 268.752C409.061 269.387 408.954 270.022 408.954 270.657C408.848 271.186 408.742 271.822 408.848 272.457C408.848 272.562 409.061 272.562 409.061 272.457C409.167 271.927 409.167 271.292 409.273 270.657C409.273 270.022 409.273 269.387 409.379 268.752Z" fill="#72B9ED"/>
<path d="M406.936 254.569C406.618 255.839 406.299 257.109 406.087 258.38C405.98 259.015 405.874 259.65 405.768 260.285C405.662 260.92 405.556 261.555 405.662 262.19C405.662 262.19 405.768 262.296 405.768 262.19C405.98 261.661 405.98 261.026 406.087 260.391C406.193 259.756 406.299 259.12 406.405 258.485C406.618 257.215 406.83 255.839 407.149 254.569C407.043 254.569 406.936 254.463 406.936 254.569Z" fill="#72B9ED"/>
<path d="M357.974 330.458C357.762 328.129 357.549 325.801 357.337 323.367C356.806 318.71 356.275 314.053 355.638 309.395C355 304.738 354.363 300.081 353.62 295.53C353.301 293.413 352.876 291.296 352.239 289.18C351.602 287.486 350.54 285.899 348.734 285.263C344.273 283.782 341.299 288.333 339.6 291.508C339.494 291.614 339.706 291.72 339.706 291.614C340.768 290.132 343.742 285.793 347.035 286.004C349.265 286.11 351.071 287.698 352.133 293.307C354.788 307.279 357.231 335.644 357.549 337.444C357.656 338.396 358.399 338.396 358.399 337.338C358.505 335.115 358.187 332.787 357.974 330.458Z" fill="#72B9ED"/>
<path d="M340.768 289.921C340.768 289.921 344.592 276.373 336.095 283.147C321.863 294.472 321.332 319.027 321.332 319.027C321.332 319.027 346.61 304.421 349.69 294.789C354.469 280.395 340.768 289.921 340.768 289.921Z" fill="#153D59"/>
<path d="M345.548 296.589C343.53 297.012 341.512 297.224 339.6 297.541C338.644 297.647 337.689 297.859 336.733 297.965C336.095 298.07 335.458 298.07 334.821 298.176C336.733 295.636 338.644 292.99 340.45 290.344C340.556 290.238 340.344 290.132 340.238 290.238C338.751 291.72 337.37 293.413 335.989 295.107C335.671 294.048 335.246 292.99 334.821 291.932C334.396 290.767 333.971 289.497 333.653 288.227C333.653 288.121 333.44 288.121 333.44 288.227C333.759 289.497 334.077 290.767 334.396 292.037C334.715 293.202 335.033 294.472 335.564 295.636C334.608 296.8 333.759 298.07 332.909 299.34C332.484 298.07 331.953 296.906 331.528 295.636C331.528 295.53 331.316 295.53 331.316 295.636C331.741 297.012 332.059 298.494 332.484 299.87C331.953 300.716 331.316 301.563 330.785 302.41C329.723 303.998 328.767 305.585 327.811 307.173C327.705 307.279 327.599 307.384 327.599 307.596C326.006 310.348 324.519 313.1 323.032 315.958C323.032 316.064 323.138 316.169 323.138 316.064C324.625 313.312 326.324 310.56 328.024 307.914C328.236 307.808 328.661 307.808 328.873 307.702C329.192 307.596 329.404 307.596 329.723 307.49C330.36 307.384 330.997 307.173 331.635 307.067C332.909 306.749 334.184 306.432 335.458 306.22C335.564 306.22 335.564 306.009 335.458 306.009C333.971 306.326 332.378 306.432 330.891 306.644C330.148 306.749 329.404 306.855 328.661 306.961H328.555C329.51 305.585 330.36 304.209 331.316 302.833C332.272 301.457 333.228 300.187 334.077 298.917C334.927 298.811 335.777 298.6 336.733 298.388C337.689 298.176 338.644 297.965 339.706 297.859C341.618 297.435 343.636 297.012 345.548 296.694C345.654 296.694 345.654 296.589 345.548 296.589Z" fill="#72B9ED"/>
<path d="M330.36 297.859C330.254 297.541 330.148 297.118 330.041 296.8C329.829 296.059 329.617 295.318 329.51 294.472C329.51 294.366 329.298 294.366 329.298 294.472C329.51 295.213 329.617 295.953 329.829 296.8C330.041 297.541 330.148 298.388 330.466 299.023C330.572 299.235 330.785 299.129 330.785 298.917C330.572 298.705 330.466 298.282 330.36 297.859Z" fill="#72B9ED"/>
<path d="M348.097 293.413C346.929 293.625 345.76 293.625 344.592 293.731C343.424 293.837 342.255 293.943 341.087 294.154C340.981 294.154 340.981 294.26 341.087 294.26C342.255 294.154 343.424 294.048 344.592 293.943C345.76 293.837 346.929 293.625 348.097 293.519C348.203 293.625 348.203 293.413 348.097 293.413Z" fill="#72B9ED"/>
<path d="M376.561 313.312C376.136 303.257 375.498 293.307 374.436 283.358C373.905 278.384 373.374 273.409 372.631 268.54C371.994 263.672 371.144 258.909 369.763 254.146C368.701 250.547 367.32 246.949 364.984 243.985C362.647 241.127 359.142 239.328 355.319 239.751C350.964 240.281 347.353 243.033 344.379 245.996C340.981 249.383 337.794 252.982 334.608 256.58C333.759 257.533 333.015 258.38 332.165 259.332C332.059 259.438 332.165 259.544 332.272 259.438C335.352 255.839 338.644 252.452 341.937 249.066C345.017 245.996 348.309 242.715 352.557 241.445C354.575 240.81 356.7 240.704 358.718 241.339C360.311 241.868 361.798 242.821 362.966 243.985C365.409 246.525 366.789 249.912 367.745 253.193C370.4 262.402 371.463 272.033 372.418 281.559C373.481 291.191 374.118 300.928 374.649 310.56C375.18 320.297 375.498 330.035 376.454 339.772C376.561 340.936 376.773 342.206 376.879 343.371C376.985 344.217 378.26 344.217 378.154 343.371C377.516 333.422 377.092 323.367 376.561 313.312Z" fill="#72B9ED"/>
<path d="M343.848 247.16C343.848 247.16 349.584 236.576 342.786 233.189C335.989 229.802 313.367 254.993 306.675 291.932C306.675 291.932 343.317 275.738 355.744 259.65C368.17 243.562 354.044 239.963 343.848 247.16Z" fill="#153D59"/>
<path d="M349.159 255.734C345.017 255.734 340.981 255.416 336.839 255.416C337.582 254.569 338.325 253.617 339.175 252.77C340.237 251.606 341.512 250.336 342.361 249.065C342.468 248.96 342.255 248.854 342.255 248.96C341.087 249.806 340.131 250.971 339.175 252.029C338.113 253.087 337.157 254.252 336.095 255.31C334.502 257.004 333.015 258.697 331.422 260.496C331.422 260.285 331.422 260.179 331.422 259.967C331.422 259.226 331.422 258.485 331.422 257.85C331.422 256.474 331.422 255.098 331.422 253.723C331.422 250.865 331.422 248.113 331.634 245.255C331.634 245.149 331.422 245.149 331.422 245.255C331.209 248.113 330.891 250.865 330.785 253.723C330.678 255.098 330.678 256.474 330.678 257.85C330.678 258.591 330.678 259.332 330.678 259.967C330.678 260.391 330.678 260.814 330.678 261.131C330.466 261.449 330.147 261.661 329.935 261.978C326.643 265.683 323.562 269.599 320.482 273.515C320.482 273.303 320.482 273.092 320.376 272.88C320.376 272.457 320.27 272.033 320.27 271.61C320.164 270.657 320.058 269.705 319.845 268.752C319.739 267.905 319.527 266.953 319.42 266.106C319.208 265.153 318.996 264.095 318.889 263.142C318.889 263.037 318.677 263.037 318.677 263.142C318.889 264.095 318.889 265.153 318.996 266.106C319.102 267.059 319.208 267.905 319.208 268.858C319.314 269.811 319.42 270.657 319.42 271.61C319.42 272.033 319.527 272.457 319.527 272.88C319.527 273.092 319.527 273.303 319.633 273.515C319.633 273.832 319.739 273.832 319.845 274.044C319.314 274.679 318.783 275.42 318.252 276.055C316.128 278.807 314.11 281.559 312.092 284.311C311.986 284.417 312.198 284.523 312.198 284.417C314.11 281.876 316.128 279.442 318.146 277.008C319.633 277.114 321.226 277.008 322.713 276.902C324.306 276.902 325.899 276.902 327.492 276.902C327.598 276.902 327.598 276.69 327.492 276.69C325.899 276.69 324.306 276.69 322.713 276.796C321.226 276.796 319.739 276.69 318.358 276.796C320.164 274.679 321.969 272.562 323.669 270.446C324.306 269.705 324.943 268.858 325.687 268.117C326.324 268.223 326.961 268.223 327.492 268.223C328.236 268.223 328.979 268.223 329.616 268.223C330.997 268.223 332.272 268.223 333.652 268.117C336.414 268.117 339.281 268.011 342.043 268.011C342.149 268.011 342.149 267.8 342.043 267.8C339.281 267.8 336.414 267.694 333.652 267.588C332.272 267.588 330.997 267.482 329.616 267.482C328.873 267.482 328.129 267.482 327.492 267.482C327.067 267.482 326.643 267.482 326.218 267.482C327.705 265.683 329.298 263.883 330.785 262.084L330.891 261.978C332.378 260.179 333.865 258.485 335.458 256.686C335.67 256.474 335.883 256.263 336.095 255.945C340.343 256.051 344.592 255.839 348.84 255.839C349.265 255.945 349.265 255.734 349.159 255.734Z" fill="#72B9ED"/>
<path d="M347.035 262.931C346.716 262.931 346.397 262.931 346.079 262.931C345.973 262.931 345.973 263.037 346.079 263.037C346.397 263.037 346.716 263.037 347.035 263.037C347.247 263.143 347.141 262.931 347.035 262.931Z" fill="#72B9ED"/>
<path d="M344.91 263.037C343.636 263.037 342.255 263.037 340.981 262.931C340.343 262.931 339.706 262.931 338.963 262.825C338.325 262.825 337.688 262.719 337.157 262.825C337.051 262.825 337.157 262.931 337.157 262.931C337.688 263.142 338.432 263.037 338.963 263.037C339.6 263.037 340.237 263.037 340.981 263.037C342.255 263.037 343.636 263.037 344.91 263.037C345.017 263.037 345.017 263.142 344.91 263.037Z" fill="#72B9ED"/>
<path d="M333.334 275.314C330.679 274.891 327.917 274.573 325.262 274.573V274.679C327.917 274.891 330.679 275.103 333.334 275.526C333.44 275.526 333.44 275.314 333.334 275.314Z" fill="#72B9ED"/>
<path d="M322.394 263.566C322.394 263.354 322.288 263.142 322.288 262.825C322.182 262.296 322.182 261.766 322.075 261.237C321.969 260.285 321.757 259.226 321.544 258.274C321.544 258.168 321.332 258.168 321.332 258.274C321.438 259.332 321.544 260.285 321.651 261.343C321.651 261.872 321.757 262.402 321.757 262.825C321.757 263.248 321.757 263.883 321.969 264.307C322.075 264.413 322.288 264.413 322.288 264.201C322.394 264.095 322.394 263.777 322.394 263.566Z" fill="#72B9ED"/>
<path d="M376.242 233.507C374.967 231.072 373.268 227.897 369.976 228.109C367.32 228.32 366.046 231.072 365.515 233.295C363.709 240.281 363.603 247.69 363.284 254.887C362.541 270.128 361.904 285.369 361.798 300.505C361.798 304.738 361.798 308.972 361.798 313.206C361.798 317.545 361.798 321.885 362.116 326.118C362.116 326.542 362.753 326.542 362.753 326.118C362.753 322.414 362.647 318.71 362.647 315.111C362.647 311.512 362.647 307.914 362.753 304.315C362.86 297.012 363.072 289.709 363.391 282.512C363.709 275.314 364.028 268.011 364.24 260.814C364.347 257.215 364.559 253.617 364.665 250.018C364.771 246.525 364.984 243.033 365.409 239.54C365.621 237.635 365.94 235.624 366.365 233.718C366.683 232.342 367.108 230.861 368.064 229.802C369.338 228.426 371.356 228.532 372.843 229.485C374.436 230.437 375.392 232.131 376.242 233.718C376.136 233.718 376.242 233.613 376.242 233.507Z" fill="#72B9ED"/>
<path d="M375.392 232.343C375.392 232.343 372.737 222.923 378.685 227.58C388.562 235.412 388.881 252.558 388.881 252.558C388.881 252.558 371.25 242.398 369.126 235.624C365.833 225.78 375.392 232.343 375.392 232.343Z" fill="#153D59"/>
<path d="M385.163 245.679C384.951 245.467 384.845 245.149 384.632 244.938C384.632 244.726 384.632 244.408 384.632 244.091C384.632 243.668 384.632 243.244 384.632 242.821C384.632 241.974 384.632 241.233 384.739 240.386C384.739 240.281 384.526 240.281 384.526 240.386C384.526 241.127 384.42 241.974 384.42 242.715C384.42 243.138 384.42 243.456 384.42 243.879C384.42 243.985 384.42 244.197 384.42 244.408C383.677 243.35 383.039 242.292 382.296 241.233C382.083 240.916 381.871 240.598 381.659 240.386C381.446 239.328 381.552 238.27 381.659 237.317C381.659 236.259 381.659 235.094 381.765 234.036C381.765 233.93 381.552 233.93 381.552 234.036C381.552 235.2 381.446 236.364 381.446 237.423C381.446 238.27 381.34 239.011 381.34 239.857C379.641 237.529 377.835 235.306 376.03 233.083C375.923 232.978 375.817 233.083 375.923 233.189C377.092 234.565 378.154 236.047 379.216 237.529C377.198 237 375.074 236.788 372.949 236.47C372.843 236.47 372.843 236.576 372.949 236.682C375.18 237 377.41 237.529 379.534 238.058C380.384 239.222 381.234 240.386 382.083 241.657C382.402 242.186 382.721 242.609 383.039 243.138H382.933C382.721 243.138 382.508 243.033 382.296 243.033C381.765 242.927 381.34 242.927 380.809 242.927C379.747 242.821 378.791 242.821 377.729 242.715C377.623 242.715 377.623 242.927 377.729 242.927C378.685 242.927 379.747 243.033 380.703 243.138C381.234 243.244 381.765 243.244 382.296 243.35C382.508 243.35 382.721 243.456 382.933 243.456C383.039 243.456 383.039 243.456 383.145 243.456C383.677 244.303 384.314 245.149 384.845 245.89C385.801 247.372 386.757 248.96 387.819 250.336C387.925 250.441 388.031 250.336 387.925 250.23C387.075 248.642 386.119 247.16 385.163 245.679Z" fill="#72B9ED"/>
<path d="M380.809 234.989C380.809 234.671 380.809 234.248 380.809 233.93C380.809 233.189 380.809 232.342 380.915 231.602C380.915 231.496 380.703 231.496 380.703 231.602C380.703 232.342 380.596 233.083 380.596 233.93C380.596 234.353 380.596 234.671 380.596 235.094C380.596 235.306 380.596 235.412 380.596 235.624C380.596 235.835 380.596 236.047 380.596 236.153C380.596 236.259 380.703 236.259 380.703 236.153C380.703 235.941 380.703 235.835 380.703 235.624C380.809 235.306 380.809 235.2 380.809 234.989Z" fill="#72B9ED"/>
<path d="M378.578 238.905C377.941 238.799 377.304 238.799 376.56 238.693C375.817 238.587 375.074 238.587 374.436 238.481C374.33 238.481 374.33 238.587 374.436 238.693C375.817 238.799 377.198 239.011 378.578 239.116C378.685 239.011 378.685 238.905 378.578 238.905Z" fill="#72B9ED"/>
<path d="M384.101 238.905C384.101 239.011 384.101 239.222 384.101 239.222V239.54C384.101 239.752 384.101 239.963 384.101 240.175C384.101 240.387 384.101 240.598 384.101 240.81C384.101 241.022 384.101 241.233 384.101 241.339H384.208C384.208 241.233 384.208 241.127 384.208 241.022C384.208 240.916 384.208 240.81 384.208 240.704C384.208 240.492 384.208 240.281 384.208 240.069C384.208 239.857 384.208 239.646 384.208 239.434V239.116C384.208 239.011 384.208 238.799 384.208 238.799C384.42 238.799 383.995 238.799 384.101 238.905Z" fill="#263238"/>
<path d="M376.667 284.099C372.949 281.347 369.657 277.325 364.665 277.114C360.523 276.902 357.655 280.077 356.062 283.464C355.213 285.263 354.575 287.169 354.044 289.074C353.301 291.614 352.557 294.26 351.92 296.906C350.646 302.092 349.477 307.279 348.628 312.465C348.097 315.428 347.672 318.286 347.247 321.25C346.822 324.213 346.397 327.283 346.397 330.246C346.397 330.776 347.247 330.881 347.353 330.352C347.884 327.918 348.097 325.378 348.415 322.943C348.734 320.403 349.159 317.969 349.584 315.428C350.433 310.454 351.389 305.479 352.557 300.611C353.62 295.954 354.682 291.296 356.169 286.745C357.231 283.464 358.93 279.76 362.435 278.595C367.745 276.796 372.631 281.347 376.561 284.205C376.561 284.205 376.773 284.099 376.667 284.099Z" fill="#72B9ED"/>
<path d="M372.843 281.453C372.843 281.453 369.445 271.716 374.33 269.811C381.765 266.953 401.095 288.65 397.271 321.991C397.271 321.991 382.296 313.735 371.25 304.527C360.204 295.319 357.337 283.253 362.222 280.077C367.108 277.008 372.843 281.453 372.843 281.453Z" fill="#153D59"/>
<path d="M395.041 314.793C394.616 313.629 393.872 312.571 393.235 311.406C392.598 310.242 391.961 309.184 391.323 308.02C390.049 305.797 388.774 303.68 387.394 301.457C387.181 301.14 386.969 300.716 386.756 300.399C386.756 300.293 386.756 300.187 386.863 299.976C386.969 299.658 386.969 299.34 387.075 299.023C387.287 298.282 387.394 297.541 387.5 296.8C387.819 295.424 388.031 293.943 388.35 292.567C388.35 292.461 388.243 292.461 388.137 292.567C387.819 293.943 387.394 295.424 386.969 296.8C386.756 297.435 386.544 298.176 386.332 298.811C386.225 299.023 386.225 299.235 386.119 299.552C384.526 296.906 382.933 294.366 381.127 291.826C381.234 291.508 381.234 291.085 381.34 290.767C381.34 290.238 381.446 289.815 381.552 289.285C381.658 288.227 381.765 287.063 381.977 286.004C382.296 283.888 382.614 281.771 383.145 279.654C383.145 279.548 383.039 279.548 382.933 279.654C382.402 281.771 381.871 283.888 381.446 286.004C381.234 287.063 381.021 288.121 380.915 289.18C380.809 289.709 380.809 290.238 380.703 290.767C380.703 290.873 380.703 291.085 380.596 291.296C380.065 290.556 379.534 289.815 379.003 289.074C377.304 286.851 375.498 284.628 373.693 282.512C373.587 282.406 373.48 282.512 373.587 282.617C376.773 286.428 379.322 290.661 381.977 294.895C382.508 295.636 382.933 296.483 383.464 297.224C383.252 297.224 383.145 297.224 382.933 297.118C382.296 297.012 381.658 297.012 381.021 296.906C379.747 296.8 378.472 296.694 377.198 296.589C374.649 296.377 372.206 296.271 369.657 295.954C369.551 295.954 369.551 296.059 369.657 296.165C372.206 296.483 374.755 296.906 377.304 297.224C378.578 297.435 379.747 297.541 381.021 297.753C381.871 297.859 382.933 298.07 383.889 298.07C384.845 299.658 385.907 301.246 386.863 302.833C386.65 302.833 386.438 302.833 386.225 302.833C385.801 302.833 385.376 302.833 384.951 302.833C384.207 302.833 383.358 302.833 382.614 302.833C381.021 302.833 379.322 302.833 377.729 302.833C377.623 302.833 377.623 303.045 377.729 303.045C379.322 303.045 381.021 303.151 382.614 303.257C383.358 303.257 384.207 303.362 384.951 303.362C385.376 303.362 385.694 303.468 386.119 303.468C386.438 303.468 386.863 303.574 387.181 303.468C388.031 304.844 388.881 306.22 389.73 307.596C390.474 308.866 391.323 310.136 392.067 311.301C392.917 312.571 393.66 313.947 394.616 315.111C394.934 315.005 395.147 314.899 395.041 314.793Z" fill="#72B9ED"/>
<path d="M387.925 287.909C387.818 288.968 387.5 290.026 387.287 291.085C386.969 292.143 386.65 293.202 386.331 294.26C386.331 294.366 386.438 294.472 386.544 294.366C386.863 293.307 387.181 292.249 387.394 291.191C387.606 290.132 387.818 289.074 388.031 288.015C388.137 287.804 387.925 287.804 387.925 287.909Z" fill="#72B9ED"/>
<path d="M376.985 294.366C376.773 294.154 376.454 294.154 376.136 294.048C375.711 293.943 375.18 293.943 374.755 293.837C373.905 293.731 373.056 293.625 372.1 293.519C370.294 293.308 368.489 293.096 366.683 292.884C366.577 292.884 366.577 292.99 366.683 293.096C368.382 293.308 370.082 293.519 371.781 293.837C372.631 293.943 373.48 294.048 374.33 294.154C374.755 294.154 375.18 294.26 375.498 294.26C375.923 294.26 376.454 294.26 376.879 294.472C376.985 294.578 376.985 294.472 376.985 294.366Z" fill="#72B9ED"/>
<path d="M387.925 309.078C387.075 308.972 386.225 308.972 385.376 308.972C384.951 308.972 384.526 308.972 384.101 308.972C383.889 308.972 383.676 308.972 383.464 308.972C383.252 308.972 382.933 308.972 382.614 308.972C382.508 308.972 382.508 309.184 382.614 309.184C382.827 309.184 383.145 309.184 383.358 309.184C383.57 309.184 383.783 309.184 383.995 309.184C384.42 309.184 384.845 309.184 385.27 309.29C386.119 309.29 386.969 309.395 387.819 309.395C388.031 309.184 388.031 309.078 387.925 309.078Z" fill="#72B9ED"/>
<path d="M393.129 305.373C393.235 304.844 393.341 304.421 393.448 303.892C393.66 302.939 393.766 301.987 393.979 301.034C393.979 300.928 393.872 300.928 393.766 301.034C393.554 301.987 393.341 302.939 393.129 303.786C393.023 304.209 392.917 304.738 392.81 305.162C392.81 305.373 392.704 305.585 392.704 305.797C392.704 306.009 392.598 306.22 392.598 306.432C392.598 306.538 392.704 306.538 392.81 306.538C393.129 306.22 393.129 305.691 393.129 305.373Z" fill="#72B9ED"/>
<path d="M342.574 326.542L343.636 338.29L347.141 378.087H378.472L382.827 338.29L384.208 326.542H342.574Z" fill="#455A64"/>
<path d="M342.574 326.542L343.636 338.29H382.827L384.208 326.542H342.574Z" fill="#263238"/>
<path d="M339.426 332.871H387.22V323.346H339.426V332.871Z" fill="#455A64"/>
<defs>
<clipPath id="clip0_468_250">
<rect width="118.317" height="159.975" fill="white" transform="translate(10.8821 43.2896)"/>
</clipPath>
<clipPath id="clip1_468_250">
<rect width="141.367" height="69.8537" fill="white" transform="translate(133.552 94.4501)"/>
</clipPath>
<clipPath id="clip2_468_250">
<rect width="126.429" height="34.2381" fill="white" transform="translate(141.466 174.142)"/>
</clipPath>
<clipPath id="clip3_468_250">
<rect width="208.539" height="195.197" fill="white" transform="translate(0 194.803)"/>
</clipPath>
</defs>
</svg>
