<?xml version="1.0" encoding="UTF-8" standalone="no"?>
<svg
   id="Слой_1"
   data-name="Слой 1"
   viewBox="0 0 508.75 161.43"
   version="1.1"
   sodipodi:docname="taskezy_1.svg"
   inkscape:version="1.1.2 (b8e25be833, 2022-02-05)"
   xmlns:inkscape="http://www.inkscape.org/namespaces/inkscape"
   xmlns:sodipodi="http://sodipodi.sourceforge.net/DTD/sodipodi-0.dtd"
   xmlns="http://www.w3.org/2000/svg"
   xmlns:svg="http://www.w3.org/2000/svg">
  <sodipodi:namedview
     id="namedview23"
     pagecolor="#ffffff"
     bordercolor="#666666"
     borderopacity="1.0"
     inkscape:pageshadow="2"
     inkscape:pageopacity="0.0"
     inkscape:pagecheckerboard="0"
     showgrid="false"
     inkscape:zoom="3.2275184"
     inkscape:cx="254.22008"
     inkscape:cy="81.022001"
     inkscape:window-width="3840"
     inkscape:window-height="2036"
     inkscape:window-x="-12"
     inkscape:window-y="-12"
     inkscape:window-maximized="1"
     inkscape:current-layer="Слой_1" />
  <defs
     id="defs4">
    <style
       id="style2">.cls-1{fill:#2593d1;}.cls-2{fill:#fff;}</style>
  </defs>
  <g
     id="g33"
     transform="matrix(1.1103976,0,0,1.1103976,-12.924476,-17.503684)">
    <path
       class="cls-1"
       d="M 53.27,95.67 15.56,95.53 h -2.33 v -2.36 -9.12 -2.33 h 2.35 L 53.3,81.8 h 2.34 v 2.35 9.18 2.34 z M 60.63,76.92 H 27.46 25.13 V 62.72 H 63 v 2.35 9.52 2.35 z m 15.12,20.51 a 11.27,11.27 0 0 1 -5.62,-10.25 11.62,11.62 0 0 1 1.63,-6 v 0 a 11.52,11.52 0 0 1 4.54,-4.31 9,9 0 0 1 5.79,-1.25 1.81,1.81 0 0 0 1.56,-0.5 v 0 l 16,-13.39 1.26,-1 1.41,0.82 a 10.57,10.57 0 0 1 1.6,1.17 v 0 a 8.26,8.26 0 0 1 1.31,1.45 l 0.88,1.29 -0.86,1.31 -10.72,16.44 v 0 c -1.07,1.58 -1.06,1.7 -1,1.89 v 0 a 9.26,9.26 0 0 1 0.06,4.32 11.16,11.16 0 0 1 -7.38,8.89 12.74,12.74 0 0 1 -5.3,0.68 12.3,12.3 0 0 1 -5.16,-1.56 z m -14.1,-40.51 0.39,-0.16 h 0.5 l 1,-0.25 0.74,-0.39 c 0.4,-0.22 0.92,-0.5 1.55,-0.81 A 77.4,77.4 0 0 1 74,53 a 34.67,34.67 0 0 1 11.32,-0.71 36,36 0 0 1 11.09,2.91 34.82,34.82 0 0 1 15.1,12.74 v 0 l 0.2,0.29 v 0 0 a 34.26,34.26 0 0 1 2.33,4.34 36.13,36.13 0 0 1 3.14,13.48 v 2.72 a 36.09,36.09 0 0 1 -3.14,13.48 34.26,34.26 0 0 1 -2.33,4.34 v 0 0 l -0.2,0.29 v 0 a 34.82,34.82 0 0 1 -15.1,12.74 36,36 0 0 1 -11.11,2.93 34.67,34.67 0 0 1 -11.3,-0.49 77.42,77.42 0 0 1 -8.11,-2.33 c -0.63,-0.32 -1.15,-0.6 -1.55,-0.82 l -0.74,-0.39 -1,-0.24 H 62 l -0.39,-0.16 0.09,0.16 -13.32,0.07 h -5.39 l 3.69,3.92 a 53.16,53.16 0 0 0 5.19,4.65 41.94,41.94 0 0 0 5.32,3.7 65.18,65.18 0 0 0 6.19,3 45.46,45.46 0 0 0 7,2.26 c 1.36,0.32 2.73,0.58 4.1,0.78 h 0.24 0.12 0.24 c 1.34,0.18 2.69,0.31 4,0.38 q 1.35,0.06 2.7,0.06 h 0.18 a 50.12,50.12 0 0 0 19.32,-4 l 0.71,-0.3 a 45.83,45.83 0 0 0 10.53,-6.33 v 0 l 0.12,-0.09 A 48.77,48.77 0 0 0 131.14,94 v 0 a 50.32,50.32 0 0 0 0.4,-6.2 v -0.42 a 50.45,50.45 0 0 0 -0.4,-6.2 v 0 a 48.22,48.22 0 0 0 -0.93,-5.2 48.79,48.79 0 0 0 -17.44,-27.38 l -0.12,-0.1 v 0 a 45.83,45.83 0 0 0 -10.53,-6.33 l -0.71,-0.3 a 50.12,50.12 0 0 0 -19.32,-4 h -0.18 q -1.35,0 -2.7,0.06 c -1.34,0.07 -2.69,0.2 -4,0.38 h -0.6 c -1.37,0.2 -2.74,0.46 -4.1,0.78 a 45.46,45.46 0 0 0 -7,2.26 62.94,62.94 0 0 0 -6.19,3 40.73,40.73 0 0 0 -5.32,3.69 53.16,53.16 0 0 0 -5.19,4.65 L 43,56.67 h 5.39 l 13.32,0.06 z m 1.27,57.85 -33.16,-0.06 H 27.43 V 100.57 H 65.3 v 14.21 z"
       id="path6" />
    <path
       class="cls-1"
       d="M 182.57,102.18 V 77 h -6.77 v -5.79 l 7.11,-0.44 0.93,-12.77 h 6.43 v 12.77 h 12.32 V 77 h -12.32 v 25.29 c 0,5.56 1.79,8.78 7,8.78 a 15.26,15.26 0 0 0 5.18,-1.22 l 1.49,5.81 a 27.65,27.65 0 0 1 -8.44,1.68 c -9.65,0.03 -12.93,-6.11 -12.93,-15.16 z"
       id="path8" />
    <path
       class="cls-1"
       d="m 208.07,104.44 c 0,-9.91 8.55,-14.86 27.93,-17 0,-5.85 -2,-11.49 -9.39,-11.49 -5.26,0 -10,2.49 -13.56,4.88 l -3,-5.28 c 4.18,-2.75 10.56,-5.94 17.86,-5.94 11.1,0 15.8,7.38 15.8,18.7 v 27.91 h -6.36 l -0.65,-5.44 h -0.26 c -4.33,3.6 -9.4,6.56 -15,6.56 -7.66,0.03 -13.37,-4.7 -13.37,-12.9 z M 236,105.15 V 92.52 c -15.24,1.83 -20.4,5.56 -20.4,11.38 0,5.17 3.51,7.27 8,7.27 4.49,0 8,-2.17 12.4,-6.02 z"
       id="path10" />
    <path
       class="cls-1"
       d="m 253,111.06 3.8,-5.07 c 3.95,3.18 8,5.39 13.43,5.39 6,0 8.93,-3.19 8.93,-7.07 0,-4.68 -5.37,-6.75 -10.4,-8.62 -6.37,-2.33 -13.56,-5.47 -13.56,-13.14 0,-7.27 5.83,-12.91 15.69,-12.91 A 23.08,23.08 0 0 1 285,74.75 l -3.68,4.93 c -3.14,-2.31 -6.35,-4 -10.38,-4 -5.73,0 -8.37,3 -8.37,6.52 0,4.32 4.94,6 10.1,7.89 6.55,2.47 13.86,5.14 13.86,13.8 0,7.37 -5.86,13.52 -16.59,13.52 A 27.35,27.35 0 0 1 253,111.06 Z"
       id="path12" />
    <path
       class="cls-1"
       d="m 297.25,49.59 h 7.56 v 45.14 h 0.26 l 19.41,-24 H 333 L 317.78,89 335,116.25 h -8.4 l -13.26,-21.86 -8.53,9.92 v 11.94 h -7.56 z"
       id="path14" />
    <path
       class="cls-2"
       d="m 467.89,74.15 a 4.18,4.18 0 0 1 -0.26,1.48 l -20.15,43 c -3.89,8.22 -8.56,11.85 -15.48,11.85 a 21.74,21.74 0 0 1 -3.38,-0.26 3,3 0 0 1 0.44,-5.88 c 0.95,0 1.73,0.09 2.42,0.09 4.24,0 7.35,-2.17 9.6,-7.1 l 2.16,-4.67 -16.52,-36.95 a 3.79,3.79 0 0 1 -0.35,-1.56 3.4,3.4 0 0 1 3.29,-3.28 3.34,3.34 0 0 1 3.12,2.07 l 14.09,31.66 14.62,-31.66 a 3.32,3.32 0 0 1 3.11,-2.07 3.4,3.4 0 0 1 3.29,3.28 z"
       id="path16" />
    <path
       class="cls-2"
       d="m 360.68,116.42 a 24.72,24.72 0 0 1 -12.09,-2.79 19.37,19.37 0 0 1 -7.85,-7.89 25.28,25.28 0 0 1 -2.74,-12.23 25.38,25.38 0 0 1 2.74,-12.09 20.49,20.49 0 0 1 7.53,-8.07 20.8,20.8 0 0 1 11.08,-2.92 20.49,20.49 0 0 1 8,1.5 16.74,16.74 0 0 1 6.07,4.34 19.15,19.15 0 0 1 3.83,6.84 28.86,28.86 0 0 1 1.32,9 2.64,2.64 0 0 1 -0.82,2.15 3.64,3.64 0 0 1 -2.37,0.68 h -31.76 v -4.8 h 30 l -1.46,1.18 a 21.38,21.38 0 0 0 -1.44,-8.32 11.47,11.47 0 0 0 -4.25,-5.24 12.43,12.43 0 0 0 -7,-1.83 14,14 0 0 0 -7.89,2.15 13.24,13.24 0 0 0 -4.86,5.92 22,22 0 0 0 -1.64,8.8 v 0.55 q 0,8.4 4.06,12.77 4.06,4.37 11.54,4.38 a 23.54,23.54 0 0 0 6.16,-0.82 20.65,20.65 0 0 0 6,-2.73 4,4 0 0 1 2.32,-0.78 2.54,2.54 0 0 1 1.69,0.64 3,3 0 0 1 0.87,1.46 2.94,2.94 0 0 1 -0.18,1.87 3.76,3.76 0 0 1 -1.6,1.73 22.69,22.69 0 0 1 -7.12,3.38 29.18,29.18 0 0 1 -8.14,1.17 z"
       id="path18" />
    <path
       class="cls-2"
       d="m 390.06,115.59 a 3.16,3.16 0 0 1 -1.92,-0.54 2.84,2.84 0 0 1 -1,-1.46 3.8,3.8 0 0 1 0,-2 4.87,4.87 0 0 1 1.19,-2.1 l 25.73,-34.4 V 77 H 389.7 a 3,3 0 0 1 -2.24,-0.78 2.87,2.87 0 0 1 -0.77,-2.14 2.74,2.74 0 0 1 0.77,-2.1 3.13,3.13 0 0 1 2.24,-0.73 h 28 a 4.07,4.07 0 0 1 2.23,0.55 2.52,2.52 0 0 1 1.14,1.41 3.64,3.64 0 0 1 0.05,1.92 4.84,4.84 0 0 1 -1.05,2.05 l -26.19,34.76 v -2.1 h 25.64 c 2,0 3,1 3,2.83 a 2.93,2.93 0 0 1 -0.77,2.15 3,3 0 0 1 -2.24,0.77 z"
       id="path20" />
  </g>
</svg>
