<?xml version="1.0" encoding="UTF-8" standalone="no"?>
<svg
   id="Слой_1"
   data-name="Слой 1"
   viewBox="0 0 548.69 181.4"
   version="1.1"
   sodipodi:docname="taskezy_3.svg"
   inkscape:version="1.1.2 (b8e25be833, 2022-02-05)"
   xmlns:inkscape="http://www.inkscape.org/namespaces/inkscape"
   xmlns:sodipodi="http://sodipodi.sourceforge.net/DTD/sodipodi-0.dtd"
   xmlns="http://www.w3.org/2000/svg"
   xmlns:svg="http://www.w3.org/2000/svg">
  <sodipodi:namedview
     id="namedview23"
     pagecolor="#ffffff"
     bordercolor="#666666"
     borderopacity="1.0"
     inkscape:pageshadow="2"
     inkscape:pageopacity="0.0"
     inkscape:pagecheckerboard="0"
     showgrid="false"
     inkscape:zoom="2.9925823"
     inkscape:cx="274.17792"
     inkscape:cy="90.724321"
     inkscape:window-width="3840"
     inkscape:window-height="2036"
     inkscape:window-x="-12"
     inkscape:window-y="-12"
     inkscape:window-maximized="1"
     inkscape:current-layer="Слой_1" />
  <defs
     id="defs4">
    <style
       id="style2">.cls-1{fill:#2593d1;}.cls-2{fill:#524e4d;}</style>
  </defs>
  <g
     id="g33"
     transform="matrix(1.2564021,0,0,1.2564021,-63.215825,-27.171629)">
    <path
       class="cls-1"
       d="M 91.11,102.5 53.4,102.36 H 51.06 V 100 90.89 88.55 h 2.35 l 37.72,0.07 h 2.34 v 2.38 9.18 2.34 z M 98.47,83.75 H 65.3 63 v -14.2 h 37.86 v 14.21 z m 15.12,20.52 A 11.28,11.28 0 0 1 108,94 a 11.65,11.65 0 0 1 1.63,-6 v 0 a 11.52,11.52 0 0 1 4.54,-4.31 9,9 0 0 1 5.79,-1.25 1.8,1.8 0 0 0 1.54,-0.44 v 0 l 16,-13.4 1.26,-1 1.41,0.82 a 10,10 0 0 1 1.6,1.18 v 0 a 8.26,8.26 0 0 1 1.35,1.4 L 144,72.29 143.14,73.6 132.37,90 v 0 c -1.07,1.57 -1.06,1.69 -1,1.89 v 0 a 9.17,9.17 0 0 1 0.05,4.32 11.14,11.14 0 0 1 -7.37,8.89 12.61,12.61 0 0 1 -5.31,0.68 12.44,12.44 0 0 1 -5.15,-1.51 z M 99.49,63.75 99.88,63.6 h 0.5 l 1,-0.25 0.74,-0.39 c 0.4,-0.21 0.92,-0.5 1.55,-0.81 a 79.9,79.9 0 0 1 8.11,-2.34 34.93,34.93 0 0 1 11.32,-0.71 35.78,35.78 0 0 1 11.15,2.9 34.8,34.8 0 0 1 15.1,12.73 v 0 l 0.19,0.3 v 0 0 a 34.26,34.26 0 0 1 2.33,4.34 36.18,36.18 0 0 1 3.21,13.63 v 2.71 a 36.09,36.09 0 0 1 -3.14,13.48 33.59,33.59 0 0 1 -2.33,4.34 v 0 0 l -0.19,0.29 v 0 a 34.82,34.82 0 0 1 -15.1,12.74 36,36 0 0 1 -11.11,2.93 34.66,34.66 0 0 1 -11.32,-0.71 77.42,77.42 0 0 1 -8.11,-2.33 c -0.63,-0.32 -1.15,-0.6 -1.55,-0.82 l -0.74,-0.39 -1,-0.24 h -0.5 l -0.39,-0.16 0.09,0.16 -13.32,0.07 h -5.39 l 3.69,3.92 a 53.16,53.16 0 0 0 5.19,4.65 41.94,41.94 0 0 0 5.32,3.7 61.78,61.78 0 0 0 6.19,3 45.46,45.46 0 0 0 7,2.26 c 1.36,0.32 2.73,0.58 4.1,0.78 h 0.24 0.12 0.17 c 1.34,0.19 2.68,0.31 4,0.38 q 1.35,0.08 2.7,0.06 h 0.18 a 49.94,49.94 0 0 0 19.32,-4 l 0.71,-0.3 a 45.83,45.83 0 0 0 10.53,-6.33 v 0 l 0.12,-0.1 A 48.77,48.77 0 0 0 169,100.81 v 0 0 a 50.19,50.19 0 0 0 0.4,-6.2 v -0.42 a 50.45,50.45 0 0 0 -0.4,-6.2 v 0 a 48.22,48.22 0 0 0 -0.93,-5.2 48.82,48.82 0 0 0 -17.44,-27.26 l -0.12,-0.1 v 0 A 46.18,46.18 0 0 0 139.94,49 l -0.71,-0.3 a 50.12,50.12 0 0 0 -19.32,-4 h -0.18 q -1.35,0 -2.7,0.06 c -1.35,0.07 -2.69,0.2 -4,0.38 h -0.12 -0.1 v 0 h -0.12 -0.12 -0.09 v 0 c -1.37,0.2 -2.74,0.46 -4.1,0.78 a 46.56,46.56 0 0 0 -7,2.26 61.87,61.87 0 0 0 -6.19,3 41.74,41.74 0 0 0 -5.32,3.69 54.49,54.49 0 0 0 -5.19,4.65 l -3.81,3.98 h 5.39 l 13.32,0.06 z m 1.27,57.85 H 67.6 65.27 v -14.2 h 37.86 v 14.21 z"
       id="path6" />
    <path
       class="cls-1"
       d="M 201,111.34 V 86.19 h -6.77 v -5.82 l 7.11,-0.45 0.93,-12.75 h 6.42 v 12.75 h 12.33 v 6.27 h -12.3 v 25.29 c 0,5.56 1.8,8.78 7,8.78 a 15.26,15.26 0 0 0 5.18,-1.22 l 1.49,5.8 a 27.37,27.37 0 0 1 -8.44,1.69 c -9.64,0 -12.95,-6.14 -12.95,-15.19 z"
       id="path8" />
    <path
       class="cls-1"
       d="m 226.53,113.6 c 0,-9.91 8.55,-14.86 27.93,-17 0,-5.85 -2,-11.49 -9.39,-11.49 -5.26,0 -10,2.49 -13.56,4.88 l -3,-5.28 c 4.18,-2.75 10.56,-5.94 17.86,-5.94 11.1,0 15.79,7.38 15.79,18.7 v 27.91 h -6.36 l -0.65,-5.44 h -0.26 c -4.33,3.6 -9.4,6.56 -15,6.56 -7.65,0.03 -13.36,-4.7 -13.36,-12.9 z m 27.93,0.71 v -12.63 c -15.24,1.83 -20.4,5.56 -20.4,11.38 0,5.16 3.51,7.27 8,7.27 4.49,0 7.99,-2.14 12.4,-6.02 z"
       id="path10" />
    <path
       class="cls-1"
       d="m 271.46,120.22 3.8,-5.07 c 3.95,3.18 8,5.38 13.43,5.38 6,0 8.93,-3.18 8.93,-7.06 0,-4.68 -5.37,-6.75 -10.4,-8.62 -6.37,-2.33 -13.56,-5.47 -13.56,-13.14 0,-7.28 5.83,-12.91 15.68,-12.91 a 23.08,23.08 0 0 1 14.15,5.11 l -3.68,4.93 c -3.14,-2.31 -6.35,-4 -10.38,-4 -5.73,0 -8.37,3 -8.37,6.52 0,4.32 4.94,6 10.1,7.89 6.55,2.47 13.86,5.14 13.86,13.8 0,7.37 -5.86,13.52 -16.59,13.52 a 27.35,27.35 0 0 1 -16.97,-6.35 z"
       id="path12" />
    <path
       class="cls-1"
       d="m 315.71,58.75 h 7.56 v 45.14 h 0.26 l 19.41,-24 h 8.54 l -15.24,18.31 17.24,27.21 h -8.42 l -13.26,-21.86 -8.53,9.92 v 11.94 h -7.56 z"
       id="path14" />
    <path
       class="cls-2"
       d="m 486.35,83.31 a 4.09,4.09 0 0 1 -0.26,1.47 l -20.15,43 c -3.89,8.22 -8.56,11.85 -15.48,11.85 a 21.74,21.74 0 0 1 -3.38,-0.26 3,3 0 0 1 0.44,-5.88 c 1,0 1.73,0.08 2.42,0.08 4.24,0 7.35,-2.16 9.6,-7.09 l 2.16,-4.67 -16.52,-36.94 a 3.83,3.83 0 0 1 -0.35,-1.56 3.4,3.4 0 0 1 3.29,-3.31 3.32,3.32 0 0 1 3.11,2.07 l 14.1,31.66 L 480,82.1 a 3.32,3.32 0 0 1 3.06,-2.1 3.4,3.4 0 0 1 3.29,3.31 z"
       id="path16" />
    <path
       class="cls-2"
       d="m 379.14,125.57 a 24.71,24.71 0 0 1 -12.09,-2.78 19.37,19.37 0 0 1 -7.85,-7.89 25.28,25.28 0 0 1 -2.78,-12.23 25.38,25.38 0 0 1 2.74,-12.09 20.43,20.43 0 0 1 7.53,-8.07 20.8,20.8 0 0 1 11.08,-2.92 20.49,20.49 0 0 1 8,1.5 16.74,16.74 0 0 1 6.07,4.34 19.15,19.15 0 0 1 3.83,6.84 28.86,28.86 0 0 1 1.32,9 2.64,2.64 0 0 1 -0.82,2.15 3.64,3.64 0 0 1 -2.37,0.68 h -31.72 v -4.8 h 30 l -1.46,1.18 a 21.34,21.34 0 0 0 -1.46,-8.35 11.42,11.42 0 0 0 -4.25,-5.24 12.43,12.43 0 0 0 -7,-1.83 14,14 0 0 0 -7.89,2.15 13.17,13.17 0 0 0 -4.88,5.93 22,22 0 0 0 -1.64,8.8 v 0.55 q 0,8.4 4.06,12.77 4.06,4.37 11.54,4.38 a 23.54,23.54 0 0 0 6.16,-0.82 20.69,20.69 0 0 0 6,-2.74 4.09,4.09 0 0 1 2.32,-0.77 2.54,2.54 0 0 1 1.69,0.64 3.06,3.06 0 0 1 0.87,1.46 2.94,2.94 0 0 1 -0.18,1.87 3.76,3.76 0 0 1 -1.6,1.73 22.69,22.69 0 0 1 -7.12,3.38 29.16,29.16 0 0 1 -8.1,1.18 z"
       id="path18" />
    <path
       class="cls-2"
       d="m 408.52,124.75 a 3.1,3.1 0 0 1 -1.92,-0.55 2.76,2.76 0 0 1 -1,-1.46 3.76,3.76 0 0 1 0,-2 4.87,4.87 0 0 1 1.19,-2.1 l 25.73,-34.4 v 1.92 h -24.36 a 3,3 0 0 1 -2.24,-0.78 2.89,2.89 0 0 1 -0.78,-2.14 2.73,2.73 0 0 1 0.78,-2.1 3.13,3.13 0 0 1 2.24,-0.73 h 28 a 4.07,4.07 0 0 1 2.23,0.55 2.52,2.52 0 0 1 1.14,1.41 3.64,3.64 0 0 1 0,1.92 4.84,4.84 0 0 1 -1,2 L 412.35,121.1 V 119 H 438 c 2,0 3,1 3,2.83 a 3,3 0 0 1 -0.77,2.15 3.07,3.07 0 0 1 -2.24,0.77 z"
       id="path20" />
  </g>
</svg>
