<?xml version="1.0" encoding="UTF-8" standalone="no"?>
<svg
   id="Слой_1"
   data-name="Слой 1"
   viewBox="0 0 635.4 189.28"
   version="1.1"
   sodipodi:docname="taskezy_white.svg"
   inkscape:version="1.1.2 (b8e25be833, 2022-02-05)"
   xmlns:inkscape="http://www.inkscape.org/namespaces/inkscape"
   xmlns:sodipodi="http://sodipodi.sourceforge.net/DTD/sodipodi-0.dtd"
   xmlns="http://www.w3.org/2000/svg"
   xmlns:svg="http://www.w3.org/2000/svg">
  <sodipodi:namedview
     id="namedview29"
     pagecolor="#ffffff"
     bordercolor="#666666"
     borderopacity="1.0"
     inkscape:pageshadow="2"
     inkscape:pageopacity="0.0"
     inkscape:pagecheckerboard="0"
     showgrid="false"
     inkscape:zoom="2.5841988"
     inkscape:cx="317.50653"
     inkscape:cy="95.00043"
     inkscape:window-width="3840"
     inkscape:window-height="2036"
     inkscape:window-x="-12"
     inkscape:window-y="-12"
     inkscape:window-maximized="1"
     inkscape:current-layer="Слой_1" />
  <defs
     id="defs4">
    <style
       id="style2">.cls-1,.cls-2{fill:#534f4d;}.cls-1{fill-rule:evenodd;}.cls-3{fill:#fff;}.cls-4{fill:#524e4d;}</style>
  </defs>
  <g
     id="g42"
     transform="matrix(1.3057255,0,0,1.3057255,-81.40474,-33.421227)">
    <path
       class="cls-1"
       d="M 430.59,71.07 A 4.25,4.25 0 1 1 427,75.9 4.25,4.25 0 0 1 430.58,71.07"
       id="path6" />
    <path
       class="cls-1"
       d="m 408.18,74.41 a 4.25,4.25 0 1 1 -3.57,4.83 4.26,4.26 0 0 1 3.57,-4.83"
       id="path8" />
    <path
       class="cls-2"
       d="m 396.57,81.54 a 10.91,10.91 0 0 0 11.67,6.57 h 0.11 a 10.93,10.93 0 0 0 9.15,-9.69 l 1.47,-0.22 a 11,11 0 0 0 11.68,6.58 h 0.11 v 0 a 10.93,10.93 0 0 0 9.15,-9.7 L 447,74 l 0.47,-0.07 a 2.61,2.61 0 0 0 2.16,-3.18 l -0.1,-0.45 c -2.45,-10.59 -8.18,-18 -15.27,-22.35 l -0.83,-5.56 a 1.56,1.56 0 1 0 -3.09,0.41 l 0.5,3.34 a 31.23,31.23 0 0 0 -29.35,2 32,32 0 0 0 -4.86,3.74 L 396,48 a 1.61,1.61 0 0 0 -1.62,-1.42 1.55,1.55 0 0 0 -1.47,1.78 l 0.93,6.25 v 0.14 A 36.74,36.74 0 0 0 386,72.7 v 0 c -0.05,0.26 -0.22,2.42 -0.32,4.29 a 27.94,27.94 0 0 0 -0.06,2.88 v 0.46 a 2.62,2.62 0 0 0 3,2.37 l 0.47,-0.07 z M 412,81.29 a 6.67,6.67 0 0 1 -4.39,2.63 v 0 a 6.67,6.67 0 0 1 -7.6,-5.61 v 0 a 6.68,6.68 0 0 1 5.61,-7.6 v 0 a 6.69,6.69 0 0 1 5,1.24 6.63,6.63 0 0 1 2.63,4.38 v 0 A 6.71,6.71 0 0 1 412,81.29 Z m 22.4,-3.35 a 6.69,6.69 0 0 1 -4.4,2.64 v 0 a 6.7,6.7 0 0 1 -7.6,-5.62 v 0 a 6.68,6.68 0 0 1 5.62,-7.6 v 0 a 6.67,6.67 0 0 1 7.6,5.61 v 0 a 6.65,6.65 0 0 1 -1.2,4.97 z m -42.35,-4.27 c 1.55,-9.67 6.42,-16.48 12.6,-20.34 a 25.2,25.2 0 0 1 12.47,-3.8 24.94,24.94 0 0 1 12.63,2.89 c 5.59,3 10.33,8.31 12.87,16 0,0 0,0 0,0 L 438.79,69 a 11,11 0 0 0 -3.26,-3.87 10.87,10.87 0 0 0 -8.1,-2 v 0 a 10.92,10.92 0 0 0 -9.15,9 l -1.89,0.28 A 10.94,10.94 0 0 0 405,66.51 v 0 a 11,11 0 0 0 -9.16,9 l -4,0.59 c 0.08,-1.18 0.16,-2.22 0.19,-2.37 z"
       id="path10" />
    <path
       class="cls-2"
       d="m 443.38,121.46 a 25.78,25.78 0 0 1 -6.78,5.62 28,28 0 0 1 -14.09,3.79 25.54,25.54 0 0 1 -9.71,-2 26.54,26.54 0 0 1 -8.39,-5.59 c -7.21,-7 -8.69,-18.25 -10.18,-29.49 -0.31,-2.34 -0.62,-4.69 -1,-7 a 3.0350618,3.0350618 0 0 0 -6,0.92 c 0.36,2.26 0.66,4.59 1,6.92 1.63,12.27 3.26,24.53 12,33 a 32.68,32.68 0 0 0 10.3,6.88 31.6,31.6 0 0 0 12,2.42 34.19,34.19 0 0 0 17.18,-4.61 32.34,32.34 0 0 0 10.33,-9.6 c 1.03,-1.49 -2.13,-6.09 -6.66,-1.26 z"
       id="path12" />
    <path
       class="cls-3"
       d="m 104.82,108.74 -38.67,-0.15 h -2.4 v -2.41 -9.34 -2.4 h 2.45 l 38.69,0.09 h 2.4 v 2.41 9.42 2.4 z m 7.55,-19.23 -34,-0.06 H 76 V 74.94 h 38.8 v 14.58 z m 15.52,21 A 11.56,11.56 0 0 1 122.12,100 11.85,11.85 0 0 1 123.8,93.86 v 0 a 12,12 0 0 1 4.66,-4.43 9.26,9.26 0 0 1 5.93,-1.28 1.84,1.84 0 0 0 1.61,-0.5 v 0 L 152.45,74 l 1.29,-1.08 1.44,0.84 a 10.13,10.13 0 0 1 1.65,1.21 v 0 a 8.27,8.27 0 0 1 1.34,1.49 l 0.91,1.32 -0.88,1.34 L 147.15,96 v 0 c -1.09,1.62 -1.08,1.74 -1,1.94 v 0 a 9.59,9.59 0 0 1 0.06,4.43 11.41,11.41 0 0 1 -7.56,9.11 13,13 0 0 1 -5.45,0.71 12.73,12.73 0 0 1 -5.31,-1.64 z M 113.42,69 l 0.4,-0.17 h 0.51 l 1.07,-0.26 0.77,-0.39 c 0.4,-0.23 0.94,-0.52 1.58,-0.84 a 80.73,80.73 0 0 1 8.32,-2.4 35.61,35.61 0 0 1 11.61,-0.72 37,37 0 0 1 11.4,3 35.85,35.85 0 0 1 15.49,13.08 v 0 l 0.19,0.3 v 0 0 a 34.07,34.07 0 0 1 2.39,4.45 37.13,37.13 0 0 1 3.29,13.95 v 2.78 a 37.13,37.13 0 0 1 -3.22,13.83 34.07,34.07 0 0 1 -2.39,4.45 v 0 0 l -0.19,0.3 v 0 a 35.85,35.85 0 0 1 -15.49,13.07 37,37 0 0 1 -11.4,3 35.89,35.89 0 0 1 -11.61,-0.73 80.73,80.73 0 0 1 -8.32,-2.4 c -0.64,-0.32 -1.18,-0.61 -1.58,-0.83 -0.23,-0.13 -0.42,-0.23 -0.77,-0.4 l -1.07,-0.25 h -0.51 l -0.4,-0.16 0.09,0.16 -13.73,0.18 h -5.52 l 3.78,4 a 53.84,53.84 0 0 0 5.33,4.77 41.94,41.94 0 0 0 5.45,3.79 61.59,61.59 0 0 0 6.34,3.08 45.45,45.45 0 0 0 7.23,2.32 c 1.4,0.33 2.8,0.6 4.2,0.8 h 0.13 0.09 v 0 H 127 v 0 h 0.11 0.12 c 1.38,0.19 2.75,0.32 4.14,0.39 0.92,0.05 1.84,0.07 2.76,0.07 h 0.19 a 51.28,51.28 0 0 0 19.81,-4.13 l 0.74,-0.3 a 47.23,47.23 0 0 0 10.79,-6.5 v 0 l 0.13,-0.11 a 50,50 0 0 0 17.88,-28 50.66,50.66 0 0 0 1,-5.33 V 107 a 52.68,52.68 0 0 0 0.41,-6.36 v -0.42 a 52.81,52.81 0 0 0 -0.41,-6.36 V 93.8 a 50.66,50.66 0 0 0 -1,-5.33 50,50 0 0 0 -17.88,-28 l -0.13,-0.1 v 0 a 47.23,47.23 0 0 0 -10.79,-6.5 l -0.74,-0.3 a 51.09,51.09 0 0 0 -19.81,-4.12 h -0.19 c -0.92,0 -1.84,0 -2.76,0.07 -1.39,0.07 -2.76,0.2 -4.14,0.39 H 127.11 127 v 0 h -0.12 v 0 h -0.09 -0.13 c -1.4,0.2 -2.8,0.47 -4.2,0.8 a 46.49,46.49 0 0 0 -7.23,2.32 63.72,63.72 0 0 0 -6.34,3.08 41.94,41.94 0 0 0 -5.45,3.89 53.84,53.84 0 0 0 -5.33,4.77 l -3.78,4 h 5.52 l 13.66,0.07 z m 1.31,59.33 -34,-0.06 h -2.41 v -14.51 h 38.83 v 14.57 z"
       id="path14" />
    <path
       class="cls-3"
       d="m 224.2,121.73 v -25.8 h -6.94 V 90 l 7.29,-0.46 0.95,-13.08 h 6.59 V 89.5 h 12.64 v 6.43 h -12.64 v 25.94 c 0,5.7 1.84,9 7.22,9 a 15.49,15.49 0 0 0 5.31,-1.25 l 1.53,6 a 28.43,28.43 0 0 1 -8.66,1.72 C 227.56,137.3 224.2,131 224.2,121.73 Z"
       id="path16" />
    <path
       class="cls-3"
       d="m 250.35,124 c 0,-10.16 8.77,-15.24 28.65,-17.4 0,-6 -2,-11.79 -9.63,-11.79 -5.39,0 -10.25,2.56 -13.91,5 l -3.09,-5.41 c 4.29,-2.82 10.84,-6.09 18.32,-6.09 11.39,0 16.21,7.57 16.21,19.18 v 28.62 h -6.53 l -0.66,-5.57 h -0.26 c -4.45,3.69 -9.64,6.72 -15.43,6.72 -7.81,0.04 -13.67,-4.8 -13.67,-13.26 z m 28.65,0.73 v -13 c -15.63,1.88 -20.92,5.71 -20.92,11.68 0,5.3 3.6,7.45 8.18,7.45 4.58,0 8.22,-2.11 12.74,-6.09 z"
       id="path18" />
    <path
       class="cls-3"
       d="m 296.44,130.83 3.9,-5.2 c 4.05,3.26 8.17,5.53 13.77,5.53 6.12,0 9.16,-3.27 9.16,-7.25 0,-4.8 -5.5,-6.92 -10.67,-8.84 -6.53,-2.39 -13.91,-5.61 -13.91,-13.48 0,-7.46 6,-13.24 16.09,-13.24 a 23.69,23.69 0 0 1 14.51,5.24 l -3.78,5.06 C 322.3,96.28 319,94.5 314.87,94.5 c -5.87,0 -8.58,3.13 -8.58,6.69 0,4.44 5.07,6.12 10.35,8.09 6.73,2.54 14.23,5.28 14.23,14.16 0,7.56 -6,13.86 -17,13.86 a 28,28 0 0 1 -17.43,-6.47 z"
       id="path20" />
    <path
       class="cls-3"
       d="m 341.83,67.78 h 7.75 v 46.31 h 0.26 L 369.76,89.5 h 8.75 l -15.63,18.75 17.68,27.9 h -8.63 l -13.6,-22.42 -8.75,10.18 v 12.24 h -7.75 z"
       id="path22" />
    <path
       class="cls-4"
       d="m 547.26,92.92 a 4,4 0 0 1 -0.27,1.5 l -20.55,43.83 c -4,8.38 -8.73,12.08 -15.78,12.08 a 22.53,22.53 0 0 1 -3.44,-0.26 3.0080559,3.0080559 0 0 1 0.44,-6 c 1,0 1.76,0.09 2.47,0.09 4.32,0 7.49,-2.21 9.79,-7.23 l 2.2,-4.76 -16.84,-37.66 a 3.77,3.77 0 0 1 -0.36,-1.59 3.47,3.47 0 0 1 3.36,-3.35 3.38,3.38 0 0 1 3.17,2.12 l 14.38,32.31 14.9,-32.27 a 3.38,3.38 0 0 1 3.18,-2.12 3.47,3.47 0 0 1 3.35,3.31 z"
       id="path24" />
    <path
       class="cls-4"
       d="m 467.9,135.17 a 3.21,3.21 0 0 1 -2,-0.55 2.91,2.91 0 0 1 -1,-1.49 3.75,3.75 0 0 1 0,-2 5.05,5.05 0 0 1 1.21,-2.14 l 26.24,-35.07 v 1.95 h -24.83 a 3,3 0 0 1 -2.27,-0.79 3,3 0 0 1 -0.79,-2.19 2.79,2.79 0 0 1 0.79,-2.14 3.2,3.2 0 0 1 2.27,-0.74 h 28.57 a 4.14,4.14 0 0 1 2.28,0.56 2.62,2.62 0 0 1 1.16,1.43 3.76,3.76 0 0 1 0.05,2 5.18,5.18 0 0 1 -1.07,2.1 l -26.71,35.35 v -2.14 H 498 c 2,0 3.07,1 3.07,2.89 a 3,3 0 0 1 -0.79,2.18 3.08,3.08 0 0 1 -2.28,0.79 z"
       id="path26" />
  </g>
</svg>
