<?xml version="1.0" encoding="UTF-8" standalone="no"?>
<svg
   id="Слой_1"
   data-name="Слой 1"
   viewBox="0 0 390.82 341.84"
   version="1.1"
   sodipodi:docname="taskezy_4.svg"
   inkscape:version="1.1.2 (b8e25be833, 2022-02-05)"
   xmlns:inkscape="http://www.inkscape.org/namespaces/inkscape"
   xmlns:sodipodi="http://sodipodi.sourceforge.net/DTD/sodipodi-0.dtd"
   xmlns="http://www.w3.org/2000/svg"
   xmlns:svg="http://www.w3.org/2000/svg">
  <sodipodi:namedview
     id="namedview14"
     pagecolor="#ffffff"
     bordercolor="#666666"
     borderopacity="1.0"
     inkscape:pageshadow="2"
     inkscape:pageopacity="0.0"
     inkscape:pagecheckerboard="0"
     showgrid="false"
     inkscape:zoom="2.5538264"
     inkscape:cx="195.58886"
     inkscape:cy="170.92"
     inkscape:window-width="3840"
     inkscape:window-height="2036"
     inkscape:window-x="-12"
     inkscape:window-y="-12"
     inkscape:window-maximized="1"
     inkscape:current-layer="Слой_1" />
  <defs
     id="defs6">
    <style
       id="style2">.cls-1{fill:#2593d1;}.cls-2{clip-path:url(#clip-path);}</style>
    <clipPath
       id="clip-path">
      <path
         id="SVGID"
         class="cls-1"
         d="M156.36,182.91l-52.67-.19-3.27,0v-3.28l0-12.73v-3.26h3.28l52.69.11h3.27l0,3.29,0,12.82v3.27Zm10.28-26.18-46.32-.08h-3.26V136.89H170v3.28l0,13.3v3.28Zm21.13,28.65c-4.55-2.63-7.87-7.42-7.86-14.32a16.28,16.28,0,0,1,2.29-8.36h0a16.17,16.17,0,0,1,6.34-6c4.07-2.12,6.25-1.92,8.08-1.75a2.49,2.49,0,0,0,2.18-.69h0l22.41-18.7,1.76-1.47,2,1.14a14.13,14.13,0,0,1,2.24,1.64h0a12,12,0,0,1,1.83,2l1.23,1.8-1.2,1.83-15.05,23,0,.05c-1.49,2.2-1.48,2.37-1.41,2.64h0a12.82,12.82,0,0,1,.08,6,15.56,15.56,0,0,1-10.29,12.41,17.67,17.67,0,0,1-7.42,1A17.17,17.17,0,0,1,187.77,185.38Zm-19.7-56.59.54-.22h.7l1.46-.34,1-.54c.55-.31,1.28-.7,2.16-1.15a111.19,111.19,0,0,1,11.33-3.26,48.58,48.58,0,0,1,15.81-1,50.18,50.18,0,0,1,15.52,4.1,48.74,48.74,0,0,1,21.1,17.79l0,0,.27.41,0,0,0,.07a48.44,48.44,0,0,1,3.25,6.06,50.55,50.55,0,0,1,4.38,18.84v3.79a50.64,50.64,0,0,1-4.38,18.84,48.32,48.32,0,0,1-3.25,6l0,.07,0,0-.27.41,0,0a48.81,48.81,0,0,1-21.1,17.8,50.17,50.17,0,0,1-15.52,4.09,48.3,48.3,0,0,1-15.81-1A111.19,111.19,0,0,1,174,216.52c-.88-.44-1.61-.84-2.16-1.14-.31-.17-.56-.31-1-.54l-1.46-.35h-.7l-.54-.22.12.22-18.6.09-7.53,0,5.16,5.47a74.46,74.46,0,0,0,7.25,6.5,57.25,57.25,0,0,0,7.43,5.16,88.08,88.08,0,0,0,8.64,4.2,65,65,0,0,0,9.84,3.16c1.9.44,3.81.81,5.72,1.09h.05l.12,0,.12,0h.05l.17,0h0l.15,0,.09,0H187c1.87.26,3.74.43,5.62.53q1.89.09,3.78.09h.25a69.68,69.68,0,0,0,27-5.61l1-.42a63.75,63.75,0,0,0,14.7-8.84l0,0,.18-.13a68.19,68.19,0,0,0,25.65-45.35v-.08a70,70,0,0,0,.55-8.66v-.58a68.36,68.36,0,0,0-.55-8.66v-.07a68.19,68.19,0,0,0-25.65-45.35l-.18-.14,0,0a64.15,64.15,0,0,0-14.7-8.85l-1-.42a69.82,69.82,0,0,0-27-5.61h-.25q-1.89,0-3.78.09-2.82.14-5.62.53h-.17l-.15,0h0l-.17,0h-.17l-.12,0h-.05q-2.86.42-5.72,1.09a63.86,63.86,0,0,0-9.84,3.16,85.78,85.78,0,0,0-8.64,4.19,58.46,58.46,0,0,0-7.43,5.17,73.2,73.2,0,0,0-7.25,6.49l-5.16,5.48,7.53,0,18.6.1Zm1.78,80.81-46.33-.08h-3.26V189.76h52.88V193l0,13.3v3.27Z" />
    </clipPath>
  </defs>
  <path
     id="SVGID-2"
     data-name="SVGID"
     class="cls-1"
     d="M 132.82077,199.37795 9.0379818,198.93142 H 1.3529676 v -7.70852 -29.9175 -7.66151 h 7.7085158 l 123.8297866,0.25852 h 7.68501 v 7.73201 30.12902 7.68502 z M 156.98038,137.85083 48.121098,137.66282 H 40.459585 V 91.223714 H 164.87691 v 7.708515 31.257091 7.70852 z m 49.65882,67.33201 c -10.69321,-6.18091 -18.49573,-17.43817 -18.47223,-33.65425 a 38.26056,38.26056 0 0 1 5.38186,-19.64732 v 0 a 38.002043,38.002043 0 0 1 14.9,-14.10094 c 9.56514,-4.98233 14.68848,-4.5123 18.98927,-4.11278 a 5.8518916,5.8518916 0 0 0 5.12334,-1.6216 v 0 l 52.66703,-43.947946 4.13627,-3.454731 4.70032,2.67918 a 33.207722,33.207722 0 0 1 5.26435,3.854257 v 0 a 28.201887,28.201887 0 0 1 4.30079,4.700315 l 2.89069,4.230285 -2.82019,4.30079 -35.36986,54.05361 v 0.11751 c -3.50174,5.17035 -3.47824,5.56987 -3.31372,6.20442 v 0 a 30.129016,30.129016 0 0 1 0.18801,14.10094 36.568447,36.568447 0 0 1 -24.18312,29.16545 41.527279,41.527279 0 0 1 -17.43817,2.35016 40.3522,40.3522 0 0 1 -16.94464,-5.21735 z m -46.29809,-132.9954 1.26908,-0.517035 h 1.64511 l 3.43123,-0.799053 2.35016,-1.269085 c 1.29259,-0.728549 3.0082,-1.64511 5.07634,-2.702681 a 261.31399,261.31399 0 0 1 26.62728,-7.661513 114.17064,114.17064 0 0 1 37.15599,-2.350157 117.93089,117.93089 0 0 1 36.47444,9.635645 114.54666,114.54666 0 0 1 49.58832,41.809299 v 0 l 0.63454,0.96356 v 0 0.16451 a 113.84162,113.84162 0 0 1 7.63801,14.24196 118.80045,118.80045 0 0 1 10.29369,44.27696 v 8.9071 a 119.01196,119.01196 0 0 1 -10.29369,44.27696 113.5596,113.5596 0 0 1 -7.63801,14.10094 v 0.16451 0 l -0.63454,0.96357 v 0 a 114.71118,114.71118 0 0 1 -49.58832,41.8328 117.90739,117.90739 0 0 1 -36.47444,9.61214 113.5126,113.5126 0 0 1 -37.15599,-2.35016 261.31399,261.31399 0 0 1 -26.46277,-7.12097 c -2.06814,-1.03407 -3.78375,-1.97413 -5.07634,-2.67918 -0.72855,-0.39953 -1.31609,-0.72855 -2.35016,-1.26909 l -3.43123,-0.82255 h -1.64511 l -1.26908,-0.51704 0.28202,0.51704 -43.71293,0.21151 H 99.378028 l 12.126812,12.85536 a 174.99271,174.99271 0 0 0 17.03864,15.27603 134.5465,134.5465 0 0 0 17.46167,12.12681 207.00185,207.00185 0 0 0 20.30536,9.87066 152.76022,152.76022 0 0 0 23.12554,7.42649 c 4.4653,1.03407 8.9541,1.90363 13.4429,2.56168 h 0.11751 0.28202 0.28202 0.11751 0.39952 v 0 h 0.35253 0.21151 0.18801 c 4.3948,0.61104 8.78959,1.01056 13.20789,1.24558 q 4.44179,0.21151 8.88359,0.21151 h 0.58754 a 163.75896,163.75896 0 0 0 63.45425,-13.18438 l 2.35016,-0.98707 a 149.82252,149.82252 0 0 0 34.54731,-20.77539 v 0 l 0.42303,-0.30552 a 160.25722,160.25722 0 0 0 60.28153,-106.57963 v -0.18801 a 164.51101,164.51101 0 0 0 1.29259,-20.35236 v -1.3631 a 160.65675,160.65675 0 0 0 -1.29259,-20.35236 v -0.16451 A 160.25722,160.25722 0 0 0 328.28335,44.549591 l -0.42303,-0.329022 v 0 A 150.76259,150.76259 0 0 0 293.31301,23.421678 l -2.35016,-0.987067 A 164.08798,164.08798 0 0 0 227.5086,9.2502295 h -0.58754 q -4.4418,0 -8.88359,0.2115142 -6.62745,0.329022 -13.20789,1.2455833 h -0.39952 -0.35253 v 0 h -0.39952 -0.39953 -0.28202 -0.11751 q -6.72145,0.987066 -13.4429,2.561671 a 150.08104,150.08104 0 0 0 -23.12554,7.426497 201.59649,201.59649 0 0 0 -20.30536,9.847158 137.39019,137.39019 0 0 0 -17.46167,12.150313 172.03151,172.03151 0 0 0 -17.03864,15.252521 L 99.378028,70.824349 h 17.696682 l 43.71293,0.235015 z m 4.18328,189.91621 -108.882789,-0.18801 H 47.980088 V 215.47653 H 172.2564 v 7.61451 31.25709 7.68502 z"
     style="stroke-width:2.35016" />
</svg>
