<?xml version="1.0" encoding="UTF-8" standalone="no"?>
<svg
   id="Слой_1"
   data-name="Слой 1"
   viewBox="0 0 390.82 341.84"
   version="1.1"
   sodipodi:docname="taskezy_5.svg"
   inkscape:version="1.1.2 (b8e25be833, 2022-02-05)"
   xmlns:inkscape="http://www.inkscape.org/namespaces/inkscape"
   xmlns:sodipodi="http://sodipodi.sourceforge.net/DTD/sodipodi-0.dtd"
   xmlns="http://www.w3.org/2000/svg"
   xmlns:svg="http://www.w3.org/2000/svg">
  <sodipodi:namedview
     id="namedview13"
     pagecolor="#ffffff"
     bordercolor="#666666"
     borderopacity="1.0"
     inkscape:pageshadow="2"
     inkscape:pageopacity="0.0"
     inkscape:pagecheckerboard="0"
     showgrid="false"
     inkscape:zoom="2.5538264"
     inkscape:cx="195.58886"
     inkscape:cy="170.92"
     inkscape:window-width="3840"
     inkscape:window-height="2036"
     inkscape:window-x="-12"
     inkscape:window-y="-12"
     inkscape:window-maximized="1"
     inkscape:current-layer="Слой_1" />
  <defs
     id="defs4">
    <style
       id="style2">.cls-1,.cls-2{fill:#2793d1;}.cls-2{fill-rule:evenodd;}</style>
  </defs>
  <g
     id="g18"
     transform="matrix(1.7852314,0,0,1.7852314,-135.88347,-118.35357)">
    <path
       class="cls-1"
       d="m 224.74037,210.31588 -22.5,3.38 -1.59,0.24 -0.24,-1.59 -1,-6.42 -0.24,-1.59 1.6,-0.24 22.5,-3.42 1.59,-0.24 0.24,1.59 1,6.46 0.24,1.59 z m -8.52,-12 -25.59,3.78 -1.59,0.24 -0.24,-1.6 -0.92,-6.19 -0.24,-1.58 1.6,-0.24 25.6,-3.83 1.59,-0.24 0.23,1.6 0.92,6.23 0.24,1.59 z m 3.07,-13.48 -22.51,3.37 -1.58,0.24 -0.24,-1.59 -1,-6.41 -0.24,-1.59 1.59,-0.24 22.5,-3.42 1.59,-0.25 0.24,1.6 1,6.46 0.24,1.59 z m 12.37,12.36 a 7.75,7.75 0 0 1 -4.87,-6.38 8.06,8.06 0 0 1 0.49,-4.23 v 0 a 7.91,7.91 0 0 1 2.64,-3.39 6.11,6.11 0 0 1 3.79,-1.44 1.25,1.25 0 0 0 1,-0.5 v 0 l 9.51,-10.74 0.74,-0.84 1,0.41 a 7,7 0 0 1 1.21,0.63 v 0 a 6.16,6.16 0 0 1 1,0.85 l 0.73,0.79 -0.45,1 -5.61,12.27 v 0 c -0.56,1.18 -0.54,1.26 -0.49,1.39 v 0 a 6.39,6.39 0 0 1 0.49,2.93 7.68,7.68 0 0 1 -4.09,6.79 8.91,8.91 0 0 1 -3.53,1 8.6,8.6 0 0 1 -3.56,-0.5 z m -88.07,-78.53 a 21.17,21.17 0 0 1 22,11.39 l 3.64,-0.54 a 21.14,21.14 0 0 1 17.7,-17.32 v 0 a 21.16,21.16 0 0 1 22,11.38 l 7.45,-1.11 c -4.92,-15 -14.07,-25.270004 -24.9,-31.000004 a 48.2,48.2 0 0 0 -24.42,-5.6 48.89,48.89 0 0 0 -24.09,7.35 c -12,7.460004 -21.37,20.630004 -24.37,39.330004 v 0 c 0,0.3 -0.21,2.33 -0.36,4.63 l 7.7,-1.15 a 21.14,21.14 0 0 1 17.7,-17.33 v 0 z m 1.19,8.1 v 0 a 12.9,12.9 0 0 0 -10.86,14.71 v 0 a 12.9,12.9 0 0 0 14.69,10.85 v 0 a 12.9,12.9 0 0 0 10.85,-14.7 v 0 a 12.9,12.9 0 0 0 -14.69,-10.85 z m 50.22,-57.290004 v 0 a 3,3 0 0 1 3.42,2.53 l 1.62,10.85 c 13.69,8.38 24.77,22.740004 29.51,43.200004 l 1.44,6.21 -6.33,0.95 -13.65,2 a 21.15,21.15 0 0 1 -17.69,18.74 v 0 h -0.21 a 21.14,21.14 0 0 1 -22.57,-12.71 l -2.84,0.42 a 21.13,21.13 0 0 1 -17.69,18.81 v 0 h -0.21 a 21.15,21.15 0 0 1 -22.57,-12.7 l -14.32,2.14 -6.25,0.94 -0.51,-6.28 a 51.47,51.47 0 0 1 0.11,-5.56 c 0.2,-3.62 0.53,-7.79 0.61,-8.3 v 0 c 2.28,-14.19 7.74,-25.78 15.16,-34.700004 a 2.56,2.56 0 0 1 -0.05,-0.27 l -1.8,-12.07 a 3.0080974,3.0080974 0 1 1 5.95,-0.89 l 1.17,7.69 a 60.5,60.5 0 0 1 39.24,-16.37 60.09,60.09 0 0 1 26.89,5.25 l -1,-6.46 a 3,3 0 0 1 2.57,-3.42 z m -6.88,50.860004 v 0 a 12.9,12.9 0 0 0 -10.85,14.69 v 0 a 12.9,12.9 0 0 0 14.69,10.85 v 0 a 12.9,12.9 0 0 0 10.85,-14.69 v 0 a 12.9,12.9 0 0 0 -14.69,-10.85 z m -79,39.39 a 5.8933564,5.8933564 0 0 1 11.65,-1.79 c 0.71,4.53 1.31,9.07 1.91,13.59 2.88,21.73 5.75,43.42 19.68,57 a 51.57,51.57 0 0 0 16.21,10.81 49.44,49.44 0 0 0 18.78,3.76 54.34,54.34 0 0 0 27.24,-7.31 47.6,47.6 0 0 0 16.85,-16.08 24.07,24.07 0 0 0 2.75,-7 53.89,53.89 0 0 0 8.78,1.4 23.9,23.9 0 0 0 7.75,-0.68 24.68,24.68 0 0 0 7.24,-3.14 23.77,23.77 0 0 0 10.27,-13.9 25,25 0 0 0 -3.11,-19.91 23.71,23.71 0 0 0 -14,-10.1 c -12,-3.22 -19.41,2.42 -21.5,4 l -0.47,0.34 -0.68,0.28 -9.59,1.4 -3.65,0.54 2.09,-3 a 38,38 0 0 1 3,-3.69 27.9,27.9 0 0 1 3.23,-3.05 41.29,41.29 0 0 1 3.97,-2.72 31.11,31.11 0 0 1 4.55,-2.26 33.81,33.81 0 0 1 7.36,-2 34.43,34.43 0 0 1 21.92,3.85 33.56,33.56 0 0 1 15,16.93 35.31,35.31 0 0 1 2.09,7.64 34.13,34.13 0 0 1 -15.29,33.95 35.31,35.31 0 0 1 -15.1,5.25 32.43,32.43 0 0 1 -5.4,0.09 58.8,58.8 0 0 1 -22.15,22.12 66.08,66.08 0 0 1 -33.21,8.9 61.18,61.18 0 0 1 -23.27,-4.68 63.37,63.37 0 0 1 -19.9,-13.3 c -16.85,-16.45 -20,-40.14 -23.14,-63.88 -0.55,-4.49 -1.15,-8.99 -1.86,-13.36 z m 58.45,-23.25 v 0 m -8.1,1.18 v 0 m 43.31,-6.47 v 0"
       id="path6" />
    <path
       class="cls-2"
       d="m 192.99037,127.47588 a 8.22,8.22 0 1 1 -6.91,9.34 8.21,8.21 0 0 1 6.91,-9.34"
       id="path8" />
    <path
       class="cls-2"
       d="m 149.68037,133.97588 a 8.22,8.22 0 1 1 -6.91,9.34 8.21,8.21 0 0 1 6.91,-9.34"
       id="path10" />
  </g>
</svg>
