<svg width="374" height="345" viewBox="0 0 374 345" fill="none" xmlns="http://www.w3.org/2000/svg">
<g clip-path="url(#clip0_938_15746)">
<path d="M343.444 246.501L332.06 246.744L326.281 246.84C324.346 246.883 322.411 246.875 320.476 246.892H320.094V246.501L320.051 236.764V236.329H320.485L331.973 236.381C335.8 236.39 339.635 236.477 343.461 236.521H343.704V236.755C343.687 238.409 343.626 240.053 343.591 241.672L343.444 246.501ZM343.444 246.501L343.322 241.585C343.279 239.966 343.227 238.365 343.21 236.764L343.444 236.999C339.617 237.043 335.782 237.138 331.956 237.138L320.467 237.191L320.901 236.755L320.858 246.492L320.467 246.1C322.359 246.118 324.25 246.109 326.151 246.144L331.86 246.24L343.444 246.501Z" fill="#EBEBEB"/>
<path d="M330.619 258.778L319.235 259.022L313.456 259.117C311.521 259.161 309.586 259.152 307.651 259.169H307.269V258.778L307.226 249.041V248.606H307.66L319.148 248.659C322.975 248.667 326.81 248.754 330.637 248.798H330.88V249.033C330.862 250.686 330.801 252.33 330.767 253.949L330.619 258.778ZM330.619 258.778L330.498 253.862C330.454 252.243 330.402 250.642 330.385 249.041L330.619 249.276C326.793 249.32 322.957 249.416 319.131 249.416L307.643 249.468L308.076 249.033L308.033 258.778L307.643 258.386C309.534 258.404 311.426 258.395 313.326 258.43L319.035 258.526L330.619 258.778Z" fill="#EBEBEB"/>
<path d="M356.26 258.778L344.876 259.022L339.097 259.117C337.162 259.161 335.227 259.152 333.292 259.169H332.91V258.778L332.867 249.041V248.606H333.301L344.789 248.659C348.615 248.667 352.451 248.754 356.277 248.798H356.52V249.033C356.503 250.686 356.442 252.33 356.407 253.949L356.26 258.778ZM356.26 258.778L356.138 253.862C356.095 252.243 356.043 250.642 356.026 249.041L356.26 249.276C352.433 249.32 348.598 249.416 344.772 249.416L333.283 249.468L333.717 249.033L333.674 258.769L333.283 258.378C335.175 258.395 337.066 258.386 338.967 258.421L344.676 258.517L356.26 258.778Z" fill="#EBEBEB"/>
<path d="M47.7059 246.501L36.3217 246.744L30.5428 246.84C28.6079 246.883 26.6729 246.875 24.7379 246.892H24.3561V246.501L24.2954 236.764V236.329H24.7293L36.2176 236.381C40.0441 236.39 43.8794 236.477 47.7059 236.521H47.9489V236.755C47.9315 238.409 47.8708 240.053 47.8361 241.672L47.7059 246.501ZM47.7059 246.501L47.5844 241.585C47.5411 239.966 47.489 238.365 47.4716 236.764L47.7059 236.999C43.8794 237.043 40.0441 237.138 36.2176 237.138L24.7293 237.191L25.1631 236.755L25.1197 246.492L24.7293 246.1C26.6208 246.118 28.5124 246.109 30.4127 246.144L36.1221 246.24L47.7059 246.501Z" fill="#EBEBEB"/>
<path d="M34.8902 258.778L23.506 259.022L17.7271 259.117C15.7922 259.161 13.8572 259.152 11.9222 259.169H11.5405V258.778L11.4971 249.041V248.606H11.9309L23.4193 248.659C27.2458 248.667 31.081 248.754 34.9076 248.798H35.1505V249.033C35.1332 250.686 35.0725 252.33 35.0377 253.949L34.8902 258.778ZM34.8902 258.778L34.7688 253.862C34.7254 252.243 34.6733 250.642 34.656 249.041L34.8902 249.276C31.0637 249.32 27.2285 249.416 23.4019 249.416L11.9136 249.468L12.3474 249.033L12.304 258.769L11.9136 258.378C13.8051 258.395 15.6967 258.386 17.597 258.421L23.3065 258.517L34.8902 258.778Z" fill="#EBEBEB"/>
<path d="M240.769 107.728L229.385 107.972L223.606 108.067C221.671 108.111 219.736 108.102 217.801 108.12H217.419V107.728L217.376 97.9917V97.5566H217.81L229.298 97.6088C233.125 97.6088 236.96 97.7046 240.786 97.7481H241.029V97.983C241.012 99.6362 240.951 101.281 240.917 102.899L240.769 107.728ZM240.769 107.728L240.648 102.812C240.604 101.194 240.552 99.5927 240.535 97.9917L240.769 98.2266C236.943 98.2701 233.107 98.3658 229.281 98.3658L217.792 98.4267L218.226 97.9917L218.183 107.728L217.792 107.337C219.684 107.354 221.576 107.345 223.476 107.389L229.185 107.485L240.769 107.728Z" fill="#EBEBEB"/>
<path d="M227.953 120.004L216.569 120.248L210.79 120.344C208.855 120.387 206.92 120.379 204.985 120.387H204.603V119.996L204.56 110.259V109.824H204.994L216.482 109.876C220.309 109.885 224.144 109.972 227.971 110.016H228.214V110.251C228.196 111.904 228.135 113.548 228.101 115.167L227.953 120.004ZM227.953 120.004L227.832 115.088C227.788 113.47 227.736 111.869 227.719 110.268L227.953 110.503C224.127 110.546 220.291 110.642 216.465 110.642L204.977 110.694L205.41 110.259L205.367 119.996L204.977 119.604C206.868 119.622 208.76 119.613 210.66 119.648L216.369 119.743L227.953 120.004Z" fill="#EBEBEB"/>
<path d="M253.585 120.004L242.201 120.248L236.422 120.344C234.487 120.387 232.552 120.379 230.617 120.387H230.235V119.996L230.192 110.259V109.824H230.626L242.114 109.876C245.941 109.885 249.776 109.972 253.602 110.016H253.845V110.251C253.828 111.904 253.767 113.548 253.733 115.167L253.585 120.004ZM253.585 120.004L253.464 115.088C253.42 113.47 253.368 111.869 253.351 110.268L253.585 110.503C249.758 110.546 245.923 110.642 242.097 110.642L230.608 110.694L231.042 110.259L230.999 119.996L230.608 119.604C232.5 119.622 234.392 119.613 236.292 119.648L242.001 119.743L253.585 120.004Z" fill="#EBEBEB"/>
<path d="M342.108 36.0748L330.723 36.3184L324.944 36.4142C323.009 36.4577 321.074 36.449 319.14 36.4664H318.758V36.0748L318.714 26.3384V25.9033H319.148L330.637 25.9555C334.463 25.9555 338.298 26.0512 342.125 26.0947H342.368V26.3297C342.35 27.9829 342.29 29.6274 342.255 31.2457L342.108 36.0748ZM342.108 36.0748L341.986 31.1587C341.943 29.5403 341.891 27.9394 341.873 26.3384L342.108 26.5733C338.281 26.6168 334.446 26.7125 330.619 26.7125L319.131 26.7647L319.565 26.3297L319.521 36.0661L319.131 35.6746C321.022 35.692 322.914 35.6833 324.814 35.7268L330.524 35.8225L342.108 36.0748Z" fill="#EBEBEB"/>
<path d="M354.932 48.3522L343.548 48.5958L337.769 48.6915C335.834 48.735 333.899 48.7263 331.964 48.7437H331.582V48.3522L331.539 38.6157V38.1807H331.973L343.461 38.2329C347.288 38.2416 351.123 38.3286 354.95 38.3721H355.193V38.607C355.175 40.2602 355.114 41.9047 355.08 43.5231L354.932 48.3522ZM354.932 48.3522L354.811 43.4361C354.767 41.8177 354.715 40.2167 354.698 38.6157L354.932 38.8506C351.106 38.8941 347.27 38.9899 343.444 38.9899L331.956 39.0421L332.389 38.607L332.346 48.3435L331.956 47.9519C333.847 47.9693 335.739 47.9606 337.639 48.0041L343.348 48.0998L354.932 48.3522Z" fill="#EBEBEB"/>
<path d="M34.8902 36.0836L23.506 36.3272L17.7271 36.4229C15.7922 36.4665 13.8572 36.4578 11.9222 36.4752H11.5405V36.0836L11.4971 26.3472V25.9121H11.9309L23.4193 25.9643C27.2458 25.973 31.081 26.06 34.9076 26.1035H35.1505V26.3385C35.1332 27.9917 35.0725 29.6361 35.0377 31.2545L34.8902 36.0836ZM34.8902 36.0836L34.7688 31.1675C34.7254 29.5491 34.6733 27.9481 34.656 26.3472L34.8902 26.5821C31.0637 26.6256 27.2285 26.7213 23.4019 26.7213L11.9136 26.7735L12.3474 26.3385L12.304 36.0749L11.9136 35.6834C13.8051 35.7008 15.6967 35.6921 17.597 35.7269L23.3065 35.8226L34.8902 36.0836Z" fill="#EBEBEB"/>
<path d="M328.407 216.709H327.747V286.404H328.407V216.709Z" fill="#263238"/>
<path d="M348.381 189.343L329.526 286.395H328.858L347.739 189.222L348.381 189.343Z" fill="#263238"/>
<path d="M327.834 286.395H327.183L321.474 164.781L322.124 164.746L327.747 284.516L327.834 286.395Z" fill="#263238"/>
<path d="M340.745 141.601C339.105 146.943 335.93 151.268 332.702 154.6C327.747 159.708 322.654 162.483 322.706 163.023C322.853 164.572 324.363 166.93 324.242 167.443C324.12 167.956 322.862 168.47 321.803 168.47C320.736 168.47 319.478 167.956 319.357 167.443C319.235 166.93 320.745 164.572 320.892 163.023C320.996 161.935 300.328 151.842 301.76 131.882C302.488 121.641 308.944 117.49 314.419 115.828C316.137 115.306 317.76 115.019 319.079 114.871C320.311 114.732 321.274 114.706 321.803 114.706C324.71 114.706 340.659 115.42 341.839 131.873C342.09 135.432 341.648 138.669 340.745 141.601Z" fill="#BBDBF8"/>
<path opacity="0.1" d="M322.706 163.022C322.853 164.571 324.363 166.929 324.242 167.443C324.12 167.956 322.862 168.469 321.803 168.469C320.736 168.469 319.478 167.956 319.357 167.443C319.235 166.929 320.745 164.571 320.892 163.022C320.996 161.935 300.328 151.842 301.76 131.882C302.488 121.64 308.944 117.49 314.419 115.828C309.569 119.987 303.582 128.184 307.912 141.514C311.912 153.826 323.652 157.471 332.702 154.6C327.747 159.707 322.654 162.483 322.706 163.022Z" fill="black"/>
<path d="M335.626 125.939C335.626 128.436 333.613 130.455 331.122 130.455C328.632 130.455 326.619 128.436 326.619 125.939C326.619 123.441 328.632 121.423 331.122 121.423C333.613 121.423 335.626 123.441 335.626 125.939Z" fill="white"/>
<path d="M367.002 164.763C365.362 170.105 362.186 174.43 358.958 177.762C354.004 182.87 348.91 185.645 348.962 186.185C349.11 187.734 350.619 190.092 350.498 190.605C350.377 191.118 349.118 191.632 348.06 191.632C346.993 191.632 345.734 191.118 345.613 190.605C345.491 190.092 347.001 187.734 347.149 186.185C347.253 185.097 326.584 175.004 328.016 155.044C328.745 144.803 335.2 140.652 340.676 138.991C342.394 138.469 344.016 138.181 345.335 138.033C346.567 137.894 347.53 137.868 348.06 137.868C350.967 137.868 366.915 138.582 368.095 155.035C368.347 158.594 367.913 161.831 367.002 164.763Z" fill="#FFC727"/>
<path d="M348.962 186.193C349.11 187.742 350.619 190.1 350.498 190.614C350.377 191.127 349.118 191.64 348.06 191.64C346.993 191.64 345.734 191.127 345.613 190.614C345.491 190.1 347.001 187.742 347.149 186.193C347.253 185.106 326.584 175.013 328.016 155.052C328.745 144.811 335.2 140.661 340.676 138.999C335.825 143.158 329.838 151.354 334.168 164.684C338.168 176.996 349.908 180.642 358.958 177.771C354.012 182.878 348.91 185.654 348.962 186.193Z" fill="#EAB82A"/>
<path d="M362.524 149.162C362.524 151.659 360.511 153.678 358.021 153.678C355.531 153.678 353.518 151.659 353.518 149.162C353.518 146.665 355.531 144.646 358.021 144.646C360.511 144.646 362.524 146.665 362.524 149.162Z" fill="white"/>
<path d="M347.001 192.145C345.327 197.549 342.099 201.899 338.836 205.241C333.925 210.261 328.927 212.984 328.979 213.524C329.127 215.073 330.637 217.431 330.515 217.944C330.394 218.457 329.135 218.971 328.077 218.971C327.01 218.971 325.751 218.457 325.63 217.944C325.508 217.431 327.018 215.073 327.166 213.524C327.27 212.436 306.601 202.343 308.033 182.383C308.771 172.064 315.322 167.931 320.814 166.286C322.524 165.773 324.138 165.503 325.448 165.364C326.628 165.233 327.556 165.216 328.077 165.216C330.984 165.216 346.932 165.929 348.112 182.392C348.364 185.942 347.912 189.205 347.001 192.145Z" fill="#153D59"/>
<path d="M308.042 182.374C308.779 172.055 315.33 167.922 320.823 166.277C315.938 170.384 309.742 178.615 314.124 192.128C318.107 204.405 329.804 208.068 338.836 205.232C333.925 210.252 328.927 212.976 328.979 213.515C329.127 215.064 330.637 217.422 330.515 217.935C330.394 218.449 329.136 218.962 328.077 218.962C327.01 218.962 325.752 218.449 325.63 217.935C325.509 217.422 327.018 215.064 327.166 213.515C327.279 212.428 306.61 202.334 308.042 182.374Z" fill="#1D3A48"/>
<path d="M341.977 176.344C341.977 178.841 339.964 180.86 337.474 180.86C334.984 180.86 332.971 178.841 332.971 176.344C332.971 173.847 334.984 171.828 337.474 171.828C339.964 171.828 341.977 173.847 341.977 176.344Z" fill="white"/>
<path d="M334.637 270.229H322.246V286.465H334.637V270.229Z" fill="#A0CEF4"/>
<path d="M26.7078 216.709H26.0483V286.404H26.7078V216.709Z" fill="#123546"/>
<path d="M46.6824 189.343L27.836 286.395H27.1592L46.049 189.222L46.6824 189.343Z" fill="#123546"/>
<path d="M26.1351 286.395H25.4844L19.7749 164.781L20.4344 164.746L26.0484 284.516L26.1351 286.395Z" fill="#123546"/>
<path d="M39.0466 141.601C37.4066 146.943 34.2308 151.268 31.003 154.6C26.0484 159.708 20.955 162.483 21.0071 163.023C21.1546 164.572 22.6644 166.93 22.5429 167.443C22.4214 167.956 21.1633 168.47 20.1047 168.47C19.0374 168.47 17.7793 167.956 17.6578 167.443C17.5363 166.93 19.0461 164.572 19.1936 163.023C19.2977 161.935 -1.37087 151.842 0.060838 131.882C0.789705 121.641 7.24539 117.49 12.7206 115.828C14.4386 115.306 16.0612 115.019 17.3801 114.871C18.6122 114.732 19.5754 114.706 20.1047 114.706C23.0115 114.706 38.9598 115.42 40.1399 131.873C40.3915 135.432 39.9576 138.669 39.0466 141.601Z" fill="#FFC727"/>
<path d="M21.0071 163.022C21.1546 164.571 22.6644 166.929 22.5429 167.443C22.4214 167.956 21.1633 168.469 20.1047 168.469C19.0374 168.469 17.7793 167.956 17.6578 167.443C17.5363 166.929 19.0461 164.571 19.1936 163.022C19.2977 161.935 -1.37087 151.842 0.060838 131.882C0.789705 121.64 7.24539 117.49 12.7206 115.828C7.87013 119.987 1.88301 128.184 6.21282 141.514C10.2129 153.826 21.9529 157.471 31.003 154.6C26.0571 159.707 20.955 162.483 21.0071 163.022Z" fill="#EAB82A"/>
<path d="M33.9359 125.939C33.9359 128.436 31.9229 130.455 29.4326 130.455C26.9423 130.455 24.9292 128.436 24.9292 125.939C24.9292 123.441 26.9423 121.423 29.4326 121.423C31.9142 121.423 33.9359 123.441 33.9359 125.939Z" fill="white"/>
<path d="M65.3117 164.763C63.6717 170.105 60.496 174.43 57.2681 177.762C52.3136 182.87 47.2202 185.645 47.2722 186.185C47.4197 187.734 48.9295 190.092 48.8081 190.605C48.6866 191.118 47.4284 191.632 46.3698 191.632C45.3025 191.632 44.0444 191.118 43.9229 190.605C43.8014 190.092 45.3112 187.734 45.4587 186.185C45.5629 185.097 24.8943 175.004 26.326 155.044C27.0548 144.803 33.5105 140.652 38.9857 138.991C40.7037 138.469 42.3263 138.181 43.6452 138.033C44.8774 137.894 45.8405 137.868 46.3698 137.868C49.2766 137.868 65.2249 138.582 66.405 155.035C66.6566 158.594 66.2141 161.831 65.3117 164.763Z" fill="#153D59"/>
<path d="M47.2722 186.193C47.4197 187.742 48.9295 190.1 48.8081 190.614C48.6866 191.127 47.4284 191.64 46.3698 191.64C45.3026 191.64 44.0444 191.127 43.9229 190.614C43.8014 190.1 45.3112 187.742 45.4587 186.193C45.5629 185.106 24.8943 175.013 26.326 155.052C27.0548 144.811 33.5105 140.661 38.9857 138.999C34.1353 143.158 28.1481 151.354 32.478 164.684C36.4781 176.988 48.2267 180.633 57.2681 177.762C52.3222 182.878 47.2202 185.654 47.2722 186.193Z" fill="#123546"/>
<path d="M60.8344 149.162C60.8344 151.659 58.8213 153.678 56.331 153.678C53.8407 153.678 51.8276 151.659 51.8276 149.162C51.8276 146.665 53.8407 144.646 56.331 144.646C58.8126 144.646 60.8344 146.665 60.8344 149.162Z" fill="white"/>
<path d="M45.3114 192.145C43.6368 197.549 40.4089 201.899 37.1464 205.241C32.2352 210.261 27.2373 212.984 27.2893 213.524C27.4368 215.073 28.9466 217.431 28.8251 217.944C28.7037 218.457 27.4455 218.971 26.3869 218.971C25.3196 218.971 24.0615 218.457 23.94 217.944C23.8185 217.431 25.3283 215.073 25.4758 213.524C25.58 212.436 4.91136 202.343 6.34306 182.383C7.08061 172.064 13.6317 167.931 19.1243 166.286C20.8336 165.773 22.4476 165.503 23.7578 165.364C24.9379 165.233 25.8663 165.216 26.3869 165.216C29.2937 165.216 45.242 165.929 46.4221 182.392C46.6737 185.942 46.2225 189.205 45.3114 192.145Z" fill="#BBDBF8"/>
<path opacity="0.1" d="M6.34306 182.374C7.08061 172.055 13.6317 167.922 19.1243 166.277C14.2391 170.384 8.04375 178.615 12.4256 192.128C16.4084 204.405 28.105 208.068 37.1377 205.232C32.2265 210.252 27.2286 212.976 27.2806 213.515C27.4282 215.064 28.9379 217.422 28.8165 217.935C28.695 218.449 27.4368 218.962 26.3782 218.962C25.311 218.962 24.0528 218.449 23.9313 217.935C23.8098 217.422 25.3196 215.064 25.4672 213.515C25.58 212.428 4.91136 202.334 6.34306 182.374Z" fill="black"/>
<path d="M40.2875 176.344C40.2875 178.841 38.2744 180.86 35.7841 180.86C33.2938 180.86 31.2808 178.841 31.2808 176.344C31.2808 173.847 33.2938 171.828 35.7841 171.828C38.2657 171.828 40.2875 173.847 40.2875 176.344Z" fill="white"/>
<path d="M32.9469 270.229H20.5562V286.465H32.9469V270.229Z" fill="#A0CEF4"/>
<path d="M329.11 54.3379C234.851 85.0525 133.313 85.0525 39.0552 54.3379C44.9295 36.2224 50.7951 18.1155 56.6695 0C139.483 26.9819 228.691 26.9819 311.504 0C317.37 18.1155 323.244 36.2224 329.11 54.3379Z" fill="#FFC727"/>
<path d="M101.417 28.8183C102.901 29.1141 104.384 29.3926 105.868 29.671C106.319 32.4466 106.797 35.231 107.283 38.0066C108.706 35.5703 110.103 33.1253 111.491 30.6803C112.992 30.9413 114.484 31.185 115.986 31.4286C113.99 34.7959 111.959 38.1458 109.894 41.487C110.545 44.193 111.213 46.899 111.899 49.605C115.361 43.8711 118.719 38.0936 121.973 32.2813C123.734 32.5423 125.496 32.786 127.266 33.0209C122.806 40.4951 118.163 47.9083 113.339 55.2433C111.907 55.0171 110.467 54.7822 109.035 54.5385C108.072 50.9711 107.135 47.395 106.241 43.8276C104.167 46.8642 102.059 49.8922 99.9244 52.9114C98.4927 52.6417 97.061 52.3633 95.638 52.0761C93.6596 43.523 91.8809 34.9612 90.293 26.3994C92.011 26.7823 93.7377 27.1651 95.4558 27.5305C96.5231 34.1172 97.7031 40.7039 98.9786 47.2906C100.532 44.9848 102.076 42.679 103.595 40.3559C102.831 36.51 102.102 32.6642 101.417 28.8183Z" fill="white"/>
<path d="M145.565 55.0773C145.453 56.4347 145.331 57.792 145.218 59.1581C139.075 58.6273 132.94 57.9661 126.814 57.1917C127.821 49.2563 128.836 41.3123 129.843 33.377C135.535 34.1078 141.244 34.7169 146.962 35.2129C146.841 36.5702 146.728 37.9276 146.607 39.2936C142.485 38.9369 138.364 38.5193 134.251 38.0407C134.025 39.9549 133.808 41.8692 133.583 43.7834C137.183 44.201 140.793 44.5752 144.403 44.9058C144.29 46.1675 144.177 47.4204 144.064 48.6821C140.42 48.3514 136.784 47.9773 133.149 47.5509C132.906 49.6218 132.671 51.6926 132.428 53.7635C136.802 54.2507 141.184 54.6945 145.565 55.0773Z" fill="white"/>
<path d="M149.253 59.4805C149.869 51.5016 150.476 43.5228 151.092 35.5439C152.724 35.6745 154.355 35.7876 155.986 35.892C155.552 42.5135 155.119 49.1436 154.685 55.7651C159.162 56.061 163.639 56.2872 168.125 56.4438C168.073 57.8099 168.03 59.1672 167.978 60.5333C161.73 60.3158 155.492 59.9677 149.253 59.4805Z" fill="white"/>
<path d="M168.264 48.3691C168.317 46.9073 168.655 45.4629 169.271 44.0534C169.887 42.6438 170.746 41.3908 171.848 40.2945C172.959 39.1982 174.286 38.3194 175.84 37.6494C177.393 36.9794 179.154 36.6575 181.115 36.6662C183.432 36.6836 185.436 37.1621 187.146 38.1193C188.846 39.0764 190.131 40.3206 190.998 41.8607C189.74 42.7047 188.482 43.54 187.206 44.3753C186.859 43.7053 186.451 43.131 185.966 42.6786C185.48 42.2174 184.968 41.852 184.421 41.5823C183.866 41.3125 183.293 41.1124 182.703 40.9906C182.104 40.8688 181.523 40.7992 180.95 40.7992C179.709 40.7905 178.625 41.0167 177.696 41.4692C176.768 41.9303 175.987 42.5307 175.362 43.2703C174.738 44.0186 174.252 44.8626 173.913 45.811C173.575 46.7594 173.393 47.7078 173.375 48.6562C173.349 49.7177 173.505 50.7357 173.852 51.7277C174.191 52.7196 174.694 53.5897 175.362 54.3467C176.022 55.1037 176.829 55.7127 177.774 56.1826C178.72 56.6437 179.762 56.8874 180.907 56.8874C181.506 56.8874 182.122 56.8265 182.764 56.6959C183.406 56.5654 184.022 56.3479 184.603 56.0521C185.185 55.7562 185.723 55.3821 186.209 54.9122C186.703 54.4511 187.094 53.8855 187.38 53.2329C188.777 53.9551 190.174 54.6686 191.58 55.3821C191.172 56.2957 190.582 57.0962 189.809 57.7923C189.037 58.4884 188.161 59.08 187.18 59.5586C186.2 60.0371 185.141 60.4026 184.022 60.6549C182.903 60.8985 181.801 61.0204 180.725 61.0117C178.824 60.9943 177.089 60.6114 175.527 59.8631C173.965 59.1148 172.638 58.1403 171.544 56.9483C170.451 55.7562 169.609 54.4076 169.037 52.911C168.464 51.4144 168.212 49.9004 168.264 48.3691Z" fill="white"/>
<path d="M206.261 60.4549C204.309 60.5506 202.53 60.2809 200.916 59.6544C199.311 59.0279 197.923 58.1578 196.76 57.0528C195.606 55.9478 194.703 54.6687 194.053 53.2156C193.402 51.7626 193.072 50.2747 193.037 48.7433C193.003 47.1423 193.298 45.6022 193.905 44.1231C194.512 42.6439 195.354 41.33 196.43 40.1728C197.506 39.0156 198.79 38.0759 200.283 37.3537C201.775 36.6315 203.406 36.2312 205.177 36.1442C206.999 36.0572 208.673 36.3182 210.227 36.936C211.771 37.5538 213.125 38.3978 214.279 39.468C215.433 40.5382 216.361 41.7825 217.073 43.2008C217.784 44.619 218.209 46.0721 218.322 47.5774C218.444 49.1697 218.244 50.7184 217.715 52.215C217.185 53.7116 216.396 55.0603 215.329 56.2523C214.27 57.4443 212.96 58.4275 211.407 59.1845C209.853 59.9328 208.135 60.3592 206.261 60.4549ZM198.157 48.5954C198.192 49.6308 198.391 50.6314 198.764 51.5885C199.137 52.5457 199.667 53.381 200.343 54.1031C201.02 54.8253 201.845 55.3909 202.816 55.7998C203.788 56.2088 204.882 56.3915 206.096 56.3306C207.328 56.2697 208.422 55.9826 209.341 55.4605C210.27 54.9471 211.033 54.2859 211.641 53.4767C212.248 52.6762 212.682 51.78 212.951 50.8055C213.22 49.8309 213.316 48.8477 213.255 47.8558C213.185 46.8204 212.942 45.8285 212.535 44.8888C212.118 43.949 211.571 43.1224 210.895 42.4177C210.218 41.7129 209.402 41.1734 208.456 40.7819C207.511 40.399 206.469 40.2337 205.324 40.2859C204.127 40.3468 203.077 40.6253 202.166 41.1212C201.255 41.6259 200.5 42.261 199.901 43.0354C199.302 43.8098 198.86 44.6886 198.565 45.6544C198.261 46.629 198.122 47.6035 198.157 48.5954Z" fill="white"/>
<path d="M244.822 56.722C244.11 51.4753 243.407 46.2199 242.696 40.9731C241.03 45.1844 239.303 49.3783 237.516 53.5635C236.596 53.6766 235.667 53.781 234.748 53.8855C232.049 50.2223 229.403 46.5331 226.817 42.8265C227.337 48.0993 227.849 53.3721 228.37 58.6449C226.652 58.8102 224.934 58.9756 223.207 59.1235C222.522 51.1533 221.828 43.1745 221.142 35.2044C222.886 35.0564 224.639 34.8911 226.383 34.7171C229.307 39.0067 232.309 43.2615 235.39 47.4815C237.437 42.6524 239.407 37.8147 241.29 32.9682C243.017 32.7333 244.743 32.4896 246.47 32.2373C247.633 40.1552 248.796 48.0732 249.95 55.9911C248.249 56.2521 246.531 56.4871 244.822 56.722Z" fill="white"/>
<path d="M272.909 47.8294C273.178 49.1694 273.447 50.5006 273.716 51.8406C267.651 53.0674 261.559 54.1725 255.451 55.147C254.193 47.2465 252.934 39.3372 251.676 31.4367C257.351 30.5318 263.017 29.5051 268.657 28.3652C268.926 29.7052 269.195 31.0364 269.464 32.3764C265.395 33.1943 261.308 33.96 257.221 34.6648C257.542 36.5616 257.872 38.4671 258.193 40.3639C261.776 39.7462 265.351 39.0849 268.917 38.3801C269.16 39.6157 269.403 40.8599 269.646 42.0955C266.045 42.8089 262.444 43.4702 258.826 44.0967C259.173 46.1501 259.529 48.2036 259.876 50.2657C264.241 49.5174 268.579 48.7082 272.909 47.8294Z" fill="white"/>
<path d="M276.31 42.0782C275.26 37.1187 274.211 32.1591 273.161 27.1908C274.723 26.8601 276.276 26.5208 277.838 26.1641C278.94 31.1149 280.05 36.0658 281.161 41.008C279.538 41.3822 277.924 41.7389 276.31 42.0782ZM278.185 50.9185C277.829 49.2566 277.482 47.586 277.126 45.9241C278.757 45.576 280.38 45.2193 282.011 44.8539C282.384 46.5158 282.757 48.1777 283.122 49.8396C281.473 50.205 279.833 50.5617 278.185 50.9185Z" fill="white"/>
<g opacity="0.1">
<path opacity="0.1" d="M59.7756 7.0127C59.9058 8.11773 59.7322 9.24016 59.4893 10.3017C59.2463 11.3719 58.9079 12.4247 58.5435 13.4515C57.7712 15.4962 56.8688 17.4974 55.6714 19.342C56.2441 17.219 56.9903 15.183 57.7278 13.1556L58.8385 10.119C59.1856 9.09224 59.576 8.09162 59.7756 7.0127Z" fill="black"/>
<path opacity="0.1" d="M60.6431 7.73535C61.1377 8.55325 61.4587 9.45815 61.7103 10.3631C61.9706 11.2767 62.1268 12.2164 62.2396 13.1561C62.4132 15.0442 62.3611 16.9584 61.8839 18.8031C61.7624 17.8546 61.7017 16.9323 61.6236 16.01C61.5541 15.0877 61.4674 14.1654 61.3719 13.2518C61.1897 11.4159 60.9468 9.60607 60.6431 7.73535Z" fill="black"/>
<path opacity="0.1" d="M62.6997 7.0127C63.3765 7.73488 64.088 8.38746 64.8342 8.98783C65.5805 9.5795 66.3527 10.1364 67.1857 10.5975C68.0013 11.0674 68.8517 11.5024 69.7454 11.8418C70.6305 12.2159 71.5502 12.4769 72.496 12.7989C71.5069 12.8424 70.5003 12.7554 69.5285 12.4943C68.548 12.2681 67.6196 11.8418 66.7432 11.3545C65.8668 10.8498 65.0685 10.2147 64.3744 9.49249C63.6802 8.7616 63.0728 7.94371 62.6997 7.0127Z" fill="black"/>
</g>
<g opacity="0.1">
<path opacity="0.1" d="M309.101 7.0127C309.309 8.09162 309.691 9.09224 310.038 10.1103L311.148 13.1469C311.886 15.183 312.632 17.2103 313.205 19.3333C312.007 17.4887 311.105 15.4875 310.333 13.4428C309.968 12.416 309.63 11.3632 309.387 10.293C309.144 9.24016 308.97 8.11773 309.101 7.0127Z" fill="black"/>
<path opacity="0.1" d="M308.242 7.73535C307.938 9.60607 307.695 11.4159 307.504 13.2518C307.409 14.1654 307.322 15.0877 307.252 16.01C307.174 16.9323 307.114 17.8633 306.992 18.8031C306.515 16.9584 306.463 15.0442 306.636 13.1561C306.749 12.2164 306.905 11.2767 307.166 10.3631C307.426 9.45815 307.747 8.55325 308.242 7.73535Z" fill="black"/>
<path opacity="0.1" d="M306.185 7.0127C305.803 7.94371 305.196 8.7616 304.51 9.48379C303.816 10.2147 303.018 10.8411 302.142 11.3458C301.265 11.8331 300.337 12.2594 299.356 12.4856C298.393 12.7554 297.378 12.8337 296.389 12.7902C297.334 12.4682 298.254 12.2072 299.139 11.8331C300.033 11.485 300.883 11.0587 301.699 10.5888C302.523 10.1277 303.296 9.5708 304.05 8.97913C304.797 8.38746 305.508 7.74358 306.185 7.0127Z" fill="black"/>
</g>
<path d="M62.6998 7.01332C62.6998 8.15315 61.78 9.07546 60.6434 9.07546C59.5067 9.07546 58.5869 8.15315 58.5869 7.01332C58.5869 5.87348 59.5067 4.95117 60.6434 4.95117C61.78 4.95117 62.6998 5.87348 62.6998 7.01332Z" fill="#263238"/>
<path d="M309.586 7.01332C309.586 8.15315 308.666 9.07546 307.53 9.07546C306.393 9.07546 305.473 8.15315 305.473 7.01332C305.473 5.87348 306.393 4.95117 307.53 4.95117C308.666 4.95117 309.586 5.87348 309.586 7.01332Z" fill="#263238"/>
<path d="M132.029 110.79C132.185 111.982 131.369 113.087 130.224 113.244C129.079 113.4 128.011 112.565 127.864 111.364C127.708 110.172 128.523 109.067 129.669 108.91C130.823 108.754 131.881 109.589 132.029 110.79Z" fill="#263238"/>
<path d="M297.855 119.831C298.011 121.023 297.196 122.128 296.05 122.285C294.896 122.441 293.838 121.606 293.69 120.405C293.534 119.213 294.35 118.108 295.495 117.951C296.64 117.795 297.699 118.63 297.855 119.831Z" fill="#263238"/>
<path d="M250.201 102.794C250.279 103.394 249.871 103.942 249.299 104.021C248.726 104.099 248.197 103.681 248.118 103.081C248.04 102.48 248.448 101.932 249.021 101.854C249.594 101.776 250.123 102.202 250.201 102.794Z" fill="#FFC727"/>
<path d="M118.155 102.794C118.233 103.394 117.825 103.942 117.252 104.021C116.679 104.099 116.15 103.681 116.072 103.081C115.994 102.48 116.402 101.932 116.974 101.854C117.556 101.776 118.076 102.202 118.155 102.794Z" fill="#FFC727"/>
<path d="M275.685 33.9343C275.763 34.5347 275.356 35.0829 274.783 35.1612C274.21 35.2395 273.681 34.8218 273.603 34.2215C273.525 33.6211 273.933 33.0729 274.505 32.9946C275.078 32.9163 275.607 33.3427 275.685 33.9343Z" fill="#263238"/>
<path d="M220.1 171.706C220.178 172.306 219.771 172.855 219.198 172.933C218.625 173.011 218.096 172.593 218.018 171.993C217.94 171.393 218.348 170.845 218.92 170.766C219.493 170.688 220.022 171.106 220.1 171.706Z" fill="#263238"/>
<path d="M202.582 18.1161C202.66 18.7165 202.252 19.2647 201.679 19.343C201.107 19.4213 200.577 19.0036 200.499 18.4033C200.421 17.8029 200.829 17.2547 201.402 17.1764C201.983 17.0981 202.504 17.5158 202.582 18.1161Z" fill="#263238"/>
<path d="M85.052 129.654C85.1301 130.255 84.7223 130.803 84.1496 130.881C83.5769 130.959 83.0476 130.542 82.9695 129.941C82.8915 129.341 83.2993 128.793 83.872 128.715C84.4533 128.636 84.9826 129.054 85.052 129.654Z" fill="#FFC727"/>
<path d="M264.501 215.829C264.579 216.429 264.171 216.978 263.598 217.056C263.026 217.134 262.496 216.717 262.418 216.116C262.34 215.516 262.748 214.968 263.321 214.889C263.893 214.82 264.423 215.237 264.501 215.829Z" fill="#455A64"/>
<path d="M121.764 197.035C121.842 197.635 121.434 198.184 120.862 198.262C120.289 198.34 119.76 197.923 119.681 197.322C119.603 196.722 120.011 196.174 120.584 196.095C121.157 196.017 121.686 196.435 121.764 197.035Z" fill="#FFC727"/>
<path d="M136.723 155.131C136.879 156.323 136.064 157.428 134.918 157.584C133.764 157.741 132.706 156.906 132.558 155.705C132.402 154.513 133.218 153.408 134.363 153.251C135.517 153.095 136.576 153.939 136.723 155.131Z" fill="#FFC727"/>
<path d="M154.615 42.1823C154.771 43.3744 153.956 44.4794 152.81 44.636C151.665 44.7926 150.598 43.9573 150.45 42.7566C150.294 41.5645 151.11 40.4595 152.255 40.3029C153.401 40.1463 154.459 40.9903 154.615 42.1823Z" fill="#455A64"/>
<path d="M125.964 176.501C126.12 177.693 125.304 178.798 124.159 178.954C123.005 179.111 121.946 178.276 121.799 177.075C121.643 175.883 122.458 174.778 123.604 174.621C124.749 174.465 125.808 175.309 125.964 176.501Z" fill="#455A64"/>
<path d="M232.882 25.8854C233.038 27.0775 232.222 28.1825 231.077 28.3391C229.932 28.4957 228.864 27.6604 228.717 26.4597C228.561 25.2677 229.376 24.1626 230.522 24.006C231.667 23.8494 232.726 24.6934 232.882 25.8854Z" fill="#263238"/>
<path d="M231.155 96.7992L234.131 95.7637C234.131 95.7637 232.101 94.6761 232.101 91.2914C232.101 87.9067 234.886 86.5755 233.68 83.5127L230.365 84.435C230.365 84.435 231.667 87.0453 230.513 89.6208C229.645 91.5785 228.855 93.8843 231.155 96.7992Z" fill="#263238"/>
<path d="M158.138 110.016L155.197 108.867C155.197 108.867 156.116 111.042 154.06 113.661C152.003 116.28 149.036 115.497 148.107 118.665L151.24 120.118C151.24 120.118 151.812 117.238 154.268 115.993C156.142 115.054 158.164 113.783 158.138 110.016Z" fill="#455A64"/>
<path d="M90.1366 167.903L87.1951 166.755C87.1951 166.755 88.1148 168.93 86.0584 171.549C84.0019 174.168 81.0344 173.385 80.106 176.552L83.2384 178.005C83.2384 178.005 83.811 175.125 86.2666 173.881C88.1322 172.941 90.1539 171.671 90.1366 167.903Z" fill="#263238"/>
<path d="M315.686 161.874L312.745 160.726C312.745 160.726 313.665 162.901 311.608 165.52C309.552 168.139 306.584 167.356 305.656 170.523L308.788 171.976C308.788 171.976 309.361 169.096 311.816 167.852C313.682 166.921 315.704 165.65 315.686 161.874Z" fill="#FFC727"/>
<path d="M102.319 80.7633L102.744 77.5352C102.744 77.5352 100.905 78.9448 97.9893 77.4395C95.0738 75.9429 95.1519 72.7584 91.9761 72.5234L91.2993 76.0213C91.2993 76.0213 94.128 75.9603 95.8374 78.1791C97.1389 79.8584 98.7789 81.616 102.319 80.7633Z" fill="#263238"/>
<path d="M84.0364 210.948L84.4615 207.72C84.4615 207.72 82.622 209.129 79.7066 207.624C76.7911 206.119 76.8692 202.943 73.6934 202.708L73.0166 206.206C73.0166 206.206 75.8453 206.145 77.5547 208.364C78.8562 210.043 80.4962 211.801 84.0364 210.948Z" fill="#FFC727"/>
<path d="M190.095 202.273L190.521 199.045C190.521 199.045 188.681 200.455 185.766 198.949C182.85 197.453 182.928 194.268 179.752 194.033L179.076 197.531C179.076 197.531 181.904 197.47 183.614 199.689C184.915 201.368 186.555 203.126 190.095 202.273Z" fill="#455A64"/>
<path d="M316.667 88.9508L317.092 85.7227C317.092 85.7227 315.252 87.1323 312.337 85.627C309.421 84.1217 309.5 80.9459 306.324 80.7109L305.647 84.2087C305.647 84.2087 308.476 84.1478 310.185 86.3666C311.495 88.0372 313.135 89.8035 316.667 88.9508Z" fill="#FFC727"/>
<path d="M128.307 214.707L128.897 217.909C128.897 217.909 130.207 215.96 133.435 216.412C136.663 216.865 137.565 219.901 140.645 219.066L140.203 215.533C140.203 215.533 137.539 216.534 135.24 215.003C133.495 213.837 131.396 212.714 128.307 214.707Z" fill="#455A64"/>
<path d="M180.855 147.953L177.549 146.082C177.549 146.082 174.868 150.276 178.095 152.39C178.087 152.39 177.427 149.676 180.855 147.953Z" fill="#FFC727"/>
<path d="M178.174 157.498L181.653 156.158C181.653 156.158 181.853 153.061 178.087 152.391C178.087 152.391 180.447 155.201 178.174 157.498Z" fill="#FFC727"/>
<path d="M88.2882 17.1237L84.9823 15.2617C84.9823 15.2617 82.3011 19.4556 85.529 21.57C85.529 21.5613 84.8608 18.8378 88.2882 17.1237Z" fill="#455A64"/>
<path d="M85.6156 26.669L89.0951 25.3291C89.0951 25.3291 89.2946 22.2315 85.5288 21.5615C85.5288 21.5615 87.8889 24.372 85.6156 26.669Z" fill="#455A64"/>
<path d="M203.068 95.2763C202.911 94.0842 203.727 92.9792 204.872 92.8226C206.026 92.666 207.085 93.5013 207.232 94.702C207.389 95.894 206.573 96.9991 205.428 97.1557C204.282 97.3123 203.224 96.477 203.068 95.2763Z" fill="#263238"/>
<path d="M270.896 137.415C270.739 136.223 271.555 135.118 272.7 134.961C273.854 134.805 274.913 135.64 275.061 136.841C275.217 138.033 274.401 139.138 273.256 139.294C272.11 139.451 271.052 138.607 270.896 137.415Z" fill="#FFC727"/>
<path d="M226.608 213.897C226.452 212.705 227.267 211.6 228.413 211.444C229.558 211.287 230.625 212.122 230.773 213.323C230.929 214.515 230.114 215.62 228.968 215.777C227.814 215.933 226.756 215.098 226.608 213.897Z" fill="#FFC727"/>
<path d="M51.0814 178.144C51.0033 177.544 51.4111 176.996 51.9838 176.918C52.5565 176.839 53.0858 177.257 53.1638 177.857C53.2419 178.458 52.8341 179.006 52.2614 179.084C51.6801 179.163 51.1595 178.745 51.0814 178.144Z" fill="#FFC727"/>
<path d="M221.306 154.652C221.228 154.052 221.636 153.504 222.209 153.425C222.782 153.347 223.311 153.765 223.389 154.365C223.467 154.966 223.059 155.514 222.487 155.592C221.914 155.67 221.385 155.253 221.306 154.652Z" fill="#FFC727"/>
<path d="M192.855 67.2333C192.777 66.633 193.185 66.0848 193.757 66.0065C194.33 65.9282 194.859 66.3458 194.937 66.9462C195.015 67.5466 194.608 68.0947 194.035 68.1731C193.462 68.2514 192.933 67.825 192.855 67.2333Z" fill="#37474F"/>
<path d="M272.24 77.039C272.084 75.8469 272.9 74.7419 274.045 74.5853C275.199 74.4287 276.258 75.264 276.405 76.4647C276.561 77.6567 275.746 78.7618 274.601 78.9184C273.455 79.075 272.397 78.2397 272.24 77.039Z" fill="#FFC727"/>
<path d="M55.9576 155.166C55.8015 153.974 56.6171 152.869 57.7625 152.712C58.9165 152.556 59.9751 153.391 60.1226 154.592C60.2788 155.784 59.4632 156.889 58.3178 157.045C57.1724 157.202 56.1138 156.358 55.9576 155.166Z" fill="#455A64"/>
<path d="M143.908 78.0829L138.893 79.5621C138.893 79.5621 136.507 73.0624 141.47 71.2178C141.47 71.2178 139.778 74.6808 143.908 78.0829Z" fill="#455A64"/>
<path d="M143.084 64.3438L147.387 67.2586C147.387 67.2586 146.754 71.5047 141.47 71.2176C141.47 71.2176 145.487 68.1722 143.084 64.3438Z" fill="#455A64"/>
<path d="M304.241 203.004L299.226 204.483C299.226 204.483 296.84 197.983 301.803 196.139C301.803 196.139 300.111 199.602 304.241 203.004Z" fill="#455A64"/>
<path d="M303.417 189.265L307.72 192.179C307.72 192.179 307.087 196.426 301.803 196.138C301.803 196.138 305.82 193.093 303.417 189.265Z" fill="#455A64"/>
<path d="M270.497 159.229L269.82 153.86C269.82 153.86 276.362 152.355 277.395 157.724C277.395 157.732 274.341 155.487 270.497 159.229Z" fill="#263238"/>
<path d="M283.703 160.386L280.302 164.389C280.302 164.389 276.345 163.118 277.395 157.732C277.395 157.732 279.712 162.292 283.703 160.386Z" fill="#263238"/>
<path d="M149.053 195.695L144.038 197.174C144.038 197.174 141.652 190.675 146.615 188.83C146.623 188.83 144.931 192.293 149.053 195.695Z" fill="#263238"/>
<path d="M148.237 181.965L152.541 184.88C152.541 184.88 151.908 189.126 146.624 188.839C146.624 188.83 150.632 185.785 148.237 181.965Z" fill="#263238"/>
<path d="M238.99 62.9951L242.296 64.8571C242.296 64.8571 244.977 60.6632 241.75 58.5488C241.758 58.5488 242.418 61.2722 238.99 62.9951Z" fill="#455A64"/>
<path d="M241.671 53.4414L238.192 54.7814C238.192 54.7814 237.992 57.8789 241.758 58.5489C241.758 58.5489 239.398 55.7472 241.671 53.4414Z" fill="#455A64"/>
<path d="M233.046 170.801L233.593 174.673C233.593 174.673 238.426 174.377 238.122 170.436C238.122 170.427 236.43 172.62 233.046 170.801Z" fill="#FFC727"/>
<path d="M242.01 167.294L238.886 165.215C238.886 165.215 236.378 166.912 238.131 170.435C238.122 170.427 238.868 166.781 242.01 167.294Z" fill="#FFC727"/>
<path d="M252.248 193.671C251.959 191.931 252.227 187.596 253.983 186.275C257.454 183.665 263.528 185.84 265.697 188.015" stroke="#273442" stroke-width="2"/>
</g>
<path d="M361.321 287.137H10.749C10.0829 287.137 9.54492 286.53 9.54492 285.78C9.54492 285.029 10.0829 284.423 10.749 284.423H361.321C361.987 284.423 362.525 285.029 362.525 285.78C362.516 286.53 361.978 287.137 361.321 287.137Z" fill="#273442"/>
<path d="M119.224 191.957C119.788 190.523 120.133 189.032 119.606 187.578C118.764 185.278 117.146 185.086 114.705 184.172C112.609 183.382 111.058 183.325 109.823 183.969C108.627 184.595 107.928 185.759 107.239 187.309L109.316 188.242C110.35 185.923 110.972 185.211 113.911 186.308C116.103 187.126 117.223 187.809 117.529 188.502C117.759 189.012 117.635 189.792 117.118 191.11L119.224 191.957Z" fill="#273442"/>
<path d="M124.705 91.1863C123.853 91.09 123.01 90.9649 122.168 90.7628C121.23 90.5415 120.014 90.3009 119.296 90.349C117.774 90.4452 115.295 91.1574 114.232 92.9859C112.911 95.2668 109.494 94.4006 112.289 104.169C115.458 115.227 121.392 112.619 121.498 112.397C121.603 112.176 125.451 103.996 125.451 103.996C125.451 103.996 128.246 107.711 128.208 107.566C128.179 107.412 134.928 92.293 124.705 91.1863Z" fill="#E27B4C"/>
<path d="M164.527 122.454C164.489 121.723 161.196 122.493 160.775 121.916C160.344 121.338 164.374 119.615 164.288 118.99C164.125 117.835 159.76 120.607 159.655 120.087C159.549 119.558 163.914 116.478 163.053 115.862C162.191 115.246 158.86 119.529 158.496 119.019C158.133 118.509 161.952 115.304 161.358 114.101C161.043 113.456 155.519 120.395 154.543 120.385C153.566 120.366 154.007 116.536 153.155 116.343C152.303 116.151 153.203 123.754 152.839 124.168C152.475 124.581 145.085 134.138 142.012 136.448C141.122 135.466 135.599 130.567 134.785 129.624C133.426 131.809 131.31 133.031 129.836 135.12C132.775 138.161 141.4 145.051 142.596 145.09C146.224 145.215 154.016 130.433 155.682 127.767C157.357 125.091 158.927 125.082 160.315 123.888C161.674 122.666 164.565 123.186 164.527 122.454Z" fill="#DB8A7F"/>
<path d="M131.877 138.604C131.877 138.604 121.52 131.482 119.213 127.219C116.915 122.946 125.368 116.892 129.226 118.74C133.505 120.79 139.009 131.232 139.009 131.232L131.877 138.604Z" fill="#273442"/>
<path d="M136.505 271.847C136.505 271.847 136.141 278.468 136.141 278.478C136.007 279.315 135.48 281.394 135.48 282.154C135.48 285.022 147.944 279.719 145.149 278.449C144.9 278.333 143.569 277.467 143.493 276.485C143.368 274.984 143.043 271.933 143.043 271.933L136.505 271.847Z" fill="#E2A290"/>
<path d="M145.121 278.496C145.121 278.496 142.191 279.92 140.689 280.132C139.186 280.354 137.214 278.506 136.151 279.006C134.983 279.555 135.098 284.963 135.098 284.963C135.098 284.963 150.721 285.907 155.134 284.453C156.885 283.876 151.103 280.536 145.121 278.496Z" fill="#153D59"/>
<path d="M109.048 272.48C109.048 272.48 108.684 279.102 108.684 279.111C108.55 279.949 108.024 282.027 108.024 282.788C108.024 285.656 120.487 280.353 117.692 279.082C117.443 278.967 115.72 277.446 115.634 276.474C115.51 274.973 115.577 272.577 115.577 272.577L109.048 272.48Z" fill="#E2A290"/>
<path d="M117.65 279.055C117.65 279.055 114.721 279.93 113.228 280.152C111.725 280.373 109.753 278.525 108.69 279.026C107.523 279.574 107.475 284.521 107.475 284.521C107.475 284.521 124.179 285.763 128.104 284.598C129.865 284.069 123.633 281.105 117.65 279.055Z" fill="#153D59"/>
<path d="M128.794 176.955L134.068 179.284L145.153 233.505L144.703 274.147L135.82 274.359C135.82 274.359 131.685 238.808 131.685 236.046C131.685 233.284 112.54 187.83 112.54 187.83L128.794 176.955Z" fill="#C96841"/>
<path d="M124.724 179.939C124.724 179.939 120.837 221.717 120.837 228.752C120.837 235.796 117.688 275.206 117.688 275.206L108.776 275.158C108.776 275.158 108.134 263.147 107.177 245.478C107.024 242.706 107.369 237.124 107.177 234.256C105.789 213.652 104.21 178.948 104.976 178.13C110.824 171.942 124.724 179.939 124.724 179.939Z" fill="#E27B4C"/>
<path d="M116.022 117.277C116.022 117.277 109.043 118.018 107.32 119.096C105.387 120.309 104.382 125.342 104.382 125.342C104.382 125.342 105.482 151.548 104.975 157.669C104.583 162.404 104.295 187.628 104.295 187.628C104.295 187.628 128.39 188.128 137.292 185.386C137.292 185.386 134.344 168.409 134.65 164.781C134.956 161.143 134.535 127.825 133.989 125.457C133.501 123.302 132.592 119.442 128.514 118.153C124.455 116.863 116.022 117.277 116.022 117.277Z" fill="#153D59"/>
<path d="M117.886 110.136L115.618 118.778C115.618 118.778 119.743 123.975 123.132 123.359C125.965 122.84 125.563 119.173 125.563 119.173C125.563 119.173 124.472 114.082 125.142 111.637C125.812 109.193 117.886 110.136 117.886 110.136Z" fill="#E2A290"/>
<path d="M125.155 111.637C125.815 109.193 117.899 110.146 117.899 110.146L117.707 110.858C117.889 111.368 118.138 111.801 118.444 112.157C120.043 113.947 122.675 115.169 125.021 115.448C124.896 114.082 124.877 112.638 125.155 111.637Z" fill="#D7735A"/>
<path d="M254.001 269.364C254.001 269.364 256.279 271.597 256.336 272.424C256.384 273.242 256.537 282.039 255.609 282.857C254.68 283.675 251.943 284.262 252.823 285.186C253.484 285.879 258.596 285.734 261.984 285.551C262.97 285.494 264.215 277.564 264.607 276.399C265.172 274.705 266.56 270.894 266.043 269.71C265.794 269.133 264.588 267.949 262.884 266.852C261.094 265.688 259.39 263.108 259.39 263.108L254.001 269.364Z" fill="#DB8A7F"/>
<path d="M230.384 274.571C230.384 274.571 232.423 280.364 232.423 280.383C232.576 281.298 233.17 283.569 233.17 284.406C233.17 287.544 219.108 281.74 222.257 280.355C222.544 280.229 223.435 279.229 223.53 278.16C223.674 276.515 222.343 274.455 222.343 274.455L230.384 274.571Z" fill="#E2A290"/>
<path d="M208.322 166.676C208.322 166.676 207.298 177.06 207.298 177.214C207.298 194.017 203.986 226.835 204.618 230.001C206.159 237.71 222.7 277.014 222.7 277.014L231.641 275.936L219.991 228.875L224.28 209.935L230.349 172.489L208.322 166.676Z" fill="#8EB7D9"/>
<path d="M238.332 175.857L240.026 185.702L244.621 226.219L262.101 265.822C262.101 265.822 259.64 271.586 256.012 272.395L228.195 231.734L210.916 179.707L211.519 168.148L238.332 175.857Z" fill="#A0CEF4"/>
<path d="M262.77 266.794C262.77 266.794 257.514 281.663 255.456 282.385C254.911 282.577 252.288 283.058 251.8 284.223C251.646 284.569 251.8 285.743 251.8 285.743H262.751C262.751 285.743 264.139 279.19 264.684 276.312C264.684 276.312 267.585 269.277 267.259 268.642C266.934 267.997 262.77 266.794 262.77 266.794Z" fill="#153D59"/>
<path d="M233.978 285.435L232.37 280.325C232.37 280.325 228.991 281.759 227.296 281.528C225.602 281.288 222.3 280.325 222.3 280.325C215.551 282.558 210.018 283.645 211.023 285.435H233.978Z" fill="#153D59"/>
<path d="M164.269 139.613L165.188 140.171C165.188 140.171 166.088 140.922 166.318 140.98C166.547 141.037 172.856 140.893 172.856 140.893C172.856 140.893 172.875 143.001 172.836 143.001C172.798 143.001 169.524 145.686 169.524 145.686L168.826 146.003L164.527 144.714L160.603 144.223C160.603 144.223 157.817 143.896 157.817 143.828C157.817 143.761 157.903 141.548 158.009 141.442C158.114 141.336 159.693 139.709 159.693 139.709C159.693 139.709 160.899 139.44 160.938 139.44C160.976 139.44 162.144 139.209 162.182 139.19C162.221 139.18 164.058 139.459 164.058 139.459L164.269 139.613Z" fill="#DB8A7F"/>
<path d="M154.945 144.407C154.945 144.407 156.218 144.571 156.898 144.84C157.578 145.109 162.948 149.209 162.948 149.209C162.948 149.209 163.666 149.604 164.049 149.296C164.431 148.978 164.403 148.613 164.403 148.613C164.403 148.613 165.044 148.969 165.475 148.718C165.906 148.468 165.896 148.064 165.839 147.862C165.839 147.862 166.461 148.035 166.825 147.727C167.188 147.41 166.997 146.611 166.997 146.611C166.997 146.611 168.146 147.323 168.596 146.842C169.045 146.361 168.854 145.86 168.404 145.475C167.954 145.09 165.293 143.319 164.987 143.117C164.671 142.915 163.79 141.972 163.522 141.847C163.254 141.722 162.584 141.356 162.584 141.356C162.584 141.356 161.474 141.481 161.407 141.52C161.34 141.558 161.024 142.338 160.468 142.54C159.913 142.742 159.262 142.453 159.234 142.376C159.205 142.29 159.195 142.116 159.224 141.953C159.253 141.789 159.655 141.193 159.75 140.711C159.846 140.23 159.971 140.095 160.143 139.99C160.315 139.884 161.282 139.595 161.761 139.402C162.239 139.21 164.23 139.768 164.23 139.768L165.178 140.182C165.178 140.182 165.006 139.479 164.403 139.364C163.809 139.258 163.063 139.095 162.641 139.046C162.22 139.008 161.244 139.306 160.794 139.335C160.344 139.364 159.502 139.431 159.004 139.624C158.506 139.816 155.462 139.624 155.271 139.595C155.29 139.595 153.969 143.175 154.945 144.407Z" fill="#E2A290"/>
<path d="M155.99 139.623C154.707 139.594 139.947 139.469 134.404 139.421C133.054 139.411 131.743 138.949 130.671 138.102L118.332 128.344L110.846 136.235L125.913 146.706C126.938 147.447 132.691 148.092 133.945 147.967C139.765 147.37 154.573 144.387 156.057 144.599L155.99 139.623Z" fill="#E2A290"/>
<path d="M167.142 140.991C168.424 140.962 183.97 140.731 189.513 140.692C190.862 140.683 192.174 140.221 193.246 139.374L205.575 129.605L210.974 135.861L195.658 146.986C194.634 147.727 193.38 148.074 192.116 147.939C186.296 147.342 170.339 145.774 168.855 145.985L167.142 140.991Z" fill="#DB8A7F"/>
<path d="M127.083 133.406C127.083 133.406 116.754 122.482 113.021 119.73C109.287 116.978 104.549 119.297 104.309 124.061C103.965 131 117.654 143.434 117.654 143.434L127.083 133.406Z" fill="#173144"/>
<path d="M199.449 133.406C199.449 133.406 209.778 122.483 213.511 119.731C217.245 116.978 224.759 119.317 224.166 124.052C223.562 128.883 206.686 141.105 206.686 141.105L199.449 133.406Z" fill="#DEAD22"/>
<path d="M211.432 129.461C211.192 131.135 204.53 184.635 204.53 184.635C224.134 191.237 241.633 184.885 241.633 184.885C241.633 184.885 238.579 146.486 239.402 142.136C239.948 139.258 239.441 119.885 237.584 119.346C235.21 118.663 233.659 118.201 230.691 117.893C228.155 117.623 218.295 117.479 216.534 118.066C216.534 118.066 212.446 122.426 211.432 129.461Z" fill="#FFC727"/>
<path d="M227.91 108.557L229.451 118.027C229.451 118.027 223.812 130.076 220.443 129.066C217.619 128.219 219.352 117.863 219.352 117.863C219.352 117.863 220.893 112.31 220.433 109.529C219.974 106.738 227.91 108.557 227.91 108.557Z" fill="#E2A290"/>
<path d="M220.433 109.519C219.973 106.738 227.909 108.557 227.909 108.557L228.033 109.375C227.803 109.923 227.516 110.385 227.172 110.741C225.401 112.58 222.625 113.686 220.232 113.773C220.48 112.272 220.624 110.664 220.433 109.519Z" fill="#D7735A"/>
<path d="M229.206 94.6609C229.427 94.5839 231.006 105.844 228.019 108.952C225.033 112.051 219.213 113.071 217.126 110.627C214.819 107.923 214.934 95.8158 219.576 92.6303C224.219 89.4351 229.206 94.6609 229.206 94.6609Z" fill="#E2A290"/>
<path d="M228.116 90.3204C229.743 90.5032 231.964 91.379 234.252 95.0265C237.066 99.5208 234.989 104.496 231.715 106.931C228.441 109.376 228.499 112.167 228.499 112.167L227.972 110.733C227.589 109.626 227.436 108.452 227.561 107.297C227.637 106.604 227.79 105.853 228.087 105.228C228.872 103.601 226.393 102.514 225.704 101.157C225.167 100.108 225.139 97.7212 224.296 95.9985L223.291 94.68C223.291 94.68 220.965 92.9381 218.696 93.4289C216.428 93.9197 219.204 83.2276 228.116 90.3204Z" fill="#2C3D4D"/>
<path d="M225.846 103.169C225.827 104.545 226.468 105.671 227.291 105.681C228.114 105.69 228.804 104.593 228.823 103.217C228.842 101.841 228.201 100.715 227.377 100.705C226.554 100.696 225.874 101.793 225.846 103.169Z" fill="#E2A290"/>
<path d="M217.067 105.767L222.006 106.267C222.006 106.267 221.7 108.144 219.527 107.98C216.866 107.788 217.067 105.767 217.067 105.767Z" fill="#F6F6F6"/>
<path d="M259.857 180.025C259.867 179.919 259.876 179.823 259.867 179.717C259.541 176.387 256.794 148.439 256.325 147.255C255.903 146.187 243.584 128.46 243.584 128.46L237.524 136.756L249.375 152.654C249.643 153.665 253.922 172.528 253.922 172.528C253.922 172.528 254.803 175.964 255.195 178.023C255.013 178.524 254.841 178.986 254.688 179.37C254.295 180.188 253.836 180.862 253.415 181.43C252.888 182.142 252.007 183.701 251.902 184.125C251.778 184.606 251.548 185.616 251.424 186.223C251.299 186.829 251.117 187.541 251.088 187.868C251.069 188.07 250.868 188.475 250.706 188.754C250.466 189.177 250.868 189.678 251.328 189.524C251.759 189.379 252.094 188.821 252.304 188.475C252.888 187.493 253.194 185.693 253.348 185.78C253.491 185.876 254.209 188.475 254.401 188.773C254.783 189.341 255.626 189.11 255.75 188.484C255.798 188.253 255.903 188.263 256.018 188.35C256.181 188.484 256.411 188.638 256.803 188.59C257.473 188.513 257.359 187.83 257.588 187.936C258.536 188.359 258.938 187.503 258.919 187.243C258.909 187.108 258.967 187.031 259.11 187.06C259.57 187.147 260.288 187.224 260.297 185.684C260.307 184.144 259.598 182.421 259.809 180.583C259.79 180.477 259.828 180.198 259.857 180.025Z" fill="#E2A290"/>
<path d="M253.206 139.682L242.676 146.785C242.676 146.785 236.741 137.902 233.554 134.745C229.562 130.79 235.009 118.654 237.574 119.347C243.337 120.877 253.206 139.682 253.206 139.682Z" fill="#FFC727"/>
<path d="M120.34 95.3155C123.489 94.0548 127.012 96.0469 127.653 99.3576C127.931 100.792 128.208 102.61 128.333 104.593C128.639 109.376 126.399 114.15 124.245 114.246C122.091 114.342 115.994 111.513 115.458 104.728C115.123 100.541 117.027 96.634 120.34 95.3155Z" fill="#E2A290"/>
<path d="M117.067 105.199C117.115 106.257 116.464 107.143 115.602 107.181C114.75 107.22 114.013 106.392 113.965 105.343C113.917 104.284 114.568 103.399 115.43 103.36C116.282 103.312 117.019 104.14 117.067 105.199Z" fill="#E2A290"/>
<path d="M115.432 103.35C115.432 103.35 118.084 103.417 118.658 101.589C119.233 99.7602 121.788 95.5161 126.345 96.0262C130.902 96.5362 121.846 93.3218 121.501 93.3988C121.166 93.4758 117.088 94.3516 117.088 94.3516C117.088 94.3516 114.523 97.643 114.475 97.9509C114.427 98.2589 114.207 101.57 114.207 101.57L115.432 103.35Z" fill="#E27B4C"/>
<path d="M121.508 109.106L126.265 108.972C126.265 108.972 126.208 110.8 124.121 110.916C121.575 111.06 121.508 109.106 121.508 109.106Z" fill="#F6F6F6"/>
<path d="M257.146 216.251C259.089 220.014 255.643 222.795 255.643 222.795C251.69 224.652 248.665 224.652 248.665 224.652C242.471 209.601 240.48 199.659 240.547 199.053C240.605 198.447 242.031 197.465 242.682 197.657C249.89 203.374 257.146 216.251 257.146 216.251Z" fill="#273442"/>
<path d="M242.682 197.657C259.28 191.738 271.332 185.887 271.332 185.887C281.068 197.435 284.705 207.868 284.705 207.868C274.233 214.941 255.643 222.794 255.643 222.794C255.365 219.003 242.682 197.657 242.682 197.657Z" fill="#2C3D4D"/>
<path d="M240.547 199.053C243.467 196.878 251.67 210.881 251.67 210.881C267.924 205.299 279.813 196.859 279.813 196.859C275.123 188.014 272.337 186.099 270.892 185.406C268.748 185.406 261.109 189.622 255.566 191.999C247.927 195.29 240.145 197.725 240.547 199.053Z" fill="#273442"/>
<path d="M263.033 204.52C263.464 205.906 264.527 207.523 264.527 207.523C267.073 206.349 268.844 205.203 268.844 205.203C268.346 203.952 267.618 202.701 267.331 202.374C265.139 203.173 263.033 204.52 263.033 204.52Z" fill="#F6F6F6"/>
<path d="M185.588 323.984C278.334 323.984 353.519 318.59 353.519 311.936C353.519 305.283 278.334 299.889 185.588 299.889C92.8425 299.889 17.6572 305.283 17.6572 311.936C17.6572 318.59 92.8425 323.984 185.588 323.984Z" fill="#153D59" fill-opacity="0.1"/>
<defs>
<clipPath id="clip0_938_15746">
<rect width="368.165" height="286.464" fill="white"/>
</clipPath>
</defs>
</svg>
