<svg width="25" height="25" viewBox="0 0 25 25" fill="none" xmlns="http://www.w3.org/2000/svg">
<path d="M14.7147 6.14342V4.42913C14.7147 3.97447 14.5341 3.53844 14.2126 3.21695C13.8911 2.89546 13.4551 2.71484 13.0004 2.71484H11.2861" stroke="white" stroke-width="1.71429" stroke-linecap="round" stroke-linejoin="round"/>
<path d="M7 18.1434H2.71429C2.25963 18.1434 1.82359 17.9628 1.5021 17.6413C1.18061 17.3198 1 16.8838 1 16.4291V4.42913C1 3.97447 1.18061 3.53844 1.5021 3.21695C1.82359 2.89546 2.25963 2.71484 2.71429 2.71484H4.42857" stroke="white" stroke-width="1.71429" stroke-linecap="round" stroke-linejoin="round"/>
<path d="M21.5718 9.57227H13.0004C12.0536 9.57227 11.2861 10.3398 11.2861 11.2866V21.5723C11.2861 22.519 12.0536 23.2866 13.0004 23.2866H21.5718C22.5186 23.2866 23.2861 22.519 23.2861 21.5723V11.2866C23.2861 10.3398 22.5186 9.57227 21.5718 9.57227Z" stroke="white" stroke-width="1.71429" stroke-linecap="round" stroke-linejoin="round"/>
<path d="M11.7143 1H4L4.70286 3.77714C4.74567 3.96302 4.85048 4.12879 5.00003 4.24718C5.14958 4.36558 5.33497 4.42955 5.52571 4.42857H10.1886C10.3793 4.42955 10.5647 4.36558 10.7143 4.24718C10.8638 4.12879 10.9686 3.96302 11.0114 3.77714L11.7143 1Z" stroke="white" stroke-width="1.71429" stroke-linecap="round" stroke-linejoin="round"/>
<path d="M14.7139 14.7148H19.8567" stroke="white" stroke-width="1.71429" stroke-linecap="round" stroke-linejoin="round"/>
<path d="M14.7139 18.1426H19.8567" stroke="white" stroke-width="1.71429" stroke-linecap="round" stroke-linejoin="round"/>
</svg>
