<svg width="23" height="23" viewBox="0 0 23 23" fill="none" xmlns="http://www.w3.org/2000/svg">
<path d="M8.09699 8.09633C10.0566 8.09633 11.6452 6.50776 11.6452 4.54817C11.6452 2.58857 10.0566 1 8.09699 1C6.1374 1 4.54883 2.58857 4.54883 4.54817C4.54883 6.50776 6.1374 8.09633 8.09699 8.09633Z" stroke="white" stroke-width="1.71429" stroke-linecap="round" stroke-linejoin="round"/>
<path d="M9.67333 10.6366C8.63347 10.3965 7.5528 10.3946 6.5121 10.631C5.4714 10.8674 4.4976 11.336 3.66351 12.0017C2.82942 12.6675 2.15661 13.5132 1.69538 14.4756C1.23416 15.438 0.996456 16.4922 1.00004 17.5594V19.9249H9.67333" stroke="white" stroke-width="1.71429" stroke-linecap="round" stroke-linejoin="round"/>
<path d="M17.0377 21.4532C16.8645 21.5158 16.6748 21.5158 16.5015 21.4532C15.1864 20.9322 14.0579 20.0284 13.2622 18.8588C12.4666 17.6892 12.0403 16.3076 12.0387 14.893V12.8272C12.0318 12.7219 12.0474 12.6162 12.0845 12.5174C12.1217 12.4186 12.1795 12.3288 12.2542 12.2542C12.3288 12.1795 12.4186 12.1217 12.5174 12.0845C12.6162 12.0474 12.7219 12.0318 12.8272 12.0387H20.712C20.8174 12.0318 20.923 12.0474 21.0218 12.0845C21.1206 12.1217 21.2104 12.1795 21.285 12.2542C21.3597 12.3288 21.4175 12.4186 21.4547 12.5174C21.4919 12.6162 21.5075 12.7219 21.5005 12.8272V14.893C21.4989 16.3076 21.0727 17.6892 20.277 18.8588C19.4813 20.0284 18.3529 20.9322 17.0377 21.4532V21.4532Z" stroke="white" stroke-width="1.71429" stroke-linecap="round" stroke-linejoin="round"/>
</svg>
