<svg width="20" height="21" viewBox="0 0 20 21" fill="none" xmlns="http://www.w3.org/2000/svg">
<g clip-path="url(#clip0_1704_1176)">
<path d="M17 2.76953H15V1.76953C15 1.46953 14.9 1.26953 14.7 1.06953C14.5 0.869531 14.3 0.769531 14 0.769531C13.7 0.769531 13.5 0.869531 13.3 1.06953C13.1 1.26953 13 1.46953 13 1.76953V2.76953H7V1.76953C7 1.46953 6.9 1.26953 6.7 1.06953C6.5 0.869531 6.3 0.769531 6 0.769531C5.7 0.769531 5.5 0.869531 5.3 1.06953C5.1 1.26953 5 1.46953 5 1.76953V2.76953H3C2.2 2.76953 1.4 3.06953 0.9 3.66953C0.3 4.16953 0 4.96953 0 5.76953V17.7695C0 18.5695 0.3 19.3695 0.9 19.8695C1.4 20.4695 2.2 20.7695 3 20.7695H17C17.8 20.7695 18.6 20.4695 19.1 19.8695C19.7 19.2695 20 18.5695 20 17.7695V5.76953C20 4.96953 19.7 4.16953 19.1 3.66953C18.6 3.06953 17.8 2.76953 17 2.76953ZM18 17.7695C18 18.0695 17.9 18.2695 17.7 18.4695C17.5 18.6695 17.3 18.7695 17 18.7695H3C2.7 18.7695 2.5 18.6695 2.3 18.4695C2.1 18.2695 2 18.0695 2 17.7695V10.7695H18V17.7695ZM18 8.76953H2V5.76953C2 5.46953 2.1 5.26953 2.3 5.06953C2.5 4.86953 2.7 4.76953 3 4.76953H5V5.76953C5 6.06953 5.1 6.26953 5.3 6.46953C5.5 6.66953 5.7 6.76953 6 6.76953C6.3 6.76953 6.5 6.66953 6.7 6.46953C6.9 6.26953 7 6.06953 7 5.76953V4.76953H13V5.76953C13 6.06953 13.1 6.26953 13.3 6.46953C13.5 6.66953 13.7 6.76953 14 6.76953C14.3 6.76953 14.5 6.66953 14.7 6.46953C14.9 6.26953 15 6.06953 15 5.76953V4.76953H17C17.3 4.76953 17.5 4.86953 17.7 5.06953C17.9 5.26953 18 5.46953 18 5.76953V8.76953Z" fill="white"/>
</g>
<defs>
<clipPath id="clip0_1704_1176">
<rect width="20" height="20" fill="white" transform="translate(0 0.769531)"/>
</clipPath>
</defs>
</svg>
