<svg width="21" height="20" viewBox="0 0 21 20" fill="none" xmlns="http://www.w3.org/2000/svg">
<path d="M11.1366 18.7737C10.8205 18.8956 10.4705 18.8956 10.1545 18.7737V18.7737C7.6865 17.806 5.56739 16.1171 4.07344 13.9273C2.57949 11.7374 1.78003 9.14826 1.7793 6.49736V2.50075C1.7793 2.13899 1.92301 1.79204 2.17881 1.53623C2.43462 1.28043 2.78157 1.13672 3.14333 1.13672H18.1477C18.5094 1.13672 18.8564 1.28043 19.1122 1.53623C19.368 1.79204 19.5117 2.13899 19.5117 2.50075V6.48372C19.5137 9.13694 18.7155 11.7291 17.2214 13.9216C15.7273 16.1141 13.6067 17.8051 11.1366 18.7737V18.7737Z" stroke="white" stroke-width="1.71429" stroke-linecap="round" stroke-linejoin="round"/>
<path d="M10.6454 11.369C12.5288 11.369 14.0555 9.84224 14.0555 7.95891C14.0555 6.07557 12.5288 4.54883 10.6454 4.54883C8.7621 4.54883 7.23535 6.07557 7.23535 7.95891C7.23535 9.84224 8.7621 11.369 10.6454 11.369Z" stroke="white" stroke-width="1.71429" stroke-linecap="round" stroke-linejoin="round"/>
<path d="M5.53027 15.7192C6.17029 14.9935 6.9574 14.4123 7.83932 14.0142C8.72124 13.6161 9.67778 13.4102 10.6454 13.4102C11.613 13.4102 12.5695 13.6161 13.4515 14.0142C14.3334 14.4123 15.1205 14.9935 15.7605 15.7192" stroke="white" stroke-width="1.71429" stroke-linecap="round" stroke-linejoin="round"/>
</svg>
