<svg width="18" height="25" viewBox="0 0 18 25" fill="none" xmlns="http://www.w3.org/2000/svg">
<path d="M16.4286 8.71429C16.4286 12.9829 8.71429 23.2857 8.71429 23.2857C8.71429 23.2857 1 12.9829 1 8.71429C1 6.66833 1.81275 4.70617 3.25946 3.25946C4.70617 1.81275 6.66833 1 8.71429 1C10.7602 1 12.7224 1.81275 14.1691 3.25946C15.6158 4.70617 16.4286 6.66833 16.4286 8.71429V8.71429Z" stroke="white" stroke-width="1.71429" stroke-linecap="round" stroke-linejoin="round"/>
<path d="M8.71401 11.2854C10.1342 11.2854 11.2854 10.1342 11.2854 8.71401C11.2854 7.29385 10.1342 6.14258 8.71401 6.14258C7.29385 6.14258 6.14258 7.29385 6.14258 8.71401C6.14258 10.1342 7.29385 11.2854 8.71401 11.2854Z" stroke="white" stroke-width="1.71429" stroke-linecap="round" stroke-linejoin="round"/>
</svg>
