<!-- Generated by IcoMoon.io -->
<svg version="1.1" xmlns="http://www.w3.org/2000/svg" width="32" height="32" viewBox="0 0 32 32">
<title>web_assessment</title>
<path fill="none" stroke="#fff" stroke-linejoin="round" stroke-linecap="round" stroke-miterlimit="4" stroke-width="2.4935" d="M17.129 3.31l3.335 6.732c0.076 0.171 0.195 0.319 0.346 0.429s0.328 0.179 0.514 0.2l7.361 1.091c0.213 0.027 0.414 0.115 0.579 0.252s0.288 0.319 0.354 0.523c0.066 0.205 0.072 0.424 0.018 0.632s-0.166 0.396-0.323 0.543l-5.306 5.264c-0.135 0.127-0.237 0.285-0.296 0.461s-0.072 0.363-0.040 0.546l1.279 7.403c0.037 0.213 0.014 0.432-0.068 0.632s-0.217 0.373-0.392 0.5c-0.175 0.127-0.382 0.202-0.597 0.217s-0.431-0.031-0.621-0.132l-6.627-3.502c-0.17-0.083-0.356-0.127-0.545-0.127s-0.376 0.043-0.545 0.127l-6.627 3.502c-0.191 0.101-0.406 0.147-0.621 0.132s-0.422-0.090-0.597-0.217c-0.175-0.127-0.311-0.3-0.392-0.5s-0.105-0.419-0.068-0.632l1.279-7.487c0.032-0.182 0.019-0.37-0.040-0.546s-0.16-0.334-0.296-0.461l-5.369-5.18c-0.159-0.151-0.271-0.344-0.322-0.557s-0.039-0.436 0.034-0.643c0.073-0.206 0.205-0.387 0.379-0.52s0.383-0.213 0.601-0.23l7.361-1.091c0.186-0.021 0.363-0.089 0.514-0.2s0.27-0.258 0.346-0.429l3.335-6.732c0.091-0.196 0.236-0.362 0.418-0.478s0.394-0.178 0.61-0.178c0.216 0 0.428 0.062 0.61 0.178s0.327 0.282 0.418 0.478v0z"></path>
</svg>
