<!-- Generated by IcoMoon.io -->
<svg version="1.1" xmlns="http://www.w3.org/2000/svg" width="32" height="32" viewBox="0 0 32 32">
<title>web_Details</title>
<path fill="none" stroke="#fff" stroke-linejoin="round" stroke-linecap="round" stroke-miterlimit="4" stroke-width="2.3851" d="M11.87 11.925c2.603 0 4.712-2.11 4.712-4.712s-2.11-4.712-4.712-4.712c-2.603 0-4.712 2.11-4.712 4.712s2.11 4.712 4.712 4.712z"></path>
<path fill="none" stroke="#fff" stroke-linejoin="round" stroke-linecap="round" stroke-miterlimit="4" stroke-width="2.3851" d="M8.729 27.627h-6.283v-3.142c0.017-1.596 0.438-3.162 1.224-4.552s1.911-2.557 3.271-3.394c1.36-0.837 2.909-1.315 4.504-1.391s3.182 0.254 4.615 0.959"></path>
<path fill="none" stroke="#fff" stroke-linejoin="round" stroke-linecap="round" stroke-miterlimit="4" stroke-width="2.3851" d="M29.672 19.256l-9.864 9.864-4.461 0.607 0.628-4.461 9.843-9.864 3.854 3.854z"></path>
</svg>
