<!-- Generated by IcoMoon.io -->
<svg version="1.1" xmlns="http://www.w3.org/2000/svg" width="32" height="32" viewBox="0 0 32 32">
<title>web_logs</title>
<path fill="#fff" d="M24.96 2.9h-17.92c-1.018 0-1.995 0.405-2.715 1.125s-1.125 1.697-1.125 2.715v17.92c0 1.018 0.405 1.995 1.125 2.715s1.697 1.125 2.715 1.125h17.92c1.018 0 1.995-0.404 2.715-1.125s1.125-1.697 1.125-2.715v-17.92c0-1.018-0.405-1.995-1.125-2.715s-1.697-1.125-2.715-1.125zM13.44 5.46h5.12v4.006l-1.856-1.28c-0.209-0.138-0.454-0.211-0.704-0.211s-0.495 0.073-0.704 0.211l-1.856 1.28v-4.006zM26.24 24.66c0 0.339-0.135 0.665-0.375 0.905s-0.566 0.375-0.905 0.375h-17.92c-0.339 0-0.665-0.135-0.905-0.375s-0.375-0.566-0.375-0.905v-17.92c0-0.339 0.135-0.665 0.375-0.905s0.566-0.375 0.905-0.375h3.84v6.4c0.001 0.232 0.064 0.459 0.184 0.657s0.29 0.361 0.495 0.469c0.2 0.103 0.424 0.151 0.649 0.14s0.443-0.082 0.631-0.204l3.162-2.086 3.136 2.086c0.192 0.127 0.416 0.199 0.646 0.21s0.459-0.041 0.662-0.15c0.203-0.109 0.373-0.27 0.492-0.468s0.182-0.423 0.184-0.654v-6.4h3.84c0.339 0 0.665 0.135 0.905 0.375s0.375 0.566 0.375 0.905v17.92z"></path>
</svg>
