<!-- Generated by IcoMoon.io -->
<svg version="1.1" xmlns="http://www.w3.org/2000/svg" width="32" height="32" viewBox="0 0 32 32">
<title>web_Interviews</title>
<path fill="#fff" d="M29.257 19.927c-0.305-1.676-1.371-3.048-2.743-3.962 0.457-0.61 0.762-1.524 0.762-2.286 0-2.286-1.829-3.962-3.962-3.962s-3.962 1.829-3.962 3.962c0 0.762 0.305 1.676 0.762 2.286-1.371 0.914-2.438 2.286-2.743 3.962h-4.419c-0.152-1.981-1.981-3.505-3.962-3.505s-3.81 1.524-3.962 3.505h-5.029v6.248h2.895c-0.152 0.61-0.305 1.219-0.305 1.829v3.505h12.495v-3.505c0-0.61-0.152-1.219-0.305-1.829h7.314v5.333h6.248v-5.333h2.743v-6.248h-1.829zM23.162 17.794c1.371 0 2.743 0.914 3.352 2.133h-6.705c0.61-1.219 1.829-2.133 3.352-2.133zM23.162 15.051c-0.762 0-1.371-0.61-1.371-1.371s0.61-1.371 1.371-1.371c0.762 0 1.371 0.61 1.371 1.371-0.152 0.762-0.61 1.371-1.371 1.371zM12.495 28.003v0.914h-7.162v-0.914c0-1.981 1.524-3.505 3.505-3.505s3.657 1.524 3.657 3.505zM8.838 19.165c0.762 0 1.371 0.61 1.371 1.371s-0.61 1.371-1.371 1.371c-0.762 0-1.219-0.762-1.219-1.524 0-0.61 0.61-1.219 1.219-1.219zM2.743 23.584v-0.914h2.895c-0.457 0.305-0.762 0.61-1.067 0.914h-1.829zM28.495 22.67v0.914h-15.238c-0.305-0.305-0.61-0.61-1.067-0.914h16.305zM24.838 28.917v-2.59h0.914v2.59h-0.914z"></path>
<path fill="#fff" d="M15.086 16.423v-16h-15.086v13.41h9.905l5.181 2.59zM10.667 11.089h-7.924v-7.924h9.752v8.99l-1.829-1.067z"></path>
</svg>
