<!-- Generated by IcoMoon.io -->
<svg version="1.1" xmlns="http://www.w3.org/2000/svg" width="32" height="32" viewBox="0 0 32 32">
<title>web_members</title>
<path fill="#fff" d="M20.301 16.168c0.969-1.040 1.514-2.405 1.53-3.826 0-1.534-0.61-3.006-1.694-4.091s-2.556-1.694-4.091-1.694c-1.534 0-3.006 0.609-4.091 1.694s-1.694 2.556-1.694 4.091c0.016 1.421 0.562 2.786 1.53 3.826-1.349 0.672-2.51 1.668-3.378 2.9s-1.417 2.66-1.596 4.156c-0.045 0.406 0.074 0.813 0.329 1.132s0.627 0.523 1.033 0.567 0.813-0.074 1.131-0.329c0.319-0.255 0.523-0.627 0.567-1.033 0.183-1.483 0.901-2.848 2.020-3.837s2.562-1.536 4.056-1.536 2.936 0.546 4.056 1.536c1.119 0.99 1.838 2.355 2.020 3.837 0.043 0.392 0.235 0.753 0.537 1.007s0.691 0.381 1.085 0.355h0.168c0.401-0.046 0.768-0.249 1.020-0.564s0.37-0.718 0.327-1.119c-0.166-1.488-0.697-2.912-1.546-4.146s-1.99-2.238-3.32-2.925zM16 15.066c-0.539 0-1.065-0.16-1.513-0.459s-0.797-0.725-1.003-1.223-0.26-1.046-0.155-1.574c0.105-0.528 0.365-1.014 0.746-1.395s0.866-0.64 1.395-0.746c0.528-0.105 1.076-0.051 1.574 0.155s0.923 0.555 1.223 1.003c0.299 0.448 0.459 0.975 0.459 1.513 0 0.723-0.287 1.415-0.798 1.926s-1.204 0.798-1.926 0.798zM26.713 0.435h-21.426c-1.218 0-2.385 0.484-3.247 1.345s-1.345 2.029-1.345 3.247v21.426c0 1.218 0.484 2.386 1.345 3.247s2.029 1.345 3.247 1.345h21.426c1.218 0 2.386-0.484 3.247-1.345s1.345-2.029 1.345-3.247v-21.426c0-1.218-0.484-2.385-1.345-3.247s-2.029-1.345-3.247-1.345zM28.243 26.452c0 0.406-0.161 0.795-0.448 1.082s-0.676 0.448-1.082 0.448h-21.426c-0.406 0-0.795-0.161-1.082-0.448s-0.448-0.676-0.448-1.082v-21.426c0-0.406 0.161-0.795 0.448-1.082s0.676-0.448 1.082-0.448h21.426c0.406 0 0.795 0.161 1.082 0.448s0.448 0.676 0.448 1.082v21.426z"></path>
</svg>
